<?xml version="1.0" encoding="UTF-8" standalone="no"?>
<!DOCTYPE svg PUBLIC "-//W3C//DTD SVG 1.1//EN"
 "http://www.w3.org/Graphics/SVG/1.1/DTD/svg11.dtd">
<!-- Generated by graphviz version 2.36.0 (20140111.2315)
 -->
<!-- Title: IControls.h Pages: 1 -->
<!--zoomable 476 -->
<svg id="main" version="1.1" xmlns="http://www.w3.org/2000/svg" xmlns:xlink="http://www.w3.org/1999/xlink" xml:space="preserve" onload="init(evt)">
<style type="text/css"><![CDATA[
.edge:hover path { stroke: red; }
.edge:hover polygon { stroke: red; fill: red; }
]]></style>
<script type="text/javascript"><![CDATA[
var edges = document.getElementsByTagName('g');
if (edges && edges.length) {
  for (var i=0;i<edges.length;i++) {
    if (edges[i].id.substr(0,4)=='edge') {
      edges[i].setAttribute('class','edge');
    }
  }
}
]]></script>
        <defs>
                <circle id="rim" cx="0" cy="0" r="7"/>
                <circle id="rim2" cx="0" cy="0" r="3.5"/>
                <g id="zoomPlus">
                        <use xlink:href="#rim" fill="#404040">
                                <set attributeName="fill" to="#808080" begin="zoomplus.mouseover" end="zoomplus.mouseout"/>
                        </use>
                        <path d="M-4,0h8M0,-4v8" fill="none" stroke="white" stroke-width="1.5" pointer-events="none"/>
                </g>
                <g id="zoomMin">
                        <use xlink:href="#rim" fill="#404040">
                                <set attributeName="fill" to="#808080" begin="zoomminus.mouseover" end="zoomminus.mouseout"/>
                        </use>
                        <path d="M-4,0h8" fill="none" stroke="white" stroke-width="1.5" pointer-events="none"/>
                </g>
                <g id="dirArrow">
                        <path fill="none" stroke="white" stroke-width="1.5" d="M0,-3.0v7 M-2.5,-0.5L0,-3.0L2.5,-0.5"/>
                </g>
               <g id="resetDef">
                       <use xlink:href="#rim2" fill="#404040">
                               <set attributeName="fill" to="#808080" begin="reset.mouseover" end="reset.mouseout"/>
                       </use>
               </g>
        </defs>

<script type="text/javascript">
var viewWidth = 1133;
var viewHeight = 476;
var sectionId = 'dynsection-0';
</script>
<script xlink:href="svgpan.js"/>
<svg id="graph" class="graph">
<g id="viewport">
<title>IControls.h</title>
<polygon fill="white" stroke="none" points="-4,4 -4,-472 1129,-472 1129,4 -4,4"/>
<!-- Node1 -->
<g id="node1" class="node"><title>Node1</title>
<polygon fill="#bfbfbf" stroke="black" points="713.5,-448.5 713.5,-467.5 778.5,-467.5 778.5,-448.5 713.5,-448.5"/>
<text text-anchor="middle" x="746" y="-455.5" font-family="Helvetica,sans-Serif" font-size="10.00">IControls.h</text>
</g>
<!-- Node2 -->
<g id="node2" class="node"><title>Node2</title>
<g id="a_node2"><a xlink:href="_i_control_8h.html" target="_top" xlink:title="The lowest level base class of an IGraphics control. ">
<polygon fill="white" stroke="black" points="716.5,-392.5 716.5,-411.5 775.5,-411.5 775.5,-392.5 716.5,-392.5"/>
<text text-anchor="middle" x="746" y="-399.5" font-family="Helvetica,sans-Serif" font-size="10.00">IControl.h</text>
</a>
</g>
</g>
<!-- Node1&#45;&gt;Node2 -->
<g id="edge1" class="edge"><title>Node1&#45;&gt;Node2</title>
<path fill="none" stroke="midnightblue" d="M746,-448.083C746,-441.006 746,-430.861 746,-421.986"/>
<polygon fill="midnightblue" stroke="midnightblue" points="749.5,-421.751 746,-411.751 742.5,-421.751 749.5,-421.751"/>
</g>
<!-- Node3 -->
<g id="node3" class="node"><title>Node3</title>
<g id="a_node3"><a xlink:href="_i_plug_base_graphics_8h.html" target="_top" xlink:title="An IPlugBase class for an IPlug plug&#45;in that uses IGraphics for it&#39;s UI. ">
<polygon fill="white" stroke="black" points="453.5,-336.5 453.5,-355.5 562.5,-355.5 562.5,-336.5 453.5,-336.5"/>
<text text-anchor="middle" x="508" y="-343.5" font-family="Helvetica,sans-Serif" font-size="10.00">IPlugBaseGraphics.h</text>
</a>
</g>
</g>
<!-- Node2&#45;&gt;Node3 -->
<g id="edge2" class="edge"><title>Node2&#45;&gt;Node3</title>
<path fill="none" stroke="midnightblue" d="M716.338,-394.27C675.97,-385.111 603.279,-368.618 555.329,-357.739"/>
<polygon fill="midnightblue" stroke="midnightblue" points="556.02,-354.306 545.493,-355.507 554.471,-361.133 556.02,-354.306"/>
</g>
<!-- Node26 -->
<g id="node26" class="node"><title>Node26</title>
<g id="a_node26"><a xlink:href="_i_graphics_8h.html" target="_top" xlink:title="The lowest level base class of an IGraphics context. ">
<polygon fill="white" stroke="black" points="712.5,-280.5 712.5,-299.5 779.5,-299.5 779.5,-280.5 712.5,-280.5"/>
<text text-anchor="middle" x="746" y="-287.5" font-family="Helvetica,sans-Serif" font-size="10.00">IGraphics.h</text>
</a>
</g>
</g>
<!-- Node2&#45;&gt;Node26 -->
<g id="edge43" class="edge"><title>Node2&#45;&gt;Node26</title>
<path fill="none" stroke="midnightblue" d="M742.157,-392.368C738.809,-374.617 738.353,-333.666 740.789,-309.597"/>
<polygon fill="midnightblue" stroke="midnightblue" points="744.27,-309.975 742.165,-299.591 737.335,-309.022 744.27,-309.975"/>
</g>
<!-- Node4 -->
<g id="node4" class="node"><title>Node4</title>
<g id="a_node4"><a xlink:href="_i_plug_base_8h.html" target="_top" xlink:title="The lowest level base class of an IPlug plug&#45;in. ">
<polygon fill="white" stroke="black" points="326,-280.5 326,-299.5 396,-299.5 396,-280.5 326,-280.5"/>
<text text-anchor="middle" x="361" y="-287.5" font-family="Helvetica,sans-Serif" font-size="10.00">IPlugBase.h</text>
</a>
</g>
</g>
<!-- Node3&#45;&gt;Node4 -->
<g id="edge3" class="edge"><title>Node3&#45;&gt;Node4</title>
<path fill="none" stroke="midnightblue" d="M484.707,-336.444C460.193,-327.438 421.404,-313.189 393.8,-303.049"/>
<polygon fill="midnightblue" stroke="midnightblue" points="394.777,-299.679 384.184,-299.516 392.363,-306.25 394.777,-299.679"/>
</g>
<!-- Node5 -->
<g id="node5" class="node"><title>Node5</title>
<polygon fill="white" stroke="#bfbfbf" points="562,-0.5 562,-19.5 608,-19.5 608,-0.5 562,-0.5"/>
<text text-anchor="middle" x="585" y="-7.5" font-family="Helvetica,sans-Serif" font-size="10.00">cstring</text>
</g>
<!-- Node4&#45;&gt;Node5 -->
<g id="edge4" class="edge"><title>Node4&#45;&gt;Node5</title>
<path fill="none" stroke="midnightblue" d="M396.281,-289.655C519.754,-291.017 925,-287.241 925,-179 925,-179 925,-179 925,-121 925,-56.9027 703.49,-24.6134 618.056,-14.5435"/>
<polygon fill="midnightblue" stroke="midnightblue" points="618.437,-11.0642 608.102,-13.3987 617.637,-18.0184 618.437,-11.0642"/>
</g>
<!-- Node6 -->
<g id="node6" class="node"><title>Node6</title>
<polygon fill="white" stroke="#bfbfbf" points="104,-56.5 104,-75.5 150,-75.5 150,-56.5 104,-56.5"/>
<text text-anchor="middle" x="127" y="-63.5" font-family="Helvetica,sans-Serif" font-size="10.00">cstdint</text>
</g>
<!-- Node4&#45;&gt;Node6 -->
<g id="edge5" class="edge"><title>Node4&#45;&gt;Node6</title>
<path fill="none" stroke="midnightblue" d="M325.964,-286.588C268.772,-281.945 158.914,-269.848 131,-244 86.783,-203.055 83.9138,-170.076 100,-112 102.792,-101.921 108.509,-91.832 113.967,-83.7694"/>
<polygon fill="midnightblue" stroke="midnightblue" points="116.825,-85.7899 119.849,-75.6357 111.153,-81.6881 116.825,-85.7899"/>
</g>
<!-- Node7 -->
<g id="node7" class="node"><title>Node7</title>
<polygon fill="white" stroke="#bfbfbf" points="695.5,-56.5 695.5,-75.5 744.5,-75.5 744.5,-56.5 695.5,-56.5"/>
<text text-anchor="middle" x="720" y="-63.5" font-family="Helvetica,sans-Serif" font-size="10.00">ptrlist.h</text>
</g>
<!-- Node4&#45;&gt;Node7 -->
<g id="edge6" class="edge"><title>Node4&#45;&gt;Node7</title>
<path fill="none" stroke="midnightblue" d="M396.262,-287.326C484.429,-282.782 708.984,-268.856 731,-244 770.591,-199.302 743.883,-120.746 728.607,-85.2835"/>
<polygon fill="midnightblue" stroke="midnightblue" points="731.612,-83.4319 724.319,-75.7467 725.227,-86.3025 731.612,-83.4319"/>
</g>
<!-- Node8 -->
<g id="node8" class="node"><title>Node8</title>
<polygon fill="white" stroke="#bfbfbf" points="152,-224.5 152,-243.5 204,-243.5 204,-224.5 152,-224.5"/>
<text text-anchor="middle" x="178" y="-231.5" font-family="Helvetica,sans-Serif" font-size="10.00">mutex.h</text>
</g>
<!-- Node4&#45;&gt;Node8 -->
<g id="edge7" class="edge"><title>Node4&#45;&gt;Node8</title>
<path fill="none" stroke="midnightblue" d="M332.003,-280.444C299.99,-270.997 248.424,-255.781 213.887,-245.59"/>
<polygon fill="midnightblue" stroke="midnightblue" points="214.775,-242.202 204.193,-242.729 212.793,-248.916 214.775,-242.202"/>
</g>
<!-- Node9 -->
<g id="node9" class="node"><title>Node9</title>
<g id="a_node9"><a xlink:href="_i_plug_platform_8h.html" target="_top" xlink:title="Include to get consistently named preprocessor macros for different platforms and logging functionali...">
<polygon fill="white" stroke="black" points="316,-168.5 316,-187.5 400,-187.5 400,-168.5 316,-168.5"/>
<text text-anchor="middle" x="358" y="-175.5" font-family="Helvetica,sans-Serif" font-size="10.00">IPlugPlatform.h</text>
</a>
</g>
</g>
<!-- Node4&#45;&gt;Node9 -->
<g id="edge8" class="edge"><title>Node4&#45;&gt;Node9</title>
<path fill="none" stroke="midnightblue" d="M375.408,-280.316C392.96,-268.535 419.098,-246.376 409,-224 403.384,-211.555 392.437,-201.172 382.121,-193.527"/>
<polygon fill="midnightblue" stroke="midnightblue" points="383.958,-190.543 373.734,-187.764 379.994,-196.312 383.958,-190.543"/>
</g>
<!-- Node17 -->
<g id="node17" class="node"><title>Node17</title>
<g id="a_node17"><a xlink:href="_i_plug_utilities_8h.html" target="_top" xlink:title="Utility functions and macros. ">
<polygon fill="white" stroke="black" points="168,-56.5 168,-75.5 248,-75.5 248,-56.5 168,-56.5"/>
<text text-anchor="middle" x="208" y="-63.5" font-family="Helvetica,sans-Serif" font-size="10.00">IPlugUtilities.h</text>
</a>
</g>
</g>
<!-- Node4&#45;&gt;Node17 -->
<g id="edge37" class="edge"><title>Node4&#45;&gt;Node17</title>
<path fill="none" stroke="midnightblue" d="M325.658,-286.964C269.932,-282.933 165.639,-271.789 143,-244 123.144,-219.627 140.28,-236.329 183,-132 189.371,-116.44 196.198,-98.605 201.105,-85.5575"/>
<polygon fill="midnightblue" stroke="midnightblue" points="204.5,-86.4713 204.723,-75.8789 197.943,-84.0201 204.5,-86.4713"/>
</g>
<!-- Node20 -->
<g id="node20" class="node"><title>Node20</title>
<g id="a_node20"><a xlink:href="_i_plug_constants_8h.html" target="_top" xlink:title="Constant definitions, magic numbers. ">
<polygon fill="white" stroke="black" points="11,-0.5 11,-19.5 103,-19.5 103,-0.5 11,-0.5"/>
<text text-anchor="middle" x="57" y="-7.5" font-family="Helvetica,sans-Serif" font-size="10.00">IPlugConstants.h</text>
</a>
</g>
</g>
<!-- Node4&#45;&gt;Node20 -->
<g id="edge26" class="edge"><title>Node4&#45;&gt;Node20</title>
<path fill="none" stroke="midnightblue" d="M325.729,-285.84C234.892,-276.734 0,-246.648 0,-179 0,-179 0,-179 0,-121 0,-84.3005 25.321,-47.6567 42.2099,-27.2973"/>
<polygon fill="midnightblue" stroke="midnightblue" points="44.9535,-29.475 48.8333,-19.6161 39.6522,-24.9037 44.9535,-29.475"/>
</g>
<!-- Node21 -->
<g id="node21" class="node"><title>Node21</title>
<g id="a_node21"><a xlink:href="_i_plug_structs_8h_source.html" target="_top" xlink:title="IPlugStructs.h">
<polygon fill="white" stroke="black" points="321.5,-224.5 321.5,-243.5 400.5,-243.5 400.5,-224.5 321.5,-224.5"/>
<text text-anchor="middle" x="361" y="-231.5" font-family="Helvetica,sans-Serif" font-size="10.00">IPlugStructs.h</text>
</a>
</g>
</g>
<!-- Node4&#45;&gt;Node21 -->
<g id="edge27" class="edge"><title>Node4&#45;&gt;Node21</title>
<path fill="none" stroke="midnightblue" d="M361,-280.083C361,-273.006 361,-262.861 361,-253.986"/>
<polygon fill="midnightblue" stroke="midnightblue" points="364.5,-253.751 361,-243.751 357.5,-253.751 364.5,-253.751"/>
</g>
<!-- Node24 -->
<g id="node24" class="node"><title>Node24</title>
<g id="a_node24"><a xlink:href="_i_plug_parameter_8h_source.html" target="_top" xlink:title="IPlugParameter.h">
<polygon fill="white" stroke="black" points="415,-112.5 415,-131.5 507,-131.5 507,-112.5 415,-112.5"/>
<text text-anchor="middle" x="461" y="-119.5" font-family="Helvetica,sans-Serif" font-size="10.00">IPlugParameter.h</text>
</a>
</g>
</g>
<!-- Node4&#45;&gt;Node24 -->
<g id="edge38" class="edge"><title>Node4&#45;&gt;Node24</title>
<path fill="none" stroke="midnightblue" d="M380.181,-280.31C409.123,-265.947 462.633,-234.178 482,-188 488.644,-172.16 481.047,-153.436 473.197,-140.163"/>
<polygon fill="midnightblue" stroke="midnightblue" points="476.011,-138.07 467.636,-131.58 470.136,-141.876 476.011,-138.07"/>
</g>
<!-- Node25 -->
<g id="node25" class="node"><title>Node25</title>
<g id="a_node25"><a xlink:href="_n_chan_delay_8h_source.html" target="_top" xlink:title="NChanDelay.h">
<polygon fill="white" stroke="black" points="222.5,-224.5 222.5,-243.5 303.5,-243.5 303.5,-224.5 222.5,-224.5"/>
<text text-anchor="middle" x="263" y="-231.5" font-family="Helvetica,sans-Serif" font-size="10.00">NChanDelay.h</text>
</a>
</g>
</g>
<!-- Node4&#45;&gt;Node25 -->
<g id="edge42" class="edge"><title>Node4&#45;&gt;Node25</title>
<path fill="none" stroke="midnightblue" d="M345.255,-280.324C329.681,-271.743 305.623,-258.486 287.541,-248.522"/>
<polygon fill="midnightblue" stroke="midnightblue" points="289.154,-245.415 278.706,-243.655 285.776,-251.546 289.154,-245.415"/>
</g>
<!-- Node10 -->
<g id="node10" class="node"><title>Node10</title>
<g id="a_node10"><a xlink:href="_i_plug_logger_8h_source.html" target="_top" xlink:title="IPlugLogger.h">
<polygon fill="white" stroke="black" points="319.5,-112.5 319.5,-131.5 396.5,-131.5 396.5,-112.5 319.5,-112.5"/>
<text text-anchor="middle" x="358" y="-119.5" font-family="Helvetica,sans-Serif" font-size="10.00">IPlugLogger.h</text>
</a>
</g>
</g>
<!-- Node9&#45;&gt;Node10 -->
<g id="edge9" class="edge"><title>Node9&#45;&gt;Node10</title>
<path fill="none" stroke="midnightblue" d="M358,-168.083C358,-161.006 358,-150.861 358,-141.986"/>
<polygon fill="midnightblue" stroke="midnightblue" points="361.5,-141.751 358,-131.751 354.5,-141.751 361.5,-141.751"/>
</g>
<!-- Node10&#45;&gt;Node5 -->
<g id="edge14" class="edge"><title>Node10&#45;&gt;Node5</title>
<path fill="none" stroke="midnightblue" d="M378.277,-112.371C398.782,-103.55 431.313,-89.2961 459,-76 463.969,-73.6138 523.693,-42.733 559.1,-24.409"/>
<polygon fill="midnightblue" stroke="midnightblue" points="561.104,-27.3128 568.376,-19.6078 557.886,-21.0962 561.104,-27.3128"/>
</g>
<!-- Node10&#45;&gt;Node6 -->
<g id="edge13" class="edge"><title>Node10&#45;&gt;Node6</title>
<path fill="none" stroke="midnightblue" d="M319.338,-112.878C281.178,-104.724 220.957,-91.488 159.846,-76.1168"/>
<polygon fill="midnightblue" stroke="midnightblue" points="160.587,-72.694 150.034,-73.632 158.869,-79.4798 160.587,-72.694"/>
</g>
<!-- Node11 -->
<g id="node11" class="node"><title>Node11</title>
<polygon fill="white" stroke="#bfbfbf" points="302.5,-0.5 302.5,-19.5 345.5,-19.5 345.5,-0.5 302.5,-0.5"/>
<text text-anchor="middle" x="324" y="-7.5" font-family="Helvetica,sans-Serif" font-size="10.00">cstdio</text>
</g>
<!-- Node10&#45;&gt;Node11 -->
<g id="edge10" class="edge"><title>Node10&#45;&gt;Node11</title>
<path fill="none" stroke="midnightblue" d="M352.001,-112.484C346.163,-103.75 337.53,-89.563 333,-76 327.976,-60.9565 325.754,-43.0517 324.773,-29.8467"/>
<polygon fill="midnightblue" stroke="midnightblue" points="328.255,-29.4265 324.191,-19.6421 321.266,-29.8253 328.255,-29.4265"/>
</g>
<!-- Node12 -->
<g id="node12" class="node"><title>Node12</title>
<polygon fill="white" stroke="#bfbfbf" points="238,-0.5 238,-19.5 284,-19.5 284,-0.5 238,-0.5"/>
<text text-anchor="middle" x="261" y="-7.5" font-family="Helvetica,sans-Serif" font-size="10.00">cctype</text>
</g>
<!-- Node10&#45;&gt;Node12 -->
<g id="edge11" class="edge"><title>Node10&#45;&gt;Node12</title>
<path fill="none" stroke="midnightblue" d="M350.389,-112.368C334.239,-94.0547 296.316,-51.0489 275.429,-27.3624"/>
<polygon fill="midnightblue" stroke="midnightblue" points="277.815,-24.7769 268.576,-19.5914 272.565,-29.4067 277.815,-24.7769"/>
</g>
<!-- Node13 -->
<g id="node13" class="node"><title>Node13</title>
<polygon fill="white" stroke="#bfbfbf" points="342.5,-56.5 342.5,-75.5 391.5,-75.5 391.5,-56.5 342.5,-56.5"/>
<text text-anchor="middle" x="367" y="-63.5" font-family="Helvetica,sans-Serif" font-size="10.00">cstdarg</text>
</g>
<!-- Node10&#45;&gt;Node13 -->
<g id="edge12" class="edge"><title>Node10&#45;&gt;Node13</title>
<path fill="none" stroke="midnightblue" d="M359.486,-112.083C360.679,-104.927 362.394,-94.6353 363.885,-85.6911"/>
<polygon fill="midnightblue" stroke="midnightblue" points="367.35,-86.1904 365.541,-75.7511 360.445,-85.0396 367.35,-86.1904"/>
</g>
<!-- Node14 -->
<g id="node14" class="node"><title>Node14</title>
<polygon fill="white" stroke="#bfbfbf" points="409.5,-56.5 409.5,-75.5 450.5,-75.5 450.5,-56.5 409.5,-56.5"/>
<text text-anchor="middle" x="430" y="-63.5" font-family="Helvetica,sans-Serif" font-size="10.00">ctime</text>
</g>
<!-- Node10&#45;&gt;Node14 -->
<g id="edge15" class="edge"><title>Node10&#45;&gt;Node14</title>
<path fill="none" stroke="midnightblue" d="M369.568,-112.324C380.42,-104.185 396.881,-91.8395 409.883,-82.0874"/>
<polygon fill="midnightblue" stroke="midnightblue" points="412.321,-84.6339 418.221,-75.8339 408.121,-79.0339 412.321,-84.6339"/>
</g>
<!-- Node15 -->
<g id="node15" class="node"><title>Node15</title>
<polygon fill="white" stroke="#bfbfbf" points="507.5,-56.5 507.5,-75.5 556.5,-75.5 556.5,-56.5 507.5,-56.5"/>
<text text-anchor="middle" x="532" y="-63.5" font-family="Helvetica,sans-Serif" font-size="10.00">cassert</text>
</g>
<!-- Node10&#45;&gt;Node15 -->
<g id="edge16" class="edge"><title>Node10&#45;&gt;Node15</title>
<path fill="none" stroke="midnightblue" d="M385.571,-112.444C415.966,-103.011 464.899,-87.8245 497.736,-77.6337"/>
<polygon fill="midnightblue" stroke="midnightblue" points="498.858,-80.9501 507.371,-74.6433 496.783,-74.2647 498.858,-80.9501"/>
</g>
<!-- Node16 -->
<g id="node16" class="node"><title>Node16</title>
<polygon fill="white" stroke="#bfbfbf" points="613,-56.5 613,-75.5 677,-75.5 677,-56.5 613,-56.5"/>
<text text-anchor="middle" x="645" y="-63.5" font-family="Helvetica,sans-Serif" font-size="10.00">wdlstring.h</text>
</g>
<!-- Node10&#45;&gt;Node16 -->
<g id="edge17" class="edge"><title>Node10&#45;&gt;Node16</title>
<path fill="none" stroke="midnightblue" d="M396.706,-113.717C450.433,-103.608 547.253,-85.3914 602.786,-74.9427"/>
<polygon fill="midnightblue" stroke="midnightblue" points="603.475,-78.3747 612.655,-73.0858 602.18,-71.4954 603.475,-78.3747"/>
</g>
<!-- Node10&#45;&gt;Node17 -->
<g id="edge18" class="edge"><title>Node10&#45;&gt;Node17</title>
<path fill="none" stroke="midnightblue" d="M334.232,-112.444C309.107,-103.399 269.289,-89.064 241.1,-78.9158"/>
<polygon fill="midnightblue" stroke="midnightblue" points="242.251,-75.6106 231.657,-75.5164 239.88,-82.1968 242.251,-75.6106"/>
</g>
<!-- Node17&#45;&gt;Node5 -->
<g id="edge22" class="edge"><title>Node17&#45;&gt;Node5</title>
<path fill="none" stroke="midnightblue" d="M248.346,-59.2211C323.327,-48.481 482.797,-25.6392 551.911,-15.7396"/>
<polygon fill="midnightblue" stroke="midnightblue" points="552.414,-19.2033 561.817,-14.3207 551.421,-12.274 552.414,-19.2033"/>
</g>
<!-- Node17&#45;&gt;Node9 -->
<g id="edge25" class="edge"><title>Node17&#45;&gt;Node9</title>
<path fill="none" stroke="midnightblue" d="M219.716,-75.5914C245.296,-94.3501 306.388,-139.151 338.114,-162.417"/>
<polygon fill="midnightblue" stroke="midnightblue" points="336.096,-165.277 346.23,-168.368 340.235,-159.632 336.096,-165.277"/>
</g>
<!-- Node17&#45;&gt;Node11 -->
<g id="edge20" class="edge"><title>Node17&#45;&gt;Node11</title>
<path fill="none" stroke="midnightblue" d="M226.381,-56.4435C245.216,-47.6751 274.731,-33.9355 296.379,-23.8579"/>
<polygon fill="midnightblue" stroke="midnightblue" points="298.117,-26.9098 305.705,-19.5164 295.162,-20.5637 298.117,-26.9098"/>
</g>
<!-- Node17&#45;&gt;Node12 -->
<g id="edge23" class="edge"><title>Node17&#45;&gt;Node12</title>
<path fill="none" stroke="midnightblue" d="M216.752,-56.083C224.47,-48.2195 235.905,-36.5688 245.217,-27.0813"/>
<polygon fill="midnightblue" stroke="midnightblue" points="247.904,-29.3396 252.411,-19.7511 242.908,-24.4363 247.904,-29.3396"/>
</g>
<!-- Node18 -->
<g id="node18" class="node"><title>Node18</title>
<polygon fill="white" stroke="#bfbfbf" points="827,-0.5 827,-19.5 871,-19.5 871,-0.5 827,-0.5"/>
<text text-anchor="middle" x="849" y="-7.5" font-family="Helvetica,sans-Serif" font-size="10.00">cmath</text>
</g>
<!-- Node17&#45;&gt;Node18 -->
<g id="edge19" class="edge"><title>Node17&#45;&gt;Node18</title>
<path fill="none" stroke="midnightblue" d="M248.097,-61.6221C365.882,-51.6995 709.274,-22.771 816.573,-13.7318"/>
<polygon fill="midnightblue" stroke="midnightblue" points="817.103,-17.1996 826.774,-12.8724 816.515,-10.2243 817.103,-17.1996"/>
</g>
<!-- Node19 -->
<g id="node19" class="node"><title>Node19</title>
<polygon fill="white" stroke="#bfbfbf" points="174.5,-0.5 174.5,-19.5 219.5,-19.5 219.5,-0.5 174.5,-0.5"/>
<text text-anchor="middle" x="197" y="-7.5" font-family="Helvetica,sans-Serif" font-size="10.00">cstdlib</text>
</g>
<!-- Node17&#45;&gt;Node19 -->
<g id="edge21" class="edge"><title>Node17&#45;&gt;Node19</title>
<path fill="none" stroke="midnightblue" d="M206.184,-56.083C204.726,-48.9272 202.629,-38.6353 200.807,-29.6911"/>
<polygon fill="midnightblue" stroke="midnightblue" points="204.208,-28.8512 198.783,-19.7511 197.349,-30.2485 204.208,-28.8512"/>
</g>
<!-- Node17&#45;&gt;Node20 -->
<g id="edge24" class="edge"><title>Node17&#45;&gt;Node20</title>
<path fill="none" stroke="midnightblue" d="M184.074,-56.4435C158.781,-47.3986 118.698,-33.064 90.3202,-22.9158"/>
<polygon fill="midnightblue" stroke="midnightblue" points="91.4091,-19.5882 80.8145,-19.5164 89.0519,-26.1794 91.4091,-19.5882"/>
</g>
<!-- Node21&#45;&gt;Node9 -->
<g id="edge31" class="edge"><title>Node21&#45;&gt;Node9</title>
<path fill="none" stroke="midnightblue" d="M360.505,-224.083C360.111,-217.006 359.548,-206.861 359.055,-197.986"/>
<polygon fill="midnightblue" stroke="midnightblue" points="362.536,-197.542 358.486,-187.751 355.546,-197.93 362.536,-197.542"/>
</g>
<!-- Node21&#45;&gt;Node16 -->
<g id="edge29" class="edge"><title>Node21&#45;&gt;Node16</title>
<path fill="none" stroke="midnightblue" d="M344.691,-224.347C323.223,-211.86 290.08,-188.084 307,-168 367.73,-95.9151 426.488,-161.53 516,-132 555.279,-119.042 597.49,-95.801 622.552,-80.9055"/>
<polygon fill="midnightblue" stroke="midnightblue" points="624.52,-83.8058 631.275,-75.6441 620.905,-77.8117 624.52,-83.8058"/>
</g>
<!-- Node21&#45;&gt;Node20 -->
<g id="edge30" class="edge"><title>Node21&#45;&gt;Node20</title>
<path fill="none" stroke="midnightblue" d="M329.677,-224.476C267.782,-207.075 132.938,-166.216 100,-132 72.3902,-103.318 62.376,-55.7741 58.8441,-29.6388"/>
<polygon fill="midnightblue" stroke="midnightblue" points="62.3048,-29.0984 57.666,-19.5731 55.3523,-29.9122 62.3048,-29.0984"/>
</g>
<!-- Node22 -->
<g id="node22" class="node"><title>Node22</title>
<polygon fill="white" stroke="#bfbfbf" points="418,-168.5 418,-187.5 474,-187.5 474,-168.5 418,-168.5"/>
<text text-anchor="middle" x="446" y="-175.5" font-family="Helvetica,sans-Serif" font-size="10.00">algorithm</text>
</g>
<!-- Node21&#45;&gt;Node22 -->
<g id="edge28" class="edge"><title>Node21&#45;&gt;Node22</title>
<path fill="none" stroke="midnightblue" d="M374.657,-224.324C387.916,-215.9 408.268,-202.971 423.846,-193.074"/>
<polygon fill="midnightblue" stroke="midnightblue" points="425.813,-195.971 432.377,-187.655 422.06,-190.063 425.813,-195.971"/>
</g>
<!-- Node23 -->
<g id="node23" class="node"><title>Node23</title>
<g id="a_node23"><a xlink:href="_i_plug_midi_8h_source.html" target="_top" xlink:title="IPlugMidi.h">
<polygon fill="white" stroke="black" points="109.5,-112.5 109.5,-131.5 174.5,-131.5 174.5,-112.5 109.5,-112.5"/>
<text text-anchor="middle" x="142" y="-119.5" font-family="Helvetica,sans-Serif" font-size="10.00">IPlugMidi.h</text>
</a>
</g>
</g>
<!-- Node21&#45;&gt;Node23 -->
<g id="edge32" class="edge"><title>Node21&#45;&gt;Node23</title>
<path fill="none" stroke="midnightblue" d="M343.815,-224.368C305.675,-205.211 213.743,-159.036 168.314,-136.217"/>
<polygon fill="midnightblue" stroke="midnightblue" points="169.612,-132.952 159.105,-131.591 166.47,-139.208 169.612,-132.952"/>
</g>
<!-- Node23&#45;&gt;Node6 -->
<g id="edge34" class="edge"><title>Node23&#45;&gt;Node6</title>
<path fill="none" stroke="midnightblue" d="M139.523,-112.083C137.514,-104.849 134.614,-94.4087 132.11,-85.3968"/>
<polygon fill="midnightblue" stroke="midnightblue" points="135.48,-84.4495 129.431,-75.7511 128.735,-86.323 135.48,-84.4495"/>
</g>
<!-- Node23&#45;&gt;Node15 -->
<g id="edge33" class="edge"><title>Node23&#45;&gt;Node15</title>
<path fill="none" stroke="midnightblue" d="M174.58,-116.489C247.168,-106.438 421.681,-82.275 496.722,-71.8847"/>
<polygon fill="midnightblue" stroke="midnightblue" points="497.622,-75.2935 507.048,-70.4549 496.662,-68.3596 497.622,-75.2935"/>
</g>
<!-- Node23&#45;&gt;Node17 -->
<g id="edge36" class="edge"><title>Node23&#45;&gt;Node17</title>
<path fill="none" stroke="midnightblue" d="M152.604,-112.324C162.456,-104.263 177.351,-92.0765 189.215,-82.3695"/>
<polygon fill="midnightblue" stroke="midnightblue" points="191.68,-84.8752 197.203,-75.8339 187.247,-79.4575 191.68,-84.8752"/>
</g>
<!-- Node23&#45;&gt;Node20 -->
<g id="edge35" class="edge"><title>Node23&#45;&gt;Node20</title>
<path fill="none" stroke="midnightblue" d="M131.472,-112.425C121.369,-103.869 106.057,-90.0115 95,-76 83.3849,-61.2813 72.8561,-42.6504 65.8427,-29.1121"/>
<polygon fill="midnightblue" stroke="midnightblue" points="68.8282,-27.2589 61.2049,-19.9011 62.576,-30.4069 68.8282,-27.2589"/>
</g>
<!-- Node24&#45;&gt;Node5 -->
<g id="edge39" class="edge"><title>Node24&#45;&gt;Node5</title>
<path fill="none" stroke="midnightblue" d="M500.654,-112.491C522.401,-105.919 548.264,-94.6838 565,-76 576.437,-63.2315 581.335,-44.039 583.431,-29.8161"/>
<polygon fill="midnightblue" stroke="midnightblue" points="586.93,-30.0243 584.584,-19.6926 579.975,-29.2326 586.93,-30.0243"/>
</g>
<!-- Node24&#45;&gt;Node16 -->
<g id="edge40" class="edge"><title>Node24&#45;&gt;Node16</title>
<path fill="none" stroke="midnightblue" d="M490.155,-112.444C521.513,-103.241 571.531,-88.5617 606.197,-78.3879"/>
<polygon fill="midnightblue" stroke="midnightblue" points="607.371,-81.6909 615.981,-75.5164 605.4,-74.9742 607.371,-81.6909"/>
</g>
<!-- Node24&#45;&gt;Node17 -->
<g id="edge41" class="edge"><title>Node24&#45;&gt;Node17</title>
<path fill="none" stroke="midnightblue" d="M420.911,-112.444C376.684,-103.004 305.461,-87.802 257.715,-77.6111"/>
<polygon fill="midnightblue" stroke="midnightblue" points="258.411,-74.181 247.901,-75.5164 256.95,-81.0268 258.411,-74.181"/>
</g>
<!-- Node26&#45;&gt;Node2 -->
<g id="edge63" class="edge"><title>Node26&#45;&gt;Node2</title>
<path fill="none" stroke="midnightblue" d="M749.835,-299.591C753.188,-317.308 753.648,-358.254 751.216,-382.348"/>
<polygon fill="midnightblue" stroke="midnightblue" points="747.733,-381.986 749.843,-392.368 754.668,-382.936 747.733,-381.986"/>
</g>
<!-- Node27 -->
<g id="node27" class="node"><title>Node27</title>
<polygon fill="white" stroke="#bfbfbf" points="953,-224.5 953,-243.5 1009,-243.5 1009,-224.5 953,-224.5"/>
<text text-anchor="middle" x="981" y="-231.5" font-family="Helvetica,sans-Serif" font-size="10.00">ft2build.h</text>
</g>
<!-- Node26&#45;&gt;Node27 -->
<g id="edge44" class="edge"><title>Node26&#45;&gt;Node27</title>
<path fill="none" stroke="midnightblue" d="M779.67,-281.263C822.881,-271.334 897.654,-254.152 942.903,-243.754"/>
<polygon fill="midnightblue" stroke="midnightblue" points="943.948,-247.105 952.911,-241.455 942.381,-240.283 943.948,-247.105"/>
</g>
<!-- Node28 -->
<g id="node28" class="node"><title>Node28</title>
<g id="a_node28"><a xlink:href="_i_graphics_constants_8h_source.html" target="_top" xlink:title="IGraphicsConstants.h">
<polygon fill="white" stroke="black" points="495,-224.5 495,-243.5 607,-243.5 607,-224.5 495,-224.5"/>
<text text-anchor="middle" x="551" y="-231.5" font-family="Helvetica,sans-Serif" font-size="10.00">IGraphicsConstants.h</text>
</a>
</g>
</g>
<!-- Node26&#45;&gt;Node28 -->
<g id="edge45" class="edge"><title>Node26&#45;&gt;Node28</title>
<path fill="none" stroke="midnightblue" d="M715.102,-280.444C681.726,-271.201 628.406,-256.436 591.651,-246.257"/>
<polygon fill="midnightblue" stroke="midnightblue" points="592.325,-242.812 581.754,-243.516 590.457,-249.558 592.325,-242.812"/>
</g>
<!-- Node29 -->
<g id="node29" class="node"><title>Node29</title>
<g id="a_node29"><a xlink:href="_i_graphics_structs_8h_source.html" target="_top" xlink:title="IGraphicsStructs.h">
<polygon fill="white" stroke="black" points="625,-224.5 625,-243.5 723,-243.5 723,-224.5 625,-224.5"/>
<text text-anchor="middle" x="674" y="-231.5" font-family="Helvetica,sans-Serif" font-size="10.00">IGraphicsStructs.h</text>
</a>
</g>
</g>
<!-- Node26&#45;&gt;Node29 -->
<g id="edge47" class="edge"><title>Node26&#45;&gt;Node29</title>
<path fill="none" stroke="midnightblue" d="M734.432,-280.324C723.58,-272.185 707.119,-259.839 694.117,-250.087"/>
<polygon fill="midnightblue" stroke="midnightblue" points="695.879,-247.034 685.779,-243.834 691.679,-252.634 695.879,-247.034"/>
</g>
<!-- Node31 -->
<g id="node31" class="node"><title>Node31</title>
<g id="a_node31"><a xlink:href="_i_graphics_utilites_8h_source.html" target="_top" xlink:title="IGraphicsUtilites.h">
<polygon fill="white" stroke="black" points="1027,-224.5 1027,-243.5 1125,-243.5 1125,-224.5 1027,-224.5"/>
<text text-anchor="middle" x="1076" y="-231.5" font-family="Helvetica,sans-Serif" font-size="10.00">IGraphicsUtilites.h</text>
</a>
</g>
</g>
<!-- Node26&#45;&gt;Node31 -->
<g id="edge55" class="edge"><title>Node26&#45;&gt;Node31</title>
<path fill="none" stroke="midnightblue" d="M779.765,-283.475C835.582,-274.341 947.784,-255.981 1016.95,-244.663"/>
<polygon fill="midnightblue" stroke="midnightblue" points="1017.53,-248.115 1026.83,-243.046 1016.39,-241.207 1017.53,-248.115"/>
</g>
<!-- Node32 -->
<g id="node32" class="node"><title>Node32</title>
<g id="a_node32"><a xlink:href="_i_popup_menu_8h.html" target="_top" xlink:title="A class for setting the contents of a pop up menu. ">
<polygon fill="white" stroke="black" points="779,-112.5 779,-131.5 859,-131.5 859,-112.5 779,-112.5"/>
<text text-anchor="middle" x="819" y="-119.5" font-family="Helvetica,sans-Serif" font-size="10.00">IPopupMenu.h</text>
</a>
</g>
</g>
<!-- Node26&#45;&gt;Node32 -->
<g id="edge56" class="edge"><title>Node26&#45;&gt;Node32</title>
<path fill="none" stroke="midnightblue" d="M749.925,-280.075C761.465,-253.832 795.453,-176.545 811.033,-141.117"/>
<polygon fill="midnightblue" stroke="midnightblue" points="814.41,-142.131 815.232,-131.568 808.003,-139.313 814.41,-142.131"/>
</g>
<!-- Node28&#45;&gt;Node9 -->
<g id="edge46" class="edge"><title>Node28&#45;&gt;Node9</title>
<path fill="none" stroke="midnightblue" d="M520.419,-224.444C487.385,-215.201 434.612,-200.436 398.234,-190.257"/>
<polygon fill="midnightblue" stroke="midnightblue" points="399.012,-186.84 388.438,-187.516 397.125,-193.582 399.012,-186.84"/>
</g>
<!-- Node29&#45;&gt;Node7 -->
<g id="edge52" class="edge"><title>Node29&#45;&gt;Node7</title>
<path fill="none" stroke="midnightblue" d="M678.268,-224.214C682.478,-215.271 688.867,-200.924 693,-188 704.376,-152.427 712.735,-109.487 716.941,-85.5098"/>
<polygon fill="midnightblue" stroke="midnightblue" points="720.391,-86.0954 718.622,-75.6494 713.491,-84.919 720.391,-86.0954"/>
</g>
<!-- Node29&#45;&gt;Node9 -->
<g id="edge54" class="edge"><title>Node29&#45;&gt;Node9</title>
<path fill="none" stroke="midnightblue" d="M624.655,-224.719C573.502,-216.112 490.944,-202.16 409.895,-188.147"/>
<polygon fill="midnightblue" stroke="midnightblue" points="410.471,-184.694 400.021,-186.438 409.278,-191.592 410.471,-184.694"/>
</g>
<!-- Node29&#45;&gt;Node15 -->
<g id="edge50" class="edge"><title>Node29&#45;&gt;Node15</title>
<path fill="none" stroke="midnightblue" d="M656.565,-224.497C641.594,-216.57 620.1,-203.638 605,-188 574.73,-156.65 551.322,-110.552 539.826,-85.2642"/>
<polygon fill="midnightblue" stroke="midnightblue" points="542.888,-83.5348 535.643,-75.8044 536.486,-86.3657 542.888,-83.5348"/>
</g>
<!-- Node29&#45;&gt;Node16 -->
<g id="edge51" class="edge"><title>Node29&#45;&gt;Node16</title>
<path fill="none" stroke="midnightblue" d="M654.704,-224.48C640.571,-217.081 622.443,-204.887 614,-188 596.706,-153.411 618.548,-108.297 633.394,-84.1048"/>
<polygon fill="midnightblue" stroke="midnightblue" points="636.366,-85.9549 638.829,-75.6503 630.477,-82.1698 636.366,-85.9549"/>
</g>
<!-- Node29&#45;&gt;Node18 -->
<g id="edge49" class="edge"><title>Node29&#45;&gt;Node18</title>
<path fill="none" stroke="midnightblue" d="M716.53,-224.416C763.004,-212.517 835.203,-186.051 868,-132 887.681,-99.5647 870.7,-53.567 858.6,-28.6663"/>
<polygon fill="midnightblue" stroke="midnightblue" points="861.662,-26.9677 853.985,-19.6661 855.433,-30.1615 861.662,-26.9677"/>
</g>
<!-- Node29&#45;&gt;Node22 -->
<g id="edge48" class="edge"><title>Node29&#45;&gt;Node22</title>
<path fill="none" stroke="midnightblue" d="M637.873,-224.444C595.791,-214.477 526.593,-198.088 483.806,-187.954"/>
<polygon fill="midnightblue" stroke="midnightblue" points="484.589,-184.543 474.052,-185.644 482.976,-191.354 484.589,-184.543"/>
</g>
<!-- Node30 -->
<g id="node30" class="node"><title>Node30</title>
<polygon fill="white" stroke="#bfbfbf" points="623,-168.5 623,-187.5 685,-187.5 685,-168.5 623,-168.5"/>
<text text-anchor="middle" x="654" y="-175.5" font-family="Helvetica,sans-Serif" font-size="10.00">nanosvg.h</text>
</g>
<!-- Node29&#45;&gt;Node30 -->
<g id="edge53" class="edge"><title>Node29&#45;&gt;Node30</title>
<path fill="none" stroke="midnightblue" d="M670.697,-224.083C668.018,-216.849 664.151,-206.409 660.814,-197.397"/>
<polygon fill="midnightblue" stroke="midnightblue" points="663.996,-195.913 657.241,-187.751 657.432,-198.344 663.996,-195.913"/>
</g>
<!-- Node32&#45;&gt;Node5 -->
<g id="edge58" class="edge"><title>Node32&#45;&gt;Node5</title>
<path fill="none" stroke="midnightblue" d="M817.256,-112.321C813.951,-98.2205 805.392,-70.4594 787,-56 761.092,-35.6315 668.584,-21.3468 618.232,-14.8862"/>
<polygon fill="midnightblue" stroke="midnightblue" points="618.524,-11.3955 608.166,-13.627 617.655,-18.3414 618.524,-11.3955"/>
</g>
<!-- Node32&#45;&gt;Node7 -->
<g id="edge62" class="edge"><title>Node32&#45;&gt;Node7</title>
<path fill="none" stroke="midnightblue" d="M803.094,-112.324C787.362,-103.743 763.058,-90.486 744.791,-80.5224"/>
<polygon fill="midnightblue" stroke="midnightblue" points="746.322,-77.3704 735.867,-75.6545 742.97,-83.5157 746.322,-77.3704"/>
</g>
<!-- Node32&#45;&gt;Node11 -->
<g id="edge59" class="edge"><title>Node32&#45;&gt;Node11</title>
<path fill="none" stroke="midnightblue" d="M813.291,-112.41C803.119,-97.913 780.34,-68.9093 753,-56 682.467,-22.6964 442.666,-13.7961 355.772,-11.6359"/>
<polygon fill="midnightblue" stroke="midnightblue" points="355.8,-8.13565 345.72,-11.3994 355.635,-15.1337 355.8,-8.13565"/>
</g>
<!-- Node32&#45;&gt;Node15 -->
<g id="edge60" class="edge"><title>Node32&#45;&gt;Node15</title>
<path fill="none" stroke="midnightblue" d="M778.792,-113.435C722.242,-102.795 620.166,-83.5887 566.738,-73.5361"/>
<polygon fill="midnightblue" stroke="midnightblue" points="567.204,-70.0624 556.729,-71.6529 565.909,-76.9417 567.204,-70.0624"/>
</g>
<!-- Node32&#45;&gt;Node16 -->
<g id="edge61" class="edge"><title>Node32&#45;&gt;Node16</title>
<path fill="none" stroke="midnightblue" d="M791.429,-112.444C761.903,-103.28 714.882,-88.6876 682.117,-78.5192"/>
<polygon fill="midnightblue" stroke="midnightblue" points="683.03,-75.1378 672.442,-75.5164 680.955,-81.8232 683.03,-75.1378"/>
</g>
<!-- Node32&#45;&gt;Node18 -->
<g id="edge57" class="edge"><title>Node32&#45;&gt;Node18</title>
<path fill="none" stroke="midnightblue" d="M821.354,-112.368C826.217,-94.5366 837.465,-53.2953 844.017,-29.2717"/>
<polygon fill="midnightblue" stroke="midnightblue" points="847.402,-30.16 846.657,-19.5914 840.649,-28.3181 847.402,-30.16"/>
</g>
</g>
</svg>
        <g id="navigator" transform="translate(0 0)" fill="#404254">
                <rect fill="#f2f5e9" fill-opacity="0.5" stroke="#606060" stroke-width=".5" x="0" y="0" width="60" height="60"/>
                <use id="zoomplus" xlink:href="#zoomPlus" x="17" y="9" onmousedown="handleZoom(evt,'in')"/>
                <use id="zoomminus" xlink:href="#zoomMin" x="42" y="9" onmousedown="handleZoom(evt,'out')"/>
                <use id="reset" xlink:href="#resetDef" x="30" y="36" onmousedown="handleReset()"/>
                <g id="arrowUp" xlink:href="#dirArrow" transform="translate(30 24)" onmousedown="handlePan(0,-1)">
                  <use xlink:href="#rim" fill="#404040">
                        <set attributeName="fill" to="#808080" begin="arrowUp.mouseover" end="arrowUp.mouseout"/>
                  </use>
                  <path fill="none" stroke="white" stroke-width="1.5" d="M0,-3.0v7 M-2.5,-0.5L0,-3.0L2.5,-0.5"/>
                </g>
                <g id="arrowRight" xlink:href="#dirArrow" transform="rotate(90) translate(36 -43)" onmousedown="handlePan(1,0)">
                  <use xlink:href="#rim" fill="#404040">
                        <set attributeName="fill" to="#808080" begin="arrowRight.mouseover" end="arrowRight.mouseout"/>
                  </use>
                  <path fill="none" stroke="white" stroke-width="1.5" d="M0,-3.0v7 M-2.5,-0.5L0,-3.0L2.5,-0.5"/>
                </g>
                <g id="arrowDown" xlink:href="#dirArrow" transform="rotate(180) translate(-30 -48)" onmousedown="handlePan(0,1)">
                  <use xlink:href="#rim" fill="#404040">
                        <set attributeName="fill" to="#808080" begin="arrowDown.mouseover" end="arrowDown.mouseout"/>
                  </use>
                  <path fill="none" stroke="white" stroke-width="1.5" d="M0,-3.0v7 M-2.5,-0.5L0,-3.0L2.5,-0.5"/>
                </g>
                <g id="arrowLeft" xlink:href="#dirArrow" transform="rotate(270) translate(-36 17)" onmousedown="handlePan(-1,0)">
                  <use xlink:href="#rim" fill="#404040">
                        <set attributeName="fill" to="#808080" begin="arrowLeft.mouseover" end="arrowLeft.mouseout"/>
                  </use>
                  <path fill="none" stroke="white" stroke-width="1.5" d="M0,-3.0v7 M-2.5,-0.5L0,-3.0L2.5,-0.5"/>
                </g>
        </g>
        <svg viewBox="0 0 15 15" width="100%" height="30px" preserveAspectRatio="xMaxYMin meet">
         <g id="arrow_out" transform="scale(0.3 0.3)">
          <a xlink:href="_i_controls_8h__incl_org.svg" target="_base">
           <rect id="button" ry="5" rx="5" y="6" x="6" height="38" width="38"
                fill="#f2f5e9" fill-opacity="0.5" stroke="#606060" stroke-width="1.0"/>
           <path id="arrow"
             d="M 11.500037,31.436501 C 11.940474,20.09759 22.043105,11.32322 32.158766,21.979434 L 37.068811,17.246167 C 37.068811,17.246167 37.088388,32 37.088388,32 L 22.160133,31.978069 C 22.160133,31.978069 26.997745,27.140456 26.997745,27.140456 C 18.528582,18.264221 13.291696,25.230495 11.500037,31.436501 z"
             style="fill:#404040;"/>
          </a>
         </g>
        </svg>
</svg>
