<?xml version="1.0" encoding="UTF-8" standalone="no"?>
<!DOCTYPE svg PUBLIC "-//W3C//DTD SVG 1.1//EN"
 "http://www.w3.org/Graphics/SVG/1.1/DTD/svg11.dtd">
<!-- Generated by graphviz version 2.36.0 (20140111.2315)
 -->
<!-- Title: IGraphics.h Pages: 1 -->
<svg width="946pt" height="476pt"
 viewBox="0.00 0.00 946.00 476.00" xmlns="http://www.w3.org/2000/svg" xmlns:xlink="http://www.w3.org/1999/xlink">
<g id="graph0" class="graph" transform="scale(1 1) rotate(0) translate(4 472)">
<title>IGraphics.h</title>
<polygon fill="white" stroke="none" points="-4,4 -4,-472 942,-472 942,4 -4,4"/>
<!-- Node1 -->
<g id="node1" class="node"><title>Node1</title>
<polygon fill="#bfbfbf" stroke="black" points="279.5,-448.5 279.5,-467.5 346.5,-467.5 346.5,-448.5 279.5,-448.5"/>
<text text-anchor="middle" x="313" y="-455.5" font-family="Helvetica,sans-Serif" font-size="10.00">IGraphics.h</text>
</g>
<!-- Node2 -->
<g id="node2" class="node"><title>Node2</title>
<polygon fill="white" stroke="#bfbfbf" points="-1,-392.5 -1,-411.5 55,-411.5 55,-392.5 -1,-392.5"/>
<text text-anchor="middle" x="27" y="-399.5" font-family="Helvetica,sans-Serif" font-size="10.00">ft2build.h</text>
</g>
<!-- Node1&#45;&gt;Node2 -->
<g id="edge1" class="edge"><title>Node1&#45;&gt;Node2</title>
<path fill="none" stroke="midnightblue" d="M279.394,-451.117C232.289,-442.799 143.984,-426.945 69,-412 67.7659,-411.754 66.5119,-411.501 65.2462,-411.244"/>
<polygon fill="midnightblue" stroke="midnightblue" points="65.946,-407.815 55.4436,-409.211 64.5242,-414.669 65.946,-407.815"/>
</g>
<!-- Node3 -->
<g id="node3" class="node"><title>Node3</title>
<g id="a_node3"><a xlink:href="_i_graphics_constants_8h_source.html" target="_top" xlink:title="IGraphicsConstants.h">
<polygon fill="white" stroke="black" points="334,-336.5 334,-355.5 446,-355.5 446,-336.5 334,-336.5"/>
<text text-anchor="middle" x="390" y="-343.5" font-family="Helvetica,sans-Serif" font-size="10.00">IGraphicsConstants.h</text>
</a>
</g>
</g>
<!-- Node1&#45;&gt;Node3 -->
<g id="edge2" class="edge"><title>Node1&#45;&gt;Node3</title>
<path fill="none" stroke="midnightblue" d="M328.472,-448.426C341.344,-440.541 359.242,-427.707 370,-412 379.486,-398.149 384.604,-379.632 387.281,-365.906"/>
<polygon fill="midnightblue" stroke="midnightblue" points="390.788,-366.152 388.996,-355.71 383.885,-364.99 390.788,-366.152"/>
</g>
<!-- Node18 -->
<g id="node18" class="node"><title>Node18</title>
<g id="a_node18"><a xlink:href="_i_graphics_structs_8h_source.html" target="_top" xlink:title="IGraphicsStructs.h">
<polygon fill="white" stroke="black" points="194,-224.5 194,-243.5 292,-243.5 292,-224.5 194,-224.5"/>
<text text-anchor="middle" x="243" y="-231.5" font-family="Helvetica,sans-Serif" font-size="10.00">IGraphicsStructs.h</text>
</a>
</g>
</g>
<!-- Node1&#45;&gt;Node18 -->
<g id="edge21" class="edge"><title>Node1&#45;&gt;Node18</title>
<path fill="none" stroke="midnightblue" d="M295.199,-448.467C281.623,-440.919 263.806,-428.536 255,-412 227.426,-360.22 234.241,-287.51 239.536,-253.678"/>
<polygon fill="midnightblue" stroke="midnightblue" points="242.993,-254.227 241.222,-243.781 236.092,-253.052 242.993,-254.227"/>
</g>
<!-- Node22 -->
<g id="node22" class="node"><title>Node22</title>
<g id="a_node22"><a xlink:href="_i_graphics_utilites_8h_source.html" target="_top" xlink:title="IGraphicsUtilites.h">
<polygon fill="white" stroke="black" points="264,-392.5 264,-411.5 362,-411.5 362,-392.5 264,-392.5"/>
<text text-anchor="middle" x="313" y="-399.5" font-family="Helvetica,sans-Serif" font-size="10.00">IGraphicsUtilites.h</text>
</a>
</g>
</g>
<!-- Node1&#45;&gt;Node22 -->
<g id="edge29" class="edge"><title>Node1&#45;&gt;Node22</title>
<path fill="none" stroke="midnightblue" d="M313,-448.083C313,-441.006 313,-430.861 313,-421.986"/>
<polygon fill="midnightblue" stroke="midnightblue" points="316.5,-421.751 313,-411.751 309.5,-421.751 316.5,-421.751"/>
</g>
<!-- Node23 -->
<g id="node23" class="node"><title>Node23</title>
<g id="a_node23"><a xlink:href="_i_popup_menu_8h.html" target="_top" xlink:title="A class for setting the contents of a pop up menu. ">
<polygon fill="white" stroke="black" points="149,-112.5 149,-131.5 229,-131.5 229,-112.5 149,-112.5"/>
<text text-anchor="middle" x="189" y="-119.5" font-family="Helvetica,sans-Serif" font-size="10.00">IPopupMenu.h</text>
</a>
</g>
</g>
<!-- Node1&#45;&gt;Node23 -->
<g id="edge30" class="edge"><title>Node1&#45;&gt;Node23</title>
<path fill="none" stroke="midnightblue" d="M279.063,-455.879C215.084,-451.764 83,-432.869 83,-347 83,-347 83,-347 83,-233 83,-187.815 129.95,-154.052 161.357,-136.521"/>
<polygon fill="midnightblue" stroke="midnightblue" points="163.372,-139.412 170.536,-131.607 160.068,-133.241 163.372,-139.412"/>
</g>
<!-- Node24 -->
<g id="node24" class="node"><title>Node24</title>
<g id="a_node24"><a xlink:href="_i_control_8h.html" target="_top" xlink:title="The lowest level base class of an IGraphics control. ">
<polygon fill="white" stroke="black" points="418.5,-392.5 418.5,-411.5 477.5,-411.5 477.5,-392.5 418.5,-392.5"/>
<text text-anchor="middle" x="448" y="-399.5" font-family="Helvetica,sans-Serif" font-size="10.00">IControl.h</text>
</a>
</g>
</g>
<!-- Node1&#45;&gt;Node24 -->
<g id="edge37" class="edge"><title>Node1&#45;&gt;Node24</title>
<path fill="none" stroke="midnightblue" d="M329.302,-448.444C349.841,-439.438 385.249,-425.189 412.147,-415.049"/>
<polygon fill="midnightblue" stroke="midnightblue" points="413.48,-418.288 421.629,-411.516 411.036,-411.728 413.48,-418.288"/>
</g>
<!-- Node4 -->
<g id="node4" class="node"><title>Node4</title>
<g id="a_node4"><a xlink:href="_i_plug_platform_8h.html" target="_top" xlink:title="Include to get consistently named preprocessor macros for different platforms and logging functionali...">
<polygon fill="white" stroke="black" points="348,-168.5 348,-187.5 432,-187.5 432,-168.5 348,-168.5"/>
<text text-anchor="middle" x="390" y="-175.5" font-family="Helvetica,sans-Serif" font-size="10.00">IPlugPlatform.h</text>
</a>
</g>
</g>
<!-- Node3&#45;&gt;Node4 -->
<g id="edge3" class="edge"><title>Node3&#45;&gt;Node4</title>
<path fill="none" stroke="midnightblue" d="M390,-336.075C390,-309.945 390,-233.211 390,-197.577"/>
<polygon fill="midnightblue" stroke="midnightblue" points="393.5,-197.568 390,-187.568 386.5,-197.568 393.5,-197.568"/>
</g>
<!-- Node5 -->
<g id="node5" class="node"><title>Node5</title>
<g id="a_node5"><a xlink:href="_i_plug_logger_8h_source.html" target="_top" xlink:title="IPlugLogger.h">
<polygon fill="white" stroke="black" points="351.5,-112.5 351.5,-131.5 428.5,-131.5 428.5,-112.5 351.5,-112.5"/>
<text text-anchor="middle" x="390" y="-119.5" font-family="Helvetica,sans-Serif" font-size="10.00">IPlugLogger.h</text>
</a>
</g>
</g>
<!-- Node4&#45;&gt;Node5 -->
<g id="edge4" class="edge"><title>Node4&#45;&gt;Node5</title>
<path fill="none" stroke="midnightblue" d="M390,-168.083C390,-161.006 390,-150.861 390,-141.986"/>
<polygon fill="midnightblue" stroke="midnightblue" points="393.5,-141.751 390,-131.751 386.5,-141.751 393.5,-141.751"/>
</g>
<!-- Node6 -->
<g id="node6" class="node"><title>Node6</title>
<polygon fill="white" stroke="#bfbfbf" points="279.5,-0.5 279.5,-19.5 322.5,-19.5 322.5,-0.5 279.5,-0.5"/>
<text text-anchor="middle" x="301" y="-7.5" font-family="Helvetica,sans-Serif" font-size="10.00">cstdio</text>
</g>
<!-- Node5&#45;&gt;Node6 -->
<g id="edge5" class="edge"><title>Node5&#45;&gt;Node6</title>
<path fill="none" stroke="midnightblue" d="M381.815,-112.22C373.573,-103.282 360.598,-88.938 350,-76 336.903,-60.0113 322.778,-41.0768 313.074,-27.7806"/>
<polygon fill="midnightblue" stroke="midnightblue" points="315.833,-25.6231 307.13,-19.5818 310.166,-29.7321 315.833,-25.6231"/>
</g>
<!-- Node7 -->
<g id="node7" class="node"><title>Node7</title>
<polygon fill="white" stroke="#bfbfbf" points="454,-0.5 454,-19.5 500,-19.5 500,-0.5 454,-0.5"/>
<text text-anchor="middle" x="477" y="-7.5" font-family="Helvetica,sans-Serif" font-size="10.00">cctype</text>
</g>
<!-- Node5&#45;&gt;Node7 -->
<g id="edge6" class="edge"><title>Node5&#45;&gt;Node7</title>
<path fill="none" stroke="midnightblue" d="M380.05,-112.115C366.746,-99.1387 346.233,-74.5325 359,-56 377.86,-28.6225 415.775,-17.8896 443.556,-13.6885"/>
<polygon fill="midnightblue" stroke="midnightblue" points="444.181,-17.1369 453.647,-12.3772 443.279,-10.1952 444.181,-17.1369"/>
</g>
<!-- Node8 -->
<g id="node8" class="node"><title>Node8</title>
<polygon fill="white" stroke="#bfbfbf" points="367.5,-56.5 367.5,-75.5 416.5,-75.5 416.5,-56.5 367.5,-56.5"/>
<text text-anchor="middle" x="392" y="-63.5" font-family="Helvetica,sans-Serif" font-size="10.00">cstdarg</text>
</g>
<!-- Node5&#45;&gt;Node8 -->
<g id="edge7" class="edge"><title>Node5&#45;&gt;Node8</title>
<path fill="none" stroke="midnightblue" d="M390.33,-112.083C390.592,-105.006 390.968,-94.8611 391.297,-85.9865"/>
<polygon fill="midnightblue" stroke="midnightblue" points="394.803,-85.8738 391.676,-75.7511 387.808,-85.6147 394.803,-85.8738"/>
</g>
<!-- Node9 -->
<g id="node9" class="node"><title>Node9</title>
<polygon fill="white" stroke="#bfbfbf" points="750,-56.5 750,-75.5 796,-75.5 796,-56.5 750,-56.5"/>
<text text-anchor="middle" x="773" y="-63.5" font-family="Helvetica,sans-Serif" font-size="10.00">cstdint</text>
</g>
<!-- Node5&#45;&gt;Node9 -->
<g id="edge8" class="edge"><title>Node5&#45;&gt;Node9</title>
<path fill="none" stroke="midnightblue" d="M428.832,-115.525C504.082,-104.915 668.58,-81.7224 739.435,-71.7324"/>
<polygon fill="midnightblue" stroke="midnightblue" points="740.169,-75.1636 749.582,-70.3017 739.192,-68.2322 740.169,-75.1636"/>
</g>
<!-- Node10 -->
<g id="node10" class="node"><title>Node10</title>
<polygon fill="white" stroke="#bfbfbf" points="599,-0.5 599,-19.5 645,-19.5 645,-0.5 599,-0.5"/>
<text text-anchor="middle" x="622" y="-7.5" font-family="Helvetica,sans-Serif" font-size="10.00">cstring</text>
</g>
<!-- Node5&#45;&gt;Node10 -->
<g id="edge9" class="edge"><title>Node5&#45;&gt;Node10</title>
<path fill="none" stroke="midnightblue" d="M408.444,-112.353C427.45,-103.4 457.9,-88.9365 484,-76 501.453,-67.3491 505.462,-64.4772 523,-56 546.412,-44.6839 573.288,-32.5187 593.124,-23.6935"/>
<polygon fill="midnightblue" stroke="midnightblue" points="594.801,-26.7788 602.525,-19.5267 591.964,-20.3793 594.801,-26.7788"/>
</g>
<!-- Node11 -->
<g id="node11" class="node"><title>Node11</title>
<polygon fill="white" stroke="#bfbfbf" points="434.5,-56.5 434.5,-75.5 475.5,-75.5 475.5,-56.5 434.5,-56.5"/>
<text text-anchor="middle" x="455" y="-63.5" font-family="Helvetica,sans-Serif" font-size="10.00">ctime</text>
</g>
<!-- Node5&#45;&gt;Node11 -->
<g id="edge10" class="edge"><title>Node5&#45;&gt;Node11</title>
<path fill="none" stroke="midnightblue" d="M400.443,-112.324C410.146,-104.263 424.815,-92.0765 436.5,-82.3695"/>
<polygon fill="midnightblue" stroke="midnightblue" points="438.911,-84.9163 444.367,-75.8339 434.438,-79.532 438.911,-84.9163"/>
</g>
<!-- Node12 -->
<g id="node12" class="node"><title>Node12</title>
<polygon fill="white" stroke="#bfbfbf" points="223.5,-56.5 223.5,-75.5 272.5,-75.5 272.5,-56.5 223.5,-56.5"/>
<text text-anchor="middle" x="248" y="-63.5" font-family="Helvetica,sans-Serif" font-size="10.00">cassert</text>
</g>
<!-- Node5&#45;&gt;Node12 -->
<g id="edge11" class="edge"><title>Node5&#45;&gt;Node12</title>
<path fill="none" stroke="midnightblue" d="M367.5,-112.444C343.923,-103.478 306.678,-89.314 280.036,-79.1827"/>
<polygon fill="midnightblue" stroke="midnightblue" points="280.986,-75.7995 270.395,-75.5164 278.498,-82.3424 280.986,-75.7995"/>
</g>
<!-- Node13 -->
<g id="node13" class="node"><title>Node13</title>
<polygon fill="white" stroke="#bfbfbf" points="532,-56.5 532,-75.5 596,-75.5 596,-56.5 532,-56.5"/>
<text text-anchor="middle" x="564" y="-63.5" font-family="Helvetica,sans-Serif" font-size="10.00">wdlstring.h</text>
</g>
<!-- Node5&#45;&gt;Node13 -->
<g id="edge12" class="edge"><title>Node5&#45;&gt;Node13</title>
<path fill="none" stroke="midnightblue" d="M417.571,-112.444C447.097,-103.28 494.118,-88.6876 526.883,-78.5192"/>
<polygon fill="midnightblue" stroke="midnightblue" points="528.045,-81.8232 536.558,-75.5164 525.97,-75.1378 528.045,-81.8232"/>
</g>
<!-- Node14 -->
<g id="node14" class="node"><title>Node14</title>
<g id="a_node14"><a xlink:href="_i_plug_utilities_8h.html" target="_top" xlink:title="Utility functions and macros. ">
<polygon fill="white" stroke="black" points="614,-56.5 614,-75.5 694,-75.5 694,-56.5 614,-56.5"/>
<text text-anchor="middle" x="654" y="-63.5" font-family="Helvetica,sans-Serif" font-size="10.00">IPlugUtilities.h</text>
</a>
</g>
</g>
<!-- Node5&#45;&gt;Node14 -->
<g id="edge13" class="edge"><title>Node5&#45;&gt;Node14</title>
<path fill="none" stroke="midnightblue" d="M428.671,-113.09C475.128,-103.588 553.162,-87.626 604.115,-77.2037"/>
<polygon fill="midnightblue" stroke="midnightblue" points="604.832,-80.6297 613.928,-75.1966 603.429,-73.7717 604.832,-80.6297"/>
</g>
<!-- Node14&#45;&gt;Node4 -->
<g id="edge20" class="edge"><title>Node14&#45;&gt;Node4</title>
<path fill="none" stroke="midnightblue" d="M624.817,-75.5104C597.379,-83.8132 555.353,-97.31 520,-112 482.188,-127.712 440.08,-149.621 414.313,-163.559"/>
<polygon fill="midnightblue" stroke="midnightblue" points="412.388,-160.622 405.282,-168.48 415.737,-166.769 412.388,-160.622"/>
</g>
<!-- Node14&#45;&gt;Node6 -->
<g id="edge15" class="edge"><title>Node14&#45;&gt;Node6</title>
<path fill="none" stroke="midnightblue" d="M613.908,-57.5193C610.896,-56.993 607.901,-56.481 605,-56 506.064,-39.5965 388.521,-23.0209 333.035,-15.3695"/>
<polygon fill="midnightblue" stroke="midnightblue" points="333.173,-11.8556 322.789,-13.9609 332.219,-18.7904 333.173,-11.8556"/>
</g>
<!-- Node14&#45;&gt;Node7 -->
<g id="edge18" class="edge"><title>Node14&#45;&gt;Node7</title>
<path fill="none" stroke="midnightblue" d="M625.954,-56.4435C594.416,-46.8219 543.259,-31.2147 509.871,-21.0283"/>
<polygon fill="midnightblue" stroke="midnightblue" points="510.707,-17.6242 500.12,-18.0537 508.664,-24.3195 510.707,-17.6242"/>
</g>
<!-- Node14&#45;&gt;Node10 -->
<g id="edge17" class="edge"><title>Node14&#45;&gt;Node10</title>
<path fill="none" stroke="midnightblue" d="M648.716,-56.083C644.289,-48.6127 637.837,-37.7244 632.382,-28.5199"/>
<polygon fill="midnightblue" stroke="midnightblue" points="635.295,-26.5697 627.186,-19.7511 629.273,-30.1383 635.295,-26.5697"/>
</g>
<!-- Node15 -->
<g id="node15" class="node"><title>Node15</title>
<polygon fill="white" stroke="#bfbfbf" points="97,-0.5 97,-19.5 141,-19.5 141,-0.5 97,-0.5"/>
<text text-anchor="middle" x="119" y="-7.5" font-family="Helvetica,sans-Serif" font-size="10.00">cmath</text>
</g>
<!-- Node14&#45;&gt;Node15 -->
<g id="edge14" class="edge"><title>Node14&#45;&gt;Node15</title>
<path fill="none" stroke="midnightblue" d="M613.936,-57.3401C610.917,-56.8553 607.913,-56.4016 605,-56 435.037,-32.5702 229.907,-18.0525 151.561,-13.0061"/>
<polygon fill="midnightblue" stroke="midnightblue" points="151.567,-9.4995 141.364,-12.357 151.122,-16.4854 151.567,-9.4995"/>
</g>
<!-- Node16 -->
<g id="node16" class="node"><title>Node16</title>
<polygon fill="white" stroke="#bfbfbf" points="663.5,-0.5 663.5,-19.5 708.5,-19.5 708.5,-0.5 663.5,-0.5"/>
<text text-anchor="middle" x="686" y="-7.5" font-family="Helvetica,sans-Serif" font-size="10.00">cstdlib</text>
</g>
<!-- Node14&#45;&gt;Node16 -->
<g id="edge16" class="edge"><title>Node14&#45;&gt;Node16</title>
<path fill="none" stroke="midnightblue" d="M659.284,-56.083C663.711,-48.6127 670.163,-37.7244 675.618,-28.5199"/>
<polygon fill="midnightblue" stroke="midnightblue" points="678.727,-30.1383 680.814,-19.7511 672.705,-26.5697 678.727,-30.1383"/>
</g>
<!-- Node17 -->
<g id="node17" class="node"><title>Node17</title>
<g id="a_node17"><a xlink:href="_i_plug_constants_8h.html" target="_top" xlink:title="Constant definitions, magic numbers. ">
<polygon fill="white" stroke="black" points="835,-0.5 835,-19.5 927,-19.5 927,-0.5 835,-0.5"/>
<text text-anchor="middle" x="881" y="-7.5" font-family="Helvetica,sans-Serif" font-size="10.00">IPlugConstants.h</text>
</a>
</g>
</g>
<!-- Node14&#45;&gt;Node17 -->
<g id="edge19" class="edge"><title>Node14&#45;&gt;Node17</title>
<path fill="none" stroke="midnightblue" d="M689.969,-56.4435C729.319,-47.0826 792.487,-32.0561 835.314,-21.868"/>
<polygon fill="midnightblue" stroke="midnightblue" points="836.281,-25.2358 845.199,-19.5164 834.661,-18.4258 836.281,-25.2358"/>
</g>
<!-- Node18&#45;&gt;Node4 -->
<g id="edge28" class="edge"><title>Node18&#45;&gt;Node4</title>
<path fill="none" stroke="midnightblue" d="M266.293,-224.444C290.807,-215.438 329.596,-201.189 357.2,-191.049"/>
<polygon fill="midnightblue" stroke="midnightblue" points="358.637,-194.25 366.816,-187.516 356.223,-187.679 358.637,-194.25"/>
</g>
<!-- Node18&#45;&gt;Node12 -->
<g id="edge24" class="edge"><title>Node18&#45;&gt;Node12</title>
<path fill="none" stroke="midnightblue" d="M243.269,-224.075C244.056,-197.945 246.367,-121.211 247.44,-85.577"/>
<polygon fill="midnightblue" stroke="midnightblue" points="250.939,-85.669 247.742,-75.5681 243.942,-85.4582 250.939,-85.669"/>
</g>
<!-- Node18&#45;&gt;Node13 -->
<g id="edge25" class="edge"><title>Node18&#45;&gt;Node13</title>
<path fill="none" stroke="midnightblue" d="M253.689,-224.476C270.867,-211.081 306.042,-184.892 339,-168 380.294,-146.836 394.932,-151.579 437,-132 453.243,-124.44 456.167,-120.385 472,-112 493.311,-100.714 517.863,-88.7562 536.241,-80.0059"/>
<polygon fill="midnightblue" stroke="midnightblue" points="537.958,-83.0655 545.497,-75.6214 534.961,-76.7394 537.958,-83.0655"/>
</g>
<!-- Node18&#45;&gt;Node15 -->
<g id="edge23" class="edge"><title>Node18&#45;&gt;Node15</title>
<path fill="none" stroke="midnightblue" d="M212.499,-224.454C189.569,-217.106 158.092,-204.992 134,-188 79.2243,-149.368 57.0448,-138.567 33,-76 29.8113,-67.7027 28.3967,-63.6041 33,-56 44.7414,-36.6046 67.8964,-25.1664 87.2244,-18.6787"/>
<polygon fill="midnightblue" stroke="midnightblue" points="88.3615,-21.9911 96.9021,-15.7214 86.3158,-15.2966 88.3615,-21.9911"/>
</g>
<!-- Node19 -->
<g id="node19" class="node"><title>Node19</title>
<polygon fill="white" stroke="#bfbfbf" points="450,-168.5 450,-187.5 506,-187.5 506,-168.5 450,-168.5"/>
<text text-anchor="middle" x="478" y="-175.5" font-family="Helvetica,sans-Serif" font-size="10.00">algorithm</text>
</g>
<!-- Node18&#45;&gt;Node19 -->
<g id="edge22" class="edge"><title>Node18&#45;&gt;Node19</title>
<path fill="none" stroke="midnightblue" d="M280.787,-224.463C320.459,-215.477 384.645,-200.877 440,-188 440.099,-187.977 440.198,-187.954 440.298,-187.931"/>
<polygon fill="midnightblue" stroke="midnightblue" points="440.846,-191.397 449.784,-185.709 439.25,-184.582 440.846,-191.397"/>
</g>
<!-- Node20 -->
<g id="node20" class="node"><title>Node20</title>
<polygon fill="white" stroke="#bfbfbf" points="41.5,-56.5 41.5,-75.5 90.5,-75.5 90.5,-56.5 41.5,-56.5"/>
<text text-anchor="middle" x="66" y="-63.5" font-family="Helvetica,sans-Serif" font-size="10.00">ptrlist.h</text>
</g>
<!-- Node18&#45;&gt;Node20 -->
<g id="edge26" class="edge"><title>Node18&#45;&gt;Node20</title>
<path fill="none" stroke="midnightblue" d="M220.806,-224.425C202.65,-216.703 176.967,-204.1 158,-188 121.767,-157.245 90.9825,-109.879 75.9121,-84.4938"/>
<polygon fill="midnightblue" stroke="midnightblue" points="78.8159,-82.5246 70.7654,-75.6369 72.7636,-86.0416 78.8159,-82.5246"/>
</g>
<!-- Node21 -->
<g id="node21" class="node"><title>Node21</title>
<polygon fill="white" stroke="#bfbfbf" points="167,-168.5 167,-187.5 229,-187.5 229,-168.5 167,-168.5"/>
<text text-anchor="middle" x="198" y="-175.5" font-family="Helvetica,sans-Serif" font-size="10.00">nanosvg.h</text>
</g>
<!-- Node18&#45;&gt;Node21 -->
<g id="edge27" class="edge"><title>Node18&#45;&gt;Node21</title>
<path fill="none" stroke="midnightblue" d="M235.569,-224.083C229.147,-216.377 219.694,-205.033 211.878,-195.653"/>
<polygon fill="midnightblue" stroke="midnightblue" points="214.383,-193.193 205.293,-187.751 209.006,-197.674 214.383,-193.193"/>
</g>
<!-- Node23&#45;&gt;Node6 -->
<g id="edge33" class="edge"><title>Node23&#45;&gt;Node6</title>
<path fill="none" stroke="midnightblue" d="M184.426,-112.11C178.229,-98.686 169.213,-73.0082 181,-56 200.666,-27.6217 240.582,-17.1126 268.972,-13.2366"/>
<polygon fill="midnightblue" stroke="midnightblue" points="269.691,-16.677 279.223,-12.0524 268.887,-9.72323 269.691,-16.677"/>
</g>
<!-- Node23&#45;&gt;Node10 -->
<g id="edge32" class="edge"><title>Node23&#45;&gt;Node10</title>
<path fill="none" stroke="midnightblue" d="M189.733,-112.148C191.434,-97.7969 197.006,-69.6848 215,-56 229.847,-44.7083 493.987,-21.679 588.617,-13.7526"/>
<polygon fill="midnightblue" stroke="midnightblue" points="589.104,-17.2242 598.778,-12.905 588.522,-10.2485 589.104,-17.2242"/>
</g>
<!-- Node23&#45;&gt;Node12 -->
<g id="edge34" class="edge"><title>Node23&#45;&gt;Node12</title>
<path fill="none" stroke="midnightblue" d="M198.479,-112.324C207.201,-104.341 220.343,-92.3128 230.898,-82.6529"/>
<polygon fill="midnightblue" stroke="midnightblue" points="233.334,-85.1674 238.348,-75.8339 228.608,-80.0036 233.334,-85.1674"/>
</g>
<!-- Node23&#45;&gt;Node13 -->
<g id="edge35" class="edge"><title>Node23&#45;&gt;Node13</title>
<path fill="none" stroke="midnightblue" d="M229.132,-115.221C300.446,-104.952 448.597,-83.618 521.545,-73.1135"/>
<polygon fill="midnightblue" stroke="midnightblue" points="522.345,-76.5345 531.744,-71.6449 521.347,-69.606 522.345,-76.5345"/>
</g>
<!-- Node23&#45;&gt;Node15 -->
<g id="edge31" class="edge"><title>Node23&#45;&gt;Node15</title>
<path fill="none" stroke="midnightblue" d="M177.766,-112.46C167.487,-104.136 152.479,-90.6253 143,-76 133.697,-61.6466 127.325,-43.1856 123.497,-29.6078"/>
<polygon fill="midnightblue" stroke="midnightblue" points="126.784,-28.3405 120.872,-19.5483 120.01,-30.1081 126.784,-28.3405"/>
</g>
<!-- Node23&#45;&gt;Node20 -->
<g id="edge36" class="edge"><title>Node23&#45;&gt;Node20</title>
<path fill="none" stroke="midnightblue" d="M169.51,-112.444C149.358,-103.596 117.677,-89.6875 94.6692,-79.5865"/>
<polygon fill="midnightblue" stroke="midnightblue" points="95.962,-76.3316 85.3985,-75.5164 93.148,-82.7411 95.962,-76.3316"/>
</g>
<!-- Node24&#45;&gt;Node1 -->
<g id="edge62" class="edge"><title>Node24&#45;&gt;Node1</title>
<path fill="none" stroke="midnightblue" d="M431.789,-411.516C411.295,-420.506 375.896,-434.754 348.972,-444.906"/>
<polygon fill="midnightblue" stroke="midnightblue" points="347.628,-441.672 339.48,-448.444 350.073,-448.231 347.628,-441.672"/>
</g>
<!-- Node25 -->
<g id="node25" class="node"><title>Node25</title>
<g id="a_node25"><a xlink:href="_i_plug_base_graphics_8h.html" target="_top" xlink:title="An IPlugBase class for an IPlug plug&#45;in that uses IGraphics for it&#39;s UI. ">
<polygon fill="white" stroke="black" points="509.5,-336.5 509.5,-355.5 618.5,-355.5 618.5,-336.5 509.5,-336.5"/>
<text text-anchor="middle" x="564" y="-343.5" font-family="Helvetica,sans-Serif" font-size="10.00">IPlugBaseGraphics.h</text>
</a>
</g>
</g>
<!-- Node24&#45;&gt;Node25 -->
<g id="edge38" class="edge"><title>Node24&#45;&gt;Node25</title>
<path fill="none" stroke="midnightblue" d="M466.381,-392.444C485.216,-383.675 514.731,-369.935 536.379,-359.858"/>
<polygon fill="midnightblue" stroke="midnightblue" points="538.117,-362.91 545.705,-355.516 535.162,-356.564 538.117,-362.91"/>
</g>
<!-- Node26 -->
<g id="node26" class="node"><title>Node26</title>
<g id="a_node26"><a xlink:href="_i_plug_base_8h.html" target="_top" xlink:title="The lowest level base class of an IPlug plug&#45;in. ">
<polygon fill="white" stroke="black" points="574,-280.5 574,-299.5 644,-299.5 644,-280.5 574,-280.5"/>
<text text-anchor="middle" x="609" y="-287.5" font-family="Helvetica,sans-Serif" font-size="10.00">IPlugBase.h</text>
</a>
</g>
</g>
<!-- Node25&#45;&gt;Node26 -->
<g id="edge39" class="edge"><title>Node25&#45;&gt;Node26</title>
<path fill="none" stroke="midnightblue" d="M571.431,-336.083C577.853,-328.377 587.306,-317.033 595.122,-307.653"/>
<polygon fill="midnightblue" stroke="midnightblue" points="597.994,-309.674 601.707,-299.751 592.617,-305.193 597.994,-309.674"/>
</g>
<!-- Node26&#45;&gt;Node4 -->
<g id="edge44" class="edge"><title>Node26&#45;&gt;Node4</title>
<path fill="none" stroke="midnightblue" d="M573.887,-283.567C541.78,-277.485 493.826,-265.53 457,-244 435.246,-231.282 415.202,-210.035 402.815,-195.311"/>
<polygon fill="midnightblue" stroke="midnightblue" points="405.485,-193.047 396.452,-187.509 400.06,-197.471 405.485,-193.047"/>
</g>
<!-- Node26&#45;&gt;Node9 -->
<g id="edge41" class="edge"><title>Node26&#45;&gt;Node9</title>
<path fill="none" stroke="midnightblue" d="M644.369,-285.578C693.002,-280.058 776.612,-267.367 795,-244 832.298,-196.603 800.106,-118.869 782.574,-84.3971"/>
<polygon fill="midnightblue" stroke="midnightblue" points="785.654,-82.7348 777.891,-75.5243 779.463,-86.0019 785.654,-82.7348"/>
</g>
<!-- Node26&#45;&gt;Node10 -->
<g id="edge40" class="edge"><title>Node26&#45;&gt;Node10</title>
<path fill="none" stroke="midnightblue" d="M644.243,-285.88C696.466,-280.518 790.751,-267.77 814,-244 831.736,-225.867 822.544,-213.245 825,-188 830.745,-128.943 845.705,-99.173 805,-56 757.968,-6.11593 721.413,-37.0216 655,-20 654.899,-19.9742 654.798,-19.9483 654.698,-19.9224"/>
<polygon fill="midnightblue" stroke="midnightblue" points="655.617,-16.5451 645.055,-17.3846 653.835,-23.3146 655.617,-16.5451"/>
</g>
<!-- Node26&#45;&gt;Node14 -->
<g id="edge56" class="edge"><title>Node26&#45;&gt;Node14</title>
<path fill="none" stroke="midnightblue" d="M573.696,-284.655C533.375,-277.864 474.804,-261.403 490,-224 504.721,-187.768 595.161,-113.371 635.088,-81.7472"/>
<polygon fill="midnightblue" stroke="midnightblue" points="637.319,-84.445 643.011,-75.5088 632.989,-78.9452 637.319,-84.445"/>
</g>
<!-- Node26&#45;&gt;Node17 -->
<g id="edge45" class="edge"><title>Node26&#45;&gt;Node17</title>
<path fill="none" stroke="midnightblue" d="M644.209,-284.832C729.082,-273.807 938,-240.431 938,-179 938,-179 938,-179 938,-121 938,-84.3005 912.679,-47.6567 895.79,-27.2973"/>
<polygon fill="midnightblue" stroke="midnightblue" points="898.348,-24.9037 889.167,-19.6161 893.046,-29.475 898.348,-24.9037"/>
</g>
<!-- Node26&#45;&gt;Node20 -->
<g id="edge42" class="edge"><title>Node26&#45;&gt;Node20</title>
<path fill="none" stroke="midnightblue" d="M573.932,-288.45C484.987,-286.558 252.85,-278.373 185,-244 126.773,-214.502 121.855,-188.972 90,-132 81.7443,-117.235 75.3166,-99.0777 71.1998,-85.7102"/>
<polygon fill="midnightblue" stroke="midnightblue" points="74.4638,-84.4021 68.2957,-75.7878 67.7456,-86.3683 74.4638,-84.4021"/>
</g>
<!-- Node27 -->
<g id="node27" class="node"><title>Node27</title>
<polygon fill="white" stroke="#bfbfbf" points="499,-224.5 499,-243.5 551,-243.5 551,-224.5 499,-224.5"/>
<text text-anchor="middle" x="525" y="-231.5" font-family="Helvetica,sans-Serif" font-size="10.00">mutex.h</text>
</g>
<!-- Node26&#45;&gt;Node27 -->
<g id="edge43" class="edge"><title>Node26&#45;&gt;Node27</title>
<path fill="none" stroke="midnightblue" d="M595.504,-280.324C582.4,-271.9 562.288,-258.971 546.893,-249.074"/>
<polygon fill="midnightblue" stroke="midnightblue" points="548.767,-246.118 538.463,-243.655 544.982,-252.006 548.767,-246.118"/>
</g>
<!-- Node28 -->
<g id="node28" class="node"><title>Node28</title>
<g id="a_node28"><a xlink:href="_i_plug_structs_8h_source.html" target="_top" xlink:title="IPlugStructs.h">
<polygon fill="white" stroke="black" points="569.5,-224.5 569.5,-243.5 648.5,-243.5 648.5,-224.5 569.5,-224.5"/>
<text text-anchor="middle" x="609" y="-231.5" font-family="Helvetica,sans-Serif" font-size="10.00">IPlugStructs.h</text>
</a>
</g>
</g>
<!-- Node26&#45;&gt;Node28 -->
<g id="edge46" class="edge"><title>Node26&#45;&gt;Node28</title>
<path fill="none" stroke="midnightblue" d="M609,-280.083C609,-273.006 609,-262.861 609,-253.986"/>
<polygon fill="midnightblue" stroke="midnightblue" points="612.5,-253.751 609,-243.751 605.5,-253.751 612.5,-253.751"/>
</g>
<!-- Node30 -->
<g id="node30" class="node"><title>Node30</title>
<g id="a_node30"><a xlink:href="_i_plug_parameter_8h_source.html" target="_top" xlink:title="IPlugParameter.h">
<polygon fill="white" stroke="black" points="608,-112.5 608,-131.5 700,-131.5 700,-112.5 608,-112.5"/>
<text text-anchor="middle" x="654" y="-119.5" font-family="Helvetica,sans-Serif" font-size="10.00">IPlugParameter.h</text>
</a>
</g>
</g>
<!-- Node26&#45;&gt;Node30 -->
<g id="edge57" class="edge"><title>Node26&#45;&gt;Node30</title>
<path fill="none" stroke="midnightblue" d="M623.37,-280.33C634.88,-272.469 650.189,-259.722 657,-244 671.633,-210.224 664.836,-166.017 659.085,-141.469"/>
<polygon fill="midnightblue" stroke="midnightblue" points="662.452,-140.511 656.597,-131.681 655.668,-142.235 662.452,-140.511"/>
</g>
<!-- Node31 -->
<g id="node31" class="node"><title>Node31</title>
<g id="a_node31"><a xlink:href="_n_chan_delay_8h_source.html" target="_top" xlink:title="NChanDelay.h">
<polygon fill="white" stroke="black" points="705.5,-224.5 705.5,-243.5 786.5,-243.5 786.5,-224.5 705.5,-224.5"/>
<text text-anchor="middle" x="746" y="-231.5" font-family="Helvetica,sans-Serif" font-size="10.00">NChanDelay.h</text>
</a>
</g>
</g>
<!-- Node26&#45;&gt;Node31 -->
<g id="edge61" class="edge"><title>Node26&#45;&gt;Node31</title>
<path fill="none" stroke="midnightblue" d="M630.708,-280.444C653.355,-271.517 689.072,-257.439 714.752,-247.317"/>
<polygon fill="midnightblue" stroke="midnightblue" points="716.374,-250.44 724.394,-243.516 713.807,-243.927 716.374,-250.44"/>
</g>
<!-- Node28&#45;&gt;Node4 -->
<g id="edge50" class="edge"><title>Node28&#45;&gt;Node4</title>
<path fill="none" stroke="midnightblue" d="M574.299,-224.444C536.415,-215.102 475.651,-200.119 434.338,-189.933"/>
<polygon fill="midnightblue" stroke="midnightblue" points="435.086,-186.512 424.539,-187.516 433.41,-193.309 435.086,-186.512"/>
</g>
<!-- Node28&#45;&gt;Node13 -->
<g id="edge48" class="edge"><title>Node28&#45;&gt;Node13</title>
<path fill="none" stroke="midnightblue" d="M606.581,-224.075C599.497,-197.945 578.696,-121.211 569.036,-85.577"/>
<polygon fill="midnightblue" stroke="midnightblue" points="572.317,-84.304 566.323,-75.5681 565.561,-86.1355 572.317,-84.304"/>
</g>
<!-- Node28&#45;&gt;Node17 -->
<g id="edge49" class="edge"><title>Node28&#45;&gt;Node17</title>
<path fill="none" stroke="midnightblue" d="M631.187,-224.463C667.656,-209.669 741.276,-176.53 792,-132 827.293,-101.016 856.976,-53.7432 871.475,-28.4335"/>
<polygon fill="midnightblue" stroke="midnightblue" points="874.587,-30.0393 876.424,-19.6049 868.481,-26.6164 874.587,-30.0393"/>
</g>
<!-- Node28&#45;&gt;Node19 -->
<g id="edge47" class="edge"><title>Node28&#45;&gt;Node19</title>
<path fill="none" stroke="midnightblue" d="M588.243,-224.444C566.684,-215.557 532.737,-201.563 508.206,-191.451"/>
<polygon fill="midnightblue" stroke="midnightblue" points="509.239,-188.092 498.66,-187.516 506.572,-194.563 509.239,-188.092"/>
</g>
<!-- Node29 -->
<g id="node29" class="node"><title>Node29</title>
<g id="a_node29"><a xlink:href="_i_plug_midi_8h_source.html" target="_top" xlink:title="IPlugMidi.h">
<polygon fill="white" stroke="black" points="718.5,-112.5 718.5,-131.5 783.5,-131.5 783.5,-112.5 718.5,-112.5"/>
<text text-anchor="middle" x="751" y="-119.5" font-family="Helvetica,sans-Serif" font-size="10.00">IPlugMidi.h</text>
</a>
</g>
</g>
<!-- Node28&#45;&gt;Node29 -->
<g id="edge51" class="edge"><title>Node28&#45;&gt;Node29</title>
<path fill="none" stroke="midnightblue" d="M610.087,-224.2C612.236,-210.428 618.269,-183.731 634,-168 645.268,-156.732 681.932,-143.63 711.249,-134.479"/>
<polygon fill="midnightblue" stroke="midnightblue" points="712.325,-137.81 720.862,-131.536 710.275,-131.117 712.325,-137.81"/>
</g>
<!-- Node29&#45;&gt;Node9 -->
<g id="edge53" class="edge"><title>Node29&#45;&gt;Node9</title>
<path fill="none" stroke="midnightblue" d="M754.633,-112.083C757.612,-104.77 761.926,-94.1814 765.625,-85.1034"/>
<polygon fill="midnightblue" stroke="midnightblue" points="768.903,-86.3326 769.435,-75.7511 762.42,-83.6914 768.903,-86.3326"/>
</g>
<!-- Node29&#45;&gt;Node12 -->
<g id="edge52" class="edge"><title>Node29&#45;&gt;Node12</title>
<path fill="none" stroke="midnightblue" d="M718.051,-113.569C714.999,-112.993 711.947,-112.458 709,-112 626.642,-99.1988 375.395,-77.6235 282.77,-69.8769"/>
<polygon fill="midnightblue" stroke="midnightblue" points="282.791,-66.3666 272.535,-69.0232 282.209,-73.3424 282.791,-66.3666"/>
</g>
<!-- Node29&#45;&gt;Node14 -->
<g id="edge55" class="edge"><title>Node29&#45;&gt;Node14</title>
<path fill="none" stroke="midnightblue" d="M735.415,-112.324C720.001,-103.743 696.188,-90.486 678.29,-80.5224"/>
<polygon fill="midnightblue" stroke="midnightblue" points="679.986,-77.4606 669.546,-75.6545 676.581,-83.5767 679.986,-77.4606"/>
</g>
<!-- Node29&#45;&gt;Node17 -->
<g id="edge54" class="edge"><title>Node29&#45;&gt;Node17</title>
<path fill="none" stroke="midnightblue" d="M761.385,-112.412C772.282,-103.386 789.894,-88.7532 805,-76 824.924,-59.179 847.629,-39.7229 862.993,-26.5131"/>
<polygon fill="midnightblue" stroke="midnightblue" points="865.412,-29.0488 870.71,-19.8734 860.847,-23.7427 865.412,-29.0488"/>
</g>
<!-- Node30&#45;&gt;Node10 -->
<g id="edge58" class="edge"><title>Node30&#45;&gt;Node10</title>
<path fill="none" stroke="midnightblue" d="M668.743,-112.41C687.405,-100.378 715.685,-77.5585 703,-56 692.537,-38.2183 672.228,-26.9591 654.565,-20.1499"/>
<polygon fill="midnightblue" stroke="midnightblue" points="655.698,-16.8383 645.103,-16.8116 653.369,-23.4395 655.698,-16.8383"/>
</g>
<!-- Node30&#45;&gt;Node13 -->
<g id="edge59" class="edge"><title>Node30&#45;&gt;Node13</title>
<path fill="none" stroke="midnightblue" d="M639.54,-112.324C625.5,-103.9 603.952,-90.9709 587.457,-81.0741"/>
<polygon fill="midnightblue" stroke="midnightblue" points="588.8,-77.7983 578.424,-75.6545 585.198,-83.8007 588.8,-77.7983"/>
</g>
<!-- Node30&#45;&gt;Node14 -->
<g id="edge60" class="edge"><title>Node30&#45;&gt;Node14</title>
<path fill="none" stroke="midnightblue" d="M654,-112.083C654,-105.006 654,-94.8611 654,-85.9865"/>
<polygon fill="midnightblue" stroke="midnightblue" points="657.5,-85.751 654,-75.7511 650.5,-85.7511 657.5,-85.751"/>
</g>
</g>
</svg>
