<?xml version="1.0" encoding="UTF-8" standalone="no"?>
<!DOCTYPE svg PUBLIC "-//W3C//DTD SVG 1.1//EN"
 "http://www.w3.org/Graphics/SVG/1.1/DTD/svg11.dtd">
<!-- Generated by graphviz version 2.36.0 (20140111.2315)
 -->
<!-- Title: IPlugPlatform.h Pages: 1 -->
<svg width="1495pt" height="488pt"
 viewBox="0.00 0.00 1495.00 488.00" xmlns="http://www.w3.org/2000/svg" xmlns:xlink="http://www.w3.org/1999/xlink">
<g id="graph0" class="graph" transform="scale(1 1) rotate(0) translate(4 484)">
<title>IPlugPlatform.h</title>
<polygon fill="white" stroke="none" points="-4,4 -4,-484 1491,-484 1491,4 -4,4"/>
<!-- Node1 -->
<g id="node1" class="node"><title>Node1</title>
<polygon fill="#bfbfbf" stroke="black" points="729,-460.5 729,-479.5 813,-479.5 813,-460.5 729,-460.5"/>
<text text-anchor="middle" x="771" y="-467.5" font-family="Helvetica,sans-Serif" font-size="10.00">IPlugPlatform.h</text>
</g>
<!-- Node2 -->
<g id="node2" class="node"><title>Node2</title>
<g id="a_node2"><a xlink:href="_i_graphics_constants_8h_source.html" target="_top" xlink:title="IGraphicsConstants.h">
<polygon fill="white" stroke="black" points="166,-336.5 166,-355.5 278,-355.5 278,-336.5 166,-336.5"/>
<text text-anchor="middle" x="222" y="-343.5" font-family="Helvetica,sans-Serif" font-size="10.00">IGraphicsConstants.h</text>
</a>
</g>
</g>
<!-- Node1&#45;&gt;Node2 -->
<g id="edge1" class="edge"><title>Node1&#45;&gt;Node2</title>
<path fill="none" stroke="midnightblue" d="M718.759,-468.797C610.527,-467.623 365.742,-460.841 292,-424 260.646,-408.336 236.613,-372.193 226.812,-355.605"/>
<polygon fill="midnightblue" stroke="midnightblue" points="718.763,-472.297 728.796,-468.894 718.831,-465.298 718.763,-472.297"/>
</g>
<!-- Node13 -->
<g id="node13" class="node"><title>Node13</title>
<g id="a_node13"><a xlink:href="_i_graphics_cairo_8h_source.html" target="_top" xlink:title="IGraphicsCairo.h">
<polygon fill="white" stroke="black" points="116,-224.5 116,-243.5 206,-243.5 206,-224.5 116,-224.5"/>
<text text-anchor="middle" x="161" y="-231.5" font-family="Helvetica,sans-Serif" font-size="10.00">IGraphicsCairo.h</text>
</a>
</g>
</g>
<!-- Node1&#45;&gt;Node13 -->
<g id="edge34" class="edge"><title>Node1&#45;&gt;Node13</title>
<path fill="none" stroke="midnightblue" d="M718.704,-466.405C629.13,-461.362 450.446,-448.517 393,-424 336.369,-399.831 333.725,-374.905 286,-336 243.831,-301.624 193.377,-261.016 171.727,-243.615"/>
<polygon fill="midnightblue" stroke="midnightblue" points="718.734,-469.912 728.912,-466.968 719.119,-462.923 718.734,-469.912"/>
</g>
<!-- Node15 -->
<g id="node15" class="node"><title>Node15</title>
<g id="a_node15"><a xlink:href="_i_graphics_lice_8h_source.html" target="_top" xlink:title="IGraphicsLice.h">
<polygon fill="white" stroke="black" points="543.5,-224.5 543.5,-243.5 628.5,-243.5 628.5,-224.5 543.5,-224.5"/>
<text text-anchor="middle" x="586" y="-231.5" font-family="Helvetica,sans-Serif" font-size="10.00">IGraphicsLice.h</text>
</a>
</g>
</g>
<!-- Node1&#45;&gt;Node15 -->
<g id="edge35" class="edge"><title>Node1&#45;&gt;Node15</title>
<path fill="none" stroke="midnightblue" d="M719.244,-459C696.985,-452.372 672.189,-441.536 655,-424 602.429,-370.367 589.493,-273.512 586.697,-243.864"/>
<polygon fill="midnightblue" stroke="midnightblue" points="718.355,-462.385 728.926,-461.674 720.219,-455.638 718.355,-462.385"/>
</g>
<!-- Node22 -->
<g id="node22" class="node"><title>Node22</title>
<g id="a_node22"><a xlink:href="_i_graphics_nano_v_g_8h_source.html" target="_top" xlink:title="IGraphicsNanoVG.h">
<polygon fill="white" stroke="black" points="794,-224.5 794,-243.5 898,-243.5 898,-224.5 794,-224.5"/>
<text text-anchor="middle" x="846" y="-231.5" font-family="Helvetica,sans-Serif" font-size="10.00">IGraphicsNanoVG.h</text>
</a>
</g>
</g>
<!-- Node1&#45;&gt;Node22 -->
<g id="edge36" class="edge"><title>Node1&#45;&gt;Node22</title>
<path fill="none" stroke="midnightblue" d="M719.02,-460.04C698.28,-453.639 676.418,-442.694 664,-424 656.131,-412.153 658.078,-404.93 664,-392 698.667,-316.312 789.831,-263.244 828.383,-243.506"/>
<polygon fill="midnightblue" stroke="midnightblue" points="718.175,-463.438 728.747,-462.752 720.055,-456.695 718.175,-463.438"/>
</g>
<!-- Node27 -->
<g id="node27" class="node"><title>Node27</title>
<g id="a_node27"><a xlink:href="_i_graphics_structs_8h_source.html" target="_top" xlink:title="IGraphicsStructs.h">
<polygon fill="white" stroke="black" points="402,-398.5 402,-417.5 500,-417.5 500,-398.5 402,-398.5"/>
<text text-anchor="middle" x="451" y="-405.5" font-family="Helvetica,sans-Serif" font-size="10.00">IGraphicsStructs.h</text>
</a>
</g>
</g>
<!-- Node1&#45;&gt;Node27 -->
<g id="edge32" class="edge"><title>Node1&#45;&gt;Node27</title>
<path fill="none" stroke="midnightblue" d="M718.902,-459.232C657.092,-447.642 555.051,-428.509 496.357,-417.504"/>
<polygon fill="midnightblue" stroke="midnightblue" points="718.363,-462.691 728.837,-461.094 719.653,-455.811 718.363,-462.691"/>
</g>
<!-- Node28 -->
<g id="node28" class="node"><title>Node28</title>
<g id="a_node28"><a xlink:href="_i_plug__include__in__plug__hdr_8h.html" target="_top" xlink:title="IPlug header include. ">
<polygon fill="white" stroke="black" points="673.5,-393 673.5,-423 784.5,-423 784.5,-393 673.5,-393"/>
<text text-anchor="start" x="681.5" y="-411" font-family="Helvetica,sans-Serif" font-size="10.00">IPlug_include_in_plug</text>
<text text-anchor="middle" x="729" y="-400" font-family="Helvetica,sans-Serif" font-size="10.00">_hdr.h</text>
</a>
</g>
</g>
<!-- Node1&#45;&gt;Node28 -->
<g id="edge37" class="edge"><title>Node1&#45;&gt;Node28</title>
<path fill="none" stroke="midnightblue" d="M759.174,-452.106C752.779,-442.97 744.97,-431.814 738.899,-423.141"/>
<polygon fill="midnightblue" stroke="midnightblue" points="756.38,-454.218 764.982,-460.403 762.115,-450.204 756.38,-454.218"/>
</g>
<!-- Node29 -->
<g id="node29" class="node"><title>Node29</title>
<g id="a_node29"><a xlink:href="_i_plug_utilities_8h.html" target="_top" xlink:title="Utility functions and macros. ">
<polygon fill="white" stroke="black" points="895,-398.5 895,-417.5 975,-417.5 975,-398.5 895,-398.5"/>
<text text-anchor="middle" x="935" y="-405.5" font-family="Helvetica,sans-Serif" font-size="10.00">IPlugUtilities.h</text>
</a>
</g>
</g>
<!-- Node1&#45;&gt;Node29 -->
<g id="edge38" class="edge"><title>Node1&#45;&gt;Node29</title>
<path fill="none" stroke="midnightblue" d="M804.261,-456.831C836.136,-445.17 883.434,-427.865 911.546,-417.581"/>
<polygon fill="midnightblue" stroke="midnightblue" points="802.686,-453.681 794.497,-460.403 805.091,-460.255 802.686,-453.681"/>
</g>
<!-- Node32 -->
<g id="node32" class="node"><title>Node32</title>
<g id="a_node32"><a xlink:href="_i_plug_structs_8h_source.html" target="_top" xlink:title="IPlugStructs.h">
<polygon fill="white" stroke="black" points="827.5,-280.5 827.5,-299.5 906.5,-299.5 906.5,-280.5 827.5,-280.5"/>
<text text-anchor="middle" x="867" y="-287.5" font-family="Helvetica,sans-Serif" font-size="10.00">IPlugStructs.h</text>
</a>
</g>
</g>
<!-- Node1&#45;&gt;Node32 -->
<g id="edge67" class="edge"><title>Node1&#45;&gt;Node32</title>
<path fill="none" stroke="midnightblue" d="M779.809,-451.371C783.894,-443.097 788.771,-433.079 793,-424 811.065,-385.221 810.038,-372.712 832,-336 840.13,-322.41 851.769,-308.23 859.355,-299.505"/>
<polygon fill="midnightblue" stroke="midnightblue" points="776.628,-449.906 775.314,-460.419 782.897,-453.02 776.628,-449.906"/>
</g>
<!-- Node33 -->
<g id="node33" class="node"><title>Node33</title>
<g id="a_node33"><a xlink:href="_i_plug_base_8h.html" target="_top" xlink:title="The lowest level base class of an IPlug plug&#45;in. ">
<polygon fill="white" stroke="black" points="1060,-224.5 1060,-243.5 1130,-243.5 1130,-224.5 1060,-224.5"/>
<text text-anchor="middle" x="1095" y="-231.5" font-family="Helvetica,sans-Serif" font-size="10.00">IPlugBase.h</text>
</a>
</g>
</g>
<!-- Node1&#45;&gt;Node33 -->
<g id="edge66" class="edge"><title>Node1&#45;&gt;Node33</title>
<path fill="none" stroke="midnightblue" d="M823.507,-464.539C876.28,-458.967 959.411,-447.193 1028,-424 1090.14,-402.987 1124.94,-412.061 1159,-356 1183.8,-315.178 1130.2,-263.867 1106.03,-243.703"/>
<polygon fill="midnightblue" stroke="midnightblue" points="822.964,-461.076 813.37,-465.573 823.674,-468.04 822.964,-461.076"/>
</g>
<!-- Node36 -->
<g id="node36" class="node"><title>Node36</title>
<g id="a_node36"><a xlink:href="_i_plug_a_a_x_8h.html" target="_top" xlink:title="AAX API base class for an IPlug plug&#45;in, inherits from IPlugBase or IPlugBaseGraphics. ">
<polygon fill="white" stroke="black" points="1318,-56.5 1318,-75.5 1386,-75.5 1386,-56.5 1318,-56.5"/>
<text text-anchor="middle" x="1352" y="-63.5" font-family="Helvetica,sans-Serif" font-size="10.00">IPlugAAX.h</text>
</a>
</g>
</g>
<!-- Node1&#45;&gt;Node36 -->
<g id="edge65" class="edge"><title>Node1&#45;&gt;Node36</title>
<path fill="none" stroke="midnightblue" d="M823.09,-464.478C974.692,-450.625 1405,-406.1 1405,-347 1405,-347 1405,-347 1405,-177 1405,-135.663 1374.25,-93.4768 1359.59,-75.7193"/>
<polygon fill="midnightblue" stroke="midnightblue" points="822.733,-460.996 813.09,-465.384 823.365,-467.968 822.733,-460.996"/>
</g>
<!-- Node38 -->
<g id="node38" class="node"><title>Node38</title>
<g id="a_node38"><a xlink:href="_i_plug_a_p_p_8h.html" target="_top" xlink:title="Standalone application base class for an IPlug plug&#45;in, inherits from IPlugBase or IPlugBaseGraphics...">
<polygon fill="white" stroke="black" points="1409,-56.5 1409,-75.5 1477,-75.5 1477,-56.5 1409,-56.5"/>
<text text-anchor="middle" x="1443" y="-63.5" font-family="Helvetica,sans-Serif" font-size="10.00">IPlugAPP.h</text>
</a>
</g>
</g>
<!-- Node1&#45;&gt;Node38 -->
<g id="edge68" class="edge"><title>Node1&#45;&gt;Node38</title>
<path fill="none" stroke="midnightblue" d="M823.3,-469.027C912.524,-467.989 1099.32,-461.08 1252,-424 1340.94,-402.4 1443,-438.528 1443,-347 1443,-347 1443,-347 1443,-177 1443,-139.188 1443,-94.0636 1443,-75.5578"/>
<polygon fill="midnightblue" stroke="midnightblue" points="823.135,-465.529 813.169,-469.125 823.203,-472.528 823.135,-465.529"/>
</g>
<!-- Node3 -->
<g id="node3" class="node"><title>Node3</title>
<g id="a_node3"><a xlink:href="_i_graphics_8h.html" target="_top" xlink:title="The lowest level base class of an IGraphics context. ">
<polygon fill="white" stroke="black" points="334.5,-280.5 334.5,-299.5 401.5,-299.5 401.5,-280.5 334.5,-280.5"/>
<text text-anchor="middle" x="368" y="-287.5" font-family="Helvetica,sans-Serif" font-size="10.00">IGraphics.h</text>
</a>
</g>
</g>
<!-- Node2&#45;&gt;Node3 -->
<g id="edge2" class="edge"><title>Node2&#45;&gt;Node3</title>
<path fill="none" stroke="midnightblue" d="M254.699,-332.906C282.148,-322.754 320.668,-308.506 344.974,-299.516"/>
<polygon fill="midnightblue" stroke="midnightblue" points="253.299,-329.692 245.134,-336.444 255.727,-336.257 253.299,-329.692"/>
</g>
<!-- Node25 -->
<g id="node25" class="node"><title>Node25</title>
<g id="a_node25"><a xlink:href="_i_graphics_web_8h_source.html" target="_top" xlink:title="IGraphicsWeb.h">
<polygon fill="white" stroke="black" points="92.5,-280.5 92.5,-299.5 179.5,-299.5 179.5,-280.5 92.5,-280.5"/>
<text text-anchor="middle" x="136" y="-287.5" font-family="Helvetica,sans-Serif" font-size="10.00">IGraphicsWeb.h</text>
</a>
</g>
</g>
<!-- Node2&#45;&gt;Node25 -->
<g id="edge30" class="edge"><title>Node2&#45;&gt;Node25</title>
<path fill="none" stroke="midnightblue" d="M199.545,-330.901C183.776,-320.999 163.186,-308.071 149.783,-299.655"/>
<polygon fill="midnightblue" stroke="midnightblue" points="197.852,-333.97 208.183,-336.324 201.575,-328.042 197.852,-333.97"/>
</g>
<!-- Node4 -->
<g id="node4" class="node"><title>Node4</title>
<g id="a_node4"><a xlink:href="_i_control_8h.html" target="_top" xlink:title="The lowest level base class of an IGraphics control. ">
<polygon fill="white" stroke="black" points="371.5,-112.5 371.5,-131.5 430.5,-131.5 430.5,-112.5 371.5,-112.5"/>
<text text-anchor="middle" x="401" y="-119.5" font-family="Helvetica,sans-Serif" font-size="10.00">IControl.h</text>
</a>
</g>
</g>
<!-- Node3&#45;&gt;Node4 -->
<g id="edge3" class="edge"><title>Node3&#45;&gt;Node4</title>
<path fill="none" stroke="midnightblue" d="M336.122,-275.357C324.065,-267.652 311.79,-256.961 305,-244 289.292,-214.015 282.078,-196.717 300,-168 315.062,-143.866 347.234,-132.321 371.442,-127.057"/>
<polygon fill="midnightblue" stroke="midnightblue" points="334.384,-278.395 344.782,-280.429 337.922,-272.355 334.384,-278.395"/>
</g>
<!-- Node9 -->
<g id="node9" class="node"><title>Node9</title>
<g id="a_node9"><a xlink:href="_i_graphics_8cpp_source.html" target="_top" xlink:title="IGraphics.cpp">
<polygon fill="white" stroke="black" points="279.5,-0.5 279.5,-19.5 356.5,-19.5 356.5,-0.5 279.5,-0.5"/>
<text text-anchor="middle" x="318" y="-7.5" font-family="Helvetica,sans-Serif" font-size="10.00">IGraphics.cpp</text>
</a>
</g>
</g>
<!-- Node3&#45;&gt;Node9 -->
<g id="edge11" class="edge"><title>Node3&#45;&gt;Node9</title>
<path fill="none" stroke="midnightblue" d="M331.481,-276.905C291.803,-261.188 234,-229.606 234,-179 234,-179 234,-179 234,-121 234,-90.9022 235.394,-80.4114 253,-56 264.802,-39.6359 284.482,-27.2272 299.102,-19.6271"/>
<polygon fill="midnightblue" stroke="midnightblue" points="330.292,-280.198 340.883,-280.471 332.774,-273.653 330.292,-280.198"/>
</g>
<!-- Node11 -->
<g id="node11" class="node"><title>Node11</title>
<g id="a_node11"><a xlink:href="_i_graphics_a_g_g_8h_source.html" target="_top" xlink:title="IGraphicsAGG.h">
<polygon fill="white" stroke="black" points="323.5,-224.5 323.5,-243.5 412.5,-243.5 412.5,-224.5 323.5,-224.5"/>
<text text-anchor="middle" x="368" y="-231.5" font-family="Helvetica,sans-Serif" font-size="10.00">IGraphicsAGG.h</text>
</a>
</g>
</g>
<!-- Node3&#45;&gt;Node11 -->
<g id="edge12" class="edge"><title>Node3&#45;&gt;Node11</title>
<path fill="none" stroke="midnightblue" d="M368,-269.805C368,-260.91 368,-250.78 368,-243.751"/>
<polygon fill="midnightblue" stroke="midnightblue" points="364.5,-270.083 368,-280.083 371.5,-270.083 364.5,-270.083"/>
</g>
<!-- Node3&#45;&gt;Node13 -->
<g id="edge14" class="edge"><title>Node3&#45;&gt;Node13</title>
<path fill="none" stroke="midnightblue" d="M325.178,-277.829C286.094,-267.633 229.165,-252.782 193.646,-243.516"/>
<polygon fill="midnightblue" stroke="midnightblue" points="324.641,-281.306 335.2,-280.444 326.408,-274.533 324.641,-281.306"/>
</g>
<!-- Node3&#45;&gt;Node15 -->
<g id="edge16" class="edge"><title>Node3&#45;&gt;Node15</title>
<path fill="none" stroke="midnightblue" d="M411.347,-278.263C452.556,-268.055 513.72,-252.904 551.657,-243.507"/>
<polygon fill="midnightblue" stroke="midnightblue" points="410.45,-274.879 401.585,-280.681 412.133,-281.674 410.45,-274.879"/>
</g>
<!-- Node3&#45;&gt;Node22 -->
<g id="edge27" class="edge"><title>Node3&#45;&gt;Node22</title>
<path fill="none" stroke="midnightblue" d="M411.738,-284.611C487.032,-276.968 645.97,-260.455 780,-244 784.476,-243.45 789.121,-242.859 793.778,-242.252"/>
<polygon fill="midnightblue" stroke="midnightblue" points="411.277,-281.14 401.68,-285.629 411.982,-288.104 411.277,-281.14"/>
</g>
<!-- Node24 -->
<g id="node24" class="node"><title>Node24</title>
<g id="a_node24"><a xlink:href="_i_plug_base_graphics_8cpp_source.html" target="_top" xlink:title="IPlugBaseGraphics.cpp">
<polygon fill="white" stroke="black" points="852.5,-112.5 852.5,-131.5 971.5,-131.5 971.5,-112.5 852.5,-112.5"/>
<text text-anchor="middle" x="912" y="-119.5" font-family="Helvetica,sans-Serif" font-size="10.00">IPlugBaseGraphics.cpp</text>
</a>
</g>
</g>
<!-- Node3&#45;&gt;Node24 -->
<g id="edge29" class="edge"><title>Node3&#45;&gt;Node24</title>
<path fill="none" stroke="midnightblue" d="M412.197,-285.76C466.323,-280.856 560.267,-269.286 637,-244 689.104,-226.83 698.281,-213.22 747,-188 763.949,-179.226 767.516,-175.651 785,-168 818.43,-153.371 858.277,-139.861 884.307,-131.538"/>
<polygon fill="midnightblue" stroke="midnightblue" points="411.578,-282.301 401.919,-286.655 412.185,-289.274 411.578,-282.301"/>
</g>
<!-- Node4&#45;&gt;Node3 -->
<g id="edge5" class="edge"><title>Node4&#45;&gt;Node3</title>
<path fill="none" stroke="midnightblue" d="M361.972,-134.744C345.521,-141.515 327.994,-151.986 318,-168 300.078,-196.717 307.292,-214.015 323,-244 331.381,-259.999 348.12,-272.539 359.013,-280.273"/>
<polygon fill="midnightblue" stroke="midnightblue" points="363.342,-137.968 371.469,-131.171 360.877,-131.416 363.342,-137.968"/>
</g>
<!-- Node5 -->
<g id="node5" class="node"><title>Node5</title>
<g id="a_node5"><a xlink:href="_i_control_8cpp_source.html" target="_top" xlink:title="IControl.cpp">
<polygon fill="white" stroke="black" points="262,-56.5 262,-75.5 332,-75.5 332,-56.5 262,-56.5"/>
<text text-anchor="middle" x="297" y="-63.5" font-family="Helvetica,sans-Serif" font-size="10.00">IControl.cpp</text>
</a>
</g>
</g>
<!-- Node4&#45;&gt;Node5 -->
<g id="edge4" class="edge"><title>Node4&#45;&gt;Node5</title>
<path fill="none" stroke="midnightblue" d="M375.172,-107.59C355.943,-97.6052 330.255,-84.2672 313.668,-75.6545"/>
<polygon fill="midnightblue" stroke="midnightblue" points="373.803,-110.822 384.291,-112.324 377.029,-104.61 373.803,-110.822"/>
</g>
<!-- Node6 -->
<g id="node6" class="node"><title>Node6</title>
<g id="a_node6"><a xlink:href="_i_controls_8h.html" target="_top" xlink:title="A collection of IControls for common UI widgets, such as knobs, sliders, switches. ">
<polygon fill="white" stroke="black" points="470.5,-56.5 470.5,-75.5 535.5,-75.5 535.5,-56.5 470.5,-56.5"/>
<text text-anchor="middle" x="503" y="-63.5" font-family="Helvetica,sans-Serif" font-size="10.00">IControls.h</text>
</a>
</g>
</g>
<!-- Node4&#45;&gt;Node6 -->
<g id="edge6" class="edge"><title>Node4&#45;&gt;Node6</title>
<path fill="none" stroke="midnightblue" d="M426.331,-107.59C445.19,-97.6052 470.384,-84.2672 486.653,-75.6545"/>
<polygon fill="midnightblue" stroke="midnightblue" points="424.588,-104.552 417.388,-112.324 427.864,-110.738 424.588,-104.552"/>
</g>
<!-- Node8 -->
<g id="node8" class="node"><title>Node8</title>
<g id="a_node8"><a xlink:href="_i_graphics_live_edit_8h_source.html" target="_top" xlink:title="IGraphicsLiveEdit.h">
<polygon fill="white" stroke="black" points="350,-56.5 350,-75.5 452,-75.5 452,-56.5 350,-56.5"/>
<text text-anchor="middle" x="401" y="-63.5" font-family="Helvetica,sans-Serif" font-size="10.00">IGraphicsLiveEdit.h</text>
</a>
</g>
</g>
<!-- Node4&#45;&gt;Node8 -->
<g id="edge8" class="edge"><title>Node4&#45;&gt;Node8</title>
<path fill="none" stroke="midnightblue" d="M401,-101.805C401,-92.9102 401,-82.7798 401,-75.7511"/>
<polygon fill="midnightblue" stroke="midnightblue" points="397.5,-102.083 401,-112.083 404.5,-102.083 397.5,-102.083"/>
</g>
<!-- Node10 -->
<g id="node10" class="node"><title>Node10</title>
<g id="a_node10"><a xlink:href="_i_graphics_mac_8mm_source.html" target="_top" xlink:title="IGraphicsMac.mm">
<polygon fill="white" stroke="black" points="553.5,-56.5 553.5,-75.5 650.5,-75.5 650.5,-56.5 553.5,-56.5"/>
<text text-anchor="middle" x="602" y="-63.5" font-family="Helvetica,sans-Serif" font-size="10.00">IGraphicsMac.mm</text>
</a>
</g>
</g>
<!-- Node4&#45;&gt;Node10 -->
<g id="edge10" class="edge"><title>Node4&#45;&gt;Node10</title>
<path fill="none" stroke="midnightblue" d="M440.356,-110.427C478.317,-100.228 535.052,-84.986 570.227,-75.536"/>
<polygon fill="midnightblue" stroke="midnightblue" points="439.408,-107.057 430.658,-113.032 441.224,-113.818 439.408,-107.057"/>
</g>
<!-- Node7 -->
<g id="node7" class="node"><title>Node7</title>
<g id="a_node7"><a xlink:href="_i_controls_8cpp_source.html" target="_top" xlink:title="IControls.cpp">
<polygon fill="white" stroke="black" points="465.5,-0.5 465.5,-19.5 540.5,-19.5 540.5,-0.5 465.5,-0.5"/>
<text text-anchor="middle" x="503" y="-7.5" font-family="Helvetica,sans-Serif" font-size="10.00">IControls.cpp</text>
</a>
</g>
</g>
<!-- Node6&#45;&gt;Node7 -->
<g id="edge7" class="edge"><title>Node6&#45;&gt;Node7</title>
<path fill="none" stroke="midnightblue" d="M503,-45.8045C503,-36.9102 503,-26.7798 503,-19.7511"/>
<polygon fill="midnightblue" stroke="midnightblue" points="499.5,-46.083 503,-56.083 506.5,-46.083 499.5,-46.083"/>
</g>
<!-- Node8&#45;&gt;Node9 -->
<g id="edge9" class="edge"><title>Node8&#45;&gt;Node9</title>
<path fill="none" stroke="midnightblue" d="M378.901,-50.6221C363.738,-40.7574 344.117,-27.9919 331.302,-19.6545"/>
<polygon fill="midnightblue" stroke="midnightblue" points="377.374,-53.8042 387.665,-56.324 381.191,-47.9367 377.374,-53.8042"/>
</g>
<!-- Node12 -->
<g id="node12" class="node"><title>Node12</title>
<g id="a_node12"><a xlink:href="_i_graphics_a_g_g_8cpp_source.html" target="_top" xlink:title="IGraphicsAGG.cpp">
<polygon fill="white" stroke="black" points="318.5,-168.5 318.5,-187.5 417.5,-187.5 417.5,-168.5 318.5,-168.5"/>
<text text-anchor="middle" x="368" y="-175.5" font-family="Helvetica,sans-Serif" font-size="10.00">IGraphicsAGG.cpp</text>
</a>
</g>
</g>
<!-- Node11&#45;&gt;Node12 -->
<g id="edge13" class="edge"><title>Node11&#45;&gt;Node12</title>
<path fill="none" stroke="midnightblue" d="M368,-213.805C368,-204.91 368,-194.78 368,-187.751"/>
<polygon fill="midnightblue" stroke="midnightblue" points="364.5,-214.083 368,-224.083 371.5,-214.083 364.5,-214.083"/>
</g>
<!-- Node14 -->
<g id="node14" class="node"><title>Node14</title>
<g id="a_node14"><a xlink:href="_i_graphics_cairo_8cpp_source.html" target="_top" xlink:title="IGraphicsCairo.cpp">
<polygon fill="white" stroke="black" points="104.5,-168.5 104.5,-187.5 205.5,-187.5 205.5,-168.5 104.5,-168.5"/>
<text text-anchor="middle" x="155" y="-175.5" font-family="Helvetica,sans-Serif" font-size="10.00">IGraphicsCairo.cpp</text>
</a>
</g>
</g>
<!-- Node13&#45;&gt;Node14 -->
<g id="edge15" class="edge"><title>Node13&#45;&gt;Node14</title>
<path fill="none" stroke="midnightblue" d="M158.9,-214.101C157.904,-205.136 156.762,-194.858 155.972,-187.751"/>
<polygon fill="midnightblue" stroke="midnightblue" points="155.426,-214.531 160.009,-224.083 162.383,-213.758 155.426,-214.531"/>
</g>
<!-- Node16 -->
<g id="node16" class="node"><title>Node16</title>
<g id="a_node16"><a xlink:href="_i_graphics_lice_8cpp_source.html" target="_top" xlink:title="IGraphicsLice.cpp">
<polygon fill="white" stroke="black" points="538.5,-168.5 538.5,-187.5 633.5,-187.5 633.5,-168.5 538.5,-168.5"/>
<text text-anchor="middle" x="586" y="-175.5" font-family="Helvetica,sans-Serif" font-size="10.00">IGraphicsLice.cpp</text>
</a>
</g>
</g>
<!-- Node15&#45;&gt;Node16 -->
<g id="edge17" class="edge"><title>Node15&#45;&gt;Node16</title>
<path fill="none" stroke="midnightblue" d="M586,-213.805C586,-204.91 586,-194.78 586,-187.751"/>
<polygon fill="midnightblue" stroke="midnightblue" points="582.5,-214.083 586,-224.083 589.5,-214.083 582.5,-214.083"/>
</g>
<!-- Node18 -->
<g id="node18" class="node"><title>Node18</title>
<g id="a_node18"><a xlink:href="_i_graphics_mac_8h_source.html" target="_top" xlink:title="IGraphicsMac.h">
<polygon fill="white" stroke="black" points="652,-168.5 652,-187.5 738,-187.5 738,-168.5 652,-168.5"/>
<text text-anchor="middle" x="695" y="-175.5" font-family="Helvetica,sans-Serif" font-size="10.00">IGraphicsMac.h</text>
</a>
</g>
</g>
<!-- Node15&#45;&gt;Node18 -->
<g id="edge20" class="edge"><title>Node15&#45;&gt;Node18</title>
<path fill="none" stroke="midnightblue" d="M612.519,-219.862C632.73,-209.849 659.987,-196.346 677.531,-187.655"/>
<polygon fill="midnightblue" stroke="midnightblue" points="610.92,-216.748 603.513,-224.324 614.027,-223.021 610.92,-216.748"/>
</g>
<!-- Node21 -->
<g id="node21" class="node"><title>Node21</title>
<g id="a_node21"><a xlink:href="_i_graphics_win_8h_source.html" target="_top" xlink:title="IGraphicsWin.h">
<polygon fill="white" stroke="black" points="436,-168.5 436,-187.5 520,-187.5 520,-168.5 436,-168.5"/>
<text text-anchor="middle" x="478" y="-175.5" font-family="Helvetica,sans-Serif" font-size="10.00">IGraphicsWin.h</text>
</a>
</g>
</g>
<!-- Node15&#45;&gt;Node21 -->
<g id="edge25" class="edge"><title>Node15&#45;&gt;Node21</title>
<path fill="none" stroke="midnightblue" d="M559.452,-219.726C539.454,-209.727 512.613,-196.307 495.309,-187.655"/>
<polygon fill="midnightblue" stroke="midnightblue" points="558.138,-222.982 568.648,-224.324 561.269,-216.721 558.138,-222.982"/>
</g>
<!-- Node16&#45;&gt;Node10 -->
<g id="edge18" class="edge"><title>Node16&#45;&gt;Node10</title>
<path fill="none" stroke="midnightblue" d="M588.713,-158.348C592.218,-134.254 598.173,-93.3079 600.75,-75.5914"/>
<polygon fill="midnightblue" stroke="midnightblue" points="585.231,-157.969 587.255,-168.368 592.159,-158.976 585.231,-157.969"/>
</g>
<!-- Node17 -->
<g id="node17" class="node"><title>Node17</title>
<g id="a_node17"><a xlink:href="_i_graphics_win_8cpp_source.html" target="_top" xlink:title="IGraphicsWin.cpp">
<polygon fill="white" stroke="black" points="455.5,-112.5 455.5,-131.5 550.5,-131.5 550.5,-112.5 455.5,-112.5"/>
<text text-anchor="middle" x="503" y="-119.5" font-family="Helvetica,sans-Serif" font-size="10.00">IGraphicsWin.cpp</text>
</a>
</g>
</g>
<!-- Node16&#45;&gt;Node17 -->
<g id="edge19" class="edge"><title>Node16&#45;&gt;Node17</title>
<path fill="none" stroke="midnightblue" d="M563.901,-162.622C548.738,-152.757 529.117,-139.992 516.302,-131.655"/>
<polygon fill="midnightblue" stroke="midnightblue" points="562.374,-165.804 572.665,-168.324 566.191,-159.937 562.374,-165.804"/>
</g>
<!-- Node18&#45;&gt;Node10 -->
<g id="edge21" class="edge"><title>Node18&#45;&gt;Node10</title>
<path fill="none" stroke="midnightblue" d="M674.946,-161.972C664.725,-153.761 652.485,-143.034 643,-132 627.17,-113.586 613.126,-88.5015 606.329,-75.538"/>
<polygon fill="midnightblue" stroke="midnightblue" points="672.919,-164.83 682.953,-168.23 677.229,-159.314 672.919,-164.83"/>
</g>
<!-- Node19 -->
<g id="node19" class="node"><title>Node19</title>
<g id="a_node19"><a xlink:href="_i_graphics_mac__view_8h_source.html" target="_top" xlink:title="IGraphicsMac_view.h">
<polygon fill="white" stroke="black" points="652.5,-112.5 652.5,-131.5 763.5,-131.5 763.5,-112.5 652.5,-112.5"/>
<text text-anchor="middle" x="708" y="-119.5" font-family="Helvetica,sans-Serif" font-size="10.00">IGraphicsMac_view.h</text>
</a>
</g>
</g>
<!-- Node18&#45;&gt;Node19 -->
<g id="edge22" class="edge"><title>Node18&#45;&gt;Node19</title>
<path fill="none" stroke="midnightblue" d="M699.55,-158.101C701.708,-149.136 704.182,-138.858 705.893,-131.751"/>
<polygon fill="midnightblue" stroke="midnightblue" points="696.085,-157.542 697.147,-168.083 702.89,-159.18 696.085,-157.542"/>
</g>
<!-- Node19&#45;&gt;Node10 -->
<g id="edge23" class="edge"><title>Node19&#45;&gt;Node10</title>
<path fill="none" stroke="midnightblue" d="M681.944,-107.726C662.316,-97.7271 635.972,-84.3065 618.988,-75.6545"/>
<polygon fill="midnightblue" stroke="midnightblue" points="680.47,-110.903 690.969,-112.324 683.648,-104.666 680.47,-110.903"/>
</g>
<!-- Node20 -->
<g id="node20" class="node"><title>Node20</title>
<g id="a_node20"><a xlink:href="_i_graphics_mac__view_8mm_source.html" target="_top" xlink:title="IGraphicsMac_view.mm">
<polygon fill="white" stroke="black" points="669,-56.5 669,-75.5 791,-75.5 791,-56.5 669,-56.5"/>
<text text-anchor="middle" x="730" y="-63.5" font-family="Helvetica,sans-Serif" font-size="10.00">IGraphicsMac_view.mm</text>
</a>
</g>
</g>
<!-- Node19&#45;&gt;Node20 -->
<g id="edge24" class="edge"><title>Node19&#45;&gt;Node20</title>
<path fill="none" stroke="midnightblue" d="M715.46,-102.69C719.167,-93.589 723.476,-83.0141 726.435,-75.7511"/>
<polygon fill="midnightblue" stroke="midnightblue" points="712.165,-101.502 711.633,-112.083 718.647,-104.143 712.165,-101.502"/>
</g>
<!-- Node21&#45;&gt;Node17 -->
<g id="edge26" class="edge"><title>Node21&#45;&gt;Node17</title>
<path fill="none" stroke="midnightblue" d="M486.341,-158.983C490.585,-149.817 495.55,-139.092 498.949,-131.751"/>
<polygon fill="midnightblue" stroke="midnightblue" points="483.153,-157.538 482.128,-168.083 489.506,-160.479 483.153,-157.538"/>
</g>
<!-- Node23 -->
<g id="node23" class="node"><title>Node23</title>
<g id="a_node23"><a xlink:href="_i_graphics_nano_v_g_8cpp_source.html" target="_top" xlink:title="IGraphicsNanoVG.cpp">
<polygon fill="white" stroke="black" points="794.5,-168.5 794.5,-187.5 909.5,-187.5 909.5,-168.5 794.5,-168.5"/>
<text text-anchor="middle" x="852" y="-175.5" font-family="Helvetica,sans-Serif" font-size="10.00">IGraphicsNanoVG.cpp</text>
</a>
</g>
</g>
<!-- Node22&#45;&gt;Node23 -->
<g id="edge28" class="edge"><title>Node22&#45;&gt;Node23</title>
<path fill="none" stroke="midnightblue" d="M848.1,-214.101C849.096,-205.136 850.238,-194.858 851.028,-187.751"/>
<polygon fill="midnightblue" stroke="midnightblue" points="844.617,-213.758 846.991,-224.083 851.574,-214.531 844.617,-213.758"/>
</g>
<!-- Node26 -->
<g id="node26" class="node"><title>Node26</title>
<g id="a_node26"><a xlink:href="_i_graphics_web_8cpp_source.html" target="_top" xlink:title="IGraphicsWeb.cpp">
<polygon fill="white" stroke="black" points="0,-224.5 0,-243.5 98,-243.5 98,-224.5 0,-224.5"/>
<text text-anchor="middle" x="49" y="-231.5" font-family="Helvetica,sans-Serif" font-size="10.00">IGraphicsWeb.cpp</text>
</a>
</g>
</g>
<!-- Node25&#45;&gt;Node26 -->
<g id="edge31" class="edge"><title>Node25&#45;&gt;Node26</title>
<path fill="none" stroke="midnightblue" d="M113.284,-274.901C97.3311,-264.999 76.5025,-252.071 62.9434,-243.655"/>
<polygon fill="midnightblue" stroke="midnightblue" points="111.68,-278.024 122.022,-280.324 115.371,-272.077 111.68,-278.024"/>
</g>
<!-- Node27&#45;&gt;Node3 -->
<g id="edge33" class="edge"><title>Node27&#45;&gt;Node3</title>
<path fill="none" stroke="midnightblue" d="M438.876,-390.055C420.865,-364.884 387.707,-318.542 374.085,-299.505"/>
<polygon fill="midnightblue" stroke="midnightblue" points="436.096,-392.185 444.762,-398.281 441.789,-388.112 436.096,-392.185"/>
</g>
<!-- Node30 -->
<g id="node30" class="node"><title>Node30</title>
<g id="a_node30"><a xlink:href="_i_plug_logger_8h_source.html" target="_top" xlink:title="IPlugLogger.h">
<polygon fill="white" stroke="black" points="1073.5,-336.5 1073.5,-355.5 1150.5,-355.5 1150.5,-336.5 1073.5,-336.5"/>
<text text-anchor="middle" x="1112" y="-343.5" font-family="Helvetica,sans-Serif" font-size="10.00">IPlugLogger.h</text>
</a>
</g>
</g>
<!-- Node29&#45;&gt;Node30 -->
<g id="edge39" class="edge"><title>Node29&#45;&gt;Node30</title>
<path fill="none" stroke="midnightblue" d="M970.007,-395.133C1004.41,-383.47 1056.08,-365.955 1086.69,-355.581"/>
<polygon fill="midnightblue" stroke="midnightblue" points="968.707,-391.878 960.36,-398.403 970.954,-398.508 968.707,-391.878"/>
</g>
<!-- Node31 -->
<g id="node31" class="node"><title>Node31</title>
<g id="a_node31"><a xlink:href="_i_plug_midi_8h_source.html" target="_top" xlink:title="IPlugMidi.h">
<polygon fill="white" stroke="black" points="841.5,-336.5 841.5,-355.5 906.5,-355.5 906.5,-336.5 841.5,-336.5"/>
<text text-anchor="middle" x="874" y="-343.5" font-family="Helvetica,sans-Serif" font-size="10.00">IPlugMidi.h</text>
</a>
</g>
</g>
<!-- Node29&#45;&gt;Node31 -->
<g id="edge41" class="edge"><title>Node29&#45;&gt;Node31</title>
<path fill="none" stroke="midnightblue" d="M918.929,-391.193C907.34,-379.793 892.139,-364.841 882.724,-355.581"/>
<polygon fill="midnightblue" stroke="midnightblue" points="916.677,-393.886 926.26,-398.403 921.585,-388.896 916.677,-393.886"/>
</g>
<!-- Node29&#45;&gt;Node33 -->
<g id="edge61" class="edge"><title>Node29&#45;&gt;Node33</title>
<path fill="none" stroke="midnightblue" d="M932.165,-388.26C929.166,-361.071 927.953,-310.6 954,-280 980.149,-249.28 1027.26,-239.315 1059.78,-236.202"/>
<polygon fill="midnightblue" stroke="midnightblue" points="928.718,-388.899 933.485,-398.361 935.659,-387.991 928.718,-388.899"/>
</g>
<!-- Node49 -->
<g id="node49" class="node"><title>Node49</title>
<g id="a_node49"><a xlink:href="_i_plug_parameter_8h_source.html" target="_top" xlink:title="IPlugParameter.h">
<polygon fill="white" stroke="black" points="963,-336.5 963,-355.5 1055,-355.5 1055,-336.5 963,-336.5"/>
<text text-anchor="middle" x="1009" y="-343.5" font-family="Helvetica,sans-Serif" font-size="10.00">IPlugParameter.h</text>
</a>
</g>
</g>
<!-- Node29&#45;&gt;Node49 -->
<g id="edge62" class="edge"><title>Node29&#45;&gt;Node49</title>
<path fill="none" stroke="midnightblue" d="M953.689,-391.846C967.843,-380.371 986.776,-365.02 998.417,-355.581"/>
<polygon fill="midnightblue" stroke="midnightblue" points="951.166,-389.387 945.602,-398.403 955.574,-394.824 951.166,-389.387"/>
</g>
<!-- Node30&#45;&gt;Node1 -->
<g id="edge40" class="edge"><title>Node30&#45;&gt;Node1</title>
<path fill="none" stroke="midnightblue" d="M1092.37,-361.689C1068.14,-379.114 1025.08,-407.833 984,-424 927.024,-446.42 856.862,-458.485 813.019,-464.322"/>
<polygon fill="midnightblue" stroke="midnightblue" points="1094.67,-364.336 1100.69,-355.613 1090.55,-358.683 1094.67,-364.336"/>
</g>
<!-- Node31&#45;&gt;Node32 -->
<g id="edge42" class="edge"><title>Node31&#45;&gt;Node32</title>
<path fill="none" stroke="midnightblue" d="M871.55,-326.101C870.388,-317.136 869.056,-306.858 868.134,-299.751"/>
<polygon fill="midnightblue" stroke="midnightblue" points="868.088,-326.616 872.844,-336.083 875.029,-325.716 868.088,-326.616"/>
</g>
<!-- Node32&#45;&gt;Node33 -->
<g id="edge43" class="edge"><title>Node32&#45;&gt;Node33</title>
<path fill="none" stroke="midnightblue" d="M912.858,-278.139C956.21,-267.871 1020.33,-252.685 1059.79,-243.339"/>
<polygon fill="midnightblue" stroke="midnightblue" points="912.051,-274.733 903.127,-280.444 913.665,-281.545 912.051,-274.733"/>
</g>
<!-- Node34 -->
<g id="node34" class="node"><title>Node34</title>
<g id="a_node34"><a xlink:href="_i_plug_base_graphics_8h.html" target="_top" xlink:title="An IPlugBase class for an IPlug plug&#45;in that uses IGraphics for it&#39;s UI. ">
<polygon fill="white" stroke="black" points="927.5,-168.5 927.5,-187.5 1036.5,-187.5 1036.5,-168.5 927.5,-168.5"/>
<text text-anchor="middle" x="982" y="-175.5" font-family="Helvetica,sans-Serif" font-size="10.00">IPlugBaseGraphics.h</text>
</a>
</g>
</g>
<!-- Node33&#45;&gt;Node34 -->
<g id="edge44" class="edge"><title>Node33&#45;&gt;Node34</title>
<path fill="none" stroke="midnightblue" d="M1068,-220.096C1046.89,-210.007 1018.14,-196.27 999.821,-187.516"/>
<polygon fill="midnightblue" stroke="midnightblue" points="1066.56,-223.29 1077.09,-224.444 1069.58,-216.974 1066.56,-223.29"/>
</g>
<!-- Node46 -->
<g id="node46" class="node"><title>Node46</title>
<g id="a_node46"><a xlink:href="_i_plug_a_u___view_factory_8mm_source.html" target="_top" xlink:title="IPlugAU_ViewFactory.mm">
<polygon fill="white" stroke="black" points="1243.5,-168.5 1243.5,-187.5 1376.5,-187.5 1376.5,-168.5 1243.5,-168.5"/>
<text text-anchor="middle" x="1310" y="-175.5" font-family="Helvetica,sans-Serif" font-size="10.00">IPlugAU_ViewFactory.mm</text>
</a>
</g>
</g>
<!-- Node33&#45;&gt;Node46 -->
<g id="edge58" class="edge"><title>Node33&#45;&gt;Node46</title>
<path fill="none" stroke="midnightblue" d="M1138.96,-221.959C1179.57,-211.76 1239.04,-196.822 1276.09,-187.516"/>
<polygon fill="midnightblue" stroke="midnightblue" points="1137.91,-218.613 1129.07,-224.444 1139.62,-225.402 1137.91,-218.613"/>
</g>
<!-- Node47 -->
<g id="node47" class="node"><title>Node47</title>
<g id="a_node47"><a xlink:href="_i_plug_base_8cpp_source.html" target="_top" xlink:title="IPlugBase.cpp">
<polygon fill="white" stroke="black" points="1055,-168.5 1055,-187.5 1135,-187.5 1135,-168.5 1055,-168.5"/>
<text text-anchor="middle" x="1095" y="-175.5" font-family="Helvetica,sans-Serif" font-size="10.00">IPlugBase.cpp</text>
</a>
</g>
</g>
<!-- Node33&#45;&gt;Node47 -->
<g id="edge59" class="edge"><title>Node33&#45;&gt;Node47</title>
<path fill="none" stroke="midnightblue" d="M1095,-213.805C1095,-204.91 1095,-194.78 1095,-187.751"/>
<polygon fill="midnightblue" stroke="midnightblue" points="1091.5,-214.083 1095,-224.083 1098.5,-214.083 1091.5,-214.083"/>
</g>
<!-- Node48 -->
<g id="node48" class="node"><title>Node48</title>
<g id="a_node48"><a xlink:href="_i_plug_w_a_m_8h_source.html" target="_top" xlink:title="IPlugWAM.h">
<polygon fill="white" stroke="black" points="1153,-168.5 1153,-187.5 1225,-187.5 1225,-168.5 1153,-168.5"/>
<text text-anchor="middle" x="1189" y="-175.5" font-family="Helvetica,sans-Serif" font-size="10.00">IPlugWAM.h</text>
</a>
</g>
</g>
<!-- Node33&#45;&gt;Node48 -->
<g id="edge60" class="edge"><title>Node33&#45;&gt;Node48</title>
<path fill="none" stroke="midnightblue" d="M1119.06,-219.177C1136.36,-209.241 1159.15,-196.149 1173.93,-187.655"/>
<polygon fill="midnightblue" stroke="midnightblue" points="1117.03,-216.308 1110.1,-224.324 1120.52,-222.378 1117.03,-216.308"/>
</g>
<!-- Node34&#45;&gt;Node4 -->
<g id="edge45" class="edge"><title>Node34&#45;&gt;Node4</title>
<path fill="none" stroke="midnightblue" d="M917.098,-167.979C707.099,-145.809 651.166,-160.235 446,-132 441.106,-131.327 435.944,-130.451 430.929,-129.512"/>
<polygon fill="midnightblue" stroke="midnightblue" points="916.9,-171.478 927.216,-169.063 917.645,-164.517 916.9,-171.478"/>
</g>
<!-- Node34&#45;&gt;Node24 -->
<g id="edge57" class="edge"><title>Node34&#45;&gt;Node24</title>
<path fill="none" stroke="midnightblue" d="M962.686,-162.101C950.088,-152.382 934.072,-140.027 923.451,-131.834"/>
<polygon fill="midnightblue" stroke="midnightblue" points="960.698,-164.987 970.753,-168.324 964.973,-159.445 960.698,-164.987"/>
</g>
<!-- Node35 -->
<g id="node35" class="node"><title>Node35</title>
<g id="a_node35"><a xlink:href="_i_plug_base__select_8h_source.html" target="_top" xlink:title="IPlugBase_select.h">
<polygon fill="white" stroke="black" points="1117.5,-112.5 1117.5,-131.5 1218.5,-131.5 1218.5,-112.5 1117.5,-112.5"/>
<text text-anchor="middle" x="1168" y="-119.5" font-family="Helvetica,sans-Serif" font-size="10.00">IPlugBase_select.h</text>
</a>
</g>
</g>
<!-- Node34&#45;&gt;Node35 -->
<g id="edge46" class="edge"><title>Node34&#45;&gt;Node35</title>
<path fill="none" stroke="midnightblue" d="M1021.38,-165.568C1056.47,-155.381 1107.02,-140.703 1138.67,-131.516"/>
<polygon fill="midnightblue" stroke="midnightblue" points="1020.1,-162.294 1011.47,-168.444 1022.05,-169.017 1020.1,-162.294"/>
</g>
<!-- Node35&#45;&gt;Node36 -->
<g id="edge47" class="edge"><title>Node35&#45;&gt;Node36</title>
<path fill="none" stroke="midnightblue" d="M1206.95,-109.568C1241.66,-99.381 1291.68,-84.7034 1322.98,-75.5164"/>
<polygon fill="midnightblue" stroke="midnightblue" points="1205.77,-106.269 1197.16,-112.444 1207.74,-112.986 1205.77,-106.269"/>
</g>
<!-- Node35&#45;&gt;Node38 -->
<g id="edge49" class="edge"><title>Node35&#45;&gt;Node38</title>
<path fill="none" stroke="midnightblue" d="M1221.56,-110.483C1276.96,-99.605 1361.8,-82.9456 1408.75,-73.7251"/>
<polygon fill="midnightblue" stroke="midnightblue" points="1220.71,-107.082 1211.57,-112.444 1222.06,-113.951 1220.71,-107.082"/>
</g>
<!-- Node40 -->
<g id="node40" class="node"><title>Node40</title>
<g id="a_node40"><a xlink:href="_i_plug_a_u_8h.html" target="_top" xlink:title="AudioUnit v2 API base class for an IPlug plug&#45;in, inherits from IPlugBase or IPlugBaseGraphics. ">
<polygon fill="white" stroke="black" points="1137,-56.5 1137,-75.5 1199,-75.5 1199,-56.5 1137,-56.5"/>
<text text-anchor="middle" x="1168" y="-63.5" font-family="Helvetica,sans-Serif" font-size="10.00">IPlugAU.h</text>
</a>
</g>
</g>
<!-- Node35&#45;&gt;Node40 -->
<g id="edge51" class="edge"><title>Node35&#45;&gt;Node40</title>
<path fill="none" stroke="midnightblue" d="M1168,-101.805C1168,-92.9102 1168,-82.7798 1168,-75.7511"/>
<polygon fill="midnightblue" stroke="midnightblue" points="1164.5,-102.083 1168,-112.083 1171.5,-102.083 1164.5,-102.083"/>
</g>
<!-- Node42 -->
<g id="node42" class="node"><title>Node42</title>
<g id="a_node42"><a xlink:href="_i_plug_a_uv3_8h_source.html" target="_top" xlink:title="IPlugAUv3.h">
<polygon fill="white" stroke="black" points="1217,-56.5 1217,-75.5 1289,-75.5 1289,-56.5 1217,-56.5"/>
<text text-anchor="middle" x="1253" y="-63.5" font-family="Helvetica,sans-Serif" font-size="10.00">IPlugAUv3.h</text>
</a>
</g>
</g>
<!-- Node35&#45;&gt;Node42 -->
<g id="edge53" class="edge"><title>Node35&#45;&gt;Node42</title>
<path fill="none" stroke="midnightblue" d="M1190.19,-106.901C1205.78,-96.9986 1226.13,-84.0705 1239.38,-75.6545"/>
<polygon fill="midnightblue" stroke="midnightblue" points="1188.22,-104.007 1181.66,-112.324 1191.97,-109.916 1188.22,-104.007"/>
</g>
<!-- Node44 -->
<g id="node44" class="node"><title>Node44</title>
<g id="a_node44"><a xlink:href="_i_plug_v_s_t_8h.html" target="_top" xlink:title="VST2.4 API base class for an IPlug plug&#45;in, inherits from IPlugBase or IPlugBaseGraphics. ">
<polygon fill="white" stroke="red" points="961.5,-56.5 961.5,-75.5 1028.5,-75.5 1028.5,-56.5 961.5,-56.5"/>
<text text-anchor="middle" x="995" y="-63.5" font-family="Helvetica,sans-Serif" font-size="10.00">IPlugVST.h</text>
</a>
</g>
</g>
<!-- Node35&#45;&gt;Node44 -->
<g id="edge55" class="edge"><title>Node35&#45;&gt;Node44</title>
<path fill="none" stroke="midnightblue" d="M1130.95,-109.436C1098.34,-99.2551 1051.59,-84.664 1022.28,-75.5164"/>
<polygon fill="midnightblue" stroke="midnightblue" points="1130,-112.805 1140.59,-112.444 1132.08,-106.123 1130,-112.805"/>
</g>
<!-- Node45 -->
<g id="node45" class="node"><title>Node45</title>
<g id="a_node45"><a xlink:href="_i_plug_v_s_t3_8h.html" target="_top" xlink:title="VST3 base class for an IPlug plug&#45;in, inherits from IPlugBase or IPlugBaseGraphics. ">
<polygon fill="white" stroke="red" points="1047,-56.5 1047,-75.5 1119,-75.5 1119,-56.5 1047,-56.5"/>
<text text-anchor="middle" x="1083" y="-63.5" font-family="Helvetica,sans-Serif" font-size="10.00">IPlugVST3.h</text>
</a>
</g>
</g>
<!-- Node35&#45;&gt;Node45 -->
<g id="edge56" class="edge"><title>Node35&#45;&gt;Node45</title>
<path fill="none" stroke="midnightblue" d="M1145.81,-106.901C1130.22,-96.9986 1109.87,-84.0705 1096.62,-75.6545"/>
<polygon fill="midnightblue" stroke="midnightblue" points="1144.03,-109.916 1154.34,-112.324 1147.78,-104.007 1144.03,-109.916"/>
</g>
<!-- Node37 -->
<g id="node37" class="node"><title>Node37</title>
<g id="a_node37"><a xlink:href="_i_plug_a_a_x_8cpp_source.html" target="_top" xlink:title="IPlugAAX.cpp">
<polygon fill="white" stroke="black" points="1313,-0.5 1313,-19.5 1391,-19.5 1391,-0.5 1313,-0.5"/>
<text text-anchor="middle" x="1352" y="-7.5" font-family="Helvetica,sans-Serif" font-size="10.00">IPlugAAX.cpp</text>
</a>
</g>
</g>
<!-- Node36&#45;&gt;Node37 -->
<g id="edge48" class="edge"><title>Node36&#45;&gt;Node37</title>
<path fill="none" stroke="midnightblue" d="M1352,-45.8045C1352,-36.9102 1352,-26.7798 1352,-19.7511"/>
<polygon fill="midnightblue" stroke="midnightblue" points="1348.5,-46.083 1352,-56.083 1355.5,-46.083 1348.5,-46.083"/>
</g>
<!-- Node39 -->
<g id="node39" class="node"><title>Node39</title>
<g id="a_node39"><a xlink:href="_i_plug_a_p_p_8cpp_source.html" target="_top" xlink:title="IPlugAPP.cpp">
<polygon fill="white" stroke="black" points="1409,-0.5 1409,-19.5 1487,-19.5 1487,-0.5 1409,-0.5"/>
<text text-anchor="middle" x="1448" y="-7.5" font-family="Helvetica,sans-Serif" font-size="10.00">IPlugAPP.cpp</text>
</a>
</g>
</g>
<!-- Node38&#45;&gt;Node39 -->
<g id="edge50" class="edge"><title>Node38&#45;&gt;Node39</title>
<path fill="none" stroke="midnightblue" d="M1444.75,-46.1005C1445.58,-37.1357 1446.53,-26.8579 1447.19,-19.7511"/>
<polygon fill="midnightblue" stroke="midnightblue" points="1441.26,-45.8029 1443.83,-56.083 1448.23,-46.4483 1441.26,-45.8029"/>
</g>
<!-- Node41 -->
<g id="node41" class="node"><title>Node41</title>
<g id="a_node41"><a xlink:href="_i_plug_a_u_8cpp_source.html" target="_top" xlink:title="IPlugAU.cpp">
<polygon fill="white" stroke="black" points="1121,-0.5 1121,-19.5 1193,-19.5 1193,-0.5 1121,-0.5"/>
<text text-anchor="middle" x="1157" y="-7.5" font-family="Helvetica,sans-Serif" font-size="10.00">IPlugAU.cpp</text>
</a>
</g>
</g>
<!-- Node40&#45;&gt;Node41 -->
<g id="edge52" class="edge"><title>Node40&#45;&gt;Node41</title>
<path fill="none" stroke="midnightblue" d="M1164.15,-46.1005C1162.32,-37.1357 1160.23,-26.8579 1158.78,-19.7511"/>
<polygon fill="midnightblue" stroke="midnightblue" points="1160.76,-46.9829 1166.18,-56.083 1167.62,-45.5856 1160.76,-46.9829"/>
</g>
<!-- Node43 -->
<g id="node43" class="node"><title>Node43</title>
<g id="a_node43"><a xlink:href="_i_plug_a_uv3_8mm_source.html" target="_top" xlink:title="IPlugAUv3.mm">
<polygon fill="white" stroke="black" points="1211.5,-0.5 1211.5,-19.5 1294.5,-19.5 1294.5,-0.5 1211.5,-0.5"/>
<text text-anchor="middle" x="1253" y="-7.5" font-family="Helvetica,sans-Serif" font-size="10.00">IPlugAUv3.mm</text>
</a>
</g>
</g>
<!-- Node42&#45;&gt;Node43 -->
<g id="edge54" class="edge"><title>Node42&#45;&gt;Node43</title>
<path fill="none" stroke="midnightblue" d="M1253,-45.8045C1253,-36.9102 1253,-26.7798 1253,-19.7511"/>
<polygon fill="midnightblue" stroke="midnightblue" points="1249.5,-46.083 1253,-56.083 1256.5,-46.083 1249.5,-46.083"/>
</g>
<!-- Node49&#45;&gt;Node33 -->
<g id="edge63" class="edge"><title>Node49&#45;&gt;Node33</title>
<path fill="none" stroke="midnightblue" d="M1037.3,-331.406C1050.43,-323.812 1065.26,-313.203 1075,-300 1087.75,-282.706 1092.48,-257.149 1094.15,-243.819"/>
<polygon fill="midnightblue" stroke="midnightblue" points="1035.24,-328.542 1028.13,-336.396 1038.58,-334.69 1035.24,-328.542"/>
</g>
<!-- Node50 -->
<g id="node50" class="node"><title>Node50</title>
<g id="a_node50"><a xlink:href="_i_plug_parameter_8cpp_source.html" target="_top" xlink:title="IPlugParameter.cpp">
<polygon fill="white" stroke="black" points="963.5,-280.5 963.5,-299.5 1066.5,-299.5 1066.5,-280.5 963.5,-280.5"/>
<text text-anchor="middle" x="1015" y="-287.5" font-family="Helvetica,sans-Serif" font-size="10.00">IPlugParameter.cpp</text>
</a>
</g>
</g>
<!-- Node49&#45;&gt;Node50 -->
<g id="edge64" class="edge"><title>Node49&#45;&gt;Node50</title>
<path fill="none" stroke="midnightblue" d="M1011.1,-326.101C1012.1,-317.136 1013.24,-306.858 1014.03,-299.751"/>
<polygon fill="midnightblue" stroke="midnightblue" points="1007.62,-325.758 1009.99,-336.083 1014.57,-326.531 1007.62,-325.758"/>
</g>
</g>
</svg>
