<?xml version="1.0" encoding="UTF-8" standalone="no"?>
<!DOCTYPE svg PUBLIC "-//W3C//DTD SVG 1.1//EN"
 "http://www.w3.org/Graphics/SVG/1.1/DTD/svg11.dtd">
<!-- Generated by graphviz version 2.36.0 (20140111.2315)
 -->
<!-- Title: IPlugVST3.h Pages: 1 -->
<svg width="983pt" height="488pt"
 viewBox="0.00 0.00 983.00 488.00" xmlns="http://www.w3.org/2000/svg" xmlns:xlink="http://www.w3.org/1999/xlink">
<g id="graph0" class="graph" transform="scale(1 1) rotate(0) translate(4 484)">
<title>IPlugVST3.h</title>
<polygon fill="white" stroke="none" points="-4,4 -4,-484 979,-484 979,4 -4,4"/>
<!-- Node1 -->
<g id="node1" class="node"><title>Node1</title>
<polygon fill="#bfbfbf" stroke="black" points="299,-460.5 299,-479.5 371,-479.5 371,-460.5 299,-460.5"/>
<text text-anchor="middle" x="335" y="-467.5" font-family="Helvetica,sans-Serif" font-size="10.00">IPlugVST3.h</text>
</g>
<!-- Node2 -->
<g id="node2" class="node"><title>Node2</title>
<polygon fill="white" stroke="#bfbfbf" points="0,-398.5 0,-417.5 44,-417.5 44,-398.5 0,-398.5"/>
<text text-anchor="middle" x="22" y="-405.5" font-family="Helvetica,sans-Serif" font-size="10.00">vector</text>
</g>
<!-- Node1&#45;&gt;Node2 -->
<g id="edge1" class="edge"><title>Node1&#45;&gt;Node2</title>
<path fill="none" stroke="midnightblue" d="M298.613,-466.603C244.131,-462.257 138.609,-450.9 53,-424 50.8682,-423.33 48.698,-422.536 46.5463,-421.669"/>
<polygon fill="midnightblue" stroke="midnightblue" points="47.9609,-418.467 37.4058,-417.551 45.0855,-424.849 47.9609,-418.467"/>
</g>
<!-- Node3 -->
<g id="node3" class="node"><title>Node3</title>
<polygon fill="white" stroke="#bfbfbf" points="62,-393 62,-423 202,-423 202,-393 62,-393"/>
<text text-anchor="start" x="70" y="-411" font-family="Helvetica,sans-Serif" font-size="10.00">public.sdk/source/vst</text>
<text text-anchor="middle" x="132" y="-400" font-family="Helvetica,sans-Serif" font-size="10.00">/vstsinglecomponenteffect.h</text>
</g>
<!-- Node1&#45;&gt;Node3 -->
<g id="edge2" class="edge"><title>Node1&#45;&gt;Node3</title>
<path fill="none" stroke="midnightblue" d="M305.915,-460.403C275.623,-451.45 227.375,-437.19 189.374,-425.958"/>
<polygon fill="midnightblue" stroke="midnightblue" points="190.034,-422.503 179.452,-423.025 188.05,-429.216 190.034,-422.503"/>
</g>
<!-- Node4 -->
<g id="node4" class="node"><title>Node4</title>
<polygon fill="white" stroke="#bfbfbf" points="220,-393 220,-423 330,-423 330,-393 220,-393"/>
<text text-anchor="start" x="228" y="-411" font-family="Helvetica,sans-Serif" font-size="10.00">pluginterfaces/vst</text>
<text text-anchor="middle" x="275" y="-400" font-family="Helvetica,sans-Serif" font-size="10.00">/ivstprocesscontext.h</text>
</g>
<!-- Node1&#45;&gt;Node4 -->
<g id="edge3" class="edge"><title>Node1&#45;&gt;Node4</title>
<path fill="none" stroke="midnightblue" d="M326.403,-460.403C318.581,-452.581 306.708,-440.708 296.342,-430.342"/>
<polygon fill="midnightblue" stroke="midnightblue" points="298.687,-427.737 289.141,-423.141 293.737,-432.687 298.687,-427.737"/>
</g>
<!-- Node5 -->
<g id="node5" class="node"><title>Node5</title>
<polygon fill="white" stroke="#bfbfbf" points="348,-393 348,-423 442,-423 442,-393 348,-393"/>
<text text-anchor="start" x="356" y="-411" font-family="Helvetica,sans-Serif" font-size="10.00">pluginterfaces/vst</text>
<text text-anchor="middle" x="395" y="-400" font-family="Helvetica,sans-Serif" font-size="10.00">/vsttypes.h</text>
</g>
<!-- Node1&#45;&gt;Node5 -->
<g id="edge4" class="edge"><title>Node1&#45;&gt;Node5</title>
<path fill="none" stroke="midnightblue" d="M343.597,-460.403C351.419,-452.581 363.292,-440.708 373.658,-430.342"/>
<polygon fill="midnightblue" stroke="midnightblue" points="376.263,-432.687 380.859,-423.141 371.313,-427.737 376.263,-432.687"/>
</g>
<!-- Node6 -->
<g id="node6" class="node"><title>Node6</title>
<polygon fill="white" stroke="#bfbfbf" points="460,-393 460,-423 560,-423 560,-393 460,-393"/>
<text text-anchor="start" x="468" y="-411" font-family="Helvetica,sans-Serif" font-size="10.00">pluginterfaces/vst</text>
<text text-anchor="middle" x="510" y="-400" font-family="Helvetica,sans-Serif" font-size="10.00">/ivstcontextmenu.h</text>
</g>
<!-- Node1&#45;&gt;Node6 -->
<g id="edge5" class="edge"><title>Node1&#45;&gt;Node6</title>
<path fill="none" stroke="midnightblue" d="M360.073,-460.403C385.854,-451.564 426.721,-437.553 459.281,-426.39"/>
<polygon fill="midnightblue" stroke="midnightblue" points="460.769,-429.579 469.093,-423.025 458.498,-422.958 460.769,-429.579"/>
</g>
<!-- Node7 -->
<g id="node7" class="node"><title>Node7</title>
<g id="a_node7"><a xlink:href="_i_plug_base__select_8h_source.html" target="_top" xlink:title="IPlugBase_select.h">
<polygon fill="white" stroke="black" points="578.5,-398.5 578.5,-417.5 679.5,-417.5 679.5,-398.5 578.5,-398.5"/>
<text text-anchor="middle" x="629" y="-405.5" font-family="Helvetica,sans-Serif" font-size="10.00">IPlugBase_select.h</text>
</a>
</g>
</g>
<!-- Node1&#45;&gt;Node7 -->
<g id="edge6" class="edge"><title>Node1&#45;&gt;Node7</title>
<path fill="none" stroke="midnightblue" d="M371.205,-462.675C417.298,-454.477 499.319,-439.398 569,-424 574.709,-422.738 580.704,-421.335 586.605,-419.907"/>
<polygon fill="midnightblue" stroke="midnightblue" points="587.506,-423.29 596.38,-417.501 585.833,-416.492 587.506,-423.29"/>
</g>
<!-- Node8 -->
<g id="node8" class="node"><title>Node8</title>
<g id="a_node8"><a xlink:href="_i_plug_base_graphics_8h.html" target="_top" xlink:title="An IPlugBase class for an IPlug plug&#45;in that uses IGraphics for it&#39;s UI. ">
<polygon fill="white" stroke="black" points="574.5,-336.5 574.5,-355.5 683.5,-355.5 683.5,-336.5 574.5,-336.5"/>
<text text-anchor="middle" x="629" y="-343.5" font-family="Helvetica,sans-Serif" font-size="10.00">IPlugBaseGraphics.h</text>
</a>
</g>
</g>
<!-- Node7&#45;&gt;Node8 -->
<g id="edge7" class="edge"><title>Node7&#45;&gt;Node8</title>
<path fill="none" stroke="midnightblue" d="M629,-398.403C629,-389.938 629,-376.728 629,-365.82"/>
<polygon fill="midnightblue" stroke="midnightblue" points="632.5,-365.581 629,-355.581 625.5,-365.581 632.5,-365.581"/>
</g>
<!-- Node9 -->
<g id="node9" class="node"><title>Node9</title>
<g id="a_node9"><a xlink:href="_i_plug_base_8h.html" target="_top" xlink:title="The lowest level base class of an IPlug plug&#45;in. ">
<polygon fill="white" stroke="black" points="594,-280.5 594,-299.5 664,-299.5 664,-280.5 594,-280.5"/>
<text text-anchor="middle" x="629" y="-287.5" font-family="Helvetica,sans-Serif" font-size="10.00">IPlugBase.h</text>
</a>
</g>
</g>
<!-- Node8&#45;&gt;Node9 -->
<g id="edge8" class="edge"><title>Node8&#45;&gt;Node9</title>
<path fill="none" stroke="midnightblue" d="M629,-336.083C629,-329.006 629,-318.861 629,-309.986"/>
<polygon fill="midnightblue" stroke="midnightblue" points="632.5,-309.751 629,-299.751 625.5,-309.751 632.5,-309.751"/>
</g>
<!-- Node10 -->
<g id="node10" class="node"><title>Node10</title>
<polygon fill="white" stroke="#bfbfbf" points="98,-0.5 98,-19.5 144,-19.5 144,-0.5 98,-0.5"/>
<text text-anchor="middle" x="121" y="-7.5" font-family="Helvetica,sans-Serif" font-size="10.00">cstring</text>
</g>
<!-- Node9&#45;&gt;Node10 -->
<g id="edge9" class="edge"><title>Node9&#45;&gt;Node10</title>
<path fill="none" stroke="midnightblue" d="M593.8,-286.37C464.464,-276.246 23,-237.409 23,-179 23,-179 23,-179 23,-121 23,-77.3804 66.4924,-43.0601 95.5294,-25.0074"/>
<polygon fill="midnightblue" stroke="midnightblue" points="97.5832,-27.8576 104.376,-19.7265 93.9952,-21.8471 97.5832,-27.8576"/>
</g>
<!-- Node11 -->
<g id="node11" class="node"><title>Node11</title>
<polygon fill="white" stroke="#bfbfbf" points="616,-56.5 616,-75.5 662,-75.5 662,-56.5 616,-56.5"/>
<text text-anchor="middle" x="639" y="-63.5" font-family="Helvetica,sans-Serif" font-size="10.00">cstdint</text>
</g>
<!-- Node9&#45;&gt;Node11 -->
<g id="edge10" class="edge"><title>Node9&#45;&gt;Node11</title>
<path fill="none" stroke="midnightblue" d="M629.392,-280.297C630.863,-247.633 636.078,-131.866 638.146,-85.9573"/>
<polygon fill="midnightblue" stroke="midnightblue" points="641.646,-86.0311 638.6,-75.8837 634.653,-85.7161 641.646,-86.0311"/>
</g>
<!-- Node12 -->
<g id="node12" class="node"><title>Node12</title>
<polygon fill="white" stroke="#bfbfbf" points="756.5,-224.5 756.5,-243.5 805.5,-243.5 805.5,-224.5 756.5,-224.5"/>
<text text-anchor="middle" x="781" y="-231.5" font-family="Helvetica,sans-Serif" font-size="10.00">ptrlist.h</text>
</g>
<!-- Node9&#45;&gt;Node12 -->
<g id="edge11" class="edge"><title>Node9&#45;&gt;Node12</title>
<path fill="none" stroke="midnightblue" d="M653.085,-280.444C678.545,-271.399 718.894,-257.064 747.459,-246.916"/>
<polygon fill="midnightblue" stroke="midnightblue" points="748.777,-250.162 757.028,-243.516 746.433,-243.566 748.777,-250.162"/>
</g>
<!-- Node13 -->
<g id="node13" class="node"><title>Node13</title>
<polygon fill="white" stroke="#bfbfbf" points="824,-224.5 824,-243.5 876,-243.5 876,-224.5 824,-224.5"/>
<text text-anchor="middle" x="850" y="-231.5" font-family="Helvetica,sans-Serif" font-size="10.00">mutex.h</text>
</g>
<!-- Node9&#45;&gt;Node13 -->
<g id="edge12" class="edge"><title>Node9&#45;&gt;Node13</title>
<path fill="none" stroke="midnightblue" d="M664.138,-280.523C699.401,-272.001 755.534,-258.392 813.895,-244.014"/>
<polygon fill="midnightblue" stroke="midnightblue" points="814.788,-247.398 823.659,-241.606 813.112,-240.602 814.788,-247.398"/>
</g>
<!-- Node14 -->
<g id="node14" class="node"><title>Node14</title>
<g id="a_node14"><a xlink:href="_i_plug_platform_8h.html" target="_top" xlink:title="Include to get consistently named preprocessor macros for different platforms and logging functionali...">
<polygon fill="white" stroke="black" points="428,-168.5 428,-187.5 512,-187.5 512,-168.5 428,-168.5"/>
<text text-anchor="middle" x="470" y="-175.5" font-family="Helvetica,sans-Serif" font-size="10.00">IPlugPlatform.h</text>
</a>
</g>
</g>
<!-- Node9&#45;&gt;Node14 -->
<g id="edge13" class="edge"><title>Node9&#45;&gt;Node14</title>
<path fill="none" stroke="midnightblue" d="M596.161,-280.386C573.225,-273.246 542.76,-261.421 520,-244 503.098,-231.063 488.886,-211.068 479.985,-196.671"/>
<polygon fill="midnightblue" stroke="midnightblue" points="482.811,-194.575 474.704,-187.754 476.788,-198.142 482.811,-194.575"/>
</g>
<!-- Node22 -->
<g id="node22" class="node"><title>Node22</title>
<g id="a_node22"><a xlink:href="_i_plug_utilities_8h.html" target="_top" xlink:title="Utility functions and macros. ">
<polygon fill="white" stroke="black" points="374,-56.5 374,-75.5 454,-75.5 454,-56.5 374,-56.5"/>
<text text-anchor="middle" x="414" y="-63.5" font-family="Helvetica,sans-Serif" font-size="10.00">IPlugUtilities.h</text>
</a>
</g>
</g>
<!-- Node9&#45;&gt;Node22 -->
<g id="edge42" class="edge"><title>Node9&#45;&gt;Node22</title>
<path fill="none" stroke="midnightblue" d="M593.972,-284.625C543.732,-276.181 453.473,-252.374 419,-188 401.527,-155.372 405.721,-110.401 410.045,-85.4905"/>
<polygon fill="midnightblue" stroke="midnightblue" points="413.5,-86.0561 411.963,-75.5734 406.628,-84.7265 413.5,-86.0561"/>
</g>
<!-- Node25 -->
<g id="node25" class="node"><title>Node25</title>
<g id="a_node25"><a xlink:href="_i_plug_constants_8h.html" target="_top" xlink:title="Constant definitions, magic numbers. ">
<polygon fill="white" stroke="black" points="593,-0.5 593,-19.5 685,-19.5 685,-0.5 593,-0.5"/>
<text text-anchor="middle" x="639" y="-7.5" font-family="Helvetica,sans-Serif" font-size="10.00">IPlugConstants.h</text>
</a>
</g>
</g>
<!-- Node9&#45;&gt;Node25 -->
<g id="edge31" class="edge"><title>Node9&#45;&gt;Node25</title>
<path fill="none" stroke="midnightblue" d="M645.794,-280.318C674.039,-264.374 728,-227.559 728,-179 728,-179 728,-179 728,-121 728,-78.8457 688.01,-43.7791 661.642,-25.2392"/>
<polygon fill="midnightblue" stroke="midnightblue" points="663.544,-22.3003 653.299,-19.5989 659.623,-28.0994 663.544,-22.3003"/>
</g>
<!-- Node26 -->
<g id="node26" class="node"><title>Node26</title>
<g id="a_node26"><a xlink:href="_i_plug_structs_8h_source.html" target="_top" xlink:title="IPlugStructs.h">
<polygon fill="white" stroke="black" points="528.5,-224.5 528.5,-243.5 607.5,-243.5 607.5,-224.5 528.5,-224.5"/>
<text text-anchor="middle" x="568" y="-231.5" font-family="Helvetica,sans-Serif" font-size="10.00">IPlugStructs.h</text>
</a>
</g>
</g>
<!-- Node9&#45;&gt;Node26 -->
<g id="edge32" class="edge"><title>Node9&#45;&gt;Node26</title>
<path fill="none" stroke="midnightblue" d="M619.199,-280.324C610.182,-272.341 596.594,-260.313 585.682,-250.653"/>
<polygon fill="midnightblue" stroke="midnightblue" points="587.787,-247.842 577.979,-243.834 583.147,-253.083 587.787,-247.842"/>
</g>
<!-- Node29 -->
<g id="node29" class="node"><title>Node29</title>
<g id="a_node29"><a xlink:href="_i_plug_parameter_8h_source.html" target="_top" xlink:title="IPlugParameter.h">
<polygon fill="white" stroke="black" points="88,-112.5 88,-131.5 180,-131.5 180,-112.5 88,-112.5"/>
<text text-anchor="middle" x="134" y="-119.5" font-family="Helvetica,sans-Serif" font-size="10.00">IPlugParameter.h</text>
</a>
</g>
</g>
<!-- Node9&#45;&gt;Node29 -->
<g id="edge43" class="edge"><title>Node9&#45;&gt;Node29</title>
<path fill="none" stroke="midnightblue" d="M593.672,-285.425C545.723,-279.908 457.788,-267.422 386,-244 297.667,-215.18 200.513,-161.792 157.136,-136.702"/>
<polygon fill="midnightblue" stroke="midnightblue" points="158.883,-133.669 148.481,-131.657 155.358,-139.716 158.883,-133.669"/>
</g>
<!-- Node30 -->
<g id="node30" class="node"><title>Node30</title>
<g id="a_node30"><a xlink:href="_n_chan_delay_8h_source.html" target="_top" xlink:title="NChanDelay.h">
<polygon fill="white" stroke="black" points="894.5,-224.5 894.5,-243.5 975.5,-243.5 975.5,-224.5 894.5,-224.5"/>
<text text-anchor="middle" x="935" y="-231.5" font-family="Helvetica,sans-Serif" font-size="10.00">NChanDelay.h</text>
</a>
</g>
</g>
<!-- Node9&#45;&gt;Node30 -->
<g id="edge47" class="edge"><title>Node9&#45;&gt;Node30</title>
<path fill="none" stroke="midnightblue" d="M664.206,-282.858C711.685,-274.565 799.151,-259.252 884.249,-244.128"/>
<polygon fill="midnightblue" stroke="midnightblue" points="885.111,-247.529 894.343,-242.333 883.885,-240.638 885.111,-247.529"/>
</g>
<!-- Node15 -->
<g id="node15" class="node"><title>Node15</title>
<g id="a_node15"><a xlink:href="_i_plug_logger_8h_source.html" target="_top" xlink:title="IPlugLogger.h">
<polygon fill="white" stroke="black" points="294.5,-112.5 294.5,-131.5 371.5,-131.5 371.5,-112.5 294.5,-112.5"/>
<text text-anchor="middle" x="333" y="-119.5" font-family="Helvetica,sans-Serif" font-size="10.00">IPlugLogger.h</text>
</a>
</g>
</g>
<!-- Node14&#45;&gt;Node15 -->
<g id="edge14" class="edge"><title>Node14&#45;&gt;Node15</title>
<path fill="none" stroke="midnightblue" d="M448.292,-168.444C425.645,-159.517 389.928,-145.439 364.248,-135.317"/>
<polygon fill="midnightblue" stroke="midnightblue" points="365.193,-131.927 354.606,-131.516 362.626,-138.44 365.193,-131.927"/>
</g>
<!-- Node15&#45;&gt;Node10 -->
<g id="edge19" class="edge"><title>Node15&#45;&gt;Node10</title>
<path fill="none" stroke="midnightblue" d="M297.112,-112.467C269.722,-105.093 231.611,-92.9398 201,-76 176.691,-62.548 152.444,-41.5064 137.124,-27.0278"/>
<polygon fill="midnightblue" stroke="midnightblue" points="139.212,-24.1787 129.588,-19.7493 134.35,-29.2138 139.212,-24.1787"/>
</g>
<!-- Node15&#45;&gt;Node11 -->
<g id="edge18" class="edge"><title>Node15&#45;&gt;Node11</title>
<path fill="none" stroke="midnightblue" d="M371.755,-114.161C432.466,-103.447 548.933,-82.8942 605.933,-72.8354"/>
<polygon fill="midnightblue" stroke="midnightblue" points="606.618,-76.2687 615.857,-71.084 605.401,-69.3752 606.618,-76.2687"/>
</g>
<!-- Node16 -->
<g id="node16" class="node"><title>Node16</title>
<polygon fill="white" stroke="#bfbfbf" points="297.5,-0.5 297.5,-19.5 340.5,-19.5 340.5,-0.5 297.5,-0.5"/>
<text text-anchor="middle" x="319" y="-7.5" font-family="Helvetica,sans-Serif" font-size="10.00">cstdio</text>
</g>
<!-- Node15&#45;&gt;Node16 -->
<g id="edge15" class="edge"><title>Node15&#45;&gt;Node16</title>
<path fill="none" stroke="midnightblue" d="M332.18,-112.153C330.99,-99.6309 328.635,-76.0304 326,-56 324.851,-47.2694 323.377,-37.618 322.078,-29.4996"/>
<polygon fill="midnightblue" stroke="midnightblue" points="325.529,-28.9143 320.463,-19.6095 318.621,-30.043 325.529,-28.9143"/>
</g>
<!-- Node17 -->
<g id="node17" class="node"><title>Node17</title>
<polygon fill="white" stroke="#bfbfbf" points="485,-0.5 485,-19.5 531,-19.5 531,-0.5 485,-0.5"/>
<text text-anchor="middle" x="508" y="-7.5" font-family="Helvetica,sans-Serif" font-size="10.00">cctype</text>
</g>
<!-- Node15&#45;&gt;Node17 -->
<g id="edge16" class="edge"><title>Node15&#45;&gt;Node17</title>
<path fill="none" stroke="midnightblue" d="M371.6,-114.308C399.203,-108.025 436.081,-96.432 463,-76 479.344,-63.5944 491.946,-43.5107 499.602,-28.9475"/>
<polygon fill="midnightblue" stroke="midnightblue" points="502.777,-30.4217 504.097,-19.9094 496.51,-27.3042 502.777,-30.4217"/>
</g>
<!-- Node18 -->
<g id="node18" class="node"><title>Node18</title>
<polygon fill="white" stroke="#bfbfbf" points="209.5,-56.5 209.5,-75.5 258.5,-75.5 258.5,-56.5 209.5,-56.5"/>
<text text-anchor="middle" x="234" y="-63.5" font-family="Helvetica,sans-Serif" font-size="10.00">cstdarg</text>
</g>
<!-- Node15&#45;&gt;Node18 -->
<g id="edge17" class="edge"><title>Node15&#45;&gt;Node18</title>
<path fill="none" stroke="midnightblue" d="M317.094,-112.324C301.362,-103.743 277.058,-90.486 258.791,-80.5224"/>
<polygon fill="midnightblue" stroke="midnightblue" points="260.322,-77.3704 249.867,-75.6545 256.97,-83.5157 260.322,-77.3704"/>
</g>
<!-- Node19 -->
<g id="node19" class="node"><title>Node19</title>
<polygon fill="white" stroke="#bfbfbf" points="276.5,-56.5 276.5,-75.5 317.5,-75.5 317.5,-56.5 276.5,-56.5"/>
<text text-anchor="middle" x="297" y="-63.5" font-family="Helvetica,sans-Serif" font-size="10.00">ctime</text>
</g>
<!-- Node15&#45;&gt;Node19 -->
<g id="edge20" class="edge"><title>Node15&#45;&gt;Node19</title>
<path fill="none" stroke="midnightblue" d="M327.055,-112.083C322.023,-104.534 314.663,-93.4948 308.487,-84.2298"/>
<polygon fill="midnightblue" stroke="midnightblue" points="311.293,-82.1301 302.834,-75.7511 305.469,-86.0131 311.293,-82.1301"/>
</g>
<!-- Node20 -->
<g id="node20" class="node"><title>Node20</title>
<polygon fill="white" stroke="#bfbfbf" points="510.5,-56.5 510.5,-75.5 559.5,-75.5 559.5,-56.5 510.5,-56.5"/>
<text text-anchor="middle" x="535" y="-63.5" font-family="Helvetica,sans-Serif" font-size="10.00">cassert</text>
</g>
<!-- Node15&#45;&gt;Node20 -->
<g id="edge21" class="edge"><title>Node15&#45;&gt;Node20</title>
<path fill="none" stroke="midnightblue" d="M365.008,-112.444C401.92,-102.576 462.383,-86.4126 500.369,-76.2577"/>
<polygon fill="midnightblue" stroke="midnightblue" points="501.692,-79.527 510.449,-73.5631 499.885,-72.7644 501.692,-79.527"/>
</g>
<!-- Node21 -->
<g id="node21" class="node"><title>Node21</title>
<polygon fill="white" stroke="#bfbfbf" points="89,-56.5 89,-75.5 153,-75.5 153,-56.5 89,-56.5"/>
<text text-anchor="middle" x="121" y="-63.5" font-family="Helvetica,sans-Serif" font-size="10.00">wdlstring.h</text>
</g>
<!-- Node15&#45;&gt;Node21 -->
<g id="edge22" class="edge"><title>Node15&#45;&gt;Node21</title>
<path fill="none" stroke="midnightblue" d="M299.408,-112.444C262.382,-103.012 202.779,-87.8305 162.771,-77.6397"/>
<polygon fill="midnightblue" stroke="midnightblue" points="163.602,-74.2397 153.047,-75.1629 161.874,-81.0231 163.602,-74.2397"/>
</g>
<!-- Node15&#45;&gt;Node22 -->
<g id="edge23" class="edge"><title>Node15&#45;&gt;Node22</title>
<path fill="none" stroke="midnightblue" d="M346.014,-112.324C358.532,-103.979 377.682,-91.2122 392.471,-81.3524"/>
<polygon fill="midnightblue" stroke="midnightblue" points="394.639,-84.1137 401.018,-75.6545 390.756,-78.2894 394.639,-84.1137"/>
</g>
<!-- Node22&#45;&gt;Node10 -->
<g id="edge27" class="edge"><title>Node22&#45;&gt;Node10</title>
<path fill="none" stroke="midnightblue" d="M373.874,-57.6048C315.541,-46.854 208.391,-27.1062 154.221,-17.1227"/>
<polygon fill="midnightblue" stroke="midnightblue" points="154.593,-13.6323 144.124,-15.2618 153.324,-20.5164 154.593,-13.6323"/>
</g>
<!-- Node22&#45;&gt;Node14 -->
<g id="edge30" class="edge"><title>Node22&#45;&gt;Node14</title>
<path fill="none" stroke="midnightblue" d="M418.374,-75.5914C427.516,-93.5484 448.806,-135.37 460.999,-159.32"/>
<polygon fill="midnightblue" stroke="midnightblue" points="457.95,-161.045 465.606,-168.368 464.188,-157.869 457.95,-161.045"/>
</g>
<!-- Node22&#45;&gt;Node16 -->
<g id="edge25" class="edge"><title>Node22&#45;&gt;Node16</title>
<path fill="none" stroke="midnightblue" d="M398.737,-56.324C383.779,-47.8215 360.745,-34.7288 343.273,-24.7975"/>
<polygon fill="midnightblue" stroke="midnightblue" points="344.649,-21.5534 334.226,-19.6545 341.19,-27.639 344.649,-21.5534"/>
</g>
<!-- Node22&#45;&gt;Node17 -->
<g id="edge28" class="edge"><title>Node22&#45;&gt;Node17</title>
<path fill="none" stroke="midnightblue" d="M429.103,-56.324C443.903,-47.8215 466.694,-34.7288 483.982,-24.7975"/>
<polygon fill="midnightblue" stroke="midnightblue" points="486.007,-27.6707 492.935,-19.6545 482.52,-21.6009 486.007,-27.6707"/>
</g>
<!-- Node23 -->
<g id="node23" class="node"><title>Node23</title>
<polygon fill="white" stroke="#bfbfbf" points="359,-0.5 359,-19.5 403,-19.5 403,-0.5 359,-0.5"/>
<text text-anchor="middle" x="381" y="-7.5" font-family="Helvetica,sans-Serif" font-size="10.00">cmath</text>
</g>
<!-- Node22&#45;&gt;Node23 -->
<g id="edge24" class="edge"><title>Node22&#45;&gt;Node23</title>
<path fill="none" stroke="midnightblue" d="M408.551,-56.083C403.986,-48.6127 397.332,-37.7244 391.707,-28.5199"/>
<polygon fill="midnightblue" stroke="midnightblue" points="394.549,-26.4588 386.348,-19.7511 388.576,-30.109 394.549,-26.4588"/>
</g>
<!-- Node24 -->
<g id="node24" class="node"><title>Node24</title>
<polygon fill="white" stroke="#bfbfbf" points="421.5,-0.5 421.5,-19.5 466.5,-19.5 466.5,-0.5 421.5,-0.5"/>
<text text-anchor="middle" x="444" y="-7.5" font-family="Helvetica,sans-Serif" font-size="10.00">cstdlib</text>
</g>
<!-- Node22&#45;&gt;Node24 -->
<g id="edge26" class="edge"><title>Node22&#45;&gt;Node24</title>
<path fill="none" stroke="midnightblue" d="M418.954,-56.083C423.104,-48.6127 429.153,-37.7244 434.267,-28.5199"/>
<polygon fill="midnightblue" stroke="midnightblue" points="437.341,-30.1924 439.138,-19.7511 431.222,-26.7929 437.341,-30.1924"/>
</g>
<!-- Node22&#45;&gt;Node25 -->
<g id="edge29" class="edge"><title>Node22&#45;&gt;Node25</title>
<path fill="none" stroke="midnightblue" d="M449.652,-56.4435C488.656,-47.0826 551.266,-32.0561 593.717,-21.868"/>
<polygon fill="midnightblue" stroke="midnightblue" points="594.608,-25.2536 603.515,-19.5164 592.974,-18.4469 594.608,-25.2536"/>
</g>
<!-- Node26&#45;&gt;Node14 -->
<g id="edge36" class="edge"><title>Node26&#45;&gt;Node14</title>
<path fill="none" stroke="midnightblue" d="M552.255,-224.324C536.681,-215.743 512.623,-202.486 494.541,-192.522"/>
<polygon fill="midnightblue" stroke="midnightblue" points="496.154,-189.415 485.706,-187.655 492.776,-195.546 496.154,-189.415"/>
</g>
<!-- Node26&#45;&gt;Node21 -->
<g id="edge34" class="edge"><title>Node26&#45;&gt;Node21</title>
<path fill="none" stroke="midnightblue" d="M536.622,-224.435C506.28,-215.94 459.13,-202.173 419,-188 318.59,-152.537 202.404,-102.761 149.67,-79.6771"/>
<polygon fill="midnightblue" stroke="midnightblue" points="150.85,-76.3725 140.286,-75.5575 148.036,-82.7821 150.85,-76.3725"/>
</g>
<!-- Node26&#45;&gt;Node25 -->
<g id="edge35" class="edge"><title>Node26&#45;&gt;Node25</title>
<path fill="none" stroke="midnightblue" d="M585.806,-224.454C600.128,-216.748 619.808,-204.154 632,-188 663.753,-145.929 662.21,-127.971 671,-76 672.482,-67.2356 673.704,-64.4677 671,-56 667.659,-45.538 660.9,-35.4277 654.451,-27.4496"/>
<polygon fill="midnightblue" stroke="midnightblue" points="656.944,-24.9815 647.751,-19.7136 651.652,-29.5641 656.944,-24.9815"/>
</g>
<!-- Node27 -->
<g id="node27" class="node"><title>Node27</title>
<polygon fill="white" stroke="#bfbfbf" points="568,-168.5 568,-187.5 624,-187.5 624,-168.5 568,-168.5"/>
<text text-anchor="middle" x="596" y="-175.5" font-family="Helvetica,sans-Serif" font-size="10.00">algorithm</text>
</g>
<!-- Node26&#45;&gt;Node27 -->
<g id="edge33" class="edge"><title>Node26&#45;&gt;Node27</title>
<path fill="none" stroke="midnightblue" d="M572.624,-224.083C576.456,-216.691 582.024,-205.953 586.765,-196.811"/>
<polygon fill="midnightblue" stroke="midnightblue" points="589.966,-198.24 591.462,-187.751 583.752,-195.018 589.966,-198.24"/>
</g>
<!-- Node28 -->
<g id="node28" class="node"><title>Node28</title>
<g id="a_node28"><a xlink:href="_i_plug_midi_8h_source.html" target="_top" xlink:title="IPlugMidi.h">
<polygon fill="white" stroke="black" points="507.5,-112.5 507.5,-131.5 572.5,-131.5 572.5,-112.5 507.5,-112.5"/>
<text text-anchor="middle" x="540" y="-119.5" font-family="Helvetica,sans-Serif" font-size="10.00">IPlugMidi.h</text>
</a>
</g>
</g>
<!-- Node26&#45;&gt;Node28 -->
<g id="edge37" class="edge"><title>Node26&#45;&gt;Node28</title>
<path fill="none" stroke="midnightblue" d="M565.803,-224.368C561.284,-206.617 550.861,-165.666 544.734,-141.597"/>
<polygon fill="midnightblue" stroke="midnightblue" points="548.046,-140.419 542.187,-131.591 541.262,-142.146 548.046,-140.419"/>
</g>
<!-- Node28&#45;&gt;Node11 -->
<g id="edge39" class="edge"><title>Node28&#45;&gt;Node11</title>
<path fill="none" stroke="midnightblue" d="M555.906,-112.324C571.638,-103.743 595.942,-90.486 614.209,-80.5224"/>
<polygon fill="midnightblue" stroke="midnightblue" points="616.03,-83.5157 623.133,-75.6545 612.678,-77.3704 616.03,-83.5157"/>
</g>
<!-- Node28&#45;&gt;Node20 -->
<g id="edge38" class="edge"><title>Node28&#45;&gt;Node20</title>
<path fill="none" stroke="midnightblue" d="M539.174,-112.083C538.519,-105.006 537.58,-94.8611 536.758,-85.9865"/>
<polygon fill="midnightblue" stroke="midnightblue" points="540.217,-85.3858 535.81,-75.7511 533.247,-86.0312 540.217,-85.3858"/>
</g>
<!-- Node28&#45;&gt;Node22 -->
<g id="edge41" class="edge"><title>Node28&#45;&gt;Node22</title>
<path fill="none" stroke="midnightblue" d="M520.035,-112.444C499.391,-103.596 466.937,-89.6875 443.368,-79.5865"/>
<polygon fill="midnightblue" stroke="midnightblue" points="444.442,-76.2387 433.872,-75.5164 441.684,-82.6727 444.442,-76.2387"/>
</g>
<!-- Node28&#45;&gt;Node25 -->
<g id="edge40" class="edge"><title>Node28&#45;&gt;Node25</title>
<path fill="none" stroke="midnightblue" d="M547.768,-112.368C564.323,-93.9744 603.296,-50.6712 624.553,-27.0519"/>
<polygon fill="midnightblue" stroke="midnightblue" points="627.18,-29.3658 631.268,-19.5914 621.977,-24.683 627.18,-29.3658"/>
</g>
<!-- Node29&#45;&gt;Node10 -->
<g id="edge44" class="edge"><title>Node29&#45;&gt;Node10</title>
<path fill="none" stroke="midnightblue" d="M117.367,-112.464C104.512,-104.841 87.6608,-92.356 80,-76 71.6267,-58.1227 86.6286,-39.1972 100.782,-26.4071"/>
<polygon fill="midnightblue" stroke="midnightblue" points="103.431,-28.753 108.835,-19.6397 98.9275,-23.3941 103.431,-28.753"/>
</g>
<!-- Node29&#45;&gt;Node21 -->
<g id="edge45" class="edge"><title>Node29&#45;&gt;Node21</title>
<path fill="none" stroke="midnightblue" d="M131.853,-112.083C130.131,-104.927 127.653,-94.6353 125.5,-85.6911"/>
<polygon fill="midnightblue" stroke="midnightblue" points="128.85,-84.6541 123.107,-75.7511 122.045,-86.2925 128.85,-84.6541"/>
</g>
<!-- Node29&#45;&gt;Node22 -->
<g id="edge46" class="edge"><title>Node29&#45;&gt;Node22</title>
<path fill="none" stroke="midnightblue" d="M178.367,-112.444C228.82,-102.713 311.016,-86.8612 363.781,-76.6851"/>
<polygon fill="midnightblue" stroke="midnightblue" points="364.767,-80.0595 373.924,-74.729 363.442,-73.1861 364.767,-80.0595"/>
</g>
</g>
</svg>
