<?xml version="1.0" encoding="UTF-8" standalone="no"?>
<!DOCTYPE svg PUBLIC "-//W3C//DTD SVG 1.1//EN"
 "http://www.w3.org/Graphics/SVG/1.1/DTD/svg11.dtd">
<!-- Generated by graphviz version 2.36.0 (20140111.2315)
 -->
<!-- Title: IPlugAU.h Pages: 1 -->
<!--zoomable 476 -->
<svg id="main" version="1.1" xmlns="http://www.w3.org/2000/svg" xmlns:xlink="http://www.w3.org/1999/xlink" xml:space="preserve" onload="init(evt)">
<style type="text/css"><![CDATA[
.edge:hover path { stroke: red; }
.edge:hover polygon { stroke: red; fill: red; }
]]></style>
<script type="text/javascript"><![CDATA[
var edges = document.getElementsByTagName('g');
if (edges && edges.length) {
  for (var i=0;i<edges.length;i++) {
    if (edges[i].id.substr(0,4)=='edge') {
      edges[i].setAttribute('class','edge');
    }
  }
}
]]></script>
        <defs>
                <circle id="rim" cx="0" cy="0" r="7"/>
                <circle id="rim2" cx="0" cy="0" r="3.5"/>
                <g id="zoomPlus">
                        <use xlink:href="#rim" fill="#404040">
                                <set attributeName="fill" to="#808080" begin="zoomplus.mouseover" end="zoomplus.mouseout"/>
                        </use>
                        <path d="M-4,0h8M0,-4v8" fill="none" stroke="white" stroke-width="1.5" pointer-events="none"/>
                </g>
                <g id="zoomMin">
                        <use xlink:href="#rim" fill="#404040">
                                <set attributeName="fill" to="#808080" begin="zoomminus.mouseover" end="zoomminus.mouseout"/>
                        </use>
                        <path d="M-4,0h8" fill="none" stroke="white" stroke-width="1.5" pointer-events="none"/>
                </g>
                <g id="dirArrow">
                        <path fill="none" stroke="white" stroke-width="1.5" d="M0,-3.0v7 M-2.5,-0.5L0,-3.0L2.5,-0.5"/>
                </g>
               <g id="resetDef">
                       <use xlink:href="#rim2" fill="#404040">
                               <set attributeName="fill" to="#808080" begin="reset.mouseover" end="reset.mouseout"/>
                       </use>
               </g>
        </defs>

<script type="text/javascript">
var viewWidth = 1203;
var viewHeight = 476;
var sectionId = 'dynsection-0';
</script>
<script xlink:href="svgpan.js"/>
<svg id="graph" class="graph">
<g id="viewport">
<title>IPlugAU.h</title>
<polygon fill="white" stroke="none" points="-4,4 -4,-472 1199,-472 1199,4 -4,4"/>
<!-- Node1 -->
<g id="node1" class="node"><title>Node1</title>
<polygon fill="#bfbfbf" stroke="black" points="455,-448.5 455,-467.5 517,-467.5 517,-448.5 455,-448.5"/>
<text text-anchor="middle" x="486" y="-455.5" font-family="Helvetica,sans-Serif" font-size="10.00">IPlugAU.h</text>
</g>
<!-- Node2 -->
<g id="node2" class="node"><title>Node2</title>
<polygon fill="white" stroke="#bfbfbf" points="0,-392.5 0,-411.5 146,-411.5 146,-392.5 0,-392.5"/>
<text text-anchor="middle" x="73" y="-399.5" font-family="Helvetica,sans-Serif" font-size="10.00">CoreServices/CoreServices.h</text>
</g>
<!-- Node1&#45;&gt;Node2 -->
<g id="edge1" class="edge"><title>Node1&#45;&gt;Node2</title>
<path fill="none" stroke="midnightblue" d="M454.958,-452.941C390.316,-444.489 239.678,-424.793 148.075,-412.816"/>
<polygon fill="midnightblue" stroke="midnightblue" points="148.399,-409.329 138.03,-411.503 147.492,-416.27 148.399,-409.329"/>
</g>
<!-- Node3 -->
<g id="node3" class="node"><title>Node3</title>
<polygon fill="white" stroke="#bfbfbf" points="164.5,-392.5 164.5,-411.5 299.5,-411.5 299.5,-392.5 164.5,-392.5"/>
<text text-anchor="middle" x="232" y="-399.5" font-family="Helvetica,sans-Serif" font-size="10.00">AudioUnit/AUComponent.h</text>
</g>
<!-- Node1&#45;&gt;Node3 -->
<g id="edge2" class="edge"><title>Node1&#45;&gt;Node3</title>
<path fill="none" stroke="midnightblue" d="M454.855,-450.379C411.76,-441.217 333.461,-424.57 282.091,-413.649"/>
<polygon fill="midnightblue" stroke="midnightblue" points="282.704,-410.201 272.194,-411.545 281.248,-417.048 282.704,-410.201"/>
</g>
<!-- Node4 -->
<g id="node4" class="node"><title>Node4</title>
<polygon fill="white" stroke="#bfbfbf" points="318,-392.5 318,-411.5 476,-411.5 476,-392.5 318,-392.5"/>
<text text-anchor="middle" x="397" y="-399.5" font-family="Helvetica,sans-Serif" font-size="10.00">AudioUnit/AudioUnitProperties.h</text>
</g>
<!-- Node1&#45;&gt;Node4 -->
<g id="edge3" class="edge"><title>Node1&#45;&gt;Node4</title>
<path fill="none" stroke="midnightblue" d="M471.701,-448.324C457.817,-439.9 436.508,-426.971 420.196,-417.074"/>
<polygon fill="midnightblue" stroke="midnightblue" points="421.629,-413.85 411.264,-411.655 417.998,-419.834 421.629,-413.85"/>
</g>
<!-- Node5 -->
<g id="node5" class="node"><title>Node5</title>
<polygon fill="white" stroke="#bfbfbf" points="494.5,-392.5 494.5,-411.5 657.5,-411.5 657.5,-392.5 494.5,-392.5"/>
<text text-anchor="middle" x="576" y="-399.5" font-family="Helvetica,sans-Serif" font-size="10.00">AudioToolbox/AudioUnitUtilities.h</text>
</g>
<!-- Node1&#45;&gt;Node5 -->
<g id="edge4" class="edge"><title>Node1&#45;&gt;Node5</title>
<path fill="none" stroke="midnightblue" d="M500.46,-448.324C514.5,-439.9 536.048,-426.971 552.543,-417.074"/>
<polygon fill="midnightblue" stroke="midnightblue" points="554.802,-419.801 561.576,-411.655 551.2,-413.798 554.802,-419.801"/>
</g>
<!-- Node6 -->
<g id="node6" class="node"><title>Node6</title>
<polygon fill="white" stroke="#bfbfbf" points="676,-392.5 676,-411.5 780,-411.5 780,-392.5 676,-392.5"/>
<text text-anchor="middle" x="728" y="-399.5" font-family="Helvetica,sans-Serif" font-size="10.00">AvailabilityMacros.h</text>
</g>
<!-- Node1&#45;&gt;Node6 -->
<g id="edge5" class="edge"><title>Node1&#45;&gt;Node6</title>
<path fill="none" stroke="midnightblue" d="M517.142,-450.051C558.378,-440.85 631.512,-424.53 679.881,-413.737"/>
<polygon fill="midnightblue" stroke="midnightblue" points="680.809,-417.116 689.807,-411.522 679.284,-410.284 680.809,-417.116"/>
</g>
<!-- Node7 -->
<g id="node7" class="node"><title>Node7</title>
<g id="a_node7"><a xlink:href="_i_plug_base__select_8h_source.html" target="_top" xlink:title="IPlugBase_select.h">
<polygon fill="white" stroke="black" points="798.5,-392.5 798.5,-411.5 899.5,-411.5 899.5,-392.5 798.5,-392.5"/>
<text text-anchor="middle" x="849" y="-399.5" font-family="Helvetica,sans-Serif" font-size="10.00">IPlugBase_select.h</text>
</a>
</g>
</g>
<!-- Node1&#45;&gt;Node7 -->
<g id="edge6" class="edge"><title>Node1&#45;&gt;Node7</title>
<path fill="none" stroke="midnightblue" d="M517.408,-452.351C570.715,-444.457 682.574,-427.877 788.074,-412.136"/>
<polygon fill="midnightblue" stroke="midnightblue" points="788.888,-415.554 798.262,-410.616 787.855,-408.63 788.888,-415.554"/>
</g>
<!-- Node8 -->
<g id="node8" class="node"><title>Node8</title>
<g id="a_node8"><a xlink:href="_i_plug_base_graphics_8h.html" target="_top" xlink:title="An IPlugBase class for an IPlug plug&#45;in that uses IGraphics for it&#39;s UI. ">
<polygon fill="white" stroke="black" points="794.5,-336.5 794.5,-355.5 903.5,-355.5 903.5,-336.5 794.5,-336.5"/>
<text text-anchor="middle" x="849" y="-343.5" font-family="Helvetica,sans-Serif" font-size="10.00">IPlugBaseGraphics.h</text>
</a>
</g>
</g>
<!-- Node7&#45;&gt;Node8 -->
<g id="edge7" class="edge"><title>Node7&#45;&gt;Node8</title>
<path fill="none" stroke="midnightblue" d="M849,-392.083C849,-385.006 849,-374.861 849,-365.986"/>
<polygon fill="midnightblue" stroke="midnightblue" points="852.5,-365.751 849,-355.751 845.5,-365.751 852.5,-365.751"/>
</g>
<!-- Node9 -->
<g id="node9" class="node"><title>Node9</title>
<g id="a_node9"><a xlink:href="_i_plug_base_8h.html" target="_top" xlink:title="The lowest level base class of an IPlug plug&#45;in. ">
<polygon fill="white" stroke="black" points="814,-280.5 814,-299.5 884,-299.5 884,-280.5 814,-280.5"/>
<text text-anchor="middle" x="849" y="-287.5" font-family="Helvetica,sans-Serif" font-size="10.00">IPlugBase.h</text>
</a>
</g>
</g>
<!-- Node8&#45;&gt;Node9 -->
<g id="edge8" class="edge"><title>Node8&#45;&gt;Node9</title>
<path fill="none" stroke="midnightblue" d="M849,-336.083C849,-329.006 849,-318.861 849,-309.986"/>
<polygon fill="midnightblue" stroke="midnightblue" points="852.5,-309.751 849,-299.751 845.5,-309.751 852.5,-309.751"/>
</g>
<!-- Node10 -->
<g id="node10" class="node"><title>Node10</title>
<polygon fill="white" stroke="#bfbfbf" points="318,-0.5 318,-19.5 364,-19.5 364,-0.5 318,-0.5"/>
<text text-anchor="middle" x="341" y="-7.5" font-family="Helvetica,sans-Serif" font-size="10.00">cstring</text>
</g>
<!-- Node9&#45;&gt;Node10 -->
<g id="edge9" class="edge"><title>Node9&#45;&gt;Node10</title>
<path fill="none" stroke="midnightblue" d="M813.8,-286.37C684.464,-276.246 243,-237.409 243,-179 243,-179 243,-179 243,-121 243,-77.3804 286.492,-43.0601 315.529,-25.0074"/>
<polygon fill="midnightblue" stroke="midnightblue" points="317.583,-27.8576 324.376,-19.7265 313.995,-21.8471 317.583,-27.8576"/>
</g>
<!-- Node11 -->
<g id="node11" class="node"><title>Node11</title>
<polygon fill="white" stroke="#bfbfbf" points="836,-56.5 836,-75.5 882,-75.5 882,-56.5 836,-56.5"/>
<text text-anchor="middle" x="859" y="-63.5" font-family="Helvetica,sans-Serif" font-size="10.00">cstdint</text>
</g>
<!-- Node9&#45;&gt;Node11 -->
<g id="edge10" class="edge"><title>Node9&#45;&gt;Node11</title>
<path fill="none" stroke="midnightblue" d="M849.392,-280.297C850.863,-247.633 856.078,-131.866 858.146,-85.9573"/>
<polygon fill="midnightblue" stroke="midnightblue" points="861.646,-86.0311 858.6,-75.8837 854.653,-85.7161 861.646,-86.0311"/>
</g>
<!-- Node12 -->
<g id="node12" class="node"><title>Node12</title>
<polygon fill="white" stroke="#bfbfbf" points="976.5,-224.5 976.5,-243.5 1025.5,-243.5 1025.5,-224.5 976.5,-224.5"/>
<text text-anchor="middle" x="1001" y="-231.5" font-family="Helvetica,sans-Serif" font-size="10.00">ptrlist.h</text>
</g>
<!-- Node9&#45;&gt;Node12 -->
<g id="edge11" class="edge"><title>Node9&#45;&gt;Node12</title>
<path fill="none" stroke="midnightblue" d="M873.085,-280.444C898.545,-271.399 938.894,-257.064 967.459,-246.916"/>
<polygon fill="midnightblue" stroke="midnightblue" points="968.777,-250.162 977.028,-243.516 966.433,-243.566 968.777,-250.162"/>
</g>
<!-- Node13 -->
<g id="node13" class="node"><title>Node13</title>
<polygon fill="white" stroke="#bfbfbf" points="1044,-224.5 1044,-243.5 1096,-243.5 1096,-224.5 1044,-224.5"/>
<text text-anchor="middle" x="1070" y="-231.5" font-family="Helvetica,sans-Serif" font-size="10.00">mutex.h</text>
</g>
<!-- Node9&#45;&gt;Node13 -->
<g id="edge12" class="edge"><title>Node9&#45;&gt;Node13</title>
<path fill="none" stroke="midnightblue" d="M884.138,-280.523C919.401,-272.001 975.534,-258.392 1033.89,-244.014"/>
<polygon fill="midnightblue" stroke="midnightblue" points="1034.79,-247.398 1043.66,-241.606 1033.11,-240.602 1034.79,-247.398"/>
</g>
<!-- Node14 -->
<g id="node14" class="node"><title>Node14</title>
<g id="a_node14"><a xlink:href="_i_plug_platform_8h.html" target="_top" xlink:title="Include to get consistently named preprocessor macros for different platforms and logging functionali...">
<polygon fill="white" stroke="black" points="648,-168.5 648,-187.5 732,-187.5 732,-168.5 648,-168.5"/>
<text text-anchor="middle" x="690" y="-175.5" font-family="Helvetica,sans-Serif" font-size="10.00">IPlugPlatform.h</text>
</a>
</g>
</g>
<!-- Node9&#45;&gt;Node14 -->
<g id="edge13" class="edge"><title>Node9&#45;&gt;Node14</title>
<path fill="none" stroke="midnightblue" d="M816.161,-280.386C793.225,-273.246 762.76,-261.421 740,-244 723.098,-231.063 708.886,-211.068 699.985,-196.671"/>
<polygon fill="midnightblue" stroke="midnightblue" points="702.811,-194.575 694.704,-187.754 696.788,-198.142 702.811,-194.575"/>
</g>
<!-- Node22 -->
<g id="node22" class="node"><title>Node22</title>
<g id="a_node22"><a xlink:href="_i_plug_utilities_8h.html" target="_top" xlink:title="Utility functions and macros. ">
<polygon fill="white" stroke="black" points="594,-56.5 594,-75.5 674,-75.5 674,-56.5 594,-56.5"/>
<text text-anchor="middle" x="634" y="-63.5" font-family="Helvetica,sans-Serif" font-size="10.00">IPlugUtilities.h</text>
</a>
</g>
</g>
<!-- Node9&#45;&gt;Node22 -->
<g id="edge42" class="edge"><title>Node9&#45;&gt;Node22</title>
<path fill="none" stroke="midnightblue" d="M813.972,-284.625C763.732,-276.181 673.473,-252.374 639,-188 621.527,-155.372 625.721,-110.401 630.045,-85.4905"/>
<polygon fill="midnightblue" stroke="midnightblue" points="633.5,-86.0561 631.963,-75.5734 626.628,-84.7265 633.5,-86.0561"/>
</g>
<!-- Node25 -->
<g id="node25" class="node"><title>Node25</title>
<g id="a_node25"><a xlink:href="_i_plug_constants_8h.html" target="_top" xlink:title="Constant definitions, magic numbers. ">
<polygon fill="white" stroke="black" points="813,-0.5 813,-19.5 905,-19.5 905,-0.5 813,-0.5"/>
<text text-anchor="middle" x="859" y="-7.5" font-family="Helvetica,sans-Serif" font-size="10.00">IPlugConstants.h</text>
</a>
</g>
</g>
<!-- Node9&#45;&gt;Node25 -->
<g id="edge31" class="edge"><title>Node9&#45;&gt;Node25</title>
<path fill="none" stroke="midnightblue" d="M865.794,-280.318C894.039,-264.374 948,-227.559 948,-179 948,-179 948,-179 948,-121 948,-78.8457 908.01,-43.7791 881.642,-25.2392"/>
<polygon fill="midnightblue" stroke="midnightblue" points="883.544,-22.3003 873.299,-19.5989 879.623,-28.0994 883.544,-22.3003"/>
</g>
<!-- Node26 -->
<g id="node26" class="node"><title>Node26</title>
<g id="a_node26"><a xlink:href="_i_plug_structs_8h_source.html" target="_top" xlink:title="IPlugStructs.h">
<polygon fill="white" stroke="black" points="748.5,-224.5 748.5,-243.5 827.5,-243.5 827.5,-224.5 748.5,-224.5"/>
<text text-anchor="middle" x="788" y="-231.5" font-family="Helvetica,sans-Serif" font-size="10.00">IPlugStructs.h</text>
</a>
</g>
</g>
<!-- Node9&#45;&gt;Node26 -->
<g id="edge32" class="edge"><title>Node9&#45;&gt;Node26</title>
<path fill="none" stroke="midnightblue" d="M839.199,-280.324C830.182,-272.341 816.594,-260.313 805.682,-250.653"/>
<polygon fill="midnightblue" stroke="midnightblue" points="807.787,-247.842 797.979,-243.834 803.147,-253.083 807.787,-247.842"/>
</g>
<!-- Node29 -->
<g id="node29" class="node"><title>Node29</title>
<g id="a_node29"><a xlink:href="_i_plug_parameter_8h_source.html" target="_top" xlink:title="IPlugParameter.h">
<polygon fill="white" stroke="black" points="308,-112.5 308,-131.5 400,-131.5 400,-112.5 308,-112.5"/>
<text text-anchor="middle" x="354" y="-119.5" font-family="Helvetica,sans-Serif" font-size="10.00">IPlugParameter.h</text>
</a>
</g>
</g>
<!-- Node9&#45;&gt;Node29 -->
<g id="edge43" class="edge"><title>Node9&#45;&gt;Node29</title>
<path fill="none" stroke="midnightblue" d="M813.672,-285.425C765.723,-279.908 677.788,-267.422 606,-244 517.667,-215.18 420.513,-161.792 377.136,-136.702"/>
<polygon fill="midnightblue" stroke="midnightblue" points="378.883,-133.669 368.481,-131.657 375.358,-139.716 378.883,-133.669"/>
</g>
<!-- Node30 -->
<g id="node30" class="node"><title>Node30</title>
<g id="a_node30"><a xlink:href="_n_chan_delay_8h_source.html" target="_top" xlink:title="NChanDelay.h">
<polygon fill="white" stroke="black" points="1114.5,-224.5 1114.5,-243.5 1195.5,-243.5 1195.5,-224.5 1114.5,-224.5"/>
<text text-anchor="middle" x="1155" y="-231.5" font-family="Helvetica,sans-Serif" font-size="10.00">NChanDelay.h</text>
</a>
</g>
</g>
<!-- Node9&#45;&gt;Node30 -->
<g id="edge47" class="edge"><title>Node9&#45;&gt;Node30</title>
<path fill="none" stroke="midnightblue" d="M884.206,-282.858C931.685,-274.565 1019.15,-259.252 1104.25,-244.128"/>
<polygon fill="midnightblue" stroke="midnightblue" points="1105.11,-247.529 1114.34,-242.333 1103.89,-240.638 1105.11,-247.529"/>
</g>
<!-- Node15 -->
<g id="node15" class="node"><title>Node15</title>
<g id="a_node15"><a xlink:href="_i_plug_logger_8h_source.html" target="_top" xlink:title="IPlugLogger.h">
<polygon fill="white" stroke="black" points="514.5,-112.5 514.5,-131.5 591.5,-131.5 591.5,-112.5 514.5,-112.5"/>
<text text-anchor="middle" x="553" y="-119.5" font-family="Helvetica,sans-Serif" font-size="10.00">IPlugLogger.h</text>
</a>
</g>
</g>
<!-- Node14&#45;&gt;Node15 -->
<g id="edge14" class="edge"><title>Node14&#45;&gt;Node15</title>
<path fill="none" stroke="midnightblue" d="M668.292,-168.444C645.645,-159.517 609.928,-145.439 584.248,-135.317"/>
<polygon fill="midnightblue" stroke="midnightblue" points="585.193,-131.927 574.606,-131.516 582.626,-138.44 585.193,-131.927"/>
</g>
<!-- Node15&#45;&gt;Node10 -->
<g id="edge19" class="edge"><title>Node15&#45;&gt;Node10</title>
<path fill="none" stroke="midnightblue" d="M517.112,-112.467C489.722,-105.093 451.611,-92.9398 421,-76 396.691,-62.548 372.444,-41.5064 357.124,-27.0278"/>
<polygon fill="midnightblue" stroke="midnightblue" points="359.212,-24.1787 349.588,-19.7493 354.35,-29.2138 359.212,-24.1787"/>
</g>
<!-- Node15&#45;&gt;Node11 -->
<g id="edge18" class="edge"><title>Node15&#45;&gt;Node11</title>
<path fill="none" stroke="midnightblue" d="M591.755,-114.161C652.466,-103.447 768.933,-82.8942 825.933,-72.8354"/>
<polygon fill="midnightblue" stroke="midnightblue" points="826.618,-76.2687 835.857,-71.084 825.401,-69.3752 826.618,-76.2687"/>
</g>
<!-- Node16 -->
<g id="node16" class="node"><title>Node16</title>
<polygon fill="white" stroke="#bfbfbf" points="517.5,-0.5 517.5,-19.5 560.5,-19.5 560.5,-0.5 517.5,-0.5"/>
<text text-anchor="middle" x="539" y="-7.5" font-family="Helvetica,sans-Serif" font-size="10.00">cstdio</text>
</g>
<!-- Node15&#45;&gt;Node16 -->
<g id="edge15" class="edge"><title>Node15&#45;&gt;Node16</title>
<path fill="none" stroke="midnightblue" d="M552.18,-112.153C550.99,-99.6309 548.635,-76.0304 546,-56 544.851,-47.2694 543.377,-37.618 542.078,-29.4996"/>
<polygon fill="midnightblue" stroke="midnightblue" points="545.529,-28.9143 540.463,-19.6095 538.621,-30.043 545.529,-28.9143"/>
</g>
<!-- Node17 -->
<g id="node17" class="node"><title>Node17</title>
<polygon fill="white" stroke="#bfbfbf" points="705,-0.5 705,-19.5 751,-19.5 751,-0.5 705,-0.5"/>
<text text-anchor="middle" x="728" y="-7.5" font-family="Helvetica,sans-Serif" font-size="10.00">cctype</text>
</g>
<!-- Node15&#45;&gt;Node17 -->
<g id="edge16" class="edge"><title>Node15&#45;&gt;Node17</title>
<path fill="none" stroke="midnightblue" d="M591.6,-114.308C619.203,-108.025 656.081,-96.432 683,-76 699.344,-63.5944 711.946,-43.5107 719.602,-28.9475"/>
<polygon fill="midnightblue" stroke="midnightblue" points="722.777,-30.4217 724.097,-19.9094 716.51,-27.3042 722.777,-30.4217"/>
</g>
<!-- Node18 -->
<g id="node18" class="node"><title>Node18</title>
<polygon fill="white" stroke="#bfbfbf" points="429.5,-56.5 429.5,-75.5 478.5,-75.5 478.5,-56.5 429.5,-56.5"/>
<text text-anchor="middle" x="454" y="-63.5" font-family="Helvetica,sans-Serif" font-size="10.00">cstdarg</text>
</g>
<!-- Node15&#45;&gt;Node18 -->
<g id="edge17" class="edge"><title>Node15&#45;&gt;Node18</title>
<path fill="none" stroke="midnightblue" d="M537.094,-112.324C521.362,-103.743 497.058,-90.486 478.791,-80.5224"/>
<polygon fill="midnightblue" stroke="midnightblue" points="480.322,-77.3704 469.867,-75.6545 476.97,-83.5157 480.322,-77.3704"/>
</g>
<!-- Node19 -->
<g id="node19" class="node"><title>Node19</title>
<polygon fill="white" stroke="#bfbfbf" points="496.5,-56.5 496.5,-75.5 537.5,-75.5 537.5,-56.5 496.5,-56.5"/>
<text text-anchor="middle" x="517" y="-63.5" font-family="Helvetica,sans-Serif" font-size="10.00">ctime</text>
</g>
<!-- Node15&#45;&gt;Node19 -->
<g id="edge20" class="edge"><title>Node15&#45;&gt;Node19</title>
<path fill="none" stroke="midnightblue" d="M547.055,-112.083C542.023,-104.534 534.663,-93.4948 528.487,-84.2298"/>
<polygon fill="midnightblue" stroke="midnightblue" points="531.293,-82.1301 522.834,-75.7511 525.469,-86.0131 531.293,-82.1301"/>
</g>
<!-- Node20 -->
<g id="node20" class="node"><title>Node20</title>
<polygon fill="white" stroke="#bfbfbf" points="730.5,-56.5 730.5,-75.5 779.5,-75.5 779.5,-56.5 730.5,-56.5"/>
<text text-anchor="middle" x="755" y="-63.5" font-family="Helvetica,sans-Serif" font-size="10.00">cassert</text>
</g>
<!-- Node15&#45;&gt;Node20 -->
<g id="edge21" class="edge"><title>Node15&#45;&gt;Node20</title>
<path fill="none" stroke="midnightblue" d="M585.008,-112.444C621.92,-102.576 682.383,-86.4126 720.369,-76.2577"/>
<polygon fill="midnightblue" stroke="midnightblue" points="721.692,-79.527 730.449,-73.5631 719.885,-72.7644 721.692,-79.527"/>
</g>
<!-- Node21 -->
<g id="node21" class="node"><title>Node21</title>
<polygon fill="white" stroke="#bfbfbf" points="309,-56.5 309,-75.5 373,-75.5 373,-56.5 309,-56.5"/>
<text text-anchor="middle" x="341" y="-63.5" font-family="Helvetica,sans-Serif" font-size="10.00">wdlstring.h</text>
</g>
<!-- Node15&#45;&gt;Node21 -->
<g id="edge22" class="edge"><title>Node15&#45;&gt;Node21</title>
<path fill="none" stroke="midnightblue" d="M519.408,-112.444C482.382,-103.012 422.779,-87.8305 382.771,-77.6397"/>
<polygon fill="midnightblue" stroke="midnightblue" points="383.602,-74.2397 373.047,-75.1629 381.874,-81.0231 383.602,-74.2397"/>
</g>
<!-- Node15&#45;&gt;Node22 -->
<g id="edge23" class="edge"><title>Node15&#45;&gt;Node22</title>
<path fill="none" stroke="midnightblue" d="M566.014,-112.324C578.532,-103.979 597.682,-91.2122 612.471,-81.3524"/>
<polygon fill="midnightblue" stroke="midnightblue" points="614.639,-84.1137 621.018,-75.6545 610.756,-78.2894 614.639,-84.1137"/>
</g>
<!-- Node22&#45;&gt;Node10 -->
<g id="edge27" class="edge"><title>Node22&#45;&gt;Node10</title>
<path fill="none" stroke="midnightblue" d="M593.874,-57.6048C535.541,-46.854 428.391,-27.1062 374.221,-17.1227"/>
<polygon fill="midnightblue" stroke="midnightblue" points="374.593,-13.6323 364.124,-15.2618 373.324,-20.5164 374.593,-13.6323"/>
</g>
<!-- Node22&#45;&gt;Node14 -->
<g id="edge30" class="edge"><title>Node22&#45;&gt;Node14</title>
<path fill="none" stroke="midnightblue" d="M638.374,-75.5914C647.516,-93.5484 668.806,-135.37 680.999,-159.32"/>
<polygon fill="midnightblue" stroke="midnightblue" points="677.95,-161.045 685.606,-168.368 684.188,-157.869 677.95,-161.045"/>
</g>
<!-- Node22&#45;&gt;Node16 -->
<g id="edge25" class="edge"><title>Node22&#45;&gt;Node16</title>
<path fill="none" stroke="midnightblue" d="M618.737,-56.324C603.779,-47.8215 580.745,-34.7288 563.273,-24.7975"/>
<polygon fill="midnightblue" stroke="midnightblue" points="564.649,-21.5534 554.226,-19.6545 561.19,-27.639 564.649,-21.5534"/>
</g>
<!-- Node22&#45;&gt;Node17 -->
<g id="edge28" class="edge"><title>Node22&#45;&gt;Node17</title>
<path fill="none" stroke="midnightblue" d="M649.103,-56.324C663.903,-47.8215 686.694,-34.7288 703.982,-24.7975"/>
<polygon fill="midnightblue" stroke="midnightblue" points="706.007,-27.6707 712.935,-19.6545 702.52,-21.6009 706.007,-27.6707"/>
</g>
<!-- Node23 -->
<g id="node23" class="node"><title>Node23</title>
<polygon fill="white" stroke="#bfbfbf" points="579,-0.5 579,-19.5 623,-19.5 623,-0.5 579,-0.5"/>
<text text-anchor="middle" x="601" y="-7.5" font-family="Helvetica,sans-Serif" font-size="10.00">cmath</text>
</g>
<!-- Node22&#45;&gt;Node23 -->
<g id="edge24" class="edge"><title>Node22&#45;&gt;Node23</title>
<path fill="none" stroke="midnightblue" d="M628.551,-56.083C623.986,-48.6127 617.332,-37.7244 611.707,-28.5199"/>
<polygon fill="midnightblue" stroke="midnightblue" points="614.549,-26.4588 606.348,-19.7511 608.576,-30.109 614.549,-26.4588"/>
</g>
<!-- Node24 -->
<g id="node24" class="node"><title>Node24</title>
<polygon fill="white" stroke="#bfbfbf" points="641.5,-0.5 641.5,-19.5 686.5,-19.5 686.5,-0.5 641.5,-0.5"/>
<text text-anchor="middle" x="664" y="-7.5" font-family="Helvetica,sans-Serif" font-size="10.00">cstdlib</text>
</g>
<!-- Node22&#45;&gt;Node24 -->
<g id="edge26" class="edge"><title>Node22&#45;&gt;Node24</title>
<path fill="none" stroke="midnightblue" d="M638.954,-56.083C643.104,-48.6127 649.153,-37.7244 654.267,-28.5199"/>
<polygon fill="midnightblue" stroke="midnightblue" points="657.341,-30.1924 659.138,-19.7511 651.222,-26.7929 657.341,-30.1924"/>
</g>
<!-- Node22&#45;&gt;Node25 -->
<g id="edge29" class="edge"><title>Node22&#45;&gt;Node25</title>
<path fill="none" stroke="midnightblue" d="M669.652,-56.4435C708.656,-47.0826 771.266,-32.0561 813.717,-21.868"/>
<polygon fill="midnightblue" stroke="midnightblue" points="814.608,-25.2536 823.515,-19.5164 812.974,-18.4469 814.608,-25.2536"/>
</g>
<!-- Node26&#45;&gt;Node14 -->
<g id="edge36" class="edge"><title>Node26&#45;&gt;Node14</title>
<path fill="none" stroke="midnightblue" d="M772.255,-224.324C756.681,-215.743 732.623,-202.486 714.541,-192.522"/>
<polygon fill="midnightblue" stroke="midnightblue" points="716.154,-189.415 705.706,-187.655 712.776,-195.546 716.154,-189.415"/>
</g>
<!-- Node26&#45;&gt;Node21 -->
<g id="edge34" class="edge"><title>Node26&#45;&gt;Node21</title>
<path fill="none" stroke="midnightblue" d="M756.622,-224.435C726.28,-215.94 679.13,-202.173 639,-188 538.59,-152.537 422.404,-102.761 369.67,-79.6771"/>
<polygon fill="midnightblue" stroke="midnightblue" points="370.85,-76.3725 360.286,-75.5575 368.036,-82.7821 370.85,-76.3725"/>
</g>
<!-- Node26&#45;&gt;Node25 -->
<g id="edge35" class="edge"><title>Node26&#45;&gt;Node25</title>
<path fill="none" stroke="midnightblue" d="M805.806,-224.454C820.128,-216.748 839.808,-204.154 852,-188 883.753,-145.929 882.21,-127.971 891,-76 892.482,-67.2356 893.704,-64.4677 891,-56 887.659,-45.538 880.9,-35.4277 874.451,-27.4496"/>
<polygon fill="midnightblue" stroke="midnightblue" points="876.944,-24.9815 867.751,-19.7136 871.652,-29.5641 876.944,-24.9815"/>
</g>
<!-- Node27 -->
<g id="node27" class="node"><title>Node27</title>
<polygon fill="white" stroke="#bfbfbf" points="788,-168.5 788,-187.5 844,-187.5 844,-168.5 788,-168.5"/>
<text text-anchor="middle" x="816" y="-175.5" font-family="Helvetica,sans-Serif" font-size="10.00">algorithm</text>
</g>
<!-- Node26&#45;&gt;Node27 -->
<g id="edge33" class="edge"><title>Node26&#45;&gt;Node27</title>
<path fill="none" stroke="midnightblue" d="M792.624,-224.083C796.456,-216.691 802.024,-205.953 806.765,-196.811"/>
<polygon fill="midnightblue" stroke="midnightblue" points="809.966,-198.24 811.462,-187.751 803.752,-195.018 809.966,-198.24"/>
</g>
<!-- Node28 -->
<g id="node28" class="node"><title>Node28</title>
<g id="a_node28"><a xlink:href="_i_plug_midi_8h_source.html" target="_top" xlink:title="IPlugMidi.h">
<polygon fill="white" stroke="black" points="727.5,-112.5 727.5,-131.5 792.5,-131.5 792.5,-112.5 727.5,-112.5"/>
<text text-anchor="middle" x="760" y="-119.5" font-family="Helvetica,sans-Serif" font-size="10.00">IPlugMidi.h</text>
</a>
</g>
</g>
<!-- Node26&#45;&gt;Node28 -->
<g id="edge37" class="edge"><title>Node26&#45;&gt;Node28</title>
<path fill="none" stroke="midnightblue" d="M785.803,-224.368C781.284,-206.617 770.861,-165.666 764.734,-141.597"/>
<polygon fill="midnightblue" stroke="midnightblue" points="768.046,-140.419 762.187,-131.591 761.262,-142.146 768.046,-140.419"/>
</g>
<!-- Node28&#45;&gt;Node11 -->
<g id="edge39" class="edge"><title>Node28&#45;&gt;Node11</title>
<path fill="none" stroke="midnightblue" d="M775.906,-112.324C791.638,-103.743 815.942,-90.486 834.209,-80.5224"/>
<polygon fill="midnightblue" stroke="midnightblue" points="836.03,-83.5157 843.133,-75.6545 832.678,-77.3704 836.03,-83.5157"/>
</g>
<!-- Node28&#45;&gt;Node20 -->
<g id="edge38" class="edge"><title>Node28&#45;&gt;Node20</title>
<path fill="none" stroke="midnightblue" d="M759.174,-112.083C758.519,-105.006 757.58,-94.8611 756.758,-85.9865"/>
<polygon fill="midnightblue" stroke="midnightblue" points="760.217,-85.3858 755.81,-75.7511 753.247,-86.0312 760.217,-85.3858"/>
</g>
<!-- Node28&#45;&gt;Node22 -->
<g id="edge41" class="edge"><title>Node28&#45;&gt;Node22</title>
<path fill="none" stroke="midnightblue" d="M740.035,-112.444C719.391,-103.596 686.937,-89.6875 663.368,-79.5865"/>
<polygon fill="midnightblue" stroke="midnightblue" points="664.442,-76.2387 653.872,-75.5164 661.684,-82.6727 664.442,-76.2387"/>
</g>
<!-- Node28&#45;&gt;Node25 -->
<g id="edge40" class="edge"><title>Node28&#45;&gt;Node25</title>
<path fill="none" stroke="midnightblue" d="M767.768,-112.368C784.323,-93.9744 823.296,-50.6712 844.553,-27.0519"/>
<polygon fill="midnightblue" stroke="midnightblue" points="847.18,-29.3658 851.268,-19.5914 841.977,-24.683 847.18,-29.3658"/>
</g>
<!-- Node29&#45;&gt;Node10 -->
<g id="edge44" class="edge"><title>Node29&#45;&gt;Node10</title>
<path fill="none" stroke="midnightblue" d="M337.367,-112.464C324.512,-104.841 307.661,-92.356 300,-76 291.627,-58.1227 306.629,-39.1972 320.782,-26.4071"/>
<polygon fill="midnightblue" stroke="midnightblue" points="323.431,-28.753 328.835,-19.6397 318.927,-23.3941 323.431,-28.753"/>
</g>
<!-- Node29&#45;&gt;Node21 -->
<g id="edge45" class="edge"><title>Node29&#45;&gt;Node21</title>
<path fill="none" stroke="midnightblue" d="M351.853,-112.083C350.131,-104.927 347.653,-94.6353 345.5,-85.6911"/>
<polygon fill="midnightblue" stroke="midnightblue" points="348.85,-84.6541 343.107,-75.7511 342.045,-86.2925 348.85,-84.6541"/>
</g>
<!-- Node29&#45;&gt;Node22 -->
<g id="edge46" class="edge"><title>Node29&#45;&gt;Node22</title>
<path fill="none" stroke="midnightblue" d="M398.367,-112.444C448.82,-102.713 531.016,-86.8612 583.781,-76.6851"/>
<polygon fill="midnightblue" stroke="midnightblue" points="584.767,-80.0595 593.924,-74.729 583.442,-73.1861 584.767,-80.0595"/>
</g>
</g>
</svg>
        <g id="navigator" transform="translate(0 0)" fill="#404254">
                <rect fill="#f2f5e9" fill-opacity="0.5" stroke="#606060" stroke-width=".5" x="0" y="0" width="60" height="60"/>
                <use id="zoomplus" xlink:href="#zoomPlus" x="17" y="9" onmousedown="handleZoom(evt,'in')"/>
                <use id="zoomminus" xlink:href="#zoomMin" x="42" y="9" onmousedown="handleZoom(evt,'out')"/>
                <use id="reset" xlink:href="#resetDef" x="30" y="36" onmousedown="handleReset()"/>
                <g id="arrowUp" xlink:href="#dirArrow" transform="translate(30 24)" onmousedown="handlePan(0,-1)">
                  <use xlink:href="#rim" fill="#404040">
                        <set attributeName="fill" to="#808080" begin="arrowUp.mouseover" end="arrowUp.mouseout"/>
                  </use>
                  <path fill="none" stroke="white" stroke-width="1.5" d="M0,-3.0v7 M-2.5,-0.5L0,-3.0L2.5,-0.5"/>
                </g>
                <g id="arrowRight" xlink:href="#dirArrow" transform="rotate(90) translate(36 -43)" onmousedown="handlePan(1,0)">
                  <use xlink:href="#rim" fill="#404040">
                        <set attributeName="fill" to="#808080" begin="arrowRight.mouseover" end="arrowRight.mouseout"/>
                  </use>
                  <path fill="none" stroke="white" stroke-width="1.5" d="M0,-3.0v7 M-2.5,-0.5L0,-3.0L2.5,-0.5"/>
                </g>
                <g id="arrowDown" xlink:href="#dirArrow" transform="rotate(180) translate(-30 -48)" onmousedown="handlePan(0,1)">
                  <use xlink:href="#rim" fill="#404040">
                        <set attributeName="fill" to="#808080" begin="arrowDown.mouseover" end="arrowDown.mouseout"/>
                  </use>
                  <path fill="none" stroke="white" stroke-width="1.5" d="M0,-3.0v7 M-2.5,-0.5L0,-3.0L2.5,-0.5"/>
                </g>
                <g id="arrowLeft" xlink:href="#dirArrow" transform="rotate(270) translate(-36 17)" onmousedown="handlePan(-1,0)">
                  <use xlink:href="#rim" fill="#404040">
                        <set attributeName="fill" to="#808080" begin="arrowLeft.mouseover" end="arrowLeft.mouseout"/>
                  </use>
                  <path fill="none" stroke="white" stroke-width="1.5" d="M0,-3.0v7 M-2.5,-0.5L0,-3.0L2.5,-0.5"/>
                </g>
        </g>
        <svg viewBox="0 0 15 15" width="100%" height="30px" preserveAspectRatio="xMaxYMin meet">
         <g id="arrow_out" transform="scale(0.3 0.3)">
          <a xlink:href="_i_plug_a_u_8h__incl_org.svg" target="_base">
           <rect id="button" ry="5" rx="5" y="6" x="6" height="38" width="38"
                fill="#f2f5e9" fill-opacity="0.5" stroke="#606060" stroke-width="1.0"/>
           <path id="arrow"
             d="M 11.500037,31.436501 C 11.940474,20.09759 22.043105,11.32322 32.158766,21.979434 L 37.068811,17.246167 C 37.068811,17.246167 37.088388,32 37.088388,32 L 22.160133,31.978069 C 22.160133,31.978069 26.997745,27.140456 26.997745,27.140456 C 18.528582,18.264221 13.291696,25.230495 11.500037,31.436501 z"
             style="fill:#404040;"/>
          </a>
         </g>
        </svg>
</svg>
