<?xml version="1.0" encoding="UTF-8" standalone="no"?>
<!DOCTYPE svg PUBLIC "-//W3C//DTD SVG 1.1//EN"
 "http://www.w3.org/Graphics/SVG/1.1/DTD/svg11.dtd">
<!-- Generated by graphviz version 2.36.0 (20140111.2315)
 -->
<!-- Title: IPlugAPP.h Pages: 1 -->
<svg width="715pt" height="476pt"
 viewBox="0.00 0.00 715.00 476.00" xmlns="http://www.w3.org/2000/svg" xmlns:xlink="http://www.w3.org/1999/xlink">
<g id="graph0" class="graph" transform="scale(1 1) rotate(0) translate(4 472)">
<title>IPlugAPP.h</title>
<polygon fill="white" stroke="none" points="-4,4 -4,-472 711,-472 711,4 -4,4"/>
<!-- Node1 -->
<g id="node1" class="node"><title>Node1</title>
<polygon fill="#bfbfbf" stroke="black" points="166,-448.5 166,-467.5 234,-467.5 234,-448.5 166,-448.5"/>
<text text-anchor="middle" x="200" y="-455.5" font-family="Helvetica,sans-Serif" font-size="10.00">IPlugAPP.h</text>
</g>
<!-- Node2 -->
<g id="node2" class="node"><title>Node2</title>
<g id="a_node2"><a xlink:href="_i_plug_platform_8h.html" target="_top" xlink:title="Include to get consistently named preprocessor macros for different platforms and logging functionali...">
<polygon fill="white" stroke="black" points="133,-168.5 133,-187.5 217,-187.5 217,-168.5 133,-168.5"/>
<text text-anchor="middle" x="175" y="-175.5" font-family="Helvetica,sans-Serif" font-size="10.00">IPlugPlatform.h</text>
</a>
</g>
</g>
<!-- Node1&#45;&gt;Node2 -->
<g id="edge1" class="edge"><title>Node1&#45;&gt;Node2</title>
<path fill="none" stroke="midnightblue" d="M170.651,-448.499C129.599,-434.594 60,-402.794 60,-347 60,-347 60,-347 60,-289 60,-241.902 110.995,-208.752 145.069,-191.859"/>
<polygon fill="midnightblue" stroke="midnightblue" points="146.648,-194.984 154.174,-187.527 143.641,-188.662 146.648,-194.984"/>
</g>
<!-- Node16 -->
<g id="node16" class="node"><title>Node16</title>
<g id="a_node16"><a xlink:href="_i_plug_base__select_8h_source.html" target="_top" xlink:title="IPlugBase_select.h">
<polygon fill="white" stroke="black" points="149.5,-392.5 149.5,-411.5 250.5,-411.5 250.5,-392.5 149.5,-392.5"/>
<text text-anchor="middle" x="200" y="-399.5" font-family="Helvetica,sans-Serif" font-size="10.00">IPlugBase_select.h</text>
</a>
</g>
</g>
<!-- Node1&#45;&gt;Node16 -->
<g id="edge19" class="edge"><title>Node1&#45;&gt;Node16</title>
<path fill="none" stroke="midnightblue" d="M200,-448.083C200,-441.006 200,-430.861 200,-421.986"/>
<polygon fill="midnightblue" stroke="midnightblue" points="203.5,-421.751 200,-411.751 196.5,-421.751 203.5,-421.751"/>
</g>
<!-- Node26 -->
<g id="node26" class="node"><title>Node26</title>
<g id="a_node26"><a xlink:href="_rt_midi_8h.html" target="_top" xlink:title="RtMidi.h">
<polygon fill="white" stroke="black" points="350.5,-392.5 350.5,-411.5 403.5,-411.5 403.5,-392.5 350.5,-392.5"/>
<text text-anchor="middle" x="377" y="-399.5" font-family="Helvetica,sans-Serif" font-size="10.00">RtMidi.h</text>
</a>
</g>
</g>
<!-- Node1&#45;&gt;Node26 -->
<g id="edge44" class="edge"><title>Node1&#45;&gt;Node26</title>
<path fill="none" stroke="midnightblue" d="M228.046,-448.444C258.435,-439.172 307.041,-424.343 340.413,-414.162"/>
<polygon fill="midnightblue" stroke="midnightblue" points="341.7,-417.429 350.244,-411.163 339.658,-410.733 341.7,-417.429"/>
</g>
<!-- Node3 -->
<g id="node3" class="node"><title>Node3</title>
<g id="a_node3"><a xlink:href="_i_plug_logger_8h_source.html" target="_top" xlink:title="IPlugLogger.h">
<polygon fill="white" stroke="black" points="273.5,-112.5 273.5,-131.5 350.5,-131.5 350.5,-112.5 273.5,-112.5"/>
<text text-anchor="middle" x="312" y="-119.5" font-family="Helvetica,sans-Serif" font-size="10.00">IPlugLogger.h</text>
</a>
</g>
</g>
<!-- Node2&#45;&gt;Node3 -->
<g id="edge2" class="edge"><title>Node2&#45;&gt;Node3</title>
<path fill="none" stroke="midnightblue" d="M196.708,-168.444C219.355,-159.517 255.072,-145.439 280.752,-135.317"/>
<polygon fill="midnightblue" stroke="midnightblue" points="282.374,-138.44 290.394,-131.516 279.807,-131.927 282.374,-138.44"/>
</g>
<!-- Node4 -->
<g id="node4" class="node"><title>Node4</title>
<polygon fill="white" stroke="#bfbfbf" points="210.5,-0.5 210.5,-19.5 253.5,-19.5 253.5,-0.5 210.5,-0.5"/>
<text text-anchor="middle" x="232" y="-7.5" font-family="Helvetica,sans-Serif" font-size="10.00">cstdio</text>
</g>
<!-- Node3&#45;&gt;Node4 -->
<g id="edge3" class="edge"><title>Node3&#45;&gt;Node4</title>
<path fill="none" stroke="midnightblue" d="M273.09,-113.521C252.037,-107.278 227.787,-96.0283 215,-76 205.718,-61.4618 212.832,-42.031 220.496,-28.2108"/>
<polygon fill="midnightblue" stroke="midnightblue" points="223.486,-30.0302 225.696,-19.6684 217.507,-26.3906 223.486,-30.0302"/>
</g>
<!-- Node5 -->
<g id="node5" class="node"><title>Node5</title>
<polygon fill="white" stroke="#bfbfbf" points="339,-0.5 339,-19.5 385,-19.5 385,-0.5 339,-0.5"/>
<text text-anchor="middle" x="362" y="-7.5" font-family="Helvetica,sans-Serif" font-size="10.00">cctype</text>
</g>
<!-- Node3&#45;&gt;Node5 -->
<g id="edge4" class="edge"><title>Node3&#45;&gt;Node5</title>
<path fill="none" stroke="midnightblue" d="M318.49,-112.431C324.896,-103.657 334.633,-89.4387 341,-76 348.141,-60.9293 353.773,-42.8021 357.4,-29.5239"/>
<polygon fill="midnightblue" stroke="midnightblue" points="360.829,-30.2437 359.963,-19.6843 354.055,-28.4789 360.829,-30.2437"/>
</g>
<!-- Node6 -->
<g id="node6" class="node"><title>Node6</title>
<polygon fill="white" stroke="#bfbfbf" points="224.5,-56.5 224.5,-75.5 273.5,-75.5 273.5,-56.5 224.5,-56.5"/>
<text text-anchor="middle" x="249" y="-63.5" font-family="Helvetica,sans-Serif" font-size="10.00">cstdarg</text>
</g>
<!-- Node3&#45;&gt;Node6 -->
<g id="edge5" class="edge"><title>Node3&#45;&gt;Node6</title>
<path fill="none" stroke="midnightblue" d="M301.878,-112.324C292.474,-104.263 278.256,-92.0765 266.931,-82.3695"/>
<polygon fill="midnightblue" stroke="midnightblue" points="269.177,-79.6844 259.306,-75.8339 264.621,-84.9993 269.177,-79.6844"/>
</g>
<!-- Node7 -->
<g id="node7" class="node"><title>Node7</title>
<polygon fill="white" stroke="#bfbfbf" points="555,-56.5 555,-75.5 601,-75.5 601,-56.5 555,-56.5"/>
<text text-anchor="middle" x="578" y="-63.5" font-family="Helvetica,sans-Serif" font-size="10.00">cstdint</text>
</g>
<!-- Node3&#45;&gt;Node7 -->
<g id="edge6" class="edge"><title>Node3&#45;&gt;Node7</title>
<path fill="none" stroke="midnightblue" d="M350.532,-114.477C396.891,-106.418 476.983,-91.8194 545,-76 545.101,-75.9765 545.203,-75.9528 545.304,-75.9291"/>
<polygon fill="midnightblue" stroke="midnightblue" points="546.121,-79.3326 554.977,-73.517 544.428,-72.5405 546.121,-79.3326"/>
</g>
<!-- Node8 -->
<g id="node8" class="node"><title>Node8</title>
<polygon fill="white" stroke="#bfbfbf" points="99,-0.5 99,-19.5 145,-19.5 145,-0.5 99,-0.5"/>
<text text-anchor="middle" x="122" y="-7.5" font-family="Helvetica,sans-Serif" font-size="10.00">cstring</text>
</g>
<!-- Node3&#45;&gt;Node8 -->
<g id="edge7" class="edge"><title>Node3&#45;&gt;Node8</title>
<path fill="none" stroke="midnightblue" d="M287.408,-112.443C265.587,-104.394 233.198,-91.3103 207,-76 182.005,-61.3931 155.943,-40.4834 139.376,-26.3571"/>
<polygon fill="midnightblue" stroke="midnightblue" points="141.485,-23.5542 131.633,-19.6575 136.905,-28.8477 141.485,-23.5542"/>
</g>
<!-- Node9 -->
<g id="node9" class="node"><title>Node9</title>
<polygon fill="white" stroke="#bfbfbf" points="291.5,-56.5 291.5,-75.5 332.5,-75.5 332.5,-56.5 291.5,-56.5"/>
<text text-anchor="middle" x="312" y="-63.5" font-family="Helvetica,sans-Serif" font-size="10.00">ctime</text>
</g>
<!-- Node3&#45;&gt;Node9 -->
<g id="edge8" class="edge"><title>Node3&#45;&gt;Node9</title>
<path fill="none" stroke="midnightblue" d="M312,-112.083C312,-105.006 312,-94.8611 312,-85.9865"/>
<polygon fill="midnightblue" stroke="midnightblue" points="315.5,-85.751 312,-75.7511 308.5,-85.7511 315.5,-85.751"/>
</g>
<!-- Node10 -->
<g id="node10" class="node"><title>Node10</title>
<polygon fill="white" stroke="#bfbfbf" points="487.5,-56.5 487.5,-75.5 536.5,-75.5 536.5,-56.5 487.5,-56.5"/>
<text text-anchor="middle" x="512" y="-63.5" font-family="Helvetica,sans-Serif" font-size="10.00">cassert</text>
</g>
<!-- Node3&#45;&gt;Node10 -->
<g id="edge9" class="edge"><title>Node3&#45;&gt;Node10</title>
<path fill="none" stroke="midnightblue" d="M343.691,-112.444C380.137,-102.603 439.772,-86.5016 477.401,-76.3418"/>
<polygon fill="midnightblue" stroke="midnightblue" points="478.651,-79.6296 487.393,-73.6439 476.826,-72.8716 478.651,-79.6296"/>
</g>
<!-- Node11 -->
<g id="node11" class="node"><title>Node11</title>
<polygon fill="white" stroke="#bfbfbf" points="66,-56.5 66,-75.5 130,-75.5 130,-56.5 66,-56.5"/>
<text text-anchor="middle" x="98" y="-63.5" font-family="Helvetica,sans-Serif" font-size="10.00">wdlstring.h</text>
</g>
<!-- Node3&#45;&gt;Node11 -->
<g id="edge10" class="edge"><title>Node3&#45;&gt;Node11</title>
<path fill="none" stroke="midnightblue" d="M278.091,-112.444C240.607,-102.985 180.2,-87.7421 139.813,-77.551"/>
<polygon fill="midnightblue" stroke="midnightblue" points="140.555,-74.1286 130.003,-75.0755 138.842,-80.9158 140.555,-74.1286"/>
</g>
<!-- Node12 -->
<g id="node12" class="node"><title>Node12</title>
<g id="a_node12"><a xlink:href="_i_plug_utilities_8h.html" target="_top" xlink:title="Utility functions and macros. ">
<polygon fill="white" stroke="black" points="389,-56.5 389,-75.5 469,-75.5 469,-56.5 389,-56.5"/>
<text text-anchor="middle" x="429" y="-63.5" font-family="Helvetica,sans-Serif" font-size="10.00">IPlugUtilities.h</text>
</a>
</g>
</g>
<!-- Node3&#45;&gt;Node12 -->
<g id="edge11" class="edge"><title>Node3&#45;&gt;Node12</title>
<path fill="none" stroke="midnightblue" d="M330.539,-112.444C349.623,-103.636 379.575,-89.8116 401.436,-79.722"/>
<polygon fill="midnightblue" stroke="midnightblue" points="402.935,-82.8849 410.548,-75.5164 400.001,-76.5292 402.935,-82.8849"/>
</g>
<!-- Node12&#45;&gt;Node2 -->
<g id="edge18" class="edge"><title>Node12&#45;&gt;Node2</title>
<path fill="none" stroke="midnightblue" d="M422.252,-75.6406C410.804,-89.6866 386.157,-117.371 359,-132 317.805,-154.191 265.562,-165.616 227.278,-171.387"/>
<polygon fill="midnightblue" stroke="midnightblue" points="226.772,-167.923 217.367,-172.802 227.761,-174.853 226.772,-167.923"/>
</g>
<!-- Node12&#45;&gt;Node4 -->
<g id="edge13" class="edge"><title>Node12&#45;&gt;Node4</title>
<path fill="none" stroke="midnightblue" d="M397.785,-56.4435C360.993,-46.3584 300.21,-29.6971 263.357,-19.5952"/>
<polygon fill="midnightblue" stroke="midnightblue" points="264.206,-16.199 253.636,-16.9308 262.355,-22.9499 264.206,-16.199"/>
</g>
<!-- Node12&#45;&gt;Node5 -->
<g id="edge16" class="edge"><title>Node12&#45;&gt;Node5</title>
<path fill="none" stroke="midnightblue" d="M418.235,-56.324C408.234,-48.2631 393.113,-36.0765 381.07,-26.3695"/>
<polygon fill="midnightblue" stroke="midnightblue" points="382.943,-23.3841 372.961,-19.8339 378.55,-28.8343 382.943,-23.3841"/>
</g>
<!-- Node12&#45;&gt;Node8 -->
<g id="edge15" class="edge"><title>Node12&#45;&gt;Node8</title>
<path fill="none" stroke="midnightblue" d="M388.865,-57.9404C327.509,-47.1482 211.554,-26.7522 154.869,-16.7814"/>
<polygon fill="midnightblue" stroke="midnightblue" points="155.455,-13.331 145,-15.0457 154.243,-20.2252 155.455,-13.331"/>
</g>
<!-- Node13 -->
<g id="node13" class="node"><title>Node13</title>
<polygon fill="white" stroke="#bfbfbf" points="468,-0.5 468,-19.5 512,-19.5 512,-0.5 468,-0.5"/>
<text text-anchor="middle" x="490" y="-7.5" font-family="Helvetica,sans-Serif" font-size="10.00">cmath</text>
</g>
<!-- Node12&#45;&gt;Node13 -->
<g id="edge12" class="edge"><title>Node12&#45;&gt;Node13</title>
<path fill="none" stroke="midnightblue" d="M438.801,-56.324C447.818,-48.3414 461.406,-36.3128 472.318,-26.6529"/>
<polygon fill="midnightblue" stroke="midnightblue" points="474.853,-29.083 480.021,-19.8339 470.213,-23.8416 474.853,-29.083"/>
</g>
<!-- Node14 -->
<g id="node14" class="node"><title>Node14</title>
<polygon fill="white" stroke="#bfbfbf" points="404.5,-0.5 404.5,-19.5 449.5,-19.5 449.5,-0.5 404.5,-0.5"/>
<text text-anchor="middle" x="427" y="-7.5" font-family="Helvetica,sans-Serif" font-size="10.00">cstdlib</text>
</g>
<!-- Node12&#45;&gt;Node14 -->
<g id="edge14" class="edge"><title>Node12&#45;&gt;Node14</title>
<path fill="none" stroke="midnightblue" d="M428.67,-56.083C428.408,-49.0059 428.032,-38.8611 427.703,-29.9865"/>
<polygon fill="midnightblue" stroke="midnightblue" points="431.192,-29.6147 427.324,-19.7511 424.197,-29.8738 431.192,-29.6147"/>
</g>
<!-- Node15 -->
<g id="node15" class="node"><title>Node15</title>
<g id="a_node15"><a xlink:href="_i_plug_constants_8h.html" target="_top" xlink:title="Constant definitions, magic numbers. ">
<polygon fill="white" stroke="black" points="602,-0.5 602,-19.5 694,-19.5 694,-0.5 602,-0.5"/>
<text text-anchor="middle" x="648" y="-7.5" font-family="Helvetica,sans-Serif" font-size="10.00">IPlugConstants.h</text>
</a>
</g>
</g>
<!-- Node12&#45;&gt;Node15 -->
<g id="edge17" class="edge"><title>Node12&#45;&gt;Node15</title>
<path fill="none" stroke="midnightblue" d="M463.701,-56.4435C501.585,-47.1024 562.349,-32.1194 603.662,-21.9326"/>
<polygon fill="midnightblue" stroke="midnightblue" points="604.59,-25.3088 613.461,-19.5164 602.914,-18.5123 604.59,-25.3088"/>
</g>
<!-- Node17 -->
<g id="node17" class="node"><title>Node17</title>
<g id="a_node17"><a xlink:href="_i_plug_base_graphics_8h.html" target="_top" xlink:title="An IPlugBase class for an IPlug plug&#45;in that uses IGraphics for it&#39;s UI. ">
<polygon fill="white" stroke="black" points="145.5,-336.5 145.5,-355.5 254.5,-355.5 254.5,-336.5 145.5,-336.5"/>
<text text-anchor="middle" x="200" y="-343.5" font-family="Helvetica,sans-Serif" font-size="10.00">IPlugBaseGraphics.h</text>
</a>
</g>
</g>
<!-- Node16&#45;&gt;Node17 -->
<g id="edge20" class="edge"><title>Node16&#45;&gt;Node17</title>
<path fill="none" stroke="midnightblue" d="M200,-392.083C200,-385.006 200,-374.861 200,-365.986"/>
<polygon fill="midnightblue" stroke="midnightblue" points="203.5,-365.751 200,-355.751 196.5,-365.751 203.5,-365.751"/>
</g>
<!-- Node18 -->
<g id="node18" class="node"><title>Node18</title>
<g id="a_node18"><a xlink:href="_i_plug_base_8h.html" target="_top" xlink:title="The lowest level base class of an IPlug plug&#45;in. ">
<polygon fill="white" stroke="black" points="223,-280.5 223,-299.5 293,-299.5 293,-280.5 223,-280.5"/>
<text text-anchor="middle" x="258" y="-287.5" font-family="Helvetica,sans-Serif" font-size="10.00">IPlugBase.h</text>
</a>
</g>
</g>
<!-- Node17&#45;&gt;Node18 -->
<g id="edge21" class="edge"><title>Node17&#45;&gt;Node18</title>
<path fill="none" stroke="midnightblue" d="M209.319,-336.324C217.893,-328.341 230.812,-316.313 241.188,-306.653"/>
<polygon fill="midnightblue" stroke="midnightblue" points="243.578,-309.21 248.512,-299.834 238.808,-304.086 243.578,-309.21"/>
</g>
<!-- Node18&#45;&gt;Node2 -->
<g id="edge26" class="edge"><title>Node18&#45;&gt;Node2</title>
<path fill="none" stroke="midnightblue" d="M222.935,-283.736C199.361,-278.175 169.959,-266.86 155,-244 145.44,-229.391 153.598,-209.971 162.194,-196.173"/>
<polygon fill="midnightblue" stroke="midnightblue" points="165.265,-197.881 168.003,-187.646 159.48,-193.94 165.265,-197.881"/>
</g>
<!-- Node18&#45;&gt;Node7 -->
<g id="edge23" class="edge"><title>Node18&#45;&gt;Node7</title>
<path fill="none" stroke="midnightblue" d="M293.212,-289.641C344.027,-289.091 439.443,-282.429 509,-244 567.931,-211.442 586.694,-194.787 611,-132 617.671,-114.767 605.997,-96.0462 594.734,-83.1412"/>
<polygon fill="midnightblue" stroke="midnightblue" points="596.999,-80.4425 587.589,-75.5748 591.91,-85.2485 596.999,-80.4425"/>
</g>
<!-- Node18&#45;&gt;Node8 -->
<g id="edge22" class="edge"><title>Node18&#45;&gt;Node8</title>
<path fill="none" stroke="midnightblue" d="M222.936,-289.446C152.394,-288.321 0,-274.803 0,-179 0,-179 0,-179 0,-121 0,-72.5682 53.6882,-39.986 89.8338,-23.5381"/>
<polygon fill="midnightblue" stroke="midnightblue" points="91.2871,-26.7227 99.0527,-19.5154 88.4875,-20.3069 91.2871,-26.7227"/>
</g>
<!-- Node18&#45;&gt;Node12 -->
<g id="edge38" class="edge"><title>Node18&#45;&gt;Node12</title>
<path fill="none" stroke="midnightblue" d="M293.067,-287.436C351.445,-284.015 464.576,-273.64 489,-244 529.516,-194.83 472.578,-116.955 443.849,-83.3379"/>
<polygon fill="midnightblue" stroke="midnightblue" points="446.454,-81.0002 437.23,-75.7893 441.191,-85.6155 446.454,-81.0002"/>
</g>
<!-- Node18&#45;&gt;Node15 -->
<g id="edge27" class="edge"><title>Node18&#45;&gt;Node15</title>
<path fill="none" stroke="midnightblue" d="M293.232,-287.908C399.08,-283.681 707,-264.072 707,-179 707,-179 707,-179 707,-121 707,-84.0242 680.791,-47.4724 663.309,-27.2051"/>
<polygon fill="midnightblue" stroke="midnightblue" points="665.736,-24.6691 656.453,-19.5623 660.525,-29.3434 665.736,-24.6691"/>
</g>
<!-- Node19 -->
<g id="node19" class="node"><title>Node19</title>
<polygon fill="white" stroke="#bfbfbf" points="164.5,-224.5 164.5,-243.5 213.5,-243.5 213.5,-224.5 164.5,-224.5"/>
<text text-anchor="middle" x="189" y="-231.5" font-family="Helvetica,sans-Serif" font-size="10.00">ptrlist.h</text>
</g>
<!-- Node18&#45;&gt;Node19 -->
<g id="edge24" class="edge"><title>Node18&#45;&gt;Node19</title>
<path fill="none" stroke="midnightblue" d="M246.914,-280.324C236.514,-272.185 220.739,-259.839 208.278,-250.087"/>
<polygon fill="midnightblue" stroke="midnightblue" points="210.32,-247.241 200.288,-243.834 206.006,-252.753 210.32,-247.241"/>
</g>
<!-- Node20 -->
<g id="node20" class="node"><title>Node20</title>
<polygon fill="white" stroke="#bfbfbf" points="232,-224.5 232,-243.5 284,-243.5 284,-224.5 232,-224.5"/>
<text text-anchor="middle" x="258" y="-231.5" font-family="Helvetica,sans-Serif" font-size="10.00">mutex.h</text>
</g>
<!-- Node18&#45;&gt;Node20 -->
<g id="edge25" class="edge"><title>Node18&#45;&gt;Node20</title>
<path fill="none" stroke="midnightblue" d="M258,-280.083C258,-273.006 258,-262.861 258,-253.986"/>
<polygon fill="midnightblue" stroke="midnightblue" points="261.5,-253.751 258,-243.751 254.5,-253.751 261.5,-253.751"/>
</g>
<!-- Node21 -->
<g id="node21" class="node"><title>Node21</title>
<g id="a_node21"><a xlink:href="_i_plug_structs_8h_source.html" target="_top" xlink:title="IPlugStructs.h">
<polygon fill="white" stroke="black" points="401.5,-224.5 401.5,-243.5 480.5,-243.5 480.5,-224.5 401.5,-224.5"/>
<text text-anchor="middle" x="441" y="-231.5" font-family="Helvetica,sans-Serif" font-size="10.00">IPlugStructs.h</text>
</a>
</g>
</g>
<!-- Node18&#45;&gt;Node21 -->
<g id="edge28" class="edge"><title>Node18&#45;&gt;Node21</title>
<path fill="none" stroke="midnightblue" d="M286.997,-280.444C318.185,-271.241 367.93,-256.562 402.408,-246.388"/>
<polygon fill="midnightblue" stroke="midnightblue" points="403.538,-249.704 412.139,-243.516 401.557,-242.99 403.538,-249.704"/>
</g>
<!-- Node24 -->
<g id="node24" class="node"><title>Node24</title>
<g id="a_node24"><a xlink:href="_i_plug_parameter_8h_source.html" target="_top" xlink:title="IPlugParameter.h">
<polygon fill="white" stroke="black" points="52,-112.5 52,-131.5 144,-131.5 144,-112.5 52,-112.5"/>
<text text-anchor="middle" x="98" y="-119.5" font-family="Helvetica,sans-Serif" font-size="10.00">IPlugParameter.h</text>
</a>
</g>
</g>
<!-- Node18&#45;&gt;Node24 -->
<g id="edge39" class="edge"><title>Node18&#45;&gt;Node24</title>
<path fill="none" stroke="midnightblue" d="M222.99,-282.306C198.895,-276.071 167.632,-264.538 147,-244 118.317,-215.447 105.807,-167.852 100.864,-141.674"/>
<polygon fill="midnightblue" stroke="midnightblue" points="104.275,-140.857 99.1388,-131.591 97.3755,-142.038 104.275,-140.857"/>
</g>
<!-- Node25 -->
<g id="node25" class="node"><title>Node25</title>
<g id="a_node25"><a xlink:href="_n_chan_delay_8h_source.html" target="_top" xlink:title="NChanDelay.h">
<polygon fill="white" stroke="black" points="302.5,-224.5 302.5,-243.5 383.5,-243.5 383.5,-224.5 302.5,-224.5"/>
<text text-anchor="middle" x="343" y="-231.5" font-family="Helvetica,sans-Serif" font-size="10.00">NChanDelay.h</text>
</a>
</g>
</g>
<!-- Node18&#45;&gt;Node25 -->
<g id="edge43" class="edge"><title>Node18&#45;&gt;Node25</title>
<path fill="none" stroke="midnightblue" d="M271.657,-280.324C284.916,-271.9 305.268,-258.971 320.846,-249.074"/>
<polygon fill="midnightblue" stroke="midnightblue" points="322.813,-251.971 329.377,-243.655 319.06,-246.063 322.813,-251.971"/>
</g>
<!-- Node21&#45;&gt;Node2 -->
<g id="edge32" class="edge"><title>Node21&#45;&gt;Node2</title>
<path fill="none" stroke="midnightblue" d="M401.464,-224.974C355.062,-215.554 277.967,-199.903 226.817,-189.519"/>
<polygon fill="midnightblue" stroke="midnightblue" points="227.447,-186.076 216.95,-187.516 226.054,-192.936 227.447,-186.076"/>
</g>
<!-- Node21&#45;&gt;Node11 -->
<g id="edge30" class="edge"><title>Node21&#45;&gt;Node11</title>
<path fill="none" stroke="midnightblue" d="M423.042,-224.309C366.548,-196.968 192.224,-112.601 124.909,-80.023"/>
<polygon fill="midnightblue" stroke="midnightblue" points="126.306,-76.811 115.78,-75.6051 123.257,-83.1119 126.306,-76.811"/>
</g>
<!-- Node21&#45;&gt;Node15 -->
<g id="edge31" class="edge"><title>Node21&#45;&gt;Node15</title>
<path fill="none" stroke="midnightblue" d="M466.457,-224.389C503.474,-210.606 571.985,-180.14 611,-132 635.468,-101.809 643.788,-55.5625 646.594,-29.8678"/>
<polygon fill="midnightblue" stroke="midnightblue" points="650.104,-29.9179 647.533,-19.6398 643.133,-29.2778 650.104,-29.9179"/>
</g>
<!-- Node22 -->
<g id="node22" class="node"><title>Node22</title>
<polygon fill="white" stroke="#bfbfbf" points="387,-168.5 387,-187.5 443,-187.5 443,-168.5 387,-168.5"/>
<text text-anchor="middle" x="415" y="-175.5" font-family="Helvetica,sans-Serif" font-size="10.00">algorithm</text>
</g>
<!-- Node21&#45;&gt;Node22 -->
<g id="edge29" class="edge"><title>Node21&#45;&gt;Node22</title>
<path fill="none" stroke="midnightblue" d="M436.707,-224.083C433.148,-216.691 427.978,-205.953 423.576,-196.811"/>
<polygon fill="midnightblue" stroke="midnightblue" points="426.705,-195.243 419.213,-187.751 420.398,-198.279 426.705,-195.243"/>
</g>
<!-- Node23 -->
<g id="node23" class="node"><title>Node23</title>
<g id="a_node23"><a xlink:href="_i_plug_midi_8h_source.html" target="_top" xlink:title="IPlugMidi.h">
<polygon fill="white" stroke="black" points="537.5,-112.5 537.5,-131.5 602.5,-131.5 602.5,-112.5 537.5,-112.5"/>
<text text-anchor="middle" x="570" y="-119.5" font-family="Helvetica,sans-Serif" font-size="10.00">IPlugMidi.h</text>
</a>
</g>
</g>
<!-- Node21&#45;&gt;Node23 -->
<g id="edge33" class="edge"><title>Node21&#45;&gt;Node23</title>
<path fill="none" stroke="midnightblue" d="M451.122,-224.368C472.976,-205.733 524.812,-161.532 552.252,-138.134"/>
<polygon fill="midnightblue" stroke="midnightblue" points="554.586,-140.743 559.925,-131.591 550.044,-135.417 554.586,-140.743"/>
</g>
<!-- Node23&#45;&gt;Node7 -->
<g id="edge35" class="edge"><title>Node23&#45;&gt;Node7</title>
<path fill="none" stroke="midnightblue" d="M571.321,-112.083C572.381,-104.927 573.906,-94.6353 575.231,-85.6911"/>
<polygon fill="midnightblue" stroke="midnightblue" points="578.7,-86.1561 576.704,-75.7511 571.776,-85.1302 578.7,-86.1561"/>
</g>
<!-- Node23&#45;&gt;Node10 -->
<g id="edge34" class="edge"><title>Node23&#45;&gt;Node10</title>
<path fill="none" stroke="midnightblue" d="M560.681,-112.324C552.107,-104.341 539.188,-92.3128 528.812,-82.6529"/>
<polygon fill="midnightblue" stroke="midnightblue" points="531.192,-80.0865 521.488,-75.8339 526.422,-85.2098 531.192,-80.0865"/>
</g>
<!-- Node23&#45;&gt;Node12 -->
<g id="edge37" class="edge"><title>Node23&#45;&gt;Node12</title>
<path fill="none" stroke="midnightblue" d="M547.658,-112.444C524.247,-103.478 487.264,-89.314 460.81,-79.1827"/>
<polygon fill="midnightblue" stroke="midnightblue" points="461.828,-75.8245 451.237,-75.5164 459.324,-82.3615 461.828,-75.8245"/>
</g>
<!-- Node23&#45;&gt;Node15 -->
<g id="edge36" class="edge"><title>Node23&#45;&gt;Node15</title>
<path fill="none" stroke="midnightblue" d="M578.512,-112.472C587.007,-103.729 600.176,-89.5351 610,-76 621.013,-60.8259 631.615,-42.2499 638.808,-28.848"/>
<polygon fill="midnightblue" stroke="midnightblue" points="642.036,-30.2295 643.595,-19.75 635.842,-26.97 642.036,-30.2295"/>
</g>
<!-- Node24&#45;&gt;Node8 -->
<g id="edge40" class="edge"><title>Node24&#45;&gt;Node8</title>
<path fill="none" stroke="midnightblue" d="M85.8311,-112.433C70.1053,-100.244 45.978,-77.0363 57,-56 64.2787,-42.1082 78.0095,-31.6523 90.9825,-24.3328"/>
<polygon fill="midnightblue" stroke="midnightblue" points="92.9285,-27.2662 100.192,-19.553 89.7038,-21.0532 92.9285,-27.2662"/>
</g>
<!-- Node24&#45;&gt;Node11 -->
<g id="edge41" class="edge"><title>Node24&#45;&gt;Node11</title>
<path fill="none" stroke="midnightblue" d="M98,-112.083C98,-105.006 98,-94.8611 98,-85.9865"/>
<polygon fill="midnightblue" stroke="midnightblue" points="101.5,-85.751 98,-75.7511 94.5001,-85.7511 101.5,-85.751"/>
</g>
<!-- Node24&#45;&gt;Node12 -->
<g id="edge42" class="edge"><title>Node24&#45;&gt;Node12</title>
<path fill="none" stroke="midnightblue" d="M144.024,-113.492C205.695,-103.43 314.758,-85.6377 378.587,-75.2244"/>
<polygon fill="midnightblue" stroke="midnightblue" points="379.505,-78.6211 388.811,-73.5565 378.378,-71.7124 379.505,-78.6211"/>
</g>
<!-- Node27 -->
<g id="node27" class="node"><title>Node27</title>
<polygon fill="white" stroke="#bfbfbf" points="272.5,-336.5 272.5,-355.5 331.5,-355.5 331.5,-336.5 272.5,-336.5"/>
<text text-anchor="middle" x="302" y="-343.5" font-family="Helvetica,sans-Serif" font-size="10.00">exception</text>
</g>
<!-- Node26&#45;&gt;Node27 -->
<g id="edge45" class="edge"><title>Node26&#45;&gt;Node27</title>
<path fill="none" stroke="midnightblue" d="M364.95,-392.324C353.537,-384.107 336.169,-371.602 322.565,-361.807"/>
<polygon fill="midnightblue" stroke="midnightblue" points="324.43,-358.837 314.269,-355.834 320.34,-364.517 324.43,-358.837"/>
</g>
<!-- Node28 -->
<g id="node28" class="node"><title>Node28</title>
<polygon fill="white" stroke="#bfbfbf" points="350,-336.5 350,-355.5 404,-355.5 404,-336.5 350,-336.5"/>
<text text-anchor="middle" x="377" y="-343.5" font-family="Helvetica,sans-Serif" font-size="10.00">iostream</text>
</g>
<!-- Node26&#45;&gt;Node28 -->
<g id="edge46" class="edge"><title>Node26&#45;&gt;Node28</title>
<path fill="none" stroke="midnightblue" d="M377,-392.083C377,-385.006 377,-374.861 377,-365.986"/>
<polygon fill="midnightblue" stroke="midnightblue" points="380.5,-365.751 377,-355.751 373.5,-365.751 380.5,-365.751"/>
</g>
<!-- Node29 -->
<g id="node29" class="node"><title>Node29</title>
<polygon fill="white" stroke="#bfbfbf" points="422.5,-336.5 422.5,-355.5 463.5,-355.5 463.5,-336.5 422.5,-336.5"/>
<text text-anchor="middle" x="443" y="-343.5" font-family="Helvetica,sans-Serif" font-size="10.00">string</text>
</g>
<!-- Node26&#45;&gt;Node29 -->
<g id="edge47" class="edge"><title>Node26&#45;&gt;Node29</title>
<path fill="none" stroke="midnightblue" d="M387.604,-392.324C397.456,-384.263 412.351,-372.077 424.215,-362.369"/>
<polygon fill="midnightblue" stroke="midnightblue" points="426.68,-364.875 432.203,-355.834 422.247,-359.457 426.68,-364.875"/>
</g>
<!-- Node30 -->
<g id="node30" class="node"><title>Node30</title>
<polygon fill="white" stroke="#bfbfbf" points="482,-336.5 482,-355.5 526,-355.5 526,-336.5 482,-336.5"/>
<text text-anchor="middle" x="504" y="-343.5" font-family="Helvetica,sans-Serif" font-size="10.00">vector</text>
</g>
<!-- Node26&#45;&gt;Node30 -->
<g id="edge48" class="edge"><title>Node26&#45;&gt;Node30</title>
<path fill="none" stroke="midnightblue" d="M397.124,-392.444C418.024,-383.557 450.935,-369.563 474.716,-359.451"/>
<polygon fill="midnightblue" stroke="midnightblue" points="476.138,-362.65 483.971,-355.516 473.398,-356.208 476.138,-362.65"/>
</g>
</g>
</svg>
