<?xml version="1.0" encoding="UTF-8" standalone="no"?>
<!DOCTYPE svg PUBLIC "-//W3C//DTD SVG 1.1//EN"
 "http://www.w3.org/Graphics/SVG/1.1/DTD/svg11.dtd">
<!-- Generated by graphviz version 2.36.0 (20140111.2315)
 -->
<!-- Title: IPlugBase.h Pages: 1 -->
<svg width="960pt" height="308pt"
 viewBox="0.00 0.00 960.00 308.00" xmlns="http://www.w3.org/2000/svg" xmlns:xlink="http://www.w3.org/1999/xlink">
<g id="graph0" class="graph" transform="scale(1 1) rotate(0) translate(4 304)">
<title>IPlugBase.h</title>
<polygon fill="white" stroke="none" points="-4,4 -4,-304 956,-304 956,4 -4,4"/>
<!-- Node1 -->
<g id="node1" class="node"><title>Node1</title>
<polygon fill="#bfbfbf" stroke="black" points="571,-280.5 571,-299.5 641,-299.5 641,-280.5 571,-280.5"/>
<text text-anchor="middle" x="606" y="-287.5" font-family="Helvetica,sans-Serif" font-size="10.00">IPlugBase.h</text>
</g>
<!-- Node2 -->
<g id="node2" class="node"><title>Node2</title>
<polygon fill="white" stroke="#bfbfbf" points="75,-0.5 75,-19.5 121,-19.5 121,-0.5 75,-0.5"/>
<text text-anchor="middle" x="98" y="-7.5" font-family="Helvetica,sans-Serif" font-size="10.00">cstring</text>
</g>
<!-- Node1&#45;&gt;Node2 -->
<g id="edge1" class="edge"><title>Node1&#45;&gt;Node2</title>
<path fill="none" stroke="midnightblue" d="M570.8,-286.37C441.464,-276.246 0,-237.409 0,-179 0,-179 0,-179 0,-121 0,-77.3804 43.4924,-43.0601 72.5294,-25.0074"/>
<polygon fill="midnightblue" stroke="midnightblue" points="74.5832,-27.8576 81.3756,-19.7265 70.9952,-21.8471 74.5832,-27.8576"/>
</g>
<!-- Node3 -->
<g id="node3" class="node"><title>Node3</title>
<polygon fill="white" stroke="#bfbfbf" points="593,-56.5 593,-75.5 639,-75.5 639,-56.5 593,-56.5"/>
<text text-anchor="middle" x="616" y="-63.5" font-family="Helvetica,sans-Serif" font-size="10.00">cstdint</text>
</g>
<!-- Node1&#45;&gt;Node3 -->
<g id="edge2" class="edge"><title>Node1&#45;&gt;Node3</title>
<path fill="none" stroke="midnightblue" d="M606.392,-280.297C607.863,-247.633 613.078,-131.866 615.146,-85.9573"/>
<polygon fill="midnightblue" stroke="midnightblue" points="618.646,-86.0311 615.6,-75.8837 611.653,-85.7161 618.646,-86.0311"/>
</g>
<!-- Node4 -->
<g id="node4" class="node"><title>Node4</title>
<polygon fill="white" stroke="#bfbfbf" points="733.5,-224.5 733.5,-243.5 782.5,-243.5 782.5,-224.5 733.5,-224.5"/>
<text text-anchor="middle" x="758" y="-231.5" font-family="Helvetica,sans-Serif" font-size="10.00">ptrlist.h</text>
</g>
<!-- Node1&#45;&gt;Node4 -->
<g id="edge3" class="edge"><title>Node1&#45;&gt;Node4</title>
<path fill="none" stroke="midnightblue" d="M630.085,-280.444C655.545,-271.399 695.894,-257.064 724.459,-246.916"/>
<polygon fill="midnightblue" stroke="midnightblue" points="725.777,-250.162 734.028,-243.516 723.433,-243.566 725.777,-250.162"/>
</g>
<!-- Node5 -->
<g id="node5" class="node"><title>Node5</title>
<polygon fill="white" stroke="#bfbfbf" points="801,-224.5 801,-243.5 853,-243.5 853,-224.5 801,-224.5"/>
<text text-anchor="middle" x="827" y="-231.5" font-family="Helvetica,sans-Serif" font-size="10.00">mutex.h</text>
</g>
<!-- Node1&#45;&gt;Node5 -->
<g id="edge4" class="edge"><title>Node1&#45;&gt;Node5</title>
<path fill="none" stroke="midnightblue" d="M641.138,-280.523C676.401,-272.001 732.534,-258.392 790.895,-244.014"/>
<polygon fill="midnightblue" stroke="midnightblue" points="791.788,-247.398 800.659,-241.606 790.112,-240.602 791.788,-247.398"/>
</g>
<!-- Node6 -->
<g id="node6" class="node"><title>Node6</title>
<g id="a_node6"><a xlink:href="_i_plug_platform_8h.html" target="_top" xlink:title="Include to get consistently named preprocessor macros for different platforms and logging functionali...">
<polygon fill="white" stroke="black" points="405,-168.5 405,-187.5 489,-187.5 489,-168.5 405,-168.5"/>
<text text-anchor="middle" x="447" y="-175.5" font-family="Helvetica,sans-Serif" font-size="10.00">IPlugPlatform.h</text>
</a>
</g>
</g>
<!-- Node1&#45;&gt;Node6 -->
<g id="edge5" class="edge"><title>Node1&#45;&gt;Node6</title>
<path fill="none" stroke="midnightblue" d="M572.308,-280.364C549.195,-273.269 518.717,-261.507 496,-244 479.265,-231.104 465.365,-211.102 456.696,-196.693"/>
<polygon fill="midnightblue" stroke="midnightblue" points="459.581,-194.688 451.56,-187.766 453.514,-198.179 459.581,-194.688"/>
</g>
<!-- Node14 -->
<g id="node14" class="node"><title>Node14</title>
<g id="a_node14"><a xlink:href="_i_plug_utilities_8h.html" target="_top" xlink:title="Utility functions and macros. ">
<polygon fill="white" stroke="black" points="351,-56.5 351,-75.5 431,-75.5 431,-56.5 351,-56.5"/>
<text text-anchor="middle" x="391" y="-63.5" font-family="Helvetica,sans-Serif" font-size="10.00">IPlugUtilities.h</text>
</a>
</g>
</g>
<!-- Node1&#45;&gt;Node14 -->
<g id="edge34" class="edge"><title>Node1&#45;&gt;Node14</title>
<path fill="none" stroke="midnightblue" d="M570.972,-284.625C520.732,-276.181 430.473,-252.374 396,-188 378.527,-155.372 382.721,-110.401 387.045,-85.4905"/>
<polygon fill="midnightblue" stroke="midnightblue" points="390.5,-86.0561 388.963,-75.5734 383.628,-84.7265 390.5,-86.0561"/>
</g>
<!-- Node17 -->
<g id="node17" class="node"><title>Node17</title>
<g id="a_node17"><a xlink:href="_i_plug_constants_8h.html" target="_top" xlink:title="Constant definitions, magic numbers. ">
<polygon fill="white" stroke="black" points="570,-0.5 570,-19.5 662,-19.5 662,-0.5 570,-0.5"/>
<text text-anchor="middle" x="616" y="-7.5" font-family="Helvetica,sans-Serif" font-size="10.00">IPlugConstants.h</text>
</a>
</g>
</g>
<!-- Node1&#45;&gt;Node17 -->
<g id="edge23" class="edge"><title>Node1&#45;&gt;Node17</title>
<path fill="none" stroke="midnightblue" d="M622.794,-280.318C651.039,-264.374 705,-227.559 705,-179 705,-179 705,-179 705,-121 705,-78.8457 665.01,-43.7791 638.642,-25.2392"/>
<polygon fill="midnightblue" stroke="midnightblue" points="640.544,-22.3003 630.299,-19.5989 636.623,-28.0994 640.544,-22.3003"/>
</g>
<!-- Node18 -->
<g id="node18" class="node"><title>Node18</title>
<g id="a_node18"><a xlink:href="_i_plug_structs_8h_source.html" target="_top" xlink:title="IPlugStructs.h">
<polygon fill="white" stroke="black" points="505.5,-224.5 505.5,-243.5 584.5,-243.5 584.5,-224.5 505.5,-224.5"/>
<text text-anchor="middle" x="545" y="-231.5" font-family="Helvetica,sans-Serif" font-size="10.00">IPlugStructs.h</text>
</a>
</g>
</g>
<!-- Node1&#45;&gt;Node18 -->
<g id="edge24" class="edge"><title>Node1&#45;&gt;Node18</title>
<path fill="none" stroke="midnightblue" d="M596.199,-280.324C587.182,-272.341 573.594,-260.313 562.682,-250.653"/>
<polygon fill="midnightblue" stroke="midnightblue" points="564.787,-247.842 554.979,-243.834 560.147,-253.083 564.787,-247.842"/>
</g>
<!-- Node21 -->
<g id="node21" class="node"><title>Node21</title>
<g id="a_node21"><a xlink:href="_i_plug_parameter_8h_source.html" target="_top" xlink:title="IPlugParameter.h">
<polygon fill="white" stroke="black" points="65,-112.5 65,-131.5 157,-131.5 157,-112.5 65,-112.5"/>
<text text-anchor="middle" x="111" y="-119.5" font-family="Helvetica,sans-Serif" font-size="10.00">IPlugParameter.h</text>
</a>
</g>
</g>
<!-- Node1&#45;&gt;Node21 -->
<g id="edge35" class="edge"><title>Node1&#45;&gt;Node21</title>
<path fill="none" stroke="midnightblue" d="M570.672,-285.425C522.723,-279.908 434.788,-267.422 363,-244 274.667,-215.18 177.513,-161.792 134.136,-136.702"/>
<polygon fill="midnightblue" stroke="midnightblue" points="135.883,-133.669 125.481,-131.657 132.358,-139.716 135.883,-133.669"/>
</g>
<!-- Node22 -->
<g id="node22" class="node"><title>Node22</title>
<g id="a_node22"><a xlink:href="_n_chan_delay_8h_source.html" target="_top" xlink:title="NChanDelay.h">
<polygon fill="white" stroke="black" points="871.5,-224.5 871.5,-243.5 952.5,-243.5 952.5,-224.5 871.5,-224.5"/>
<text text-anchor="middle" x="912" y="-231.5" font-family="Helvetica,sans-Serif" font-size="10.00">NChanDelay.h</text>
</a>
</g>
</g>
<!-- Node1&#45;&gt;Node22 -->
<g id="edge39" class="edge"><title>Node1&#45;&gt;Node22</title>
<path fill="none" stroke="midnightblue" d="M641.206,-282.858C688.685,-274.565 776.151,-259.252 861.249,-244.128"/>
<polygon fill="midnightblue" stroke="midnightblue" points="862.111,-247.529 871.343,-242.333 860.885,-240.638 862.111,-247.529"/>
</g>
<!-- Node7 -->
<g id="node7" class="node"><title>Node7</title>
<g id="a_node7"><a xlink:href="_i_plug_logger_8h_source.html" target="_top" xlink:title="IPlugLogger.h">
<polygon fill="white" stroke="black" points="271.5,-112.5 271.5,-131.5 348.5,-131.5 348.5,-112.5 271.5,-112.5"/>
<text text-anchor="middle" x="310" y="-119.5" font-family="Helvetica,sans-Serif" font-size="10.00">IPlugLogger.h</text>
</a>
</g>
</g>
<!-- Node6&#45;&gt;Node7 -->
<g id="edge6" class="edge"><title>Node6&#45;&gt;Node7</title>
<path fill="none" stroke="midnightblue" d="M425.292,-168.444C402.645,-159.517 366.928,-145.439 341.248,-135.317"/>
<polygon fill="midnightblue" stroke="midnightblue" points="342.193,-131.927 331.606,-131.516 339.626,-138.44 342.193,-131.927"/>
</g>
<!-- Node7&#45;&gt;Node2 -->
<g id="edge11" class="edge"><title>Node7&#45;&gt;Node2</title>
<path fill="none" stroke="midnightblue" d="M273.521,-112.49C245.927,-105.162 207.68,-93.0551 177,-76 152.9,-62.6024 128.976,-41.5492 113.878,-27.0531"/>
<polygon fill="midnightblue" stroke="midnightblue" points="116.042,-24.2723 106.454,-19.7646 111.138,-29.2676 116.042,-24.2723"/>
</g>
<!-- Node7&#45;&gt;Node3 -->
<g id="edge10" class="edge"><title>Node7&#45;&gt;Node3</title>
<path fill="none" stroke="midnightblue" d="M348.755,-114.161C409.466,-103.447 525.933,-82.8942 582.933,-72.8354"/>
<polygon fill="midnightblue" stroke="midnightblue" points="583.618,-76.2687 592.857,-71.084 582.401,-69.3752 583.618,-76.2687"/>
</g>
<!-- Node8 -->
<g id="node8" class="node"><title>Node8</title>
<polygon fill="white" stroke="#bfbfbf" points="274.5,-0.5 274.5,-19.5 317.5,-19.5 317.5,-0.5 274.5,-0.5"/>
<text text-anchor="middle" x="296" y="-7.5" font-family="Helvetica,sans-Serif" font-size="10.00">cstdio</text>
</g>
<!-- Node7&#45;&gt;Node8 -->
<g id="edge7" class="edge"><title>Node7&#45;&gt;Node8</title>
<path fill="none" stroke="midnightblue" d="M309.18,-112.153C307.99,-99.6309 305.635,-76.0304 303,-56 301.851,-47.2694 300.377,-37.618 299.078,-29.4996"/>
<polygon fill="midnightblue" stroke="midnightblue" points="302.529,-28.9143 297.463,-19.6095 295.621,-30.043 302.529,-28.9143"/>
</g>
<!-- Node9 -->
<g id="node9" class="node"><title>Node9</title>
<polygon fill="white" stroke="#bfbfbf" points="462,-0.5 462,-19.5 508,-19.5 508,-0.5 462,-0.5"/>
<text text-anchor="middle" x="485" y="-7.5" font-family="Helvetica,sans-Serif" font-size="10.00">cctype</text>
</g>
<!-- Node7&#45;&gt;Node9 -->
<g id="edge8" class="edge"><title>Node7&#45;&gt;Node9</title>
<path fill="none" stroke="midnightblue" d="M348.6,-114.308C376.203,-108.025 413.081,-96.432 440,-76 456.344,-63.5944 468.946,-43.5107 476.602,-28.9475"/>
<polygon fill="midnightblue" stroke="midnightblue" points="479.777,-30.4217 481.097,-19.9094 473.51,-27.3042 479.777,-30.4217"/>
</g>
<!-- Node10 -->
<g id="node10" class="node"><title>Node10</title>
<polygon fill="white" stroke="#bfbfbf" points="186.5,-56.5 186.5,-75.5 235.5,-75.5 235.5,-56.5 186.5,-56.5"/>
<text text-anchor="middle" x="211" y="-63.5" font-family="Helvetica,sans-Serif" font-size="10.00">cstdarg</text>
</g>
<!-- Node7&#45;&gt;Node10 -->
<g id="edge9" class="edge"><title>Node7&#45;&gt;Node10</title>
<path fill="none" stroke="midnightblue" d="M294.094,-112.324C278.362,-103.743 254.058,-90.486 235.791,-80.5224"/>
<polygon fill="midnightblue" stroke="midnightblue" points="237.322,-77.3704 226.867,-75.6545 233.97,-83.5157 237.322,-77.3704"/>
</g>
<!-- Node11 -->
<g id="node11" class="node"><title>Node11</title>
<polygon fill="white" stroke="#bfbfbf" points="253.5,-56.5 253.5,-75.5 294.5,-75.5 294.5,-56.5 253.5,-56.5"/>
<text text-anchor="middle" x="274" y="-63.5" font-family="Helvetica,sans-Serif" font-size="10.00">ctime</text>
</g>
<!-- Node7&#45;&gt;Node11 -->
<g id="edge12" class="edge"><title>Node7&#45;&gt;Node11</title>
<path fill="none" stroke="midnightblue" d="M304.055,-112.083C299.023,-104.534 291.663,-93.4948 285.487,-84.2298"/>
<polygon fill="midnightblue" stroke="midnightblue" points="288.293,-82.1301 279.834,-75.7511 282.469,-86.0131 288.293,-82.1301"/>
</g>
<!-- Node12 -->
<g id="node12" class="node"><title>Node12</title>
<polygon fill="white" stroke="#bfbfbf" points="487.5,-56.5 487.5,-75.5 536.5,-75.5 536.5,-56.5 487.5,-56.5"/>
<text text-anchor="middle" x="512" y="-63.5" font-family="Helvetica,sans-Serif" font-size="10.00">cassert</text>
</g>
<!-- Node7&#45;&gt;Node12 -->
<g id="edge13" class="edge"><title>Node7&#45;&gt;Node12</title>
<path fill="none" stroke="midnightblue" d="M342.008,-112.444C378.92,-102.576 439.383,-86.4126 477.369,-76.2577"/>
<polygon fill="midnightblue" stroke="midnightblue" points="478.692,-79.527 487.449,-73.5631 476.885,-72.7644 478.692,-79.527"/>
</g>
<!-- Node13 -->
<g id="node13" class="node"><title>Node13</title>
<polygon fill="white" stroke="#bfbfbf" points="66,-56.5 66,-75.5 130,-75.5 130,-56.5 66,-56.5"/>
<text text-anchor="middle" x="98" y="-63.5" font-family="Helvetica,sans-Serif" font-size="10.00">wdlstring.h</text>
</g>
<!-- Node7&#45;&gt;Node13 -->
<g id="edge14" class="edge"><title>Node7&#45;&gt;Node13</title>
<path fill="none" stroke="midnightblue" d="M276.408,-112.444C239.382,-103.012 179.779,-87.8305 139.771,-77.6397"/>
<polygon fill="midnightblue" stroke="midnightblue" points="140.602,-74.2397 130.047,-75.1629 138.874,-81.0231 140.602,-74.2397"/>
</g>
<!-- Node7&#45;&gt;Node14 -->
<g id="edge15" class="edge"><title>Node7&#45;&gt;Node14</title>
<path fill="none" stroke="midnightblue" d="M323.014,-112.324C335.532,-103.979 354.682,-91.2122 369.471,-81.3524"/>
<polygon fill="midnightblue" stroke="midnightblue" points="371.639,-84.1137 378.018,-75.6545 367.756,-78.2894 371.639,-84.1137"/>
</g>
<!-- Node14&#45;&gt;Node2 -->
<g id="edge19" class="edge"><title>Node14&#45;&gt;Node2</title>
<path fill="none" stroke="midnightblue" d="M350.874,-57.6048C292.541,-46.854 185.391,-27.1062 131.221,-17.1227"/>
<polygon fill="midnightblue" stroke="midnightblue" points="131.593,-13.6323 121.124,-15.2618 130.324,-20.5164 131.593,-13.6323"/>
</g>
<!-- Node14&#45;&gt;Node6 -->
<g id="edge22" class="edge"><title>Node14&#45;&gt;Node6</title>
<path fill="none" stroke="midnightblue" d="M395.374,-75.5914C404.516,-93.5484 425.806,-135.37 437.999,-159.32"/>
<polygon fill="midnightblue" stroke="midnightblue" points="434.95,-161.045 442.606,-168.368 441.188,-157.869 434.95,-161.045"/>
</g>
<!-- Node14&#45;&gt;Node8 -->
<g id="edge17" class="edge"><title>Node14&#45;&gt;Node8</title>
<path fill="none" stroke="midnightblue" d="M375.737,-56.324C360.779,-47.8215 337.745,-34.7288 320.273,-24.7975"/>
<polygon fill="midnightblue" stroke="midnightblue" points="321.649,-21.5534 311.226,-19.6545 318.19,-27.639 321.649,-21.5534"/>
</g>
<!-- Node14&#45;&gt;Node9 -->
<g id="edge20" class="edge"><title>Node14&#45;&gt;Node9</title>
<path fill="none" stroke="midnightblue" d="M406.103,-56.324C420.903,-47.8215 443.694,-34.7288 460.982,-24.7975"/>
<polygon fill="midnightblue" stroke="midnightblue" points="463.007,-27.6707 469.935,-19.6545 459.52,-21.6009 463.007,-27.6707"/>
</g>
<!-- Node15 -->
<g id="node15" class="node"><title>Node15</title>
<polygon fill="white" stroke="#bfbfbf" points="336,-0.5 336,-19.5 380,-19.5 380,-0.5 336,-0.5"/>
<text text-anchor="middle" x="358" y="-7.5" font-family="Helvetica,sans-Serif" font-size="10.00">cmath</text>
</g>
<!-- Node14&#45;&gt;Node15 -->
<g id="edge16" class="edge"><title>Node14&#45;&gt;Node15</title>
<path fill="none" stroke="midnightblue" d="M385.551,-56.083C380.986,-48.6127 374.332,-37.7244 368.707,-28.5199"/>
<polygon fill="midnightblue" stroke="midnightblue" points="371.549,-26.4588 363.348,-19.7511 365.576,-30.109 371.549,-26.4588"/>
</g>
<!-- Node16 -->
<g id="node16" class="node"><title>Node16</title>
<polygon fill="white" stroke="#bfbfbf" points="398.5,-0.5 398.5,-19.5 443.5,-19.5 443.5,-0.5 398.5,-0.5"/>
<text text-anchor="middle" x="421" y="-7.5" font-family="Helvetica,sans-Serif" font-size="10.00">cstdlib</text>
</g>
<!-- Node14&#45;&gt;Node16 -->
<g id="edge18" class="edge"><title>Node14&#45;&gt;Node16</title>
<path fill="none" stroke="midnightblue" d="M395.954,-56.083C400.104,-48.6127 406.153,-37.7244 411.267,-28.5199"/>
<polygon fill="midnightblue" stroke="midnightblue" points="414.341,-30.1924 416.138,-19.7511 408.222,-26.7929 414.341,-30.1924"/>
</g>
<!-- Node14&#45;&gt;Node17 -->
<g id="edge21" class="edge"><title>Node14&#45;&gt;Node17</title>
<path fill="none" stroke="midnightblue" d="M426.652,-56.4435C465.656,-47.0826 528.266,-32.0561 570.717,-21.868"/>
<polygon fill="midnightblue" stroke="midnightblue" points="571.608,-25.2536 580.515,-19.5164 569.974,-18.4469 571.608,-25.2536"/>
</g>
<!-- Node18&#45;&gt;Node6 -->
<g id="edge28" class="edge"><title>Node18&#45;&gt;Node6</title>
<path fill="none" stroke="midnightblue" d="M529.255,-224.324C513.681,-215.743 489.623,-202.486 471.541,-192.522"/>
<polygon fill="midnightblue" stroke="midnightblue" points="473.154,-189.415 462.706,-187.655 469.776,-195.546 473.154,-189.415"/>
</g>
<!-- Node18&#45;&gt;Node13 -->
<g id="edge26" class="edge"><title>Node18&#45;&gt;Node13</title>
<path fill="none" stroke="midnightblue" d="M513.622,-224.435C483.28,-215.94 436.13,-202.173 396,-188 295.59,-152.537 179.404,-102.761 126.67,-79.6771"/>
<polygon fill="midnightblue" stroke="midnightblue" points="127.85,-76.3725 117.286,-75.5575 125.036,-82.7821 127.85,-76.3725"/>
</g>
<!-- Node18&#45;&gt;Node17 -->
<g id="edge27" class="edge"><title>Node18&#45;&gt;Node17</title>
<path fill="none" stroke="midnightblue" d="M562.806,-224.454C577.128,-216.748 596.808,-204.154 609,-188 640.753,-145.929 639.21,-127.971 648,-76 649.482,-67.2356 650.704,-64.4677 648,-56 644.659,-45.538 637.9,-35.4277 631.451,-27.4496"/>
<polygon fill="midnightblue" stroke="midnightblue" points="633.944,-24.9815 624.751,-19.7136 628.652,-29.5641 633.944,-24.9815"/>
</g>
<!-- Node19 -->
<g id="node19" class="node"><title>Node19</title>
<polygon fill="white" stroke="#bfbfbf" points="545,-168.5 545,-187.5 601,-187.5 601,-168.5 545,-168.5"/>
<text text-anchor="middle" x="573" y="-175.5" font-family="Helvetica,sans-Serif" font-size="10.00">algorithm</text>
</g>
<!-- Node18&#45;&gt;Node19 -->
<g id="edge25" class="edge"><title>Node18&#45;&gt;Node19</title>
<path fill="none" stroke="midnightblue" d="M549.624,-224.083C553.456,-216.691 559.024,-205.953 563.765,-196.811"/>
<polygon fill="midnightblue" stroke="midnightblue" points="566.966,-198.24 568.462,-187.751 560.752,-195.018 566.966,-198.24"/>
</g>
<!-- Node20 -->
<g id="node20" class="node"><title>Node20</title>
<g id="a_node20"><a xlink:href="_i_plug_midi_8h_source.html" target="_top" xlink:title="IPlugMidi.h">
<polygon fill="white" stroke="black" points="484.5,-112.5 484.5,-131.5 549.5,-131.5 549.5,-112.5 484.5,-112.5"/>
<text text-anchor="middle" x="517" y="-119.5" font-family="Helvetica,sans-Serif" font-size="10.00">IPlugMidi.h</text>
</a>
</g>
</g>
<!-- Node18&#45;&gt;Node20 -->
<g id="edge29" class="edge"><title>Node18&#45;&gt;Node20</title>
<path fill="none" stroke="midnightblue" d="M542.803,-224.368C538.284,-206.617 527.861,-165.666 521.734,-141.597"/>
<polygon fill="midnightblue" stroke="midnightblue" points="525.046,-140.419 519.187,-131.591 518.262,-142.146 525.046,-140.419"/>
</g>
<!-- Node20&#45;&gt;Node3 -->
<g id="edge31" class="edge"><title>Node20&#45;&gt;Node3</title>
<path fill="none" stroke="midnightblue" d="M532.906,-112.324C548.638,-103.743 572.942,-90.486 591.209,-80.5224"/>
<polygon fill="midnightblue" stroke="midnightblue" points="593.03,-83.5157 600.133,-75.6545 589.678,-77.3704 593.03,-83.5157"/>
</g>
<!-- Node20&#45;&gt;Node12 -->
<g id="edge30" class="edge"><title>Node20&#45;&gt;Node12</title>
<path fill="none" stroke="midnightblue" d="M516.174,-112.083C515.519,-105.006 514.58,-94.8611 513.758,-85.9865"/>
<polygon fill="midnightblue" stroke="midnightblue" points="517.217,-85.3858 512.81,-75.7511 510.247,-86.0312 517.217,-85.3858"/>
</g>
<!-- Node20&#45;&gt;Node14 -->
<g id="edge33" class="edge"><title>Node20&#45;&gt;Node14</title>
<path fill="none" stroke="midnightblue" d="M497.035,-112.444C476.391,-103.596 443.937,-89.6875 420.368,-79.5865"/>
<polygon fill="midnightblue" stroke="midnightblue" points="421.442,-76.2387 410.872,-75.5164 418.684,-82.6727 421.442,-76.2387"/>
</g>
<!-- Node20&#45;&gt;Node17 -->
<g id="edge32" class="edge"><title>Node20&#45;&gt;Node17</title>
<path fill="none" stroke="midnightblue" d="M524.768,-112.368C541.323,-93.9744 580.296,-50.6712 601.553,-27.0519"/>
<polygon fill="midnightblue" stroke="midnightblue" points="604.18,-29.3658 608.268,-19.5914 598.977,-24.683 604.18,-29.3658"/>
</g>
<!-- Node21&#45;&gt;Node2 -->
<g id="edge36" class="edge"><title>Node21&#45;&gt;Node2</title>
<path fill="none" stroke="midnightblue" d="M94.367,-112.464C81.5121,-104.841 64.6608,-92.356 57,-76 48.6267,-58.1227 63.6286,-39.1972 77.7824,-26.4071"/>
<polygon fill="midnightblue" stroke="midnightblue" points="80.4311,-28.753 85.8348,-19.6397 75.9275,-23.3941 80.4311,-28.753"/>
</g>
<!-- Node21&#45;&gt;Node13 -->
<g id="edge37" class="edge"><title>Node21&#45;&gt;Node13</title>
<path fill="none" stroke="midnightblue" d="M108.853,-112.083C107.131,-104.927 104.653,-94.6353 102.5,-85.6911"/>
<polygon fill="midnightblue" stroke="midnightblue" points="105.85,-84.6541 100.107,-75.7511 99.0446,-86.2925 105.85,-84.6541"/>
</g>
<!-- Node21&#45;&gt;Node14 -->
<g id="edge38" class="edge"><title>Node21&#45;&gt;Node14</title>
<path fill="none" stroke="midnightblue" d="M155.367,-112.444C205.82,-102.713 288.016,-86.8612 340.781,-76.6851"/>
<polygon fill="midnightblue" stroke="midnightblue" points="341.767,-80.0595 350.924,-74.729 340.442,-73.1861 341.767,-80.0595"/>
</g>
</g>
</svg>
