<?xml version="1.0" encoding="UTF-8" standalone="no"?>
<!DOCTYPE svg PUBLIC "-//W3C//DTD SVG 1.1//EN"
 "http://www.w3.org/Graphics/SVG/1.1/DTD/svg11.dtd">
<!-- Generated by graphviz version 2.36.0 (20140111.2315)
 -->
<!-- Title: IPlugPlatform.h Pages: 1 -->
<svg width="598pt" height="196pt"
 viewBox="0.00 0.00 598.00 196.00" xmlns="http://www.w3.org/2000/svg" xmlns:xlink="http://www.w3.org/1999/xlink">
<g id="graph0" class="graph" transform="scale(1 1) rotate(0) translate(4 192)">
<title>IPlugPlatform.h</title>
<polygon fill="white" stroke="none" points="-4,4 -4,-192 594,-192 594,4 -4,4"/>
<!-- Node1 -->
<g id="node1" class="node"><title>Node1</title>
<polygon fill="#bfbfbf" stroke="black" points="239,-168.5 239,-187.5 323,-187.5 323,-168.5 239,-168.5"/>
<text text-anchor="middle" x="281" y="-175.5" font-family="Helvetica,sans-Serif" font-size="10.00">IPlugPlatform.h</text>
</g>
<!-- Node2 -->
<g id="node2" class="node"><title>Node2</title>
<g id="a_node2"><a xlink:href="_i_plug_logger_8h_source.html" target="_top" xlink:title="IPlugLogger.h">
<polygon fill="white" stroke="black" points="312.5,-112.5 312.5,-131.5 389.5,-131.5 389.5,-112.5 312.5,-112.5"/>
<text text-anchor="middle" x="351" y="-119.5" font-family="Helvetica,sans-Serif" font-size="10.00">IPlugLogger.h</text>
</a>
</g>
</g>
<!-- Node1&#45;&gt;Node2 -->
<g id="edge1" class="edge"><title>Node1&#45;&gt;Node2</title>
<path fill="none" stroke="midnightblue" d="M292.247,-168.324C302.797,-160.185 318.801,-147.839 331.442,-138.087"/>
<polygon fill="midnightblue" stroke="midnightblue" points="333.769,-140.713 339.549,-131.834 329.493,-135.171 333.769,-140.713"/>
</g>
<!-- Node3 -->
<g id="node3" class="node"><title>Node3</title>
<polygon fill="white" stroke="#bfbfbf" points="340.5,-0.5 340.5,-19.5 383.5,-19.5 383.5,-0.5 340.5,-0.5"/>
<text text-anchor="middle" x="362" y="-7.5" font-family="Helvetica,sans-Serif" font-size="10.00">cstdio</text>
</g>
<!-- Node2&#45;&gt;Node3 -->
<g id="edge2" class="edge"><title>Node2&#45;&gt;Node3</title>
<path fill="none" stroke="midnightblue" d="M389.687,-121.173C424.553,-119.006 474.054,-109.659 499,-76 528.135,-36.6895 442.75,-20.1975 393.777,-14.1115"/>
<polygon fill="midnightblue" stroke="midnightblue" points="393.981,-10.6118 383.644,-12.9349 393.174,-17.5651 393.981,-10.6118"/>
</g>
<!-- Node4 -->
<g id="node4" class="node"><title>Node4</title>
<polygon fill="white" stroke="#bfbfbf" points="454,-0.5 454,-19.5 500,-19.5 500,-0.5 454,-0.5"/>
<text text-anchor="middle" x="477" y="-7.5" font-family="Helvetica,sans-Serif" font-size="10.00">cctype</text>
</g>
<!-- Node2&#45;&gt;Node4 -->
<g id="edge3" class="edge"><title>Node2&#45;&gt;Node4</title>
<path fill="none" stroke="midnightblue" d="M389.707,-115.814C433.245,-109.095 499.872,-95.8383 515,-76 527.105,-60.126 511.244,-40.0592 496.476,-26.4514"/>
<polygon fill="midnightblue" stroke="midnightblue" points="498.424,-23.5099 488.568,-19.6237 493.849,-28.8082 498.424,-23.5099"/>
</g>
<!-- Node5 -->
<g id="node5" class="node"><title>Node5</title>
<polygon fill="white" stroke="#bfbfbf" points="167.5,-56.5 167.5,-75.5 216.5,-75.5 216.5,-56.5 167.5,-56.5"/>
<text text-anchor="middle" x="192" y="-63.5" font-family="Helvetica,sans-Serif" font-size="10.00">cstdarg</text>
</g>
<!-- Node2&#45;&gt;Node5 -->
<g id="edge4" class="edge"><title>Node2&#45;&gt;Node5</title>
<path fill="none" stroke="midnightblue" d="M325.806,-112.444C298.9,-103.306 256.097,-88.7689 226.168,-78.6044"/>
<polygon fill="midnightblue" stroke="midnightblue" points="227.148,-75.2408 216.554,-75.339 224.897,-81.869 227.148,-75.2408"/>
</g>
<!-- Node6 -->
<g id="node6" class="node"><title>Node6</title>
<polygon fill="white" stroke="#bfbfbf" points="235,-56.5 235,-75.5 281,-75.5 281,-56.5 235,-56.5"/>
<text text-anchor="middle" x="258" y="-63.5" font-family="Helvetica,sans-Serif" font-size="10.00">cstdint</text>
</g>
<!-- Node2&#45;&gt;Node6 -->
<g id="edge5" class="edge"><title>Node2&#45;&gt;Node6</title>
<path fill="none" stroke="midnightblue" d="M336.058,-112.324C321.415,-103.822 298.866,-90.7288 281.762,-80.7975"/>
<polygon fill="midnightblue" stroke="midnightblue" points="283.31,-77.6491 272.905,-75.6545 279.795,-83.7027 283.31,-77.6491"/>
</g>
<!-- Node7 -->
<g id="node7" class="node"><title>Node7</title>
<polygon fill="white" stroke="#bfbfbf" points="544,-0.5 544,-19.5 590,-19.5 590,-0.5 544,-0.5"/>
<text text-anchor="middle" x="567" y="-7.5" font-family="Helvetica,sans-Serif" font-size="10.00">cstring</text>
</g>
<!-- Node2&#45;&gt;Node7 -->
<g id="edge6" class="edge"><title>Node2&#45;&gt;Node7</title>
<path fill="none" stroke="midnightblue" d="M389.609,-120.086C428.904,-117.305 489.744,-107.689 531,-76 546.312,-64.2388 556.025,-44.0116 561.452,-29.2381"/>
<polygon fill="midnightblue" stroke="midnightblue" points="564.808,-30.2375 564.665,-19.6436 558.171,-28.0146 564.808,-30.2375"/>
</g>
<!-- Node8 -->
<g id="node8" class="node"><title>Node8</title>
<polygon fill="white" stroke="#bfbfbf" points="299.5,-56.5 299.5,-75.5 340.5,-75.5 340.5,-56.5 299.5,-56.5"/>
<text text-anchor="middle" x="320" y="-63.5" font-family="Helvetica,sans-Serif" font-size="10.00">ctime</text>
</g>
<!-- Node2&#45;&gt;Node8 -->
<g id="edge7" class="edge"><title>Node2&#45;&gt;Node8</title>
<path fill="none" stroke="midnightblue" d="M345.881,-112.083C341.592,-104.613 335.342,-93.7244 330.058,-84.5199"/>
<polygon fill="midnightblue" stroke="midnightblue" points="333.038,-82.6811 325.024,-75.7511 326.967,-86.1662 333.038,-82.6811"/>
</g>
<!-- Node9 -->
<g id="node9" class="node"><title>Node9</title>
<polygon fill="white" stroke="#bfbfbf" points="358.5,-56.5 358.5,-75.5 407.5,-75.5 407.5,-56.5 358.5,-56.5"/>
<text text-anchor="middle" x="383" y="-63.5" font-family="Helvetica,sans-Serif" font-size="10.00">cassert</text>
</g>
<!-- Node2&#45;&gt;Node9 -->
<g id="edge8" class="edge"><title>Node2&#45;&gt;Node9</title>
<path fill="none" stroke="midnightblue" d="M356.284,-112.083C360.711,-104.613 367.163,-93.7244 372.618,-84.5199"/>
<polygon fill="midnightblue" stroke="midnightblue" points="375.727,-86.1383 377.814,-75.7511 369.705,-82.5697 375.727,-86.1383"/>
</g>
<!-- Node10 -->
<g id="node10" class="node"><title>Node10</title>
<polygon fill="white" stroke="#bfbfbf" points="426,-56.5 426,-75.5 490,-75.5 490,-56.5 426,-56.5"/>
<text text-anchor="middle" x="458" y="-63.5" font-family="Helvetica,sans-Serif" font-size="10.00">wdlstring.h</text>
</g>
<!-- Node2&#45;&gt;Node10 -->
<g id="edge9" class="edge"><title>Node2&#45;&gt;Node10</title>
<path fill="none" stroke="midnightblue" d="M368.191,-112.324C385.351,-103.664 411.946,-90.2424 431.747,-80.249"/>
<polygon fill="midnightblue" stroke="midnightblue" points="433.501,-83.2847 440.851,-75.6545 430.347,-77.0354 433.501,-83.2847"/>
</g>
<!-- Node11 -->
<g id="node11" class="node"><title>Node11</title>
<g id="a_node11"><a xlink:href="_i_plug_utilities_8h.html" target="_top" xlink:title="Utility functions and macros. ">
<polygon fill="white" stroke="black" points="69,-56.5 69,-75.5 149,-75.5 149,-56.5 69,-56.5"/>
<text text-anchor="middle" x="109" y="-63.5" font-family="Helvetica,sans-Serif" font-size="10.00">IPlugUtilities.h</text>
</a>
</g>
</g>
<!-- Node2&#45;&gt;Node11 -->
<g id="edge10" class="edge"><title>Node2&#45;&gt;Node11</title>
<path fill="none" stroke="midnightblue" d="M312.654,-112.444C270.527,-103.043 202.794,-87.9291 157.128,-77.7393"/>
<polygon fill="midnightblue" stroke="midnightblue" points="157.688,-74.2784 147.166,-75.5164 156.164,-81.1103 157.688,-74.2784"/>
</g>
<!-- Node11&#45;&gt;Node1 -->
<g id="edge17" class="edge"><title>Node11&#45;&gt;Node1</title>
<path fill="none" stroke="midnightblue" d="M122.434,-75.5914C151.891,-94.4303 222.418,-139.535 258.662,-162.714"/>
<polygon fill="midnightblue" stroke="midnightblue" points="257.193,-165.929 267.503,-168.368 260.965,-160.032 257.193,-165.929"/>
</g>
<!-- Node11&#45;&gt;Node3 -->
<g id="edge12" class="edge"><title>Node11&#45;&gt;Node3</title>
<path fill="none" stroke="midnightblue" d="M149.089,-56.4435C199.373,-45.711 284.551,-27.5307 330.449,-17.7341"/>
<polygon fill="midnightblue" stroke="midnightblue" points="331.376,-21.1153 340.425,-15.6049 329.915,-14.2695 331.376,-21.1153"/>
</g>
<!-- Node11&#45;&gt;Node4 -->
<g id="edge15" class="edge"><title>Node11&#45;&gt;Node4</title>
<path fill="none" stroke="midnightblue" d="M149.088,-57.4969C152.101,-56.9758 155.097,-56.4711 158,-56 261.946,-39.1298 385.547,-22.7333 443.665,-15.2392"/>
<polygon fill="midnightblue" stroke="midnightblue" points="444.263,-18.6912 453.735,-13.9453 443.371,-11.7483 444.263,-18.6912"/>
</g>
<!-- Node11&#45;&gt;Node7 -->
<g id="edge14" class="edge"><title>Node11&#45;&gt;Node7</title>
<path fill="none" stroke="midnightblue" d="M149.069,-57.3725C152.087,-56.8802 155.089,-56.416 158,-56 313.242,-33.8178 353.466,-40.0298 509,-20 517.101,-18.9568 525.815,-17.6845 533.964,-16.4288"/>
<polygon fill="midnightblue" stroke="midnightblue" points="534.562,-19.878 543.896,-14.8658 533.473,-12.9631 534.562,-19.878"/>
</g>
<!-- Node12 -->
<g id="node12" class="node"><title>Node12</title>
<polygon fill="white" stroke="#bfbfbf" points="173,-0.5 173,-19.5 217,-19.5 217,-0.5 173,-0.5"/>
<text text-anchor="middle" x="195" y="-7.5" font-family="Helvetica,sans-Serif" font-size="10.00">cmath</text>
</g>
<!-- Node11&#45;&gt;Node12 -->
<g id="edge11" class="edge"><title>Node11&#45;&gt;Node12</title>
<path fill="none" stroke="midnightblue" d="M122.817,-56.324C136.233,-47.9002 156.824,-34.9709 172.586,-25.0741"/>
<polygon fill="midnightblue" stroke="midnightblue" points="174.609,-27.9364 181.217,-19.6545 170.887,-22.0081 174.609,-27.9364"/>
</g>
<!-- Node13 -->
<g id="node13" class="node"><title>Node13</title>
<polygon fill="white" stroke="#bfbfbf" points="-0.5,-0.5 -0.5,-19.5 44.5,-19.5 44.5,-0.5 -0.5,-0.5"/>
<text text-anchor="middle" x="22" y="-7.5" font-family="Helvetica,sans-Serif" font-size="10.00">cstdlib</text>
</g>
<!-- Node11&#45;&gt;Node13 -->
<g id="edge13" class="edge"><title>Node11&#45;&gt;Node13</title>
<path fill="none" stroke="midnightblue" d="M95.0219,-56.324C81.4504,-47.9002 60.6198,-34.9709 44.675,-25.0741"/>
<polygon fill="midnightblue" stroke="midnightblue" points="46.2856,-21.9544 35.9434,-19.6545 42.594,-27.9019 46.2856,-21.9544"/>
</g>
<!-- Node14 -->
<g id="node14" class="node"><title>Node14</title>
<g id="a_node14"><a xlink:href="_i_plug_constants_8h.html" target="_top" xlink:title="Constant definitions, magic numbers. ">
<polygon fill="white" stroke="black" points="63,-0.5 63,-19.5 155,-19.5 155,-0.5 63,-0.5"/>
<text text-anchor="middle" x="109" y="-7.5" font-family="Helvetica,sans-Serif" font-size="10.00">IPlugConstants.h</text>
</a>
</g>
</g>
<!-- Node11&#45;&gt;Node14 -->
<g id="edge16" class="edge"><title>Node11&#45;&gt;Node14</title>
<path fill="none" stroke="midnightblue" d="M109,-56.083C109,-49.0059 109,-38.8611 109,-29.9865"/>
<polygon fill="midnightblue" stroke="midnightblue" points="112.5,-29.751 109,-19.7511 105.5,-29.7511 112.5,-29.751"/>
</g>
</g>
</svg>
