<?xml version="1.0" encoding="UTF-8" standalone="no"?>
<!DOCTYPE svg PUBLIC "-//W3C//DTD SVG 1.1//EN"
 "http://www.w3.org/Graphics/SVG/1.1/DTD/svg11.dtd">
<!-- Generated by graphviz version 2.36.0 (20140111.2315)
 -->
<!-- Title: IPlugConstants.h Pages: 1 -->
<svg width="1386pt" height="656pt"
 viewBox="0.00 0.00 1386.00 656.00" xmlns="http://www.w3.org/2000/svg" xmlns:xlink="http://www.w3.org/1999/xlink">
<g id="graph0" class="graph" transform="scale(1 1) rotate(0) translate(4 652)">
<title>IPlugConstants.h</title>
<polygon fill="white" stroke="none" points="-4,4 -4,-652 1382,-652 1382,4 -4,4"/>
<!-- Node1 -->
<g id="node1" class="node"><title>Node1</title>
<polygon fill="#bfbfbf" stroke="black" points="489,-628.5 489,-647.5 581,-647.5 581,-628.5 489,-628.5"/>
<text text-anchor="middle" x="535" y="-635.5" font-family="Helvetica,sans-Serif" font-size="10.00">IPlugConstants.h</text>
</g>
<!-- Node2 -->
<g id="node2" class="node"><title>Node2</title>
<g id="a_node2"><a xlink:href="_i_plug_utilities_8h.html" target="_top" xlink:title="Utility functions and macros. ">
<polygon fill="white" stroke="black" points="667,-572.5 667,-591.5 747,-591.5 747,-572.5 667,-572.5"/>
<text text-anchor="middle" x="707" y="-579.5" font-family="Helvetica,sans-Serif" font-size="10.00">IPlugUtilities.h</text>
</a>
</g>
</g>
<!-- Node1&#45;&gt;Node2 -->
<g id="edge1" class="edge"><title>Node1&#45;&gt;Node2</title>
<path fill="none" stroke="midnightblue" d="M571.832,-625.436C604.262,-615.255 650.737,-600.664 679.874,-591.516"/>
<polygon fill="midnightblue" stroke="midnightblue" points="570.746,-622.109 562.254,-628.444 572.843,-628.787 570.746,-622.109"/>
</g>
<!-- Node31 -->
<g id="node31" class="node"><title>Node31</title>
<g id="a_node31"><a xlink:href="_i_plug_base_8h.html" target="_top" xlink:title="The lowest level base class of an IPlug plug&#45;in. ">
<polygon fill="white" stroke="black" points="562,-336.5 562,-355.5 632,-355.5 632,-336.5 562,-336.5"/>
<text text-anchor="middle" x="597" y="-343.5" font-family="Helvetica,sans-Serif" font-size="10.00">IPlugBase.h</text>
</a>
</g>
</g>
<!-- Node1&#45;&gt;Node31 -->
<g id="edge68" class="edge"><title>Node1&#45;&gt;Node31</title>
<path fill="none" stroke="midnightblue" d="M515.996,-621.736C494.07,-602.274 461,-566.39 461,-527 461,-527 461,-527 461,-469 461,-433.751 456.684,-418.436 480,-392 500.874,-368.333 535.637,-357.04 561.859,-351.696"/>
<polygon fill="midnightblue" stroke="midnightblue" points="513.883,-624.534 523.761,-628.364 518.427,-619.21 513.883,-624.534"/>
</g>
<!-- Node47 -->
<g id="node47" class="node"><title>Node47</title>
<g id="a_node47"><a xlink:href="_i_plug_structs_8h_source.html" target="_top" xlink:title="IPlugStructs.h">
<polygon fill="white" stroke="black" points="489.5,-398.5 489.5,-417.5 568.5,-417.5 568.5,-398.5 489.5,-398.5"/>
<text text-anchor="middle" x="529" y="-405.5" font-family="Helvetica,sans-Serif" font-size="10.00">IPlugStructs.h</text>
</a>
</g>
</g>
<!-- Node1&#45;&gt;Node47 -->
<g id="edge69" class="edge"><title>Node1&#45;&gt;Node47</title>
<path fill="none" stroke="midnightblue" d="M533.557,-618.314C532.07,-598.053 529.853,-564.754 529,-536 527.679,-491.481 528.443,-438.146 528.824,-417.626"/>
<polygon fill="midnightblue" stroke="midnightblue" points="530.073,-618.652 534.313,-628.361 537.053,-618.126 530.073,-618.652"/>
</g>
<!-- Node48 -->
<g id="node48" class="node"><title>Node48</title>
<g id="a_node48"><a xlink:href="_i_plug_midi_8h_source.html" target="_top" xlink:title="IPlugMidi.h">
<polygon fill="white" stroke="black" points="538.5,-516.5 538.5,-535.5 603.5,-535.5 603.5,-516.5 538.5,-516.5"/>
<text text-anchor="middle" x="571" y="-523.5" font-family="Helvetica,sans-Serif" font-size="10.00">IPlugMidi.h</text>
</a>
</g>
</g>
<!-- Node1&#45;&gt;Node48 -->
<g id="edge70" class="edge"><title>Node1&#45;&gt;Node48</title>
<path fill="none" stroke="midnightblue" d="M540.998,-618.674C548.868,-594.625 562.364,-553.388 568.188,-535.591"/>
<polygon fill="midnightblue" stroke="midnightblue" points="537.609,-617.776 537.825,-628.368 544.262,-619.953 537.609,-617.776"/>
</g>
<!-- Node3 -->
<g id="node3" class="node"><title>Node3</title>
<g id="a_node3"><a xlink:href="_i_plug_logger_8h_source.html" target="_top" xlink:title="IPlugLogger.h">
<polygon fill="white" stroke="black" points="813.5,-516.5 813.5,-535.5 890.5,-535.5 890.5,-516.5 813.5,-516.5"/>
<text text-anchor="middle" x="852" y="-523.5" font-family="Helvetica,sans-Serif" font-size="10.00">IPlugLogger.h</text>
</a>
</g>
</g>
<!-- Node2&#45;&gt;Node3 -->
<g id="edge2" class="edge"><title>Node2&#45;&gt;Node3</title>
<path fill="none" stroke="midnightblue" d="M739.475,-568.906C766.736,-558.754 804.992,-544.506 829.132,-535.516"/>
<polygon fill="midnightblue" stroke="midnightblue" points="738.125,-565.674 729.976,-572.444 740.568,-572.233 738.125,-565.674"/>
</g>
<!-- Node2&#45;&gt;Node31 -->
<g id="edge64" class="edge"><title>Node2&#45;&gt;Node31</title>
<path fill="none" stroke="midnightblue" d="M716.05,-563.237C727.129,-538.882 742.607,-494.245 727,-460 714.351,-432.245 639.31,-376.968 609.347,-355.657"/>
<polygon fill="midnightblue" stroke="midnightblue" points="712.851,-561.815 711.675,-572.344 719.161,-564.846 712.851,-561.815"/>
</g>
<!-- Node2&#45;&gt;Node48 -->
<g id="edge62" class="edge"><title>Node2&#45;&gt;Node48</title>
<path fill="none" stroke="midnightblue" d="M675.865,-568.638C650.343,-558.504 614.891,-544.427 592.449,-535.516"/>
<polygon fill="midnightblue" stroke="midnightblue" points="674.865,-572.006 685.45,-572.444 677.448,-565.5 674.865,-572.006"/>
</g>
<!-- Node49 -->
<g id="node49" class="node"><title>Node49</title>
<g id="a_node49"><a xlink:href="_i_plug_parameter_8h_source.html" target="_top" xlink:title="IPlugParameter.h">
<polygon fill="white" stroke="black" points="622,-516.5 622,-535.5 714,-535.5 714,-516.5 622,-516.5"/>
<text text-anchor="middle" x="668" y="-523.5" font-family="Helvetica,sans-Serif" font-size="10.00">IPlugParameter.h</text>
</a>
</g>
</g>
<!-- Node2&#45;&gt;Node49 -->
<g id="edge65" class="edge"><title>Node2&#45;&gt;Node49</title>
<path fill="none" stroke="midnightblue" d="M694.618,-563.855C687.865,-554.505 679.791,-543.327 674.32,-535.751"/>
<polygon fill="midnightblue" stroke="midnightblue" points="691.868,-566.025 700.56,-572.083 697.542,-561.927 691.868,-566.025"/>
</g>
<!-- Node4 -->
<g id="node4" class="node"><title>Node4</title>
<g id="a_node4"><a xlink:href="_i_plug_platform_8h.html" target="_top" xlink:title="Include to get consistently named preprocessor macros for different platforms and logging functionali...">
<polygon fill="white" stroke="black" points="810,-460.5 810,-479.5 894,-479.5 894,-460.5 810,-460.5"/>
<text text-anchor="middle" x="852" y="-467.5" font-family="Helvetica,sans-Serif" font-size="10.00">IPlugPlatform.h</text>
</a>
</g>
</g>
<!-- Node3&#45;&gt;Node4 -->
<g id="edge3" class="edge"><title>Node3&#45;&gt;Node4</title>
<path fill="none" stroke="midnightblue" d="M852,-505.805C852,-496.91 852,-486.78 852,-479.751"/>
<polygon fill="midnightblue" stroke="midnightblue" points="848.5,-506.083 852,-516.083 855.5,-506.083 848.5,-506.083"/>
</g>
<!-- Node4&#45;&gt;Node2 -->
<g id="edge37" class="edge"><title>Node4&#45;&gt;Node2</title>
<path fill="none" stroke="midnightblue" d="M832.448,-485.832C801.71,-509.151 743.048,-553.653 718.378,-572.368"/>
<polygon fill="midnightblue" stroke="midnightblue" points="834.823,-488.424 840.675,-479.591 830.593,-482.847 834.823,-488.424"/>
</g>
<!-- Node5 -->
<g id="node5" class="node"><title>Node5</title>
<g id="a_node5"><a xlink:href="_i_graphics_constants_8h_source.html" target="_top" xlink:title="IGraphicsConstants.h">
<polygon fill="white" stroke="black" points="1048,-398.5 1048,-417.5 1160,-417.5 1160,-398.5 1048,-398.5"/>
<text text-anchor="middle" x="1104" y="-405.5" font-family="Helvetica,sans-Serif" font-size="10.00">IGraphicsConstants.h</text>
</a>
</g>
</g>
<!-- Node4&#45;&gt;Node5 -->
<g id="edge4" class="edge"><title>Node4&#45;&gt;Node5</title>
<path fill="none" stroke="midnightblue" d="M897.857,-458.082C946.876,-446.41 1023.56,-428.152 1068.29,-417.503"/>
<polygon fill="midnightblue" stroke="midnightblue" points="896.755,-454.746 887.838,-460.467 898.377,-461.556 896.755,-454.746"/>
</g>
<!-- Node15 -->
<g id="node15" class="node"><title>Node15</title>
<g id="a_node15"><a xlink:href="_i_graphics_cairo_8h_source.html" target="_top" xlink:title="IGraphicsCairo.h">
<polygon fill="white" stroke="black" points="1155,-112.5 1155,-131.5 1245,-131.5 1245,-112.5 1155,-112.5"/>
<text text-anchor="middle" x="1200" y="-119.5" font-family="Helvetica,sans-Serif" font-size="10.00">IGraphicsCairo.h</text>
</a>
</g>
</g>
<!-- Node4&#45;&gt;Node15 -->
<g id="edge33" class="edge"><title>Node4&#45;&gt;Node15</title>
<path fill="none" stroke="midnightblue" d="M904.303,-467.698C983.236,-464.735 1127.86,-455.101 1168,-424 1197.3,-401.302 1200,-384.06 1200,-347 1200,-347 1200,-347 1200,-233 1200,-195.188 1200,-150.064 1200,-131.558"/>
<polygon fill="midnightblue" stroke="midnightblue" points="903.954,-464.208 894.083,-468.059 904.201,-471.204 903.954,-464.208"/>
</g>
<!-- Node17 -->
<g id="node17" class="node"><title>Node17</title>
<g id="a_node17"><a xlink:href="_i_graphics_lice_8h_source.html" target="_top" xlink:title="IGraphicsLice.h">
<polygon fill="white" stroke="black" points="944.5,-112.5 944.5,-131.5 1029.5,-131.5 1029.5,-112.5 944.5,-112.5"/>
<text text-anchor="middle" x="987" y="-119.5" font-family="Helvetica,sans-Serif" font-size="10.00">IGraphicsLice.h</text>
</a>
</g>
</g>
<!-- Node4&#45;&gt;Node17 -->
<g id="edge34" class="edge"><title>Node4&#45;&gt;Node17</title>
<path fill="none" stroke="midnightblue" d="M854.654,-449.874C857.352,-433.873 862.389,-410.723 871,-392 883.781,-364.212 891.395,-359.476 911,-336 925.304,-318.872 935.312,-319.589 946,-300 978.028,-241.298 985.127,-158.436 986.621,-131.687"/>
<polygon fill="midnightblue" stroke="midnightblue" points="851.142,-449.681 853.085,-460.096 858.061,-450.743 851.142,-449.681"/>
</g>
<!-- Node22 -->
<g id="node22" class="node"><title>Node22</title>
<g id="a_node22"><a xlink:href="_i_graphics_nano_v_g_8h_source.html" target="_top" xlink:title="IGraphicsNanoVG.h">
<polygon fill="white" stroke="black" points="1263,-112.5 1263,-131.5 1367,-131.5 1367,-112.5 1263,-112.5"/>
<text text-anchor="middle" x="1315" y="-119.5" font-family="Helvetica,sans-Serif" font-size="10.00">IGraphicsNanoVG.h</text>
</a>
</g>
</g>
<!-- Node4&#45;&gt;Node22 -->
<g id="edge35" class="edge"><title>Node4&#45;&gt;Node22</title>
<path fill="none" stroke="midnightblue" d="M904.103,-466.17C987.219,-460.995 1145.58,-448.241 1196,-424 1240.48,-402.615 1276,-396.349 1276,-347 1276,-347 1276,-347 1276,-233 1276,-193.287 1298.86,-149.904 1309.58,-131.75"/>
<polygon fill="midnightblue" stroke="midnightblue" points="903.878,-462.677 894.109,-466.778 904.303,-469.664 903.878,-462.677"/>
</g>
<!-- Node27 -->
<g id="node27" class="node"><title>Node27</title>
<g id="a_node27"><a xlink:href="_i_graphics_structs_8h_source.html" target="_top" xlink:title="IGraphicsStructs.h">
<polygon fill="white" stroke="black" points="920,-336.5 920,-355.5 1018,-355.5 1018,-336.5 920,-336.5"/>
<text text-anchor="middle" x="969" y="-343.5" font-family="Helvetica,sans-Serif" font-size="10.00">IGraphicsStructs.h</text>
</a>
</g>
</g>
<!-- Node4&#45;&gt;Node27 -->
<g id="edge31" class="edge"><title>Node4&#45;&gt;Node27</title>
<path fill="none" stroke="midnightblue" d="M904.12,-468.018C937.34,-464.344 978.117,-453.525 1000,-424 1016.13,-402.234 991.852,-370.91 977.814,-355.805"/>
<polygon fill="midnightblue" stroke="midnightblue" points="903.72,-464.54 894.083,-468.942 904.362,-471.511 903.72,-464.54"/>
</g>
<!-- Node28 -->
<g id="node28" class="node"><title>Node28</title>
<g id="a_node28"><a xlink:href="_i_plug__include__in__plug__hdr_8h.html" target="_top" xlink:title="IPlug header include. ">
<polygon fill="white" stroke="black" points="880.5,-393 880.5,-423 991.5,-423 991.5,-393 880.5,-393"/>
<text text-anchor="start" x="888.5" y="-411" font-family="Helvetica,sans-Serif" font-size="10.00">IPlug_include_in_plug</text>
<text text-anchor="middle" x="936" y="-400" font-family="Helvetica,sans-Serif" font-size="10.00">_hdr.h</text>
</a>
</g>
</g>
<!-- Node4&#45;&gt;Node28 -->
<g id="edge36" class="edge"><title>Node4&#45;&gt;Node28</title>
<path fill="none" stroke="midnightblue" d="M872.516,-454.346C885.815,-444.846 903.048,-432.537 916.203,-423.141"/>
<polygon fill="midnightblue" stroke="midnightblue" points="870.138,-451.743 864.035,-460.403 874.207,-457.439 870.138,-451.743"/>
</g>
<!-- Node29 -->
<g id="node29" class="node"><title>Node29</title>
<g id="a_node29"><a xlink:href="_i_plug_a_a_x_8h.html" target="_top" xlink:title="AAX API base class for an IPlug plug&#45;in, inherits from IPlugBase or IPlugBaseGraphics. ">
<polygon fill="white" stroke="black" points="393,-168.5 393,-187.5 461,-187.5 461,-168.5 393,-168.5"/>
<text text-anchor="middle" x="427" y="-175.5" font-family="Helvetica,sans-Serif" font-size="10.00">IPlugAAX.h</text>
</a>
</g>
</g>
<!-- Node4&#45;&gt;Node29 -->
<g id="edge38" class="edge"><title>Node4&#45;&gt;Node29</title>
<path fill="none" stroke="midnightblue" d="M831.107,-454.26C804.518,-433.597 762,-393.312 762,-347 762,-347 762,-347 762,-289 762,-257.589 546.657,-205.836 461.277,-186.552"/>
<polygon fill="midnightblue" stroke="midnightblue" points="829.006,-457.06 839.105,-460.263 833.208,-451.461 829.006,-457.06"/>
</g>
<!-- Node4&#45;&gt;Node31 -->
<g id="edge40" class="edge"><title>Node4&#45;&gt;Node31</title>
<path fill="none" stroke="midnightblue" d="M819.745,-456.788C798.842,-448.453 771.274,-436.66 748,-424 725.477,-411.749 722.501,-404.291 700,-392 673.284,-377.407 640.88,-363.889 619.641,-355.555"/>
<polygon fill="midnightblue" stroke="midnightblue" points="818.544,-460.077 829.132,-460.478 821.105,-453.562 818.544,-460.077"/>
</g>
<!-- Node34 -->
<g id="node34" class="node"><title>Node34</title>
<g id="a_node34"><a xlink:href="_i_plug_a_p_p_8h.html" target="_top" xlink:title="Standalone application base class for an IPlug plug&#45;in, inherits from IPlugBase or IPlugBaseGraphics...">
<polygon fill="white" stroke="black" points="489,-168.5 489,-187.5 557,-187.5 557,-168.5 489,-168.5"/>
<text text-anchor="middle" x="523" y="-175.5" font-family="Helvetica,sans-Serif" font-size="10.00">IPlugAPP.h</text>
</a>
</g>
</g>
<!-- Node4&#45;&gt;Node34 -->
<g id="edge61" class="edge"><title>Node4&#45;&gt;Node34</title>
<path fill="none" stroke="midnightblue" d="M839.651,-452.151C824.273,-429.461 800,-387.27 800,-347 800,-347 800,-347 800,-289 800,-258.205 799.622,-243.758 776,-224 773.896,-222.24 625.585,-196.605 557.046,-184.833"/>
<polygon fill="midnightblue" stroke="midnightblue" points="836.805,-454.188 845.414,-460.363 842.534,-450.167 836.805,-454.188"/>
</g>
<!-- Node4&#45;&gt;Node47 -->
<g id="edge59" class="edge"><title>Node4&#45;&gt;Node47</title>
<path fill="none" stroke="midnightblue" d="M799.807,-459.305C735.272,-447.317 626.855,-427.177 568.702,-416.375"/>
<polygon fill="midnightblue" stroke="midnightblue" points="799.302,-462.771 809.773,-461.156 800.581,-455.888 799.302,-462.771"/>
</g>
<!-- Node6 -->
<g id="node6" class="node"><title>Node6</title>
<g id="a_node6"><a xlink:href="_i_graphics_8h.html" target="_top" xlink:title="The lowest level base class of an IGraphics context. ">
<polygon fill="white" stroke="black" points="994.5,-168.5 994.5,-187.5 1061.5,-187.5 1061.5,-168.5 994.5,-168.5"/>
<text text-anchor="middle" x="1028" y="-175.5" font-family="Helvetica,sans-Serif" font-size="10.00">IGraphics.h</text>
</a>
</g>
</g>
<!-- Node5&#45;&gt;Node6 -->
<g id="edge5" class="edge"><title>Node5&#45;&gt;Node6</title>
<path fill="none" stroke="midnightblue" d="M1089.79,-390.456C1082.3,-380.94 1073.53,-368.434 1068,-356 1040.99,-295.262 1031.33,-214.404 1028.77,-187.854"/>
<polygon fill="midnightblue" stroke="midnightblue" points="1087.15,-392.749 1096.19,-398.267 1092.56,-388.313 1087.15,-392.749"/>
</g>
<!-- Node25 -->
<g id="node25" class="node"><title>Node25</title>
<g id="a_node25"><a xlink:href="_i_graphics_web_8h_source.html" target="_top" xlink:title="IGraphicsWeb.h">
<polygon fill="white" stroke="black" points="1077.5,-336.5 1077.5,-355.5 1164.5,-355.5 1164.5,-336.5 1077.5,-336.5"/>
<text text-anchor="middle" x="1121" y="-343.5" font-family="Helvetica,sans-Serif" font-size="10.00">IGraphicsWeb.h</text>
</a>
</g>
</g>
<!-- Node5&#45;&gt;Node25 -->
<g id="edge29" class="edge"><title>Node5&#45;&gt;Node25</title>
<path fill="none" stroke="midnightblue" d="M1109.24,-388.503C1112.35,-377.527 1116.15,-364.129 1118.57,-355.581"/>
<polygon fill="midnightblue" stroke="midnightblue" points="1105.79,-387.828 1106.44,-398.403 1112.53,-389.736 1105.79,-387.828"/>
</g>
<!-- Node7 -->
<g id="node7" class="node"><title>Node7</title>
<g id="a_node7"><a xlink:href="_i_control_8h.html" target="_top" xlink:title="The lowest level base class of an IGraphics control. ">
<polygon fill="white" stroke="black" points="828.5,-224.5 828.5,-243.5 887.5,-243.5 887.5,-224.5 828.5,-224.5"/>
<text text-anchor="middle" x="858" y="-231.5" font-family="Helvetica,sans-Serif" font-size="10.00">IControl.h</text>
</a>
</g>
</g>
<!-- Node6&#45;&gt;Node7 -->
<g id="edge6" class="edge"><title>Node6&#45;&gt;Node7</title>
<path fill="none" stroke="midnightblue" d="M996.578,-190.788C965.401,-201.211 918.207,-216.121 887.648,-225.148"/>
<polygon fill="midnightblue" stroke="midnightblue" points="997.74,-194.09 1006.1,-187.576 995.502,-187.458 997.74,-194.09"/>
</g>
<!-- Node12 -->
<g id="node12" class="node"><title>Node12</title>
<g id="a_node12"><a xlink:href="_i_graphics_8cpp_source.html" target="_top" xlink:title="IGraphics.cpp">
<polygon fill="white" stroke="black" points="712.5,-112.5 712.5,-131.5 789.5,-131.5 789.5,-112.5 712.5,-112.5"/>
<text text-anchor="middle" x="751" y="-119.5" font-family="Helvetica,sans-Serif" font-size="10.00">IGraphics.cpp</text>
</a>
</g>
</g>
<!-- Node6&#45;&gt;Node12 -->
<g id="edge14" class="edge"><title>Node6&#45;&gt;Node12</title>
<path fill="none" stroke="midnightblue" d="M984.441,-168.508C930.941,-158.079 841.003,-140.546 789.786,-130.561"/>
<polygon fill="midnightblue" stroke="midnightblue" points="983.826,-171.954 994.311,-170.433 985.166,-165.084 983.826,-171.954"/>
</g>
<!-- Node14 -->
<g id="node14" class="node"><title>Node14</title>
<g id="a_node14"><a xlink:href="_i_graphics_a_g_g_8h_source.html" target="_top" xlink:title="IGraphicsAGG.h">
<polygon fill="white" stroke="red" points="1047.5,-112.5 1047.5,-131.5 1136.5,-131.5 1136.5,-112.5 1047.5,-112.5"/>
<text text-anchor="middle" x="1092" y="-119.5" font-family="Helvetica,sans-Serif" font-size="10.00">IGraphicsAGG.h</text>
</a>
</g>
</g>
<!-- Node6&#45;&gt;Node14 -->
<g id="edge15" class="edge"><title>Node6&#45;&gt;Node14</title>
<path fill="none" stroke="midnightblue" d="M1045.99,-161.82C1057.46,-152.145 1071.91,-139.948 1081.53,-131.834"/>
<polygon fill="midnightblue" stroke="midnightblue" points="1043.67,-159.2 1038.28,-168.324 1048.18,-164.55 1043.67,-159.2"/>
</g>
<!-- Node6&#45;&gt;Node15 -->
<g id="edge16" class="edge"><title>Node6&#45;&gt;Node15</title>
<path fill="none" stroke="midnightblue" d="M1064.83,-165.436C1097.26,-155.255 1143.74,-140.664 1172.87,-131.516"/>
<polygon fill="midnightblue" stroke="midnightblue" points="1063.75,-162.109 1055.25,-168.444 1065.84,-168.787 1063.75,-162.109"/>
</g>
<!-- Node6&#45;&gt;Node17 -->
<g id="edge18" class="edge"><title>Node6&#45;&gt;Node17</title>
<path fill="none" stroke="midnightblue" d="M1014.98,-159.855C1007.88,-150.505 999.396,-139.327 993.644,-131.751"/>
<polygon fill="midnightblue" stroke="midnightblue" points="1012.39,-162.235 1021.23,-168.083 1017.97,-158.002 1012.39,-162.235"/>
</g>
<!-- Node6&#45;&gt;Node22 -->
<g id="edge26" class="edge"><title>Node6&#45;&gt;Node22</title>
<path fill="none" stroke="midnightblue" d="M1071.63,-168.791C1125.11,-158.729 1215.29,-141.761 1269.57,-131.548"/>
<polygon fill="midnightblue" stroke="midnightblue" points="1070.95,-165.358 1061.77,-170.647 1072.24,-172.237 1070.95,-165.358"/>
</g>
<!-- Node24 -->
<g id="node24" class="node"><title>Node24</title>
<g id="a_node24"><a xlink:href="_i_plug_base_graphics_8cpp_source.html" target="_top" xlink:title="IPlugBaseGraphics.cpp">
<polygon fill="white" stroke="black" points="807.5,-112.5 807.5,-131.5 926.5,-131.5 926.5,-112.5 807.5,-112.5"/>
<text text-anchor="middle" x="867" y="-119.5" font-family="Helvetica,sans-Serif" font-size="10.00">IPlugBaseGraphics.cpp</text>
</a>
</g>
</g>
<!-- Node6&#45;&gt;Node24 -->
<g id="edge28" class="edge"><title>Node6&#45;&gt;Node24</title>
<path fill="none" stroke="midnightblue" d="M992.735,-165.172C962.419,-155.004 919.43,-140.585 892.392,-131.516"/>
<polygon fill="midnightblue" stroke="midnightblue" points="991.895,-168.582 1002.49,-168.444 994.121,-161.945 991.895,-168.582"/>
</g>
<!-- Node7&#45;&gt;Node6 -->
<g id="edge8" class="edge"><title>Node7&#45;&gt;Node6</title>
<path fill="none" stroke="midnightblue" d="M889.54,-221.172C919.964,-211.004 965.561,-196.585 996.109,-187.516"/>
<polygon fill="midnightblue" stroke="midnightblue" points="888.204,-217.929 879.848,-224.444 890.442,-224.562 888.204,-217.929"/>
</g>
<!-- Node8 -->
<g id="node8" class="node"><title>Node8</title>
<g id="a_node8"><a xlink:href="_i_control_8cpp_source.html" target="_top" xlink:title="IControl.cpp">
<polygon fill="white" stroke="black" points="710,-168.5 710,-187.5 780,-187.5 780,-168.5 710,-168.5"/>
<text text-anchor="middle" x="745" y="-175.5" font-family="Helvetica,sans-Serif" font-size="10.00">IControl.cpp</text>
</a>
</g>
</g>
<!-- Node7&#45;&gt;Node8 -->
<g id="edge7" class="edge"><title>Node7&#45;&gt;Node8</title>
<path fill="none" stroke="midnightblue" d="M830.997,-220.096C809.886,-210.007 781.138,-196.27 762.821,-187.516"/>
<polygon fill="midnightblue" stroke="midnightblue" points="829.563,-223.29 840.095,-224.444 832.581,-216.974 829.563,-223.29"/>
</g>
<!-- Node9 -->
<g id="node9" class="node"><title>Node9</title>
<g id="a_node9"><a xlink:href="_i_controls_8h.html" target="_top" xlink:title="A collection of IControls for common UI widgets, such as knobs, sliders, switches. ">
<polygon fill="white" stroke="black" points="586.5,-168.5 586.5,-187.5 651.5,-187.5 651.5,-168.5 586.5,-168.5"/>
<text text-anchor="middle" x="619" y="-175.5" font-family="Helvetica,sans-Serif" font-size="10.00">IControls.h</text>
</a>
</g>
</g>
<!-- Node7&#45;&gt;Node9 -->
<g id="edge9" class="edge"><title>Node7&#45;&gt;Node9</title>
<path fill="none" stroke="midnightblue" d="M818.174,-224.002C771.557,-213.469 695.226,-196.223 651.847,-186.422"/>
<polygon fill="midnightblue" stroke="midnightblue" points="817.688,-227.48 828.214,-226.27 819.231,-220.652 817.688,-227.48"/>
</g>
<!-- Node11 -->
<g id="node11" class="node"><title>Node11</title>
<g id="a_node11"><a xlink:href="_i_graphics_live_edit_8h_source.html" target="_top" xlink:title="IGraphicsLiveEdit.h">
<polygon fill="white" stroke="black" points="798,-168.5 798,-187.5 900,-187.5 900,-168.5 798,-168.5"/>
<text text-anchor="middle" x="849" y="-175.5" font-family="Helvetica,sans-Serif" font-size="10.00">IGraphicsLiveEdit.h</text>
</a>
</g>
</g>
<!-- Node7&#45;&gt;Node11 -->
<g id="edge11" class="edge"><title>Node7&#45;&gt;Node11</title>
<path fill="none" stroke="midnightblue" d="M854.85,-214.101C853.356,-205.136 851.643,-194.858 850.459,-187.751"/>
<polygon fill="midnightblue" stroke="midnightblue" points="851.417,-214.794 856.514,-224.083 858.322,-213.644 851.417,-214.794"/>
</g>
<!-- Node13 -->
<g id="node13" class="node"><title>Node13</title>
<g id="a_node13"><a xlink:href="_i_graphics_mac_8mm_source.html" target="_top" xlink:title="IGraphicsMac.mm">
<polygon fill="white" stroke="black" points="769.5,-0.5 769.5,-19.5 866.5,-19.5 866.5,-0.5 769.5,-0.5"/>
<text text-anchor="middle" x="818" y="-7.5" font-family="Helvetica,sans-Serif" font-size="10.00">IGraphicsMac.mm</text>
</a>
</g>
</g>
<!-- Node7&#45;&gt;Node13 -->
<g id="edge13" class="edge"><title>Node7&#45;&gt;Node13</title>
<path fill="none" stroke="midnightblue" d="M818.306,-224.228C774.203,-214.084 708.204,-197.558 701,-188 694.042,-178.768 686.49,-147.076 703,-112 723.935,-67.5223 774.669,-34.5833 801.2,-19.7337"/>
<polygon fill="midnightblue" stroke="midnightblue" points="817.648,-227.668 828.175,-226.476 819.202,-220.843 817.648,-227.668"/>
</g>
<!-- Node10 -->
<g id="node10" class="node"><title>Node10</title>
<g id="a_node10"><a xlink:href="_i_controls_8cpp_source.html" target="_top" xlink:title="IControls.cpp">
<polygon fill="white" stroke="black" points="580.5,-112.5 580.5,-131.5 655.5,-131.5 655.5,-112.5 580.5,-112.5"/>
<text text-anchor="middle" x="618" y="-119.5" font-family="Helvetica,sans-Serif" font-size="10.00">IControls.cpp</text>
</a>
</g>
</g>
<!-- Node9&#45;&gt;Node10 -->
<g id="edge10" class="edge"><title>Node9&#45;&gt;Node10</title>
<path fill="none" stroke="midnightblue" d="M618.645,-157.805C618.48,-148.91 618.292,-138.78 618.162,-131.751"/>
<polygon fill="midnightblue" stroke="midnightblue" points="615.15,-158.15 618.835,-168.083 622.149,-158.02 615.15,-158.15"/>
</g>
<!-- Node11&#45;&gt;Node12 -->
<g id="edge12" class="edge"><title>Node11&#45;&gt;Node12</title>
<path fill="none" stroke="midnightblue" d="M824.414,-163.453C806.322,-153.483 782.265,-140.228 766.706,-131.655"/>
<polygon fill="midnightblue" stroke="midnightblue" points="822.807,-166.563 833.255,-168.324 826.185,-160.432 822.807,-166.563"/>
</g>
<!-- Node16 -->
<g id="node16" class="node"><title>Node16</title>
<g id="a_node16"><a xlink:href="_i_graphics_cairo_8cpp_source.html" target="_top" xlink:title="IGraphicsCairo.cpp">
<polygon fill="white" stroke="black" points="1143.5,-56.5 1143.5,-75.5 1244.5,-75.5 1244.5,-56.5 1143.5,-56.5"/>
<text text-anchor="middle" x="1194" y="-63.5" font-family="Helvetica,sans-Serif" font-size="10.00">IGraphicsCairo.cpp</text>
</a>
</g>
</g>
<!-- Node15&#45;&gt;Node16 -->
<g id="edge17" class="edge"><title>Node15&#45;&gt;Node16</title>
<path fill="none" stroke="midnightblue" d="M1197.9,-102.101C1196.9,-93.1357 1195.76,-82.8579 1194.97,-75.7511"/>
<polygon fill="midnightblue" stroke="midnightblue" points="1194.43,-102.531 1199.01,-112.083 1201.38,-101.758 1194.43,-102.531"/>
</g>
<!-- Node18 -->
<g id="node18" class="node"><title>Node18</title>
<g id="a_node18"><a xlink:href="_i_graphics_lice_8cpp_source.html" target="_top" xlink:title="IGraphicsLice.cpp">
<polygon fill="white" stroke="black" points="879.5,-56.5 879.5,-75.5 974.5,-75.5 974.5,-56.5 879.5,-56.5"/>
<text text-anchor="middle" x="927" y="-63.5" font-family="Helvetica,sans-Serif" font-size="10.00">IGraphicsLice.cpp</text>
</a>
</g>
</g>
<!-- Node17&#45;&gt;Node18 -->
<g id="edge19" class="edge"><title>Node17&#45;&gt;Node18</title>
<path fill="none" stroke="midnightblue" d="M969.819,-105.537C959.121,-95.9087 945.744,-83.8694 936.815,-75.8339"/>
<polygon fill="midnightblue" stroke="midnightblue" points="967.586,-108.236 977.36,-112.324 972.268,-103.033 967.586,-108.236"/>
</g>
<!-- Node20 -->
<g id="node20" class="node"><title>Node20</title>
<g id="a_node20"><a xlink:href="_i_graphics_mac_8h_source.html" target="_top" xlink:title="IGraphicsMac.h">
<polygon fill="white" stroke="red" points="775,-56.5 775,-75.5 861,-75.5 861,-56.5 775,-56.5"/>
<text text-anchor="middle" x="818" y="-63.5" font-family="Helvetica,sans-Serif" font-size="10.00">IGraphicsMac.h</text>
</a>
</g>
</g>
<!-- Node17&#45;&gt;Node20 -->
<g id="edge22" class="edge"><title>Node17&#45;&gt;Node20</title>
<path fill="none" stroke="midnightblue" d="M950.397,-109.304C918.553,-99.1294 873.158,-84.6246 844.653,-75.5164"/>
<polygon fill="midnightblue" stroke="midnightblue" points="949.631,-112.734 960.221,-112.444 951.761,-106.066 949.631,-112.734"/>
</g>
<!-- Node21 -->
<g id="node21" class="node"><title>Node21</title>
<g id="a_node21"><a xlink:href="_i_graphics_win_8h_source.html" target="_top" xlink:title="IGraphicsWin.h">
<polygon fill="white" stroke="black" points="993,-56.5 993,-75.5 1077,-75.5 1077,-56.5 993,-56.5"/>
<text text-anchor="middle" x="1035" y="-63.5" font-family="Helvetica,sans-Serif" font-size="10.00">IGraphicsWin.h</text>
</a>
</g>
</g>
<!-- Node17&#45;&gt;Node21 -->
<g id="edge24" class="edge"><title>Node17&#45;&gt;Node21</title>
<path fill="none" stroke="midnightblue" d="M1001.73,-104.431C1010.14,-94.9673 1020.35,-83.4827 1027.22,-75.7511"/>
<polygon fill="midnightblue" stroke="midnightblue" points="998.954,-102.284 994.926,-112.083 1004.19,-106.934 998.954,-102.284"/>
</g>
<!-- Node18&#45;&gt;Node13 -->
<g id="edge20" class="edge"><title>Node18&#45;&gt;Node13</title>
<path fill="none" stroke="midnightblue" d="M900.481,-51.8622C880.27,-41.8492 853.013,-28.3458 835.469,-19.6545"/>
<polygon fill="midnightblue" stroke="midnightblue" points="898.973,-55.0209 909.487,-56.324 902.08,-48.7485 898.973,-55.0209"/>
</g>
<!-- Node19 -->
<g id="node19" class="node"><title>Node19</title>
<g id="a_node19"><a xlink:href="_i_graphics_win_8cpp_source.html" target="_top" xlink:title="IGraphicsWin.cpp">
<polygon fill="white" stroke="black" points="935.5,-0.5 935.5,-19.5 1030.5,-19.5 1030.5,-0.5 935.5,-0.5"/>
<text text-anchor="middle" x="983" y="-7.5" font-family="Helvetica,sans-Serif" font-size="10.00">IGraphicsWin.cpp</text>
</a>
</g>
</g>
<!-- Node18&#45;&gt;Node19 -->
<g id="edge21" class="edge"><title>Node18&#45;&gt;Node19</title>
<path fill="none" stroke="midnightblue" d="M943.33,-49.2533C953.265,-39.6731 965.588,-27.7906 973.839,-19.8339"/>
<polygon fill="midnightblue" stroke="midnightblue" points="940.766,-46.8631 935.997,-56.324 945.625,-51.902 940.766,-46.8631"/>
</g>
<!-- Node20&#45;&gt;Node13 -->
<g id="edge23" class="edge"><title>Node20&#45;&gt;Node13</title>
<path fill="none" stroke="midnightblue" d="M818,-45.8045C818,-36.9102 818,-26.7798 818,-19.7511"/>
<polygon fill="midnightblue" stroke="midnightblue" points="814.5,-46.083 818,-56.083 821.5,-46.083 814.5,-46.083"/>
</g>
<!-- Node21&#45;&gt;Node19 -->
<g id="edge25" class="edge"><title>Node21&#45;&gt;Node19</title>
<path fill="none" stroke="midnightblue" d="M1019.32,-48.7175C1010.16,-39.1997 998.947,-27.5608 991.427,-19.7511"/>
<polygon fill="midnightblue" stroke="midnightblue" points="1016.96,-51.3075 1026.41,-56.083 1022,-46.452 1016.96,-51.3075"/>
</g>
<!-- Node23 -->
<g id="node23" class="node"><title>Node23</title>
<g id="a_node23"><a xlink:href="_i_graphics_nano_v_g_8cpp_source.html" target="_top" xlink:title="IGraphicsNanoVG.cpp">
<polygon fill="white" stroke="black" points="1262.5,-56.5 1262.5,-75.5 1377.5,-75.5 1377.5,-56.5 1262.5,-56.5"/>
<text text-anchor="middle" x="1320" y="-63.5" font-family="Helvetica,sans-Serif" font-size="10.00">IGraphicsNanoVG.cpp</text>
</a>
</g>
</g>
<!-- Node22&#45;&gt;Node23 -->
<g id="edge27" class="edge"><title>Node22&#45;&gt;Node23</title>
<path fill="none" stroke="midnightblue" d="M1316.75,-102.101C1317.58,-93.1357 1318.53,-82.8579 1319.19,-75.7511"/>
<polygon fill="midnightblue" stroke="midnightblue" points="1313.26,-101.803 1315.83,-112.083 1320.23,-102.448 1313.26,-101.803"/>
</g>
<!-- Node26 -->
<g id="node26" class="node"><title>Node26</title>
<g id="a_node26"><a xlink:href="_i_graphics_web_8cpp_source.html" target="_top" xlink:title="IGraphicsWeb.cpp">
<polygon fill="white" stroke="black" points="1074,-280.5 1074,-299.5 1172,-299.5 1172,-280.5 1074,-280.5"/>
<text text-anchor="middle" x="1123" y="-287.5" font-family="Helvetica,sans-Serif" font-size="10.00">IGraphicsWeb.cpp</text>
</a>
</g>
</g>
<!-- Node25&#45;&gt;Node26 -->
<g id="edge30" class="edge"><title>Node25&#45;&gt;Node26</title>
<path fill="none" stroke="midnightblue" d="M1121.71,-325.805C1122.04,-316.91 1122.42,-306.78 1122.68,-299.751"/>
<polygon fill="midnightblue" stroke="midnightblue" points="1118.2,-325.96 1121.33,-336.083 1125.2,-326.219 1118.2,-325.96"/>
</g>
<!-- Node27&#45;&gt;Node6 -->
<g id="edge32" class="edge"><title>Node27&#45;&gt;Node6</title>
<path fill="none" stroke="midnightblue" d="M975.613,-326.395C988.34,-290.585 1015.79,-213.342 1024.95,-187.568"/>
<polygon fill="midnightblue" stroke="midnightblue" points="972.223,-325.48 972.172,-336.075 978.819,-327.825 972.223,-325.48"/>
</g>
<!-- Node30 -->
<g id="node30" class="node"><title>Node30</title>
<g id="a_node30"><a xlink:href="_i_plug_a_a_x_8cpp_source.html" target="_top" xlink:title="IPlugAAX.cpp">
<polygon fill="white" stroke="black" points="388,-112.5 388,-131.5 466,-131.5 466,-112.5 388,-112.5"/>
<text text-anchor="middle" x="427" y="-119.5" font-family="Helvetica,sans-Serif" font-size="10.00">IPlugAAX.cpp</text>
</a>
</g>
</g>
<!-- Node29&#45;&gt;Node30 -->
<g id="edge39" class="edge"><title>Node29&#45;&gt;Node30</title>
<path fill="none" stroke="midnightblue" d="M427,-157.805C427,-148.91 427,-138.78 427,-131.751"/>
<polygon fill="midnightblue" stroke="midnightblue" points="423.5,-158.083 427,-168.083 430.5,-158.083 423.5,-158.083"/>
</g>
<!-- Node32 -->
<g id="node32" class="node"><title>Node32</title>
<g id="a_node32"><a xlink:href="_i_plug_base_graphics_8h.html" target="_top" xlink:title="An IPlugBase class for an IPlug plug&#45;in that uses IGraphics for it&#39;s UI. ">
<polygon fill="white" stroke="black" points="828.5,-280.5 828.5,-299.5 937.5,-299.5 937.5,-280.5 828.5,-280.5"/>
<text text-anchor="middle" x="883" y="-287.5" font-family="Helvetica,sans-Serif" font-size="10.00">IPlugBaseGraphics.h</text>
</a>
</g>
</g>
<!-- Node31&#45;&gt;Node32 -->
<g id="edge41" class="edge"><title>Node31&#45;&gt;Node32</title>
<path fill="none" stroke="midnightblue" d="M641.948,-336.513C695.411,-326.419 784.142,-309.665 837.742,-299.545"/>
<polygon fill="midnightblue" stroke="midnightblue" points="641.246,-333.084 632.069,-338.379 642.545,-339.962 641.246,-333.084"/>
</g>
<!-- Node44 -->
<g id="node44" class="node"><title>Node44</title>
<g id="a_node44"><a xlink:href="_i_plug_a_u___view_factory_8mm_source.html" target="_top" xlink:title="IPlugAU_ViewFactory.mm">
<polygon fill="white" stroke="black" points="600.5,-280.5 600.5,-299.5 733.5,-299.5 733.5,-280.5 600.5,-280.5"/>
<text text-anchor="middle" x="667" y="-287.5" font-family="Helvetica,sans-Serif" font-size="10.00">IPlugAU_ViewFactory.mm</text>
</a>
</g>
</g>
<!-- Node31&#45;&gt;Node44 -->
<g id="edge56" class="edge"><title>Node31&#45;&gt;Node44</title>
<path fill="none" stroke="midnightblue" d="M616.314,-330.101C628.912,-320.382 644.928,-308.027 655.549,-299.834"/>
<polygon fill="midnightblue" stroke="midnightblue" points="614.027,-327.445 608.247,-336.324 618.302,-332.987 614.027,-327.445"/>
</g>
<!-- Node45 -->
<g id="node45" class="node"><title>Node45</title>
<g id="a_node45"><a xlink:href="_i_plug_base_8cpp_source.html" target="_top" xlink:title="IPlugBase.cpp">
<polygon fill="white" stroke="black" points="412,-280.5 412,-299.5 492,-299.5 492,-280.5 412,-280.5"/>
<text text-anchor="middle" x="452" y="-287.5" font-family="Helvetica,sans-Serif" font-size="10.00">IPlugBase.cpp</text>
</a>
</g>
</g>
<!-- Node31&#45;&gt;Node45 -->
<g id="edge57" class="edge"><title>Node31&#45;&gt;Node45</title>
<path fill="none" stroke="midnightblue" d="M564.525,-332.906C537.264,-322.754 499.008,-308.506 474.868,-299.516"/>
<polygon fill="midnightblue" stroke="midnightblue" points="563.432,-336.233 574.024,-336.444 565.875,-329.674 563.432,-336.233"/>
</g>
<!-- Node46 -->
<g id="node46" class="node"><title>Node46</title>
<g id="a_node46"><a xlink:href="_i_plug_w_a_m_8h_source.html" target="_top" xlink:title="IPlugWAM.h">
<polygon fill="white" stroke="black" points="510,-280.5 510,-299.5 582,-299.5 582,-280.5 510,-280.5"/>
<text text-anchor="middle" x="546" y="-287.5" font-family="Helvetica,sans-Serif" font-size="10.00">IPlugWAM.h</text>
</a>
</g>
</g>
<!-- Node31&#45;&gt;Node46 -->
<g id="edge58" class="edge"><title>Node31&#45;&gt;Node46</title>
<path fill="none" stroke="midnightblue" d="M581.622,-328.718C572.633,-319.2 561.641,-307.561 554.265,-299.751"/>
<polygon fill="midnightblue" stroke="midnightblue" points="579.168,-331.216 588.578,-336.083 584.257,-326.41 579.168,-331.216"/>
</g>
<!-- Node32&#45;&gt;Node7 -->
<g id="edge42" class="edge"><title>Node32&#45;&gt;Node7</title>
<path fill="none" stroke="midnightblue" d="M874.659,-270.983C870.415,-261.817 865.45,-251.092 862.051,-243.751"/>
<polygon fill="midnightblue" stroke="midnightblue" points="871.494,-272.479 878.872,-280.083 877.847,-269.538 871.494,-272.479"/>
</g>
<!-- Node32&#45;&gt;Node24 -->
<g id="edge55" class="edge"><title>Node32&#45;&gt;Node24</title>
<path fill="none" stroke="midnightblue" d="M892.818,-271.199C904.728,-247.132 921.623,-203.181 908,-168 902.122,-152.822 888.479,-139.621 878.541,-131.51"/>
<polygon fill="midnightblue" stroke="midnightblue" points="889.639,-269.726 888.122,-280.212 895.847,-272.961 889.639,-269.726"/>
</g>
<!-- Node33 -->
<g id="node33" class="node"><title>Node33</title>
<g id="a_node33"><a xlink:href="_i_plug_base__select_8h_source.html" target="_top" xlink:title="IPlugBase_select.h">
<polygon fill="white" stroke="black" points="277.5,-224.5 277.5,-243.5 378.5,-243.5 378.5,-224.5 277.5,-224.5"/>
<text text-anchor="middle" x="328" y="-231.5" font-family="Helvetica,sans-Serif" font-size="10.00">IPlugBase_select.h</text>
</a>
</g>
</g>
<!-- Node32&#45;&gt;Node33 -->
<g id="edge43" class="edge"><title>Node32&#45;&gt;Node33</title>
<path fill="none" stroke="midnightblue" d="M818.142,-282.689C706.385,-271.816 479.802,-249.77 378.695,-239.933"/>
<polygon fill="midnightblue" stroke="midnightblue" points="817.974,-286.19 828.266,-283.674 818.652,-279.222 817.974,-286.19"/>
</g>
<!-- Node33&#45;&gt;Node29 -->
<g id="edge44" class="edge"><title>Node33&#45;&gt;Node29</title>
<path fill="none" stroke="midnightblue" d="M352.837,-219.453C371.114,-209.483 395.416,-196.228 411.133,-187.655"/>
<polygon fill="midnightblue" stroke="midnightblue" points="351.009,-216.463 343.906,-224.324 354.361,-222.608 351.009,-216.463"/>
</g>
<!-- Node33&#45;&gt;Node34 -->
<g id="edge45" class="edge"><title>Node33&#45;&gt;Node34</title>
<path fill="none" stroke="midnightblue" d="M368.81,-221.699C405.613,-211.507 458.929,-196.743 492.246,-187.516"/>
<polygon fill="midnightblue" stroke="midnightblue" points="367.602,-218.402 358.898,-224.444 369.47,-225.148 367.602,-218.402"/>
</g>
<!-- Node36 -->
<g id="node36" class="node"><title>Node36</title>
<g id="a_node36"><a xlink:href="_i_plug_a_u_8h.html" target="_top" xlink:title="AudioUnit v2 API base class for an IPlug plug&#45;in, inherits from IPlugBase or IPlugBaseGraphics. ">
<polygon fill="white" stroke="black" points="207,-168.5 207,-187.5 269,-187.5 269,-168.5 207,-168.5"/>
<text text-anchor="middle" x="238" y="-175.5" font-family="Helvetica,sans-Serif" font-size="10.00">IPlugAU.h</text>
</a>
</g>
</g>
<!-- Node33&#45;&gt;Node36 -->
<g id="edge47" class="edge"><title>Node33&#45;&gt;Node36</title>
<path fill="none" stroke="midnightblue" d="M304.962,-219.177C288.401,-209.241 266.582,-196.149 252.424,-187.655"/>
<polygon fill="midnightblue" stroke="midnightblue" points="303.164,-222.18 313.54,-224.324 306.766,-216.178 303.164,-222.18"/>
</g>
<!-- Node38 -->
<g id="node38" class="node"><title>Node38</title>
<g id="a_node38"><a xlink:href="_i_plug_a_uv3_8h_source.html" target="_top" xlink:title="IPlugAUv3.h">
<polygon fill="white" stroke="black" points="292,-168.5 292,-187.5 364,-187.5 364,-168.5 292,-168.5"/>
<text text-anchor="middle" x="328" y="-175.5" font-family="Helvetica,sans-Serif" font-size="10.00">IPlugAUv3.h</text>
</a>
</g>
</g>
<!-- Node33&#45;&gt;Node38 -->
<g id="edge49" class="edge"><title>Node33&#45;&gt;Node38</title>
<path fill="none" stroke="midnightblue" d="M328,-213.805C328,-204.91 328,-194.78 328,-187.751"/>
<polygon fill="midnightblue" stroke="midnightblue" points="324.5,-214.083 328,-224.083 331.5,-214.083 324.5,-214.083"/>
</g>
<!-- Node40 -->
<g id="node40" class="node"><title>Node40</title>
<g id="a_node40"><a xlink:href="_i_plug_v_s_t_8h.html" target="_top" xlink:title="VST2.4 API base class for an IPlug plug&#45;in, inherits from IPlugBase or IPlugBaseGraphics. ">
<polygon fill="white" stroke="black" points="17.5,-168.5 17.5,-187.5 84.5,-187.5 84.5,-168.5 17.5,-168.5"/>
<text text-anchor="middle" x="51" y="-175.5" font-family="Helvetica,sans-Serif" font-size="10.00">IPlugVST.h</text>
</a>
</g>
</g>
<!-- Node33&#45;&gt;Node40 -->
<g id="edge51" class="edge"><title>Node33&#45;&gt;Node40</title>
<path fill="none" stroke="midnightblue" d="M273.993,-222.472C217.864,-211.53 131.772,-194.746 84.666,-185.563"/>
<polygon fill="midnightblue" stroke="midnightblue" points="273.624,-225.965 284.109,-224.444 274.963,-219.095 273.624,-225.965"/>
</g>
<!-- Node42 -->
<g id="node42" class="node"><title>Node42</title>
<g id="a_node42"><a xlink:href="_i_plug_v_s_t3_8h.html" target="_top" xlink:title="VST3 base class for an IPlug plug&#45;in, inherits from IPlugBase or IPlugBaseGraphics. ">
<polygon fill="white" stroke="black" points="108,-168.5 108,-187.5 180,-187.5 180,-168.5 108,-168.5"/>
<text text-anchor="middle" x="144" y="-175.5" font-family="Helvetica,sans-Serif" font-size="10.00">IPlugVST3.h</text>
</a>
</g>
</g>
<!-- Node33&#45;&gt;Node42 -->
<g id="edge53" class="edge"><title>Node33&#45;&gt;Node42</title>
<path fill="none" stroke="midnightblue" d="M289.046,-221.568C254.335,-211.381 204.323,-196.703 173.019,-187.516"/>
<polygon fill="midnightblue" stroke="midnightblue" points="288.264,-224.986 298.845,-224.444 290.235,-218.269 288.264,-224.986"/>
</g>
<!-- Node35 -->
<g id="node35" class="node"><title>Node35</title>
<g id="a_node35"><a xlink:href="_i_plug_a_p_p_8cpp_source.html" target="_top" xlink:title="IPlugAPP.cpp">
<polygon fill="white" stroke="black" points="484,-112.5 484,-131.5 562,-131.5 562,-112.5 484,-112.5"/>
<text text-anchor="middle" x="523" y="-119.5" font-family="Helvetica,sans-Serif" font-size="10.00">IPlugAPP.cpp</text>
</a>
</g>
</g>
<!-- Node34&#45;&gt;Node35 -->
<g id="edge46" class="edge"><title>Node34&#45;&gt;Node35</title>
<path fill="none" stroke="midnightblue" d="M523,-157.805C523,-148.91 523,-138.78 523,-131.751"/>
<polygon fill="midnightblue" stroke="midnightblue" points="519.5,-158.083 523,-168.083 526.5,-158.083 519.5,-158.083"/>
</g>
<!-- Node37 -->
<g id="node37" class="node"><title>Node37</title>
<g id="a_node37"><a xlink:href="_i_plug_a_u_8cpp_source.html" target="_top" xlink:title="IPlugAU.cpp">
<polygon fill="white" stroke="black" points="196,-112.5 196,-131.5 268,-131.5 268,-112.5 196,-112.5"/>
<text text-anchor="middle" x="232" y="-119.5" font-family="Helvetica,sans-Serif" font-size="10.00">IPlugAU.cpp</text>
</a>
</g>
</g>
<!-- Node36&#45;&gt;Node37 -->
<g id="edge48" class="edge"><title>Node36&#45;&gt;Node37</title>
<path fill="none" stroke="midnightblue" d="M235.9,-158.101C234.904,-149.136 233.762,-138.858 232.972,-131.751"/>
<polygon fill="midnightblue" stroke="midnightblue" points="232.426,-158.531 237.009,-168.083 239.383,-157.758 232.426,-158.531"/>
</g>
<!-- Node39 -->
<g id="node39" class="node"><title>Node39</title>
<g id="a_node39"><a xlink:href="_i_plug_a_uv3_8mm_source.html" target="_top" xlink:title="IPlugAUv3.mm">
<polygon fill="white" stroke="black" points="286.5,-112.5 286.5,-131.5 369.5,-131.5 369.5,-112.5 286.5,-112.5"/>
<text text-anchor="middle" x="328" y="-119.5" font-family="Helvetica,sans-Serif" font-size="10.00">IPlugAUv3.mm</text>
</a>
</g>
</g>
<!-- Node38&#45;&gt;Node39 -->
<g id="edge50" class="edge"><title>Node38&#45;&gt;Node39</title>
<path fill="none" stroke="midnightblue" d="M328,-157.805C328,-148.91 328,-138.78 328,-131.751"/>
<polygon fill="midnightblue" stroke="midnightblue" points="324.5,-158.083 328,-168.083 331.5,-158.083 324.5,-158.083"/>
</g>
<!-- Node41 -->
<g id="node41" class="node"><title>Node41</title>
<g id="a_node41"><a xlink:href="_i_plug_v_s_t_8cpp_source.html" target="_top" xlink:title="IPlugVST.cpp">
<polygon fill="white" stroke="black" points="-0.5,-112.5 -0.5,-131.5 76.5,-131.5 76.5,-112.5 -0.5,-112.5"/>
<text text-anchor="middle" x="38" y="-119.5" font-family="Helvetica,sans-Serif" font-size="10.00">IPlugVST.cpp</text>
</a>
</g>
</g>
<!-- Node40&#45;&gt;Node41 -->
<g id="edge52" class="edge"><title>Node40&#45;&gt;Node41</title>
<path fill="none" stroke="midnightblue" d="M46.4501,-158.101C44.2919,-149.136 41.8176,-138.858 40.1067,-131.751"/>
<polygon fill="midnightblue" stroke="midnightblue" points="43.1099,-159.18 48.8533,-168.083 49.9155,-157.542 43.1099,-159.18"/>
</g>
<!-- Node43 -->
<g id="node43" class="node"><title>Node43</title>
<g id="a_node43"><a xlink:href="_i_plug_v_s_t3_8cpp_source.html" target="_top" xlink:title="IPlugVST3.cpp">
<polygon fill="white" stroke="black" points="94.5,-112.5 94.5,-131.5 177.5,-131.5 177.5,-112.5 94.5,-112.5"/>
<text text-anchor="middle" x="136" y="-119.5" font-family="Helvetica,sans-Serif" font-size="10.00">IPlugVST3.cpp</text>
</a>
</g>
</g>
<!-- Node42&#45;&gt;Node43 -->
<g id="edge54" class="edge"><title>Node42&#45;&gt;Node43</title>
<path fill="none" stroke="midnightblue" d="M141.2,-158.101C139.872,-149.136 138.349,-138.858 137.296,-131.751"/>
<polygon fill="midnightblue" stroke="midnightblue" points="137.751,-158.704 142.679,-168.083 144.676,-157.678 137.751,-158.704"/>
</g>
<!-- Node47&#45;&gt;Node31 -->
<g id="edge60" class="edge"><title>Node47&#45;&gt;Node31</title>
<path fill="none" stroke="midnightblue" d="M546.543,-391.521C559.508,-380.082 576.679,-364.93 587.275,-355.581"/>
<polygon fill="midnightblue" stroke="midnightblue" points="543.925,-389.163 538.743,-398.403 548.557,-394.412 543.925,-389.163"/>
</g>
<!-- Node48&#45;&gt;Node47 -->
<g id="edge63" class="edge"><title>Node48&#45;&gt;Node47</title>
<path fill="none" stroke="midnightblue" d="M564.378,-506.711C555.165,-481.267 538.851,-436.208 532.079,-417.505"/>
<polygon fill="midnightblue" stroke="midnightblue" points="561.148,-508.07 567.843,-516.281 567.73,-505.687 561.148,-508.07"/>
</g>
<!-- Node49&#45;&gt;Node31 -->
<g id="edge66" class="edge"><title>Node49&#45;&gt;Node31</title>
<path fill="none" stroke="midnightblue" d="M639.573,-511.589C627.056,-504.129 613.512,-493.58 606,-480 583.036,-438.485 591.079,-378.172 595.195,-355.789"/>
<polygon fill="midnightblue" stroke="midnightblue" points="637.96,-514.696 648.404,-516.474 641.348,-508.571 637.96,-514.696"/>
</g>
<!-- Node50 -->
<g id="node50" class="node"><title>Node50</title>
<g id="a_node50"><a xlink:href="_i_plug_parameter_8cpp_source.html" target="_top" xlink:title="IPlugParameter.cpp">
<polygon fill="white" stroke="black" points="615.5,-460.5 615.5,-479.5 718.5,-479.5 718.5,-460.5 615.5,-460.5"/>
<text text-anchor="middle" x="667" y="-467.5" font-family="Helvetica,sans-Serif" font-size="10.00">IPlugParameter.cpp</text>
</a>
</g>
</g>
<!-- Node49&#45;&gt;Node50 -->
<g id="edge67" class="edge"><title>Node49&#45;&gt;Node50</title>
<path fill="none" stroke="midnightblue" d="M667.645,-505.805C667.48,-496.91 667.292,-486.78 667.162,-479.751"/>
<polygon fill="midnightblue" stroke="midnightblue" points="664.15,-506.15 667.835,-516.083 671.149,-506.02 664.15,-506.15"/>
</g>
</g>
</svg>
