<?xml version="1.0" encoding="UTF-8" standalone="no"?>
<!DOCTYPE svg PUBLIC "-//W3C//DTD SVG 1.1//EN"
 "http://www.w3.org/Graphics/SVG/1.1/DTD/svg11.dtd">
<!-- Generated by graphviz version 2.36.0 (20140111.2315)
 -->
<!-- Title: IPlugUtilities.h Pages: 1 -->
<svg width="545pt" height="196pt"
 viewBox="0.00 0.00 545.00 196.00" xmlns="http://www.w3.org/2000/svg" xmlns:xlink="http://www.w3.org/1999/xlink">
<g id="graph0" class="graph" transform="scale(1 1) rotate(0) translate(4 192)">
<title>IPlugUtilities.h</title>
<polygon fill="white" stroke="none" points="-4,4 -4,-192 541,-192 541,4 -4,4"/>
<!-- Node1 -->
<g id="node1" class="node"><title>Node1</title>
<polygon fill="#bfbfbf" stroke="black" points="143,-168.5 143,-187.5 223,-187.5 223,-168.5 143,-168.5"/>
<text text-anchor="middle" x="183" y="-175.5" font-family="Helvetica,sans-Serif" font-size="10.00">IPlugUtilities.h</text>
</g>
<!-- Node2 -->
<g id="node2" class="node"><title>Node2</title>
<polygon fill="white" stroke="#bfbfbf" points="0,-112.5 0,-131.5 44,-131.5 44,-112.5 0,-112.5"/>
<text text-anchor="middle" x="22" y="-119.5" font-family="Helvetica,sans-Serif" font-size="10.00">cmath</text>
</g>
<!-- Node1&#45;&gt;Node2 -->
<g id="edge1" class="edge"><title>Node1&#45;&gt;Node2</title>
<path fill="none" stroke="midnightblue" d="M157.489,-168.444C129.448,-159.038 84.3553,-143.914 53.974,-133.724"/>
<polygon fill="midnightblue" stroke="midnightblue" points="54.8746,-130.335 44.2807,-130.473 52.6486,-136.971 54.8746,-130.335"/>
</g>
<!-- Node3 -->
<g id="node3" class="node"><title>Node3</title>
<polygon fill="white" stroke="#bfbfbf" points="25.5,-0.5 25.5,-19.5 68.5,-19.5 68.5,-0.5 25.5,-0.5"/>
<text text-anchor="middle" x="47" y="-7.5" font-family="Helvetica,sans-Serif" font-size="10.00">cstdio</text>
</g>
<!-- Node1&#45;&gt;Node3 -->
<g id="edge2" class="edge"><title>Node1&#45;&gt;Node3</title>
<path fill="none" stroke="midnightblue" d="M175.688,-168.075C153.817,-141.38 88.6726,-61.865 60.3721,-27.3218"/>
<polygon fill="midnightblue" stroke="midnightblue" points="63.0645,-25.0854 54.0197,-19.5681 57.6497,-29.5217 63.0645,-25.0854"/>
</g>
<!-- Node4 -->
<g id="node4" class="node"><title>Node4</title>
<polygon fill="white" stroke="#bfbfbf" points="316.5,-112.5 316.5,-131.5 361.5,-131.5 361.5,-112.5 316.5,-112.5"/>
<text text-anchor="middle" x="339" y="-119.5" font-family="Helvetica,sans-Serif" font-size="10.00">cstdlib</text>
</g>
<!-- Node1&#45;&gt;Node4 -->
<g id="edge3" class="edge"><title>Node1&#45;&gt;Node4</title>
<path fill="none" stroke="midnightblue" d="M207.719,-168.444C234.463,-159.186 277.217,-144.387 306.625,-134.207"/>
<polygon fill="midnightblue" stroke="midnightblue" points="308.118,-137.394 316.423,-130.815 305.828,-130.779 308.118,-137.394"/>
</g>
<!-- Node5 -->
<g id="node5" class="node"><title>Node5</title>
<polygon fill="white" stroke="#bfbfbf" points="87,-0.5 87,-19.5 133,-19.5 133,-0.5 87,-0.5"/>
<text text-anchor="middle" x="110" y="-7.5" font-family="Helvetica,sans-Serif" font-size="10.00">cstring</text>
</g>
<!-- Node1&#45;&gt;Node5 -->
<g id="edge4" class="edge"><title>Node1&#45;&gt;Node5</title>
<path fill="none" stroke="midnightblue" d="M178.382,-168.475C173.582,-159.499 165.953,-144.907 160,-132 143.406,-96.0236 126.229,-52.9433 116.956,-29.1114"/>
<polygon fill="midnightblue" stroke="midnightblue" points="120.153,-27.6753 113.282,-19.6107 113.625,-30.2 120.153,-27.6753"/>
</g>
<!-- Node6 -->
<g id="node6" class="node"><title>Node6</title>
<polygon fill="white" stroke="#bfbfbf" points="151,-0.5 151,-19.5 197,-19.5 197,-0.5 151,-0.5"/>
<text text-anchor="middle" x="174" y="-7.5" font-family="Helvetica,sans-Serif" font-size="10.00">cctype</text>
</g>
<!-- Node1&#45;&gt;Node6 -->
<g id="edge5" class="edge"><title>Node1&#45;&gt;Node6</title>
<path fill="none" stroke="midnightblue" d="M178.889,-168.277C174.941,-159.383 169.255,-145.074 167,-132 160.822,-96.182 166.168,-53.6112 170.299,-29.7076"/>
<polygon fill="midnightblue" stroke="midnightblue" points="173.795,-30.0542 172.174,-19.584 166.912,-28.7795 173.795,-30.0542"/>
</g>
<!-- Node7 -->
<g id="node7" class="node"><title>Node7</title>
<g id="a_node7"><a xlink:href="_i_plug_constants_8h.html" target="_top" xlink:title="Constant definitions, magic numbers. ">
<polygon fill="white" stroke="black" points="380,-112.5 380,-131.5 472,-131.5 472,-112.5 380,-112.5"/>
<text text-anchor="middle" x="426" y="-119.5" font-family="Helvetica,sans-Serif" font-size="10.00">IPlugConstants.h</text>
</a>
</g>
</g>
<!-- Node1&#45;&gt;Node7 -->
<g id="edge6" class="edge"><title>Node1&#45;&gt;Node7</title>
<path fill="none" stroke="midnightblue" d="M221.504,-168.444C263.806,-159.043 331.819,-143.929 377.673,-133.739"/>
<polygon fill="midnightblue" stroke="midnightblue" points="378.673,-137.102 387.676,-131.516 377.155,-130.269 378.673,-137.102"/>
</g>
<!-- Node8 -->
<g id="node8" class="node"><title>Node8</title>
<g id="a_node8"><a xlink:href="_i_plug_platform_8h.html" target="_top" xlink:title="Include to get consistently named preprocessor macros for different platforms and logging functionali...">
<polygon fill="white" stroke="black" points="176,-112.5 176,-131.5 260,-131.5 260,-112.5 176,-112.5"/>
<text text-anchor="middle" x="218" y="-119.5" font-family="Helvetica,sans-Serif" font-size="10.00">IPlugPlatform.h</text>
</a>
</g>
</g>
<!-- Node1&#45;&gt;Node8 -->
<g id="edge7" class="edge"><title>Node1&#45;&gt;Node8</title>
<path fill="none" stroke="midnightblue" d="M188.78,-168.083C193.672,-160.534 200.827,-149.495 206.833,-140.23"/>
<polygon fill="midnightblue" stroke="midnightblue" points="209.826,-142.046 212.328,-131.751 203.952,-138.239 209.826,-142.046"/>
</g>
<!-- Node9 -->
<g id="node9" class="node"><title>Node9</title>
<g id="a_node9"><a xlink:href="_i_plug_logger_8h_source.html" target="_top" xlink:title="IPlugLogger.h">
<polygon fill="white" stroke="black" points="228.5,-56.5 228.5,-75.5 305.5,-75.5 305.5,-56.5 228.5,-56.5"/>
<text text-anchor="middle" x="267" y="-63.5" font-family="Helvetica,sans-Serif" font-size="10.00">IPlugLogger.h</text>
</a>
</g>
</g>
<!-- Node8&#45;&gt;Node9 -->
<g id="edge8" class="edge"><title>Node8&#45;&gt;Node9</title>
<path fill="none" stroke="midnightblue" d="M226.091,-112.083C233.155,-104.298 243.588,-92.8015 252.149,-83.3665"/>
<polygon fill="midnightblue" stroke="midnightblue" points="254.931,-85.5087 259.059,-75.7511 249.747,-80.8047 254.931,-85.5087"/>
</g>
<!-- Node9&#45;&gt;Node1 -->
<g id="edge17" class="edge"><title>Node9&#45;&gt;Node1</title>
<path fill="none" stroke="midnightblue" d="M269.858,-75.7426C273.62,-88.9735 278.595,-114.403 268,-132 258.713,-147.426 242.167,-157.84 226.126,-164.729"/>
<polygon fill="midnightblue" stroke="midnightblue" points="224.83,-161.478 216.799,-168.388 227.386,-167.994 224.83,-161.478"/>
</g>
<!-- Node9&#45;&gt;Node3 -->
<g id="edge9" class="edge"><title>Node9&#45;&gt;Node3</title>
<path fill="none" stroke="midnightblue" d="M228.853,-56.4927C192.601,-48.2801 136.342,-35.2052 78.3423,-19.9899"/>
<polygon fill="midnightblue" stroke="midnightblue" points="79.2049,-16.5978 68.6427,-17.4294 77.4182,-23.366 79.2049,-16.5978"/>
</g>
<!-- Node9&#45;&gt;Node5 -->
<g id="edge13" class="edge"><title>Node9&#45;&gt;Node5</title>
<path fill="none" stroke="midnightblue" d="M242.123,-56.4435C215.245,-47.1988 172.3,-32.4281 142.707,-22.2495"/>
<polygon fill="midnightblue" stroke="midnightblue" points="143.82,-18.9312 133.225,-18.9883 141.543,-25.5506 143.82,-18.9312"/>
</g>
<!-- Node9&#45;&gt;Node6 -->
<g id="edge10" class="edge"><title>Node9&#45;&gt;Node6</title>
<path fill="none" stroke="midnightblue" d="M252.058,-56.324C237.415,-47.8215 214.866,-34.7288 197.762,-24.7975"/>
<polygon fill="midnightblue" stroke="midnightblue" points="199.31,-21.6491 188.905,-19.6545 195.795,-27.7027 199.31,-21.6491"/>
</g>
<!-- Node10 -->
<g id="node10" class="node"><title>Node10</title>
<polygon fill="white" stroke="#bfbfbf" points="297.5,-0.5 297.5,-19.5 346.5,-19.5 346.5,-0.5 297.5,-0.5"/>
<text text-anchor="middle" x="322" y="-7.5" font-family="Helvetica,sans-Serif" font-size="10.00">cstdarg</text>
</g>
<!-- Node9&#45;&gt;Node10 -->
<g id="edge11" class="edge"><title>Node9&#45;&gt;Node10</title>
<path fill="none" stroke="midnightblue" d="M276.082,-56.083C284.171,-48.1409 296.195,-36.3354 305.91,-26.7973"/>
<polygon fill="midnightblue" stroke="midnightblue" points="308.403,-29.2545 313.087,-19.7511 303.499,-24.2595 308.403,-29.2545"/>
</g>
<!-- Node11 -->
<g id="node11" class="node"><title>Node11</title>
<polygon fill="white" stroke="#bfbfbf" points="365,-0.5 365,-19.5 411,-19.5 411,-0.5 365,-0.5"/>
<text text-anchor="middle" x="388" y="-7.5" font-family="Helvetica,sans-Serif" font-size="10.00">cstdint</text>
</g>
<!-- Node9&#45;&gt;Node11 -->
<g id="edge12" class="edge"><title>Node9&#45;&gt;Node11</title>
<path fill="none" stroke="midnightblue" d="M286.173,-56.4435C305.909,-47.6356 336.885,-33.8116 359.493,-23.722"/>
<polygon fill="midnightblue" stroke="midnightblue" points="361.211,-26.788 368.917,-19.5164 358.359,-20.3957 361.211,-26.788"/>
</g>
<!-- Node12 -->
<g id="node12" class="node"><title>Node12</title>
<polygon fill="white" stroke="#bfbfbf" points="429.5,-0.5 429.5,-19.5 470.5,-19.5 470.5,-0.5 429.5,-0.5"/>
<text text-anchor="middle" x="450" y="-7.5" font-family="Helvetica,sans-Serif" font-size="10.00">ctime</text>
</g>
<!-- Node9&#45;&gt;Node12 -->
<g id="edge14" class="edge"><title>Node9&#45;&gt;Node12</title>
<path fill="none" stroke="midnightblue" d="M296.345,-56.4202C325.229,-47.9639 370.846,-34.5791 419.566,-20.1173"/>
<polygon fill="midnightblue" stroke="midnightblue" points="420.758,-23.4144 429.348,-17.2117 418.765,-16.7042 420.758,-23.4144"/>
</g>
<!-- Node13 -->
<g id="node13" class="node"><title>Node13</title>
<polygon fill="white" stroke="#bfbfbf" points="488.5,-0.5 488.5,-19.5 537.5,-19.5 537.5,-0.5 488.5,-0.5"/>
<text text-anchor="middle" x="513" y="-7.5" font-family="Helvetica,sans-Serif" font-size="10.00">cassert</text>
</g>
<!-- Node9&#45;&gt;Node13 -->
<g id="edge15" class="edge"><title>Node9&#45;&gt;Node13</title>
<path fill="none" stroke="midnightblue" d="M305.814,-57.3626C346.427,-49.2379 412.256,-35.6946 478.396,-20.0519"/>
<polygon fill="midnightblue" stroke="midnightblue" points="479.236,-23.4499 488.153,-17.7292 477.615,-16.6402 479.236,-23.4499"/>
</g>
<!-- Node14 -->
<g id="node14" class="node"><title>Node14</title>
<polygon fill="white" stroke="#bfbfbf" points="215,-0.5 215,-19.5 279,-19.5 279,-0.5 215,-0.5"/>
<text text-anchor="middle" x="247" y="-7.5" font-family="Helvetica,sans-Serif" font-size="10.00">wdlstring.h</text>
</g>
<!-- Node9&#45;&gt;Node14 -->
<g id="edge16" class="edge"><title>Node9&#45;&gt;Node14</title>
<path fill="none" stroke="midnightblue" d="M263.697,-56.083C261.018,-48.8486 257.151,-38.4087 253.814,-29.3968"/>
<polygon fill="midnightblue" stroke="midnightblue" points="256.996,-27.9129 250.241,-19.7511 250.432,-30.3442 256.996,-27.9129"/>
</g>
</g>
</svg>
