<?xml version="1.0" encoding="UTF-8" standalone="no"?>
<!DOCTYPE svg PUBLIC "-//W3C//DTD SVG 1.1//EN"
 "http://www.w3.org/Graphics/SVG/1.1/DTD/svg11.dtd">
<!-- Generated by graphviz version 2.36.0 (20140111.2315)
 -->
<!-- Title: IPlug_include_in_plug_hdr.h Pages: 1 -->
<svg width="543pt" height="264pt"
 viewBox="0.00 0.00 543.00 264.00" xmlns="http://www.w3.org/2000/svg" xmlns:xlink="http://www.w3.org/1999/xlink">
<g id="graph0" class="graph" transform="scale(1 1) rotate(0) translate(4 260)">
<title>IPlug_include_in_plug_hdr.h</title>
<polygon fill="white" stroke="none" points="-4,4 -4,-260 539,-260 539,4 -4,4"/>
<!-- Node1 -->
<g id="node1" class="node"><title>Node1</title>
<polygon fill="#bfbfbf" stroke="black" points="52.5,-225 52.5,-255 163.5,-255 163.5,-225 52.5,-225"/>
<text text-anchor="start" x="60.5" y="-243" font-family="Helvetica,sans-Serif" font-size="10.00">IPlug_include_in_plug</text>
<text text-anchor="middle" x="108" y="-232" font-family="Helvetica,sans-Serif" font-size="10.00">_hdr.h</text>
</g>
<!-- Node2 -->
<g id="node2" class="node"><title>Node2</title>
<polygon fill="white" stroke="#bfbfbf" points="-0.5,-0.5 -0.5,-19.5 42.5,-19.5 42.5,-0.5 -0.5,-0.5"/>
<text text-anchor="middle" x="21" y="-7.5" font-family="Helvetica,sans-Serif" font-size="10.00">cstdio</text>
</g>
<!-- Node1&#45;&gt;Node2 -->
<g id="edge1" class="edge"><title>Node1&#45;&gt;Node2</title>
<path fill="none" stroke="midnightblue" d="M89.2011,-224.943C78.1377,-215.664 64.8229,-202.56 57,-188 28.8541,-135.614 22.6529,-63.7109 21.3292,-29.9538"/>
<polygon fill="midnightblue" stroke="midnightblue" points="24.8204,-29.5949 21.0364,-19.6989 17.8233,-29.7948 24.8204,-29.5949"/>
</g>
<!-- Node3 -->
<g id="node3" class="node"><title>Node3</title>
<g id="a_node3"><a xlink:href="_i_plug_platform_8h.html" target="_top" xlink:title="Include to get consistently named preprocessor macros for different platforms and logging functionali...">
<polygon fill="white" stroke="black" points="66,-168.5 66,-187.5 150,-187.5 150,-168.5 66,-168.5"/>
<text text-anchor="middle" x="108" y="-175.5" font-family="Helvetica,sans-Serif" font-size="10.00">IPlugPlatform.h</text>
</a>
</g>
</g>
<!-- Node1&#45;&gt;Node3 -->
<g id="edge2" class="edge"><title>Node1&#45;&gt;Node3</title>
<path fill="none" stroke="midnightblue" d="M108,-224.781C108,-216.781 108,-206.689 108,-198.017"/>
<polygon fill="midnightblue" stroke="midnightblue" points="111.5,-197.73 108,-187.731 104.5,-197.731 111.5,-197.73"/>
</g>
<!-- Node16 -->
<g id="node16" class="node"><title>Node16</title>
<polygon fill="white" stroke="#bfbfbf" points="167.5,-168.5 167.5,-187.5 218.5,-187.5 218.5,-168.5 167.5,-168.5"/>
<text text-anchor="middle" x="193" y="-175.5" font-family="Helvetica,sans-Serif" font-size="10.00">config.h</text>
</g>
<!-- Node1&#45;&gt;Node16 -->
<g id="edge20" class="edge"><title>Node1&#45;&gt;Node16</title>
<path fill="none" stroke="midnightblue" d="M128.144,-224.781C141.595,-215.286 159.222,-202.843 172.704,-193.327"/>
<polygon fill="midnightblue" stroke="midnightblue" points="174.728,-196.182 180.879,-187.556 170.691,-190.463 174.728,-196.182"/>
</g>
<!-- Node4 -->
<g id="node4" class="node"><title>Node4</title>
<g id="a_node4"><a xlink:href="_i_plug_logger_8h_source.html" target="_top" xlink:title="IPlugLogger.h">
<polygon fill="white" stroke="black" points="249.5,-112.5 249.5,-131.5 326.5,-131.5 326.5,-112.5 249.5,-112.5"/>
<text text-anchor="middle" x="288" y="-119.5" font-family="Helvetica,sans-Serif" font-size="10.00">IPlugLogger.h</text>
</a>
</g>
</g>
<!-- Node3&#45;&gt;Node4 -->
<g id="edge3" class="edge"><title>Node3&#45;&gt;Node4</title>
<path fill="none" stroke="midnightblue" d="M136.522,-168.444C167.066,-159.28 215.708,-144.688 249.603,-134.519"/>
<polygon fill="midnightblue" stroke="midnightblue" points="251.039,-137.742 259.612,-131.516 249.028,-131.038 251.039,-137.742"/>
</g>
<!-- Node4&#45;&gt;Node2 -->
<g id="edge4" class="edge"><title>Node4&#45;&gt;Node2</title>
<path fill="none" stroke="midnightblue" d="M249.192,-117.248C192.118,-111.093 89.0532,-97.3601 59,-76 43.053,-64.6657 32.7637,-44.3663 26.9676,-29.4591"/>
<polygon fill="midnightblue" stroke="midnightblue" points="30.169,-28.015 23.5246,-19.7626 23.5725,-30.3573 30.169,-28.015"/>
</g>
<!-- Node5 -->
<g id="node5" class="node"><title>Node5</title>
<polygon fill="white" stroke="#bfbfbf" points="489,-0.5 489,-19.5 535,-19.5 535,-0.5 489,-0.5"/>
<text text-anchor="middle" x="512" y="-7.5" font-family="Helvetica,sans-Serif" font-size="10.00">cctype</text>
</g>
<!-- Node4&#45;&gt;Node5 -->
<g id="edge5" class="edge"><title>Node4&#45;&gt;Node5</title>
<path fill="none" stroke="midnightblue" d="M326.509,-119.044C384.694,-115.193 490.717,-104.376 514,-76 524.501,-63.2025 522.317,-43.7416 518.534,-29.4484"/>
<polygon fill="midnightblue" stroke="midnightblue" points="521.821,-28.2335 515.513,-19.7216 515.136,-30.3098 521.821,-28.2335"/>
</g>
<!-- Node6 -->
<g id="node6" class="node"><title>Node6</title>
<polygon fill="white" stroke="#bfbfbf" points="166.5,-56.5 166.5,-75.5 215.5,-75.5 215.5,-56.5 166.5,-56.5"/>
<text text-anchor="middle" x="191" y="-63.5" font-family="Helvetica,sans-Serif" font-size="10.00">cstdarg</text>
</g>
<!-- Node4&#45;&gt;Node6 -->
<g id="edge6" class="edge"><title>Node4&#45;&gt;Node6</title>
<path fill="none" stroke="midnightblue" d="M272.415,-112.324C257.001,-103.743 233.188,-90.486 215.29,-80.5224"/>
<polygon fill="midnightblue" stroke="midnightblue" points="216.986,-77.4606 206.546,-75.6545 213.581,-83.5767 216.986,-77.4606"/>
</g>
<!-- Node7 -->
<g id="node7" class="node"><title>Node7</title>
<polygon fill="white" stroke="#bfbfbf" points="234,-56.5 234,-75.5 280,-75.5 280,-56.5 234,-56.5"/>
<text text-anchor="middle" x="257" y="-63.5" font-family="Helvetica,sans-Serif" font-size="10.00">cstdint</text>
</g>
<!-- Node4&#45;&gt;Node7 -->
<g id="edge7" class="edge"><title>Node4&#45;&gt;Node7</title>
<path fill="none" stroke="midnightblue" d="M282.881,-112.083C278.592,-104.613 272.342,-93.7244 267.058,-84.5199"/>
<polygon fill="midnightblue" stroke="midnightblue" points="270.038,-82.6811 262.024,-75.7511 263.967,-86.1662 270.038,-82.6811"/>
</g>
<!-- Node8 -->
<g id="node8" class="node"><title>Node8</title>
<polygon fill="white" stroke="#bfbfbf" points="382,-0.5 382,-19.5 428,-19.5 428,-0.5 382,-0.5"/>
<text text-anchor="middle" x="405" y="-7.5" font-family="Helvetica,sans-Serif" font-size="10.00">cstring</text>
</g>
<!-- Node4&#45;&gt;Node8 -->
<g id="edge8" class="edge"><title>Node4&#45;&gt;Node8</title>
<path fill="none" stroke="midnightblue" d="M326.503,-118.395C381.123,-113.807 476.845,-102.169 498,-76 518.796,-50.2759 472.294,-30.3316 437.835,-19.6529"/>
<polygon fill="midnightblue" stroke="midnightblue" points="438.64,-16.2415 428.059,-16.7648 436.657,-22.9546 438.64,-16.2415"/>
</g>
<!-- Node9 -->
<g id="node9" class="node"><title>Node9</title>
<polygon fill="white" stroke="#bfbfbf" points="298.5,-56.5 298.5,-75.5 339.5,-75.5 339.5,-56.5 298.5,-56.5"/>
<text text-anchor="middle" x="319" y="-63.5" font-family="Helvetica,sans-Serif" font-size="10.00">ctime</text>
</g>
<!-- Node4&#45;&gt;Node9 -->
<g id="edge9" class="edge"><title>Node4&#45;&gt;Node9</title>
<path fill="none" stroke="midnightblue" d="M293.119,-112.083C297.408,-104.613 303.658,-93.7244 308.942,-84.5199"/>
<polygon fill="midnightblue" stroke="midnightblue" points="312.033,-86.1662 313.976,-75.7511 305.962,-82.6811 312.033,-86.1662"/>
</g>
<!-- Node10 -->
<g id="node10" class="node"><title>Node10</title>
<polygon fill="white" stroke="#bfbfbf" points="357.5,-56.5 357.5,-75.5 406.5,-75.5 406.5,-56.5 357.5,-56.5"/>
<text text-anchor="middle" x="382" y="-63.5" font-family="Helvetica,sans-Serif" font-size="10.00">cassert</text>
</g>
<!-- Node4&#45;&gt;Node10 -->
<g id="edge10" class="edge"><title>Node4&#45;&gt;Node10</title>
<path fill="none" stroke="midnightblue" d="M303.103,-112.324C317.903,-103.822 340.694,-90.7288 357.982,-80.7975"/>
<polygon fill="midnightblue" stroke="midnightblue" points="360.007,-83.6707 366.935,-75.6545 356.52,-77.6009 360.007,-83.6707"/>
</g>
<!-- Node11 -->
<g id="node11" class="node"><title>Node11</title>
<polygon fill="white" stroke="#bfbfbf" points="425,-56.5 425,-75.5 489,-75.5 489,-56.5 425,-56.5"/>
<text text-anchor="middle" x="457" y="-63.5" font-family="Helvetica,sans-Serif" font-size="10.00">wdlstring.h</text>
</g>
<!-- Node4&#45;&gt;Node11 -->
<g id="edge11" class="edge"><title>Node4&#45;&gt;Node11</title>
<path fill="none" stroke="midnightblue" d="M314.779,-112.444C343.333,-103.32 388.733,-88.8133 420.537,-78.6509"/>
<polygon fill="midnightblue" stroke="midnightblue" points="421.886,-81.8941 430.347,-75.5164 419.756,-75.2262 421.886,-81.8941"/>
</g>
<!-- Node12 -->
<g id="node12" class="node"><title>Node12</title>
<g id="a_node12"><a xlink:href="_i_plug_utilities_8h.html" target="_top" xlink:title="Utility functions and macros. ">
<polygon fill="white" stroke="black" points="68,-56.5 68,-75.5 148,-75.5 148,-56.5 68,-56.5"/>
<text text-anchor="middle" x="108" y="-63.5" font-family="Helvetica,sans-Serif" font-size="10.00">IPlugUtilities.h</text>
</a>
</g>
</g>
<!-- Node4&#45;&gt;Node12 -->
<g id="edge12" class="edge"><title>Node4&#45;&gt;Node12</title>
<path fill="none" stroke="midnightblue" d="M259.478,-112.444C228.934,-103.28 180.292,-88.6876 146.397,-78.5192"/>
<polygon fill="midnightblue" stroke="midnightblue" points="146.972,-75.0376 136.388,-75.5164 144.961,-81.7424 146.972,-75.0376"/>
</g>
<!-- Node12&#45;&gt;Node2 -->
<g id="edge14" class="edge"><title>Node12&#45;&gt;Node2</title>
<path fill="none" stroke="midnightblue" d="M94.0219,-56.324C80.4504,-47.9002 59.6198,-34.9709 43.675,-25.0741"/>
<polygon fill="midnightblue" stroke="midnightblue" points="45.2856,-21.9544 34.9434,-19.6545 41.594,-27.9019 45.2856,-21.9544"/>
</g>
<!-- Node12&#45;&gt;Node3 -->
<g id="edge19" class="edge"><title>Node12&#45;&gt;Node3</title>
<path fill="none" stroke="midnightblue" d="M108,-75.5914C108,-93.3079 108,-134.254 108,-158.348"/>
<polygon fill="midnightblue" stroke="midnightblue" points="104.5,-158.368 108,-168.368 111.5,-158.369 104.5,-158.368"/>
</g>
<!-- Node12&#45;&gt;Node5 -->
<g id="edge17" class="edge"><title>Node12&#45;&gt;Node5</title>
<path fill="none" stroke="midnightblue" d="M148.081,-57.4509C151.096,-56.9404 154.094,-56.4507 157,-56 218.858,-46.4061 403.312,-24.0314 479.016,-14.9429"/>
<polygon fill="midnightblue" stroke="midnightblue" points="479.441,-18.4172 488.953,-13.7514 478.607,-11.467 479.441,-18.4172"/>
</g>
<!-- Node12&#45;&gt;Node8 -->
<g id="edge16" class="edge"><title>Node12&#45;&gt;Node8</title>
<path fill="none" stroke="midnightblue" d="M148.11,-57.6256C151.118,-57.0747 154.107,-56.5281 157,-56 233.839,-41.9721 324.096,-25.6285 371.702,-17.0185"/>
<polygon fill="midnightblue" stroke="midnightblue" points="372.529,-20.4257 381.747,-15.2021 371.284,-13.5375 372.529,-20.4257"/>
</g>
<!-- Node13 -->
<g id="node13" class="node"><title>Node13</title>
<polygon fill="white" stroke="#bfbfbf" points="61,-0.5 61,-19.5 105,-19.5 105,-0.5 61,-0.5"/>
<text text-anchor="middle" x="83" y="-7.5" font-family="Helvetica,sans-Serif" font-size="10.00">cmath</text>
</g>
<!-- Node12&#45;&gt;Node13 -->
<g id="edge13" class="edge"><title>Node12&#45;&gt;Node13</title>
<path fill="none" stroke="midnightblue" d="M103.872,-56.083C100.486,-48.77 95.584,-38.1814 91.3812,-29.1034"/>
<polygon fill="midnightblue" stroke="midnightblue" points="94.4289,-27.3553 87.0514,-19.7511 88.0766,-30.2962 94.4289,-27.3553"/>
</g>
<!-- Node14 -->
<g id="node14" class="node"><title>Node14</title>
<polygon fill="white" stroke="#bfbfbf" points="123.5,-0.5 123.5,-19.5 168.5,-19.5 168.5,-0.5 123.5,-0.5"/>
<text text-anchor="middle" x="146" y="-7.5" font-family="Helvetica,sans-Serif" font-size="10.00">cstdlib</text>
</g>
<!-- Node12&#45;&gt;Node14 -->
<g id="edge15" class="edge"><title>Node12&#45;&gt;Node14</title>
<path fill="none" stroke="midnightblue" d="M114.275,-56.083C119.642,-48.4554 127.518,-37.2645 134.079,-27.9408"/>
<polygon fill="midnightblue" stroke="midnightblue" points="136.949,-29.9434 139.842,-19.7511 131.225,-25.9149 136.949,-29.9434"/>
</g>
<!-- Node15 -->
<g id="node15" class="node"><title>Node15</title>
<g id="a_node15"><a xlink:href="_i_plug_constants_8h.html" target="_top" xlink:title="Constant definitions, magic numbers. ">
<polygon fill="white" stroke="black" points="187,-0.5 187,-19.5 279,-19.5 279,-0.5 187,-0.5"/>
<text text-anchor="middle" x="233" y="-7.5" font-family="Helvetica,sans-Serif" font-size="10.00">IPlugConstants.h</text>
</a>
</g>
</g>
<!-- Node12&#45;&gt;Node15 -->
<g id="edge18" class="edge"><title>Node12&#45;&gt;Node15</title>
<path fill="none" stroke="midnightblue" d="M127.807,-56.4435C148.287,-47.5961 180.483,-33.6875 203.865,-23.5865"/>
<polygon fill="midnightblue" stroke="midnightblue" points="205.494,-26.6953 213.286,-19.5164 202.718,-20.2692 205.494,-26.6953"/>
</g>
</g>
</svg>
