<?xml version="1.0" encoding="UTF-8" standalone="no"?>
<!DOCTYPE svg PUBLIC "-//W3C//DTD SVG 1.1//EN"
 "http://www.w3.org/Graphics/SVG/1.1/DTD/svg11.dtd">
<!-- Generated by graphviz version 2.36.0 (20140111.2315)
 -->
<!-- Title: IKnobControl Pages: 1 -->
<svg width="201pt" height="140pt"
 viewBox="0.00 0.00 201.00 140.00" xmlns="http://www.w3.org/2000/svg" xmlns:xlink="http://www.w3.org/1999/xlink">
<g id="graph0" class="graph" transform="scale(1 1) rotate(0) translate(4 136)">
<title>IKnobControl</title>
<polygon fill="white" stroke="none" points="-4,4 -4,-136 197,-136 197,4 -4,4"/>
<!-- Node1 -->
<g id="node1" class="node"><title>Node1</title>
<polygon fill="#bfbfbf" stroke="black" points="63,-56.5 63,-75.5 137,-75.5 137,-56.5 63,-56.5"/>
<text text-anchor="middle" x="100" y="-63.5" font-family="Helvetica,sans-Serif" font-size="10.00">IKnobControl</text>
</g>
<!-- Node3 -->
<g id="node3" class="node"><title>Node3</title>
<g id="a_node3"><a xlink:href="class_i_knob_multi_control.html" target="_top" xlink:title="A rotating knob. ">
<polygon fill="white" stroke="black" points="-0.5,-0.5 -0.5,-19.5 94.5,-19.5 94.5,-0.5 -0.5,-0.5"/>
<text text-anchor="middle" x="47" y="-7.5" font-family="Helvetica,sans-Serif" font-size="10.00">IKnobMultiControl</text>
</a>
</g>
</g>
<!-- Node1&#45;&gt;Node3 -->
<g id="edge2" class="edge"><title>Node1&#45;&gt;Node3</title>
<path fill="none" stroke="midnightblue" d="M84.0191,-48.7175C74.6775,-39.1997 63.2541,-27.5608 55.589,-19.7511"/>
<polygon fill="midnightblue" stroke="midnightblue" points="81.7455,-51.3978 91.2481,-56.083 86.7413,-46.4945 81.7455,-51.3978"/>
</g>
<!-- Node4 -->
<g id="node4" class="node"><title>Node4</title>
<g id="a_node4"><a xlink:href="class_i_v_knob_control.html" target="_top" xlink:title="A knob that is just a line. ">
<polygon fill="white" stroke="black" points="113,-0.5 113,-19.5 193,-19.5 193,-0.5 113,-0.5"/>
<text text-anchor="middle" x="153" y="-7.5" font-family="Helvetica,sans-Serif" font-size="10.00">IVKnobControl</text>
</a>
</g>
</g>
<!-- Node1&#45;&gt;Node4 -->
<g id="edge3" class="edge"><title>Node1&#45;&gt;Node4</title>
<path fill="none" stroke="midnightblue" d="M115.981,-48.7175C125.322,-39.1997 136.746,-27.5608 144.411,-19.7511"/>
<polygon fill="midnightblue" stroke="midnightblue" points="113.259,-46.4945 108.752,-56.083 118.254,-51.3978 113.259,-46.4945"/>
</g>
<!-- Node2 -->
<g id="node2" class="node"><title>Node2</title>
<g id="a_node2"><a xlink:href="class_i_control.html" target="_top" xlink:title="The lowest level base class of an IGraphics control. ">
<polygon fill="white" stroke="black" points="74.5,-112.5 74.5,-131.5 125.5,-131.5 125.5,-112.5 74.5,-112.5"/>
<text text-anchor="middle" x="100" y="-119.5" font-family="Helvetica,sans-Serif" font-size="10.00">IControl</text>
</a>
</g>
</g>
<!-- Node2&#45;&gt;Node1 -->
<g id="edge1" class="edge"><title>Node2&#45;&gt;Node1</title>
<path fill="none" stroke="midnightblue" d="M100,-101.805C100,-92.9102 100,-82.7798 100,-75.7511"/>
<polygon fill="midnightblue" stroke="midnightblue" points="96.5001,-102.083 100,-112.083 103.5,-102.083 96.5001,-102.083"/>
</g>
</g>
</svg>
