<?xml version="1.0" encoding="UTF-8" standalone="no"?>
<!DOCTYPE svg PUBLIC "-//W3C//DTD SVG 1.1//EN"
 "http://www.w3.org/Graphics/SVG/1.1/DTD/svg11.dtd">
<!-- Generated by graphviz version 2.36.0 (20140111.2315)
 -->
<!-- Title: IControl Pages: 1 -->
<!--zoomable 617 -->
<svg id="main" version="1.1" xmlns="http://www.w3.org/2000/svg" xmlns:xlink="http://www.w3.org/1999/xlink" xml:space="preserve" onload="init(evt)">
<style type="text/css"><![CDATA[
.edge:hover path { stroke: red; }
.edge:hover polygon { stroke: red; fill: red; }
]]></style>
<script type="text/javascript"><![CDATA[
var edges = document.getElementsByTagName('g');
if (edges && edges.length) {
  for (var i=0;i<edges.length;i++) {
    if (edges[i].id.substr(0,4)=='edge') {
      edges[i].setAttribute('class','edge');
    }
  }
}
]]></script>
        <defs>
                <circle id="rim" cx="0" cy="0" r="7"/>
                <circle id="rim2" cx="0" cy="0" r="3.5"/>
                <g id="zoomPlus">
                        <use xlink:href="#rim" fill="#404040">
                                <set attributeName="fill" to="#808080" begin="zoomplus.mouseover" end="zoomplus.mouseout"/>
                        </use>
                        <path d="M-4,0h8M0,-4v8" fill="none" stroke="white" stroke-width="1.5" pointer-events="none"/>
                </g>
                <g id="zoomMin">
                        <use xlink:href="#rim" fill="#404040">
                                <set attributeName="fill" to="#808080" begin="zoomminus.mouseover" end="zoomminus.mouseout"/>
                        </use>
                        <path d="M-4,0h8" fill="none" stroke="white" stroke-width="1.5" pointer-events="none"/>
                </g>
                <g id="dirArrow">
                        <path fill="none" stroke="white" stroke-width="1.5" d="M0,-3.0v7 M-2.5,-0.5L0,-3.0L2.5,-0.5"/>
                </g>
               <g id="resetDef">
                       <use xlink:href="#rim2" fill="#404040">
                               <set attributeName="fill" to="#808080" begin="reset.mouseover" end="reset.mouseout"/>
                       </use>
               </g>
        </defs>

<script type="text/javascript">
var viewWidth = 498;
var viewHeight = 617;
var sectionId = 'dynsection-0';
</script>
<script xlink:href="svgpan.js"/>
<svg id="graph" class="graph">
<g id="viewport">
<title>IControl</title>
<polygon fill="white" stroke="none" points="-4,4 -4,-613 494,-613 494,4 -4,4"/>
<!-- Node1 -->
<g id="node1" class="node"><title>Node1</title>
<polygon fill="#bfbfbf" stroke="black" points="0.5,-266.5 0.5,-285.5 51.5,-285.5 51.5,-266.5 0.5,-266.5"/>
<text text-anchor="middle" x="26" y="-273.5" font-family="Helvetica,sans-Serif" font-size="10.00">IControl</text>
</g>
<!-- Node2 -->
<g id="node2" class="node"><title>Node2</title>
<g id="a_node2"><a xlink:href="class_i_bitmap_control.html" target="_top" xlink:title="A basic control to draw a bitmap, or one frame of a stacked bitmap depending on the current value...">
<polygon fill="white" stroke="black" points="106,-532.5 106,-551.5 188,-551.5 188,-532.5 106,-532.5"/>
<text text-anchor="middle" x="147" y="-539.5" font-family="Helvetica,sans-Serif" font-size="10.00">IBitmapControl</text>
</a>
</g>
</g>
<!-- Node1&#45;&gt;Node2 -->
<g id="edge1" class="edge"><title>Node1&#45;&gt;Node2</title>
<path fill="none" stroke="midnightblue" d="M29.4023,-295.78C36.153,-348.284 56.8556,-489.446 88,-523 92.8297,-528.203 99.1041,-531.984 105.736,-534.731"/>
<polygon fill="midnightblue" stroke="midnightblue" points="32.8594,-295.219 28.143,-285.732 25.9138,-296.089 32.8594,-295.219"/>
</g>
<!-- Node8 -->
<g id="node8" class="node"><title>Node8</title>
<g id="a_node8"><a xlink:href="class_i_bitmap_text_control.html" target="_top" xlink:title="Display monospace bitmap font text. ">
<polygon fill="white" stroke="black" points="96.5,-494.5 96.5,-513.5 197.5,-513.5 197.5,-494.5 96.5,-494.5"/>
<text text-anchor="middle" x="147" y="-501.5" font-family="Helvetica,sans-Serif" font-size="10.00">IBitmapTextControl</text>
</a>
</g>
</g>
<!-- Node1&#45;&gt;Node8 -->
<g id="edge7" class="edge"><title>Node1&#45;&gt;Node8</title>
<path fill="none" stroke="midnightblue" d="M26.982,-295.959C28.0458,-337.032 36.3368,-431.625 88,-485 91.7584,-488.883 96.3212,-491.973 101.219,-494.432"/>
<polygon fill="midnightblue" stroke="midnightblue" points="30.4805,-295.823 26.8435,-285.872 23.4812,-295.919 30.4805,-295.823"/>
</g>
<!-- Node9 -->
<g id="node9" class="node"><title>Node9</title>
<g id="a_node9"><a xlink:href="class_i_fader_control.html" target="_top" xlink:title="A fader with a bitmap for the handle. ">
<polygon fill="white" stroke="black" points="109,-456.5 109,-475.5 185,-475.5 185,-456.5 109,-456.5"/>
<text text-anchor="middle" x="147" y="-463.5" font-family="Helvetica,sans-Serif" font-size="10.00">IFaderControl</text>
</a>
</g>
</g>
<!-- Node1&#45;&gt;Node9 -->
<g id="edge8" class="edge"><title>Node1&#45;&gt;Node9</title>
<path fill="none" stroke="midnightblue" d="M28.4961,-295.684C32.2274,-330.95 45.0152,-405.122 88,-447 93.7681,-452.62 101.223,-456.577 108.855,-459.364"/>
<polygon fill="midnightblue" stroke="midnightblue" points="31.9783,-295.329 27.5761,-285.692 25.0077,-295.97 31.9783,-295.329"/>
</g>
<!-- Node10 -->
<g id="node10" class="node"><title>Node10</title>
<g id="a_node10"><a xlink:href="class_i_file_selector_control.html" target="_top" xlink:title="A control to allow selection of a file from the file system. ">
<polygon fill="white" stroke="black" points="95.5,-418.5 95.5,-437.5 198.5,-437.5 198.5,-418.5 95.5,-418.5"/>
<text text-anchor="middle" x="147" y="-425.5" font-family="Helvetica,sans-Serif" font-size="10.00">IFileSelectorControl</text>
</a>
</g>
</g>
<!-- Node1&#45;&gt;Node10 -->
<g id="edge9" class="edge"><title>Node1&#45;&gt;Node10</title>
<path fill="none" stroke="midnightblue" d="M30.8089,-295.685C37.4111,-324.589 53.701,-378.387 88,-409 92.3479,-412.881 97.5047,-415.971 102.922,-418.431"/>
<polygon fill="midnightblue" stroke="midnightblue" points="34.1696,-294.661 28.6724,-285.604 27.3217,-296.112 34.1696,-294.661"/>
</g>
<!-- Node11 -->
<g id="node11" class="node"><title>Node11</title>
<g id="a_node11"><a xlink:href="class_i_graphics_live_edit.html" target="_top" xlink:title="IGraphicsLiveEdit">
<polygon fill="white" stroke="black" points="100,-380.5 100,-399.5 194,-399.5 194,-380.5 100,-380.5"/>
<text text-anchor="middle" x="147" y="-387.5" font-family="Helvetica,sans-Serif" font-size="10.00">IGraphicsLiveEdit</text>
</a>
</g>
</g>
<!-- Node1&#45;&gt;Node11 -->
<g id="edge10" class="edge"><title>Node1&#45;&gt;Node11</title>
<path fill="none" stroke="midnightblue" d="M34.5056,-294.98C43.9126,-316.411 62.0174,-350.906 88,-371 93.0291,-374.889 98.8869,-377.999 104.909,-380.481"/>
<polygon fill="midnightblue" stroke="midnightblue" points="37.6807,-293.501 30.5899,-285.628 31.2239,-296.204 37.6807,-293.501"/>
</g>
<!-- Node12 -->
<g id="node12" class="node"><title>Node12</title>
<g id="a_node12"><a xlink:href="class_i_invisible_switch_control.html" target="_top" xlink:title="On/Off switch that has a target area only. ">
<polygon fill="white" stroke="black" points="88.5,-342.5 88.5,-361.5 205.5,-361.5 205.5,-342.5 88.5,-342.5"/>
<text text-anchor="middle" x="147" y="-349.5" font-family="Helvetica,sans-Serif" font-size="10.00">IInvisibleSwitchControl</text>
</a>
</g>
</g>
<!-- Node1&#45;&gt;Node12 -->
<g id="edge11" class="edge"><title>Node1&#45;&gt;Node12</title>
<path fill="none" stroke="midnightblue" d="M41.7991,-293.416C53.2794,-305.962 70.1925,-322.469 88,-333 94.3844,-336.775 101.614,-339.907 108.749,-342.464"/>
<polygon fill="midnightblue" stroke="midnightblue" points="44.3389,-291.005 35.0846,-285.847 39.1022,-295.65 44.3389,-291.005"/>
</g>
<!-- Node13 -->
<g id="node13" class="node"><title>Node13</title>
<g id="a_node13"><a xlink:href="class_i_keyboard_control.html" target="_top" xlink:title="A (musical) keyboard control. ">
<polygon fill="white" stroke="black" points="101,-304.5 101,-323.5 193,-323.5 193,-304.5 101,-304.5"/>
<text text-anchor="middle" x="147" y="-311.5" font-family="Helvetica,sans-Serif" font-size="10.00">IKeyboardControl</text>
</a>
</g>
</g>
<!-- Node1&#45;&gt;Node13 -->
<g id="edge12" class="edge"><title>Node1&#45;&gt;Node13</title>
<path fill="none" stroke="midnightblue" d="M61.3505,-286.969C78.5883,-292.474 99.2776,-299.08 115.887,-304.384"/>
<polygon fill="midnightblue" stroke="midnightblue" points="62.2477,-283.582 51.6569,-283.874 60.1183,-290.25 62.2477,-283.582"/>
</g>
<!-- Node14 -->
<g id="node14" class="node"><title>Node14</title>
<g id="a_node14"><a xlink:href="class_i_knob_control.html" target="_top" xlink:title="Parent for knobs, to handle mouse action and ballistics. ">
<polygon fill="white" stroke="black" points="110,-266.5 110,-285.5 184,-285.5 184,-266.5 110,-266.5"/>
<text text-anchor="middle" x="147" y="-273.5" font-family="Helvetica,sans-Serif" font-size="10.00">IKnobControl</text>
</a>
</g>
</g>
<!-- Node1&#45;&gt;Node14 -->
<g id="edge13" class="edge"><title>Node1&#45;&gt;Node14</title>
<path fill="none" stroke="midnightblue" d="M62.0509,-276C77.028,-276 94.5071,-276 109.627,-276"/>
<polygon fill="midnightblue" stroke="midnightblue" points="61.6569,-272.5 51.6569,-276 61.6568,-279.5 61.6569,-272.5"/>
</g>
<!-- Node17 -->
<g id="node17" class="node"><title>Node17</title>
<g id="a_node17"><a xlink:href="class_i_panel_control.html" target="_top" xlink:title="A basic control to fill a rectangle with a color. ">
<polygon fill="white" stroke="black" points="109,-228.5 109,-247.5 185,-247.5 185,-228.5 109,-228.5"/>
<text text-anchor="middle" x="147" y="-235.5" font-family="Helvetica,sans-Serif" font-size="10.00">IPanelControl</text>
</a>
</g>
</g>
<!-- Node1&#45;&gt;Node17 -->
<g id="edge16" class="edge"><title>Node1&#45;&gt;Node17</title>
<path fill="none" stroke="midnightblue" d="M61.3505,-265.031C78.5883,-259.526 99.2776,-252.92 115.887,-247.616"/>
<polygon fill="midnightblue" stroke="midnightblue" points="60.1183,-261.75 51.6569,-268.126 62.2477,-268.418 60.1183,-261.75"/>
</g>
<!-- Node18 -->
<g id="node18" class="node"><title>Node18</title>
<g id="a_node18"><a xlink:href="class_i_radio_buttons_control.html" target="_top" xlink:title="A set of buttons that maps to a single selection. ">
<polygon fill="white" stroke="black" points="92,-190.5 92,-209.5 202,-209.5 202,-190.5 92,-190.5"/>
<text text-anchor="middle" x="147" y="-197.5" font-family="Helvetica,sans-Serif" font-size="10.00">IRadioButtonsControl</text>
</a>
</g>
</g>
<!-- Node1&#45;&gt;Node18 -->
<g id="edge17" class="edge"><title>Node1&#45;&gt;Node18</title>
<path fill="none" stroke="midnightblue" d="M41.7991,-258.584C53.2794,-246.038 70.1925,-229.531 88,-219 94.3844,-215.225 101.614,-212.093 108.749,-209.536"/>
<polygon fill="midnightblue" stroke="midnightblue" points="39.1022,-256.35 35.0846,-266.153 44.3389,-260.995 39.1022,-256.35"/>
</g>
<!-- Node19 -->
<g id="node19" class="node"><title>Node19</title>
<g id="a_node19"><a xlink:href="class_i_s_v_g_control.html" target="_top" xlink:title="A basic control to draw an SVG image to the screen. ">
<polygon fill="white" stroke="black" points="111,-152.5 111,-171.5 183,-171.5 183,-152.5 111,-152.5"/>
<text text-anchor="middle" x="147" y="-159.5" font-family="Helvetica,sans-Serif" font-size="10.00">ISVGControl</text>
</a>
</g>
</g>
<!-- Node1&#45;&gt;Node19 -->
<g id="edge18" class="edge"><title>Node1&#45;&gt;Node19</title>
<path fill="none" stroke="midnightblue" d="M34.5056,-257.02C43.9126,-235.589 62.0174,-201.094 88,-181 94.7055,-175.814 102.884,-172.014 110.96,-169.24"/>
<polygon fill="midnightblue" stroke="midnightblue" points="31.2239,-255.796 30.5899,-266.372 37.6807,-258.499 31.2239,-255.796"/>
</g>
<!-- Node20 -->
<g id="node20" class="node"><title>Node20</title>
<g id="a_node20"><a xlink:href="class_i_text_control.html" target="_top" xlink:title="A basic control to output text to the screen. ">
<polygon fill="white" stroke="black" points="111.5,-114.5 111.5,-133.5 182.5,-133.5 182.5,-114.5 111.5,-114.5"/>
<text text-anchor="middle" x="147" y="-121.5" font-family="Helvetica,sans-Serif" font-size="10.00">ITextControl</text>
</a>
</g>
</g>
<!-- Node1&#45;&gt;Node20 -->
<g id="edge19" class="edge"><title>Node1&#45;&gt;Node20</title>
<path fill="none" stroke="midnightblue" d="M30.8089,-256.315C37.4111,-227.411 53.701,-173.613 88,-143 94.5613,-137.144 102.965,-133.088 111.326,-130.28"/>
<polygon fill="midnightblue" stroke="midnightblue" points="27.3217,-255.888 28.6724,-266.396 34.1696,-257.339 27.3217,-255.888"/>
</g>
<!-- Node22 -->
<g id="node22" class="node"><title>Node22</title>
<g id="a_node22"><a xlink:href="class_i_u_r_l_control.html" target="_top" xlink:title="Clickable URL area. ">
<polygon fill="white" stroke="black" points="111.5,-76.5 111.5,-95.5 182.5,-95.5 182.5,-76.5 111.5,-76.5"/>
<text text-anchor="middle" x="147" y="-83.5" font-family="Helvetica,sans-Serif" font-size="10.00">IURLControl</text>
</a>
</g>
</g>
<!-- Node1&#45;&gt;Node22 -->
<g id="edge21" class="edge"><title>Node1&#45;&gt;Node22</title>
<path fill="none" stroke="midnightblue" d="M28.4961,-256.316C32.2274,-221.05 45.0152,-146.878 88,-105 94.3752,-98.7889 102.811,-94.6082 111.269,-91.7942"/>
<polygon fill="midnightblue" stroke="midnightblue" points="25.0077,-256.03 27.5761,-266.308 31.9783,-256.671 25.0077,-256.03"/>
</g>
<!-- Node23 -->
<g id="node23" class="node"><title>Node23</title>
<g id="a_node23"><a xlink:href="class_i_v_switch_control.html" target="_top" xlink:title="A vector switch control. ">
<polygon fill="white" stroke="black" points="103,-38.5 103,-57.5 191,-57.5 191,-38.5 103,-38.5"/>
<text text-anchor="middle" x="147" y="-45.5" font-family="Helvetica,sans-Serif" font-size="10.00">IVSwitchControl</text>
</a>
</g>
</g>
<!-- Node1&#45;&gt;Node23 -->
<g id="edge22" class="edge"><title>Node1&#45;&gt;Node23</title>
<path fill="none" stroke="midnightblue" d="M26.982,-256.041C28.0458,-214.968 36.3368,-120.375 88,-67 92.2006,-62.6603 97.4059,-59.3111 102.96,-56.7266"/>
<polygon fill="midnightblue" stroke="midnightblue" points="23.4812,-256.081 26.8435,-266.128 30.4805,-256.177 23.4812,-256.081"/>
</g>
<!-- Node24 -->
<g id="node24" class="node"><title>Node24</title>
<g id="a_node24"><a xlink:href="class_i_x_y_pad.html" target="_top" xlink:title="IXYPad">
<polygon fill="white" stroke="black" points="122,-0.5 122,-19.5 172,-19.5 172,-0.5 122,-0.5"/>
<text text-anchor="middle" x="147" y="-7.5" font-family="Helvetica,sans-Serif" font-size="10.00">IXYPad</text>
</a>
</g>
</g>
<!-- Node1&#45;&gt;Node24 -->
<g id="edge23" class="edge"><title>Node1&#45;&gt;Node24</title>
<path fill="none" stroke="midnightblue" d="M29.4023,-256.22C36.153,-203.716 56.8556,-62.5539 88,-29 96.7222,-19.603 110.157,-14.8444 121.9,-12.4388"/>
<polygon fill="midnightblue" stroke="midnightblue" points="25.9138,-255.911 28.143,-266.268 32.8594,-256.781 25.9138,-255.911"/>
</g>
<!-- Node3 -->
<g id="node3" class="node"><title>Node3</title>
<g id="a_node3"><a xlink:href="class_i_switch_control.html" target="_top" xlink:title="A switch. ">
<polygon fill="white" stroke="black" points="249.5,-532.5 249.5,-551.5 330.5,-551.5 330.5,-532.5 249.5,-532.5"/>
<text text-anchor="middle" x="290" y="-539.5" font-family="Helvetica,sans-Serif" font-size="10.00">ISwitchControl</text>
</a>
</g>
</g>
<!-- Node2&#45;&gt;Node3 -->
<g id="edge2" class="edge"><title>Node2&#45;&gt;Node3</title>
<path fill="none" stroke="midnightblue" d="M198.228,-542C215.021,-542 233.49,-542 249.36,-542"/>
<polygon fill="midnightblue" stroke="midnightblue" points="198.028,-538.5 188.028,-542 198.028,-545.5 198.028,-538.5"/>
</g>
<!-- Node4 -->
<g id="node4" class="node"><title>Node4</title>
<g id="a_node4"><a xlink:href="class_i_bitmap_overlay_control.html" target="_top" xlink:title="A knob that consists of a static base, a rotating mask, and a rotating top. ">
<polygon fill="white" stroke="black" points="374,-589.5 374,-608.5 490,-608.5 490,-589.5 374,-589.5"/>
<text text-anchor="middle" x="432" y="-596.5" font-family="Helvetica,sans-Serif" font-size="10.00">IBitmapOverlayControl</text>
</a>
</g>
</g>
<!-- Node3&#45;&gt;Node4 -->
<g id="edge3" class="edge"><title>Node3&#45;&gt;Node4</title>
<path fill="none" stroke="midnightblue" d="M319.463,-555.951C335.335,-563.497 355.564,-572.731 374,-580 382.443,-583.329 391.73,-586.589 400.313,-589.444"/>
<polygon fill="midnightblue" stroke="midnightblue" points="320.729,-552.677 310.199,-551.504 317.7,-558.987 320.729,-552.677"/>
</g>
<!-- Node5 -->
<g id="node5" class="node"><title>Node5</title>
<g id="a_node5"><a xlink:href="class_i_contact_control.html" target="_top" xlink:title="A switch that reverts to 0.0 when released. ">
<polygon fill="white" stroke="black" points="389,-551.5 389,-570.5 475,-570.5 475,-551.5 389,-551.5"/>
<text text-anchor="middle" x="432" y="-558.5" font-family="Helvetica,sans-Serif" font-size="10.00">IContactControl</text>
</a>
</g>
</g>
<!-- Node3&#45;&gt;Node5 -->
<g id="edge4" class="edge"><title>Node3&#45;&gt;Node5</title>
<path fill="none" stroke="midnightblue" d="M340.792,-548.758C356.463,-550.884 373.612,-553.212 388.711,-555.261"/>
<polygon fill="midnightblue" stroke="midnightblue" points="341.124,-545.271 330.744,-547.394 340.182,-552.207 341.124,-545.271"/>
</g>
<!-- Node6 -->
<g id="node6" class="node"><title>Node6</title>
<g id="a_node6"><a xlink:href="class_i_switch_frames_control.html" target="_top" xlink:title="A switch where each frame of the bitmap contains images for multiple button states. ">
<polygon fill="white" stroke="black" points="375,-513.5 375,-532.5 489,-532.5 489,-513.5 375,-513.5"/>
<text text-anchor="middle" x="432" y="-520.5" font-family="Helvetica,sans-Serif" font-size="10.00">ISwitchFramesControl</text>
</a>
</g>
</g>
<!-- Node3&#45;&gt;Node6 -->
<g id="edge5" class="edge"><title>Node3&#45;&gt;Node6</title>
<path fill="none" stroke="midnightblue" d="M340.688,-535.257C351.784,-533.751 363.625,-532.144 374.958,-530.606"/>
<polygon fill="midnightblue" stroke="midnightblue" points="340.182,-531.793 330.744,-536.606 341.124,-538.729 340.182,-531.793"/>
</g>
<!-- Node7 -->
<g id="node7" class="node"><title>Node7</title>
<g id="a_node7"><a xlink:href="class_i_switch_pop_up_control.html" target="_top" xlink:title="Like ISwitchControl except it puts up a popup menu instead of cycling through states on click...">
<polygon fill="white" stroke="black" points="376.5,-475.5 376.5,-494.5 487.5,-494.5 487.5,-475.5 376.5,-475.5"/>
<text text-anchor="middle" x="432" y="-482.5" font-family="Helvetica,sans-Serif" font-size="10.00">ISwitchPopUpControl</text>
</a>
</g>
</g>
<!-- Node3&#45;&gt;Node7 -->
<g id="edge6" class="edge"><title>Node3&#45;&gt;Node7</title>
<path fill="none" stroke="midnightblue" d="M319.463,-528.049C335.335,-520.503 355.564,-511.269 374,-504 382.443,-500.671 391.73,-497.411 400.313,-494.556"/>
<polygon fill="midnightblue" stroke="midnightblue" points="317.7,-525.013 310.199,-532.496 320.729,-531.323 317.7,-525.013"/>
</g>
<!-- Node15 -->
<g id="node15" class="node"><title>Node15</title>
<g id="a_node15"><a xlink:href="class_i_knob_multi_control.html" target="_top" xlink:title="A rotating knob. ">
<polygon fill="white" stroke="black" points="242.5,-285.5 242.5,-304.5 337.5,-304.5 337.5,-285.5 242.5,-285.5"/>
<text text-anchor="middle" x="290" y="-292.5" font-family="Helvetica,sans-Serif" font-size="10.00">IKnobMultiControl</text>
</a>
</g>
</g>
<!-- Node14&#45;&gt;Node15 -->
<g id="edge14" class="edge"><title>Node14&#45;&gt;Node15</title>
<path fill="none" stroke="midnightblue" d="M194.629,-282.283C209.989,-284.353 227.064,-286.654 242.421,-288.723"/>
<polygon fill="midnightblue" stroke="midnightblue" points="194.689,-278.76 184.311,-280.893 193.754,-285.697 194.689,-278.76"/>
</g>
<!-- Node16 -->
<g id="node16" class="node"><title>Node16</title>
<g id="a_node16"><a xlink:href="class_i_v_knob_control.html" target="_top" xlink:title="A knob that is just a line. ">
<polygon fill="white" stroke="black" points="250,-247.5 250,-266.5 330,-266.5 330,-247.5 250,-247.5"/>
<text text-anchor="middle" x="290" y="-254.5" font-family="Helvetica,sans-Serif" font-size="10.00">IVKnobControl</text>
</a>
</g>
</g>
<!-- Node14&#45;&gt;Node16 -->
<g id="edge15" class="edge"><title>Node14&#45;&gt;Node16</title>
<path fill="none" stroke="midnightblue" d="M194.292,-269.762C212.262,-267.341 232.62,-264.597 249.844,-262.276"/>
<polygon fill="midnightblue" stroke="midnightblue" points="193.754,-266.303 184.311,-271.107 194.689,-273.24 193.754,-266.303"/>
</g>
<!-- Node21 -->
<g id="node21" class="node"><title>Node21</title>
<g id="a_node21"><a xlink:href="class_i_caption_control.html" target="_top" xlink:title="Displays the value of a parameter. ">
<polygon fill="white" stroke="black" points="247.5,-114.5 247.5,-133.5 332.5,-133.5 332.5,-114.5 247.5,-114.5"/>
<text text-anchor="middle" x="290" y="-121.5" font-family="Helvetica,sans-Serif" font-size="10.00">ICaptionControl</text>
</a>
</g>
</g>
<!-- Node20&#45;&gt;Node21 -->
<g id="edge20" class="edge"><title>Node20&#45;&gt;Node21</title>
<path fill="none" stroke="midnightblue" d="M193.296,-124C210.624,-124 230.292,-124 247.272,-124"/>
<polygon fill="midnightblue" stroke="midnightblue" points="192.854,-120.5 182.854,-124 192.854,-127.5 192.854,-120.5"/>
</g>
</g>
</svg>
        <g id="navigator" transform="translate(0 0)" fill="#404254">
                <rect fill="#f2f5e9" fill-opacity="0.5" stroke="#606060" stroke-width=".5" x="0" y="0" width="60" height="60"/>
                <use id="zoomplus" xlink:href="#zoomPlus" x="17" y="9" onmousedown="handleZoom(evt,'in')"/>
                <use id="zoomminus" xlink:href="#zoomMin" x="42" y="9" onmousedown="handleZoom(evt,'out')"/>
                <use id="reset" xlink:href="#resetDef" x="30" y="36" onmousedown="handleReset()"/>
                <g id="arrowUp" xlink:href="#dirArrow" transform="translate(30 24)" onmousedown="handlePan(0,-1)">
                  <use xlink:href="#rim" fill="#404040">
                        <set attributeName="fill" to="#808080" begin="arrowUp.mouseover" end="arrowUp.mouseout"/>
                  </use>
                  <path fill="none" stroke="white" stroke-width="1.5" d="M0,-3.0v7 M-2.5,-0.5L0,-3.0L2.5,-0.5"/>
                </g>
                <g id="arrowRight" xlink:href="#dirArrow" transform="rotate(90) translate(36 -43)" onmousedown="handlePan(1,0)">
                  <use xlink:href="#rim" fill="#404040">
                        <set attributeName="fill" to="#808080" begin="arrowRight.mouseover" end="arrowRight.mouseout"/>
                  </use>
                  <path fill="none" stroke="white" stroke-width="1.5" d="M0,-3.0v7 M-2.5,-0.5L0,-3.0L2.5,-0.5"/>
                </g>
                <g id="arrowDown" xlink:href="#dirArrow" transform="rotate(180) translate(-30 -48)" onmousedown="handlePan(0,1)">
                  <use xlink:href="#rim" fill="#404040">
                        <set attributeName="fill" to="#808080" begin="arrowDown.mouseover" end="arrowDown.mouseout"/>
                  </use>
                  <path fill="none" stroke="white" stroke-width="1.5" d="M0,-3.0v7 M-2.5,-0.5L0,-3.0L2.5,-0.5"/>
                </g>
                <g id="arrowLeft" xlink:href="#dirArrow" transform="rotate(270) translate(-36 17)" onmousedown="handlePan(-1,0)">
                  <use xlink:href="#rim" fill="#404040">
                        <set attributeName="fill" to="#808080" begin="arrowLeft.mouseover" end="arrowLeft.mouseout"/>
                  </use>
                  <path fill="none" stroke="white" stroke-width="1.5" d="M0,-3.0v7 M-2.5,-0.5L0,-3.0L2.5,-0.5"/>
                </g>
        </g>
        <svg viewBox="0 0 15 15" width="100%" height="30px" preserveAspectRatio="xMaxYMin meet">
         <g id="arrow_out" transform="scale(0.3 0.3)">
          <a xlink:href="class_i_control__inherit__graph_org.svg" target="_base">
           <rect id="button" ry="5" rx="5" y="6" x="6" height="38" width="38"
                fill="#f2f5e9" fill-opacity="0.5" stroke="#606060" stroke-width="1.0"/>
           <path id="arrow"
             d="M 11.500037,31.436501 C 11.940474,20.09759 22.043105,11.32322 32.158766,21.979434 L 37.068811,17.246167 C 37.068811,17.246167 37.088388,32 37.088388,32 L 22.160133,31.978069 C 22.160133,31.978069 26.997745,27.140456 26.997745,27.140456 C 18.528582,18.264221 13.291696,25.230495 11.500037,31.436501 z"
             style="fill:#404040;"/>
          </a>
         </g>
        </svg>
</svg>
