<?xml version="1.0" encoding="UTF-8" standalone="no"?>
<!DOCTYPE svg PUBLIC "-//W3C//DTD SVG 1.1//EN"
 "http://www.w3.org/Graphics/SVG/1.1/DTD/svg11.dtd">
<!-- Generated by graphviz version 2.36.0 (20140111.2315)
 -->
<!-- Title: Graphical Class Hierarchy Pages: 1 -->
<svg width="328pt" height="256pt"
 viewBox="0.00 0.00 328.00 256.00" xmlns="http://www.w3.org/2000/svg" xmlns:xlink="http://www.w3.org/1999/xlink">
<g id="graph0" class="graph" transform="scale(1 1) rotate(0) translate(4 252)">
<title>Graphical Class Hierarchy</title>
<polygon fill="white" stroke="none" points="-4,4 -4,-252 324,-252 324,4 -4,4"/>
<!-- Node1 -->
<g id="node1" class="node"><title>Node1</title>
<polygon fill="white" stroke="#bfbfbf" points="98,-228.5 98,-247.5 220,-247.5 220,-228.5 98,-228.5"/>
<text text-anchor="middle" x="159" y="-235.5" font-family="Helvetica,sans-Serif" font-size="10.00">AAX_CIPlugParameters</text>
</g>
<!-- Node2 -->
<g id="node2" class="node"><title>Node2</title>
<g id="a_node2"><a xlink:href="class_i_plug_a_a_x.html" target="_top" xlink:title="AAX API base class for an IPlug plug&#45;in, inherits from IPlugBase or IPlugBaseGraphics. ">
<polygon fill="white" stroke="black" points="258.5,-228.5 258.5,-247.5 317.5,-247.5 317.5,-228.5 258.5,-228.5"/>
<text text-anchor="middle" x="288" y="-235.5" font-family="Helvetica,sans-Serif" font-size="10.00">IPlugAAX</text>
</a>
</g>
</g>
<!-- Node1&#45;&gt;Node2 -->
<g id="edge1" class="edge"><title>Node1&#45;&gt;Node2</title>
<path fill="none" stroke="midnightblue" d="M230.154,-238C240.119,-238 249.863,-238 258.39,-238"/>
<polygon fill="midnightblue" stroke="midnightblue" points="230.153,-234.5 220.153,-238 230.153,-241.5 230.153,-234.5"/>
</g>
<!-- Node3 -->
<g id="node3" class="node"><title>Node3</title>
<g id="a_node3"><a xlink:href="class_i_plug_base.html" target="_top" xlink:title="The lowest level base class of an IPlug plug&#45;in. ">
<polygon fill="white" stroke="black" points="0,-114.5 0,-133.5 62,-133.5 62,-114.5 0,-114.5"/>
<text text-anchor="middle" x="31" y="-121.5" font-family="Helvetica,sans-Serif" font-size="10.00">IPlugBase</text>
</a>
</g>
</g>
<!-- Node4 -->
<g id="node4" class="node"><title>Node4</title>
<g id="a_node4"><a xlink:href="class_i_plug_base_graphics.html" target="_top" xlink:title="An IPlugBase class for an IPlug plug&#45;in that uses IGraphics for it&#39;s UI. ">
<polygon fill="white" stroke="black" points="108.5,-114.5 108.5,-133.5 209.5,-133.5 209.5,-114.5 108.5,-114.5"/>
<text text-anchor="middle" x="159" y="-121.5" font-family="Helvetica,sans-Serif" font-size="10.00">IPlugBaseGraphics</text>
</a>
</g>
</g>
<!-- Node3&#45;&gt;Node4 -->
<g id="edge2" class="edge"><title>Node3&#45;&gt;Node4</title>
<path fill="none" stroke="midnightblue" d="M72.3365,-124C83.8069,-124 96.4337,-124 108.387,-124"/>
<polygon fill="midnightblue" stroke="midnightblue" points="72.1802,-120.5 62.1801,-124 72.1801,-127.5 72.1802,-120.5"/>
</g>
<!-- Node4&#45;&gt;Node2 -->
<g id="edge3" class="edge"><title>Node4&#45;&gt;Node2</title>
<path fill="none" stroke="midnightblue" d="M175.244,-141.342C193.345,-161.375 225.002,-194.692 256,-219 260.272,-222.35 265.172,-225.593 269.796,-228.424"/>
<polygon fill="midnightblue" stroke="midnightblue" points="177.63,-138.76 168.358,-133.635 172.41,-143.424 177.63,-138.76"/>
</g>
<!-- Node5 -->
<g id="node5" class="node"><title>Node5</title>
<g id="a_node5"><a xlink:href="class_i_plug_a_p_p.html" target="_top" xlink:title="Standalone application base class for an IPlug plug&#45;in, inherits from IPlugBase or IPlugBaseGraphics...">
<polygon fill="white" stroke="black" points="258.5,-190.5 258.5,-209.5 317.5,-209.5 317.5,-190.5 258.5,-190.5"/>
<text text-anchor="middle" x="288" y="-197.5" font-family="Helvetica,sans-Serif" font-size="10.00">IPlugAPP</text>
</a>
</g>
</g>
<!-- Node4&#45;&gt;Node5 -->
<g id="edge4" class="edge"><title>Node4&#45;&gt;Node5</title>
<path fill="none" stroke="midnightblue" d="M184.824,-138.855C210.355,-154.133 249.358,-177.474 271.046,-190.453"/>
<polygon fill="midnightblue" stroke="midnightblue" points="186.463,-135.757 176.085,-133.625 182.868,-141.764 186.463,-135.757"/>
</g>
<!-- Node6 -->
<g id="node6" class="node"><title>Node6</title>
<g id="a_node6"><a xlink:href="class_i_plug_a_u.html" target="_top" xlink:title="AudioUnit v2 API base class for an IPlug plug&#45;in, inherits from IPlugBase or IPlugBaseGraphics. ">
<polygon fill="white" stroke="black" points="261.5,-152.5 261.5,-171.5 314.5,-171.5 314.5,-152.5 261.5,-152.5"/>
<text text-anchor="middle" x="288" y="-159.5" font-family="Helvetica,sans-Serif" font-size="10.00">IPlugAU</text>
</a>
</g>
</g>
<!-- Node4&#45;&gt;Node6 -->
<g id="edge5" class="edge"><title>Node4&#45;&gt;Node6</title>
<path fill="none" stroke="midnightblue" d="M201.71,-136.48C221.395,-142.37 244.259,-149.211 261.357,-154.327"/>
<polygon fill="midnightblue" stroke="midnightblue" points="202.631,-133.103 192.047,-133.589 200.624,-139.809 202.631,-133.103"/>
</g>
<!-- Node7 -->
<g id="node7" class="node"><title>Node7</title>
<g id="a_node7"><a xlink:href="class_i_plug_a_uv3.html" target="_top" xlink:title="IPlugAUv3">
<polygon fill="white" stroke="black" points="256,-114.5 256,-133.5 320,-133.5 320,-114.5 256,-114.5"/>
<text text-anchor="middle" x="288" y="-121.5" font-family="Helvetica,sans-Serif" font-size="10.00">IPlugAUv3</text>
</a>
</g>
</g>
<!-- Node4&#45;&gt;Node7 -->
<g id="edge6" class="edge"><title>Node4&#45;&gt;Node7</title>
<path fill="none" stroke="midnightblue" d="M220.168,-124C232.573,-124 245.149,-124 255.993,-124"/>
<polygon fill="midnightblue" stroke="midnightblue" points="219.829,-120.5 209.829,-124 219.829,-127.5 219.829,-120.5"/>
</g>
<!-- Node8 -->
<g id="node8" class="node"><title>Node8</title>
<g id="a_node8"><a xlink:href="class_i_plug_v_s_t.html" target="_top" xlink:title="VST2.4 API base class for an IPlug plug&#45;in, inherits from IPlugBase or IPlugBaseGraphics. ">
<polygon fill="white" stroke="black" points="258.5,-76.5 258.5,-95.5 317.5,-95.5 317.5,-76.5 258.5,-76.5"/>
<text text-anchor="middle" x="288" y="-83.5" font-family="Helvetica,sans-Serif" font-size="10.00">IPlugVST</text>
</a>
</g>
</g>
<!-- Node4&#45;&gt;Node8 -->
<g id="edge7" class="edge"><title>Node4&#45;&gt;Node8</title>
<path fill="none" stroke="midnightblue" d="M201.745,-111.509C220.318,-105.952 241.717,-99.5493 258.429,-94.5487"/>
<polygon fill="midnightblue" stroke="midnightblue" points="200.624,-108.191 192.047,-114.411 202.631,-114.897 200.624,-108.191"/>
</g>
<!-- Node9 -->
<g id="node9" class="node"><title>Node9</title>
<g id="a_node9"><a xlink:href="class_i_plug_v_s_t3.html" target="_top" xlink:title="VST3 base class for an IPlug plug&#45;in, inherits from IPlugBase or IPlugBaseGraphics. ">
<polygon fill="white" stroke="black" points="256,-0.5 256,-19.5 320,-19.5 320,-0.5 256,-0.5"/>
<text text-anchor="middle" x="288" y="-7.5" font-family="Helvetica,sans-Serif" font-size="10.00">IPlugVST3</text>
</a>
</g>
</g>
<!-- Node4&#45;&gt;Node9 -->
<g id="edge8" class="edge"><title>Node4&#45;&gt;Node9</title>
<path fill="none" stroke="midnightblue" d="M175.244,-106.658C193.345,-86.6246 225.002,-53.3076 256,-29 260.272,-25.6502 265.172,-22.4068 269.796,-19.5764"/>
<polygon fill="midnightblue" stroke="midnightblue" points="172.41,-104.576 168.358,-114.365 177.63,-109.24 172.41,-104.576"/>
</g>
<!-- Node10 -->
<g id="node10" class="node"><title>Node10</title>
<g id="a_node10"><a xlink:href="class_i_plug_w_a_m.html" target="_top" xlink:title="Web Audio Module (WAM) API base class for an IPlug plug&#45;in, inherits from IPlugBase or IPlugBaseGraph...">
<polygon fill="white" stroke="black" points="256,-38.5 256,-57.5 320,-57.5 320,-38.5 256,-38.5"/>
<text text-anchor="middle" x="288" y="-45.5" font-family="Helvetica,sans-Serif" font-size="10.00">IPlugWAM</text>
</a>
</g>
</g>
<!-- Node4&#45;&gt;Node10 -->
<g id="edge9" class="edge"><title>Node4&#45;&gt;Node10</title>
<path fill="none" stroke="midnightblue" d="M184.824,-109.145C210.355,-93.8665 249.358,-70.5258 271.046,-57.5473"/>
<polygon fill="midnightblue" stroke="midnightblue" points="182.868,-106.236 176.085,-114.375 186.463,-112.243 182.868,-106.236"/>
</g>
<!-- Node11 -->
<g id="node11" class="node"><title>Node11</title>
<polygon fill="white" stroke="#bfbfbf" points="99,-0.5 99,-19.5 219,-19.5 219,-0.5 99,-0.5"/>
<text text-anchor="middle" x="159" y="-7.5" font-family="Helvetica,sans-Serif" font-size="10.00">SingleComponentEffect</text>
</g>
<!-- Node11&#45;&gt;Node9 -->
<g id="edge10" class="edge"><title>Node11&#45;&gt;Node9</title>
<path fill="none" stroke="midnightblue" d="M229.168,-10C238.479,-10 247.626,-10 255.8,-10"/>
<polygon fill="midnightblue" stroke="midnightblue" points="229.038,-6.5001 219.038,-10 229.038,-13.5001 229.038,-6.5001"/>
</g>
</g>
</svg>
